%TF.GenerationSoftware,KiCad,Pcbnew,7.0.7*%
%TF.CreationDate,2023-11-05T15:47:58+01:00*%
%TF.ProjectId,K_BF,4b5f4246-2e6b-4696-9361-645f70636258,rev?*%
%TF.SameCoordinates,Original*%
%TF.FileFunction,Drillmap*%
%TF.FilePolarity,Positive*%
%FSLAX45Y45*%
G04 Gerber Fmt 4.5, Leading zero omitted, Abs format (unit mm)*
G04 Created by KiCad (PCBNEW 7.0.7) date 2023-11-05 15:47:58*
%MOMM*%
%LPD*%
G01*
G04 APERTURE LIST*
%ADD10C,0.100000*%
%ADD11C,0.200000*%
%ADD12C,0.040000*%
%ADD13C,0.050000*%
%ADD14C,0.350000*%
G04 APERTURE END LIST*
D10*
X12450000Y-4100000D02*
X17450000Y-4100000D01*
X17450000Y-9100000D01*
X12450000Y-9100000D01*
X12450000Y-4100000D01*
D11*
D12*
X12980000Y-6080000D02*
X13020000Y-6120000D01*
X13020000Y-6080000D02*
X12980000Y-6120000D01*
X12980000Y-7230000D02*
X13020000Y-7270000D01*
X13020000Y-7230000D02*
X12980000Y-7270000D01*
X12980000Y-8980000D02*
X13020000Y-9020000D01*
X13020000Y-8980000D02*
X12980000Y-9020000D01*
X13480000Y-4230000D02*
X13520000Y-4270000D01*
X13520000Y-4230000D02*
X13480000Y-4270000D01*
X13480000Y-7230000D02*
X13520000Y-7270000D01*
X13520000Y-7230000D02*
X13480000Y-7270000D01*
X13480000Y-8980000D02*
X13520000Y-9020000D01*
X13520000Y-8980000D02*
X13480000Y-9020000D01*
X13980000Y-4230000D02*
X14020000Y-4270000D01*
X14020000Y-4230000D02*
X13980000Y-4270000D01*
X13980000Y-5280000D02*
X14020000Y-5320000D01*
X14020000Y-5280000D02*
X13980000Y-5320000D01*
X13980000Y-7230000D02*
X14020000Y-7270000D01*
X14020000Y-7230000D02*
X13980000Y-7270000D01*
X13980000Y-8980000D02*
X14020000Y-9020000D01*
X14020000Y-8980000D02*
X13980000Y-9020000D01*
X14330000Y-5280000D02*
X14370000Y-5320000D01*
X14370000Y-5280000D02*
X14330000Y-5320000D01*
X14365000Y-6730000D02*
X14405000Y-6770000D01*
X14405000Y-6730000D02*
X14365000Y-6770000D01*
X14380000Y-6926250D02*
X14420000Y-6966250D01*
X14420000Y-6926250D02*
X14380000Y-6966250D01*
X14480000Y-4230000D02*
X14520000Y-4270000D01*
X14520000Y-4230000D02*
X14480000Y-4270000D01*
X14480000Y-7980000D02*
X14520000Y-8020000D01*
X14520000Y-7980000D02*
X14480000Y-8020000D01*
X14480000Y-8980000D02*
X14520000Y-9020000D01*
X14520000Y-8980000D02*
X14480000Y-9020000D01*
X14980000Y-4230000D02*
X15020000Y-4270000D01*
X15020000Y-4230000D02*
X14980000Y-4270000D01*
X14980000Y-8980000D02*
X15020000Y-9020000D01*
X15020000Y-8980000D02*
X14980000Y-9020000D01*
X15480000Y-4230000D02*
X15520000Y-4270000D01*
X15520000Y-4230000D02*
X15480000Y-4270000D01*
X15480000Y-8980000D02*
X15520000Y-9020000D01*
X15520000Y-8980000D02*
X15480000Y-9020000D01*
X15980000Y-4230000D02*
X16020000Y-4270000D01*
X16020000Y-4230000D02*
X15980000Y-4270000D01*
X15980000Y-8980000D02*
X16020000Y-9020000D01*
X16020000Y-8980000D02*
X15980000Y-9020000D01*
X16480000Y-8980000D02*
X16520000Y-9020000D01*
X16520000Y-8980000D02*
X16480000Y-9020000D01*
X16855000Y-7180000D02*
X16895000Y-7220000D01*
X16895000Y-7180000D02*
X16855000Y-7220000D01*
X16980000Y-8980000D02*
X17020000Y-9020000D01*
X17020000Y-8980000D02*
X16980000Y-9020000D01*
X17230000Y-4230000D02*
X17270000Y-4270000D01*
X17270000Y-4230000D02*
X17230000Y-4270000D01*
X17280000Y-7180000D02*
X17320000Y-7220000D01*
X17320000Y-7180000D02*
X17280000Y-7220000D01*
D13*
X12762500Y-4600000D02*
G75*
G03*
X12762500Y-4600000I-25000J0D01*
G01*
X12776884Y-8614385D02*
G75*
G03*
X12776884Y-8614385I-25000J0D01*
G01*
X12839384Y-4414385D02*
G75*
G03*
X12839384Y-4414385I-25000J0D01*
G01*
X12839384Y-4785616D02*
G75*
G03*
X12839384Y-4785616I-25000J0D01*
G01*
X12853769Y-8428769D02*
G75*
G03*
X12853769Y-8428769I-25000J0D01*
G01*
X12853769Y-8800000D02*
G75*
G03*
X12853769Y-8800000I-25000J0D01*
G01*
X13025000Y-4337500D02*
G75*
G03*
X13025000Y-4337500I-25000J0D01*
G01*
X13025000Y-4862500D02*
G75*
G03*
X13025000Y-4862500I-25000J0D01*
G01*
X13039384Y-8351884D02*
G75*
G03*
X13039384Y-8351884I-25000J0D01*
G01*
X13039384Y-8876885D02*
G75*
G03*
X13039384Y-8876885I-25000J0D01*
G01*
X13210615Y-4414385D02*
G75*
G03*
X13210615Y-4414385I-25000J0D01*
G01*
X13210615Y-4785616D02*
G75*
G03*
X13210615Y-4785616I-25000J0D01*
G01*
X13225000Y-8428769D02*
G75*
G03*
X13225000Y-8428769I-25000J0D01*
G01*
X13225000Y-8800000D02*
G75*
G03*
X13225000Y-8800000I-25000J0D01*
G01*
X13287500Y-4600000D02*
G75*
G03*
X13287500Y-4600000I-25000J0D01*
G01*
X13301884Y-8614385D02*
G75*
G03*
X13301884Y-8614385I-25000J0D01*
G01*
X16462500Y-4600000D02*
G75*
G03*
X16462500Y-4600000I-25000J0D01*
G01*
X16462500Y-8600000D02*
G75*
G03*
X16462500Y-8600000I-25000J0D01*
G01*
X16539384Y-4414385D02*
G75*
G03*
X16539384Y-4414385I-25000J0D01*
G01*
X16539384Y-4785616D02*
G75*
G03*
X16539384Y-4785616I-25000J0D01*
G01*
X16539384Y-8414385D02*
G75*
G03*
X16539384Y-8414385I-25000J0D01*
G01*
X16539384Y-8785616D02*
G75*
G03*
X16539384Y-8785616I-25000J0D01*
G01*
X16725000Y-4337500D02*
G75*
G03*
X16725000Y-4337500I-25000J0D01*
G01*
X16725000Y-4862500D02*
G75*
G03*
X16725000Y-4862500I-25000J0D01*
G01*
X16725000Y-8337500D02*
G75*
G03*
X16725000Y-8337500I-25000J0D01*
G01*
X16725000Y-8862500D02*
G75*
G03*
X16725000Y-8862500I-25000J0D01*
G01*
X16910616Y-4414385D02*
G75*
G03*
X16910616Y-4414385I-25000J0D01*
G01*
X16910616Y-4785616D02*
G75*
G03*
X16910616Y-4785616I-25000J0D01*
G01*
X16910616Y-8414385D02*
G75*
G03*
X16910616Y-8414385I-25000J0D01*
G01*
X16910616Y-8785616D02*
G75*
G03*
X16910616Y-8785616I-25000J0D01*
G01*
X16987500Y-4600000D02*
G75*
G03*
X16987500Y-4600000I-25000J0D01*
G01*
X16987500Y-8600000D02*
G75*
G03*
X16987500Y-8600000I-25000J0D01*
G01*
D10*
X12800000Y-5550000D02*
X12800000Y-5650000D01*
X12750000Y-5600000D02*
X12850000Y-5600000D01*
D11*
X12750000Y-5550000D02*
X12750000Y-5650000D01*
X12750000Y-5650000D02*
G75*
G03*
X12850000Y-5650000I50000J0D01*
G01*
X12850000Y-5650000D02*
X12850000Y-5550000D01*
X12850000Y-5550000D02*
G75*
G03*
X12750000Y-5550000I-50000J0D01*
G01*
D10*
X12800000Y-6650000D02*
X12800000Y-6750000D01*
X12750000Y-6700000D02*
X12850000Y-6700000D01*
D11*
X12750000Y-6650000D02*
X12750000Y-6750000D01*
X12750000Y-6750000D02*
G75*
G03*
X12850000Y-6750000I50000J0D01*
G01*
X12850000Y-6750000D02*
X12850000Y-6650000D01*
X12850000Y-6650000D02*
G75*
G03*
X12750000Y-6650000I-50000J0D01*
G01*
D10*
X12800000Y-7750000D02*
X12800000Y-7850000D01*
X12750000Y-7800000D02*
X12850000Y-7800000D01*
D11*
X12750000Y-7750000D02*
X12750000Y-7850000D01*
X12750000Y-7850000D02*
G75*
G03*
X12850000Y-7850000I50000J0D01*
G01*
X12850000Y-7850000D02*
X12850000Y-7750000D01*
X12850000Y-7750000D02*
G75*
G03*
X12750000Y-7750000I-50000J0D01*
G01*
D10*
X13040000Y-5350000D02*
X13040000Y-5450000D01*
X12990000Y-5400000D02*
X13090000Y-5400000D01*
D11*
X12990000Y-5350000D02*
X12990000Y-5450000D01*
X12990000Y-5450000D02*
G75*
G03*
X13090000Y-5450000I50000J0D01*
G01*
X13090000Y-5450000D02*
X13090000Y-5350000D01*
X13090000Y-5350000D02*
G75*
G03*
X12990000Y-5350000I-50000J0D01*
G01*
D10*
X13040000Y-6450000D02*
X13040000Y-6550000D01*
X12990000Y-6500000D02*
X13090000Y-6500000D01*
D11*
X12990000Y-6450000D02*
X12990000Y-6550000D01*
X12990000Y-6550000D02*
G75*
G03*
X13090000Y-6550000I50000J0D01*
G01*
X13090000Y-6550000D02*
X13090000Y-6450000D01*
X13090000Y-6450000D02*
G75*
G03*
X12990000Y-6450000I-50000J0D01*
G01*
D10*
X13040000Y-7550000D02*
X13040000Y-7650000D01*
X12990000Y-7600000D02*
X13090000Y-7600000D01*
D11*
X12990000Y-7550000D02*
X12990000Y-7650000D01*
X12990000Y-7650000D02*
G75*
G03*
X13090000Y-7650000I50000J0D01*
G01*
X13090000Y-7650000D02*
X13090000Y-7550000D01*
X13090000Y-7550000D02*
G75*
G03*
X12990000Y-7550000I-50000J0D01*
G01*
D10*
X13410000Y-5550000D02*
X13410000Y-5650000D01*
X13360000Y-5600000D02*
X13460000Y-5600000D01*
D11*
X13360000Y-5550000D02*
X13360000Y-5650000D01*
X13360000Y-5650000D02*
G75*
G03*
X13460000Y-5650000I50000J0D01*
G01*
X13460000Y-5650000D02*
X13460000Y-5550000D01*
X13460000Y-5550000D02*
G75*
G03*
X13360000Y-5550000I-50000J0D01*
G01*
D10*
X13410000Y-6650000D02*
X13410000Y-6750000D01*
X13360000Y-6700000D02*
X13460000Y-6700000D01*
D11*
X13360000Y-6650000D02*
X13360000Y-6750000D01*
X13360000Y-6750000D02*
G75*
G03*
X13460000Y-6750000I50000J0D01*
G01*
X13460000Y-6750000D02*
X13460000Y-6650000D01*
X13460000Y-6650000D02*
G75*
G03*
X13360000Y-6650000I-50000J0D01*
G01*
D10*
X13410000Y-7750000D02*
X13410000Y-7850000D01*
X13360000Y-7800000D02*
X13460000Y-7800000D01*
D11*
X13360000Y-7750000D02*
X13360000Y-7850000D01*
X13360000Y-7850000D02*
G75*
G03*
X13460000Y-7850000I50000J0D01*
G01*
X13460000Y-7850000D02*
X13460000Y-7750000D01*
X13460000Y-7750000D02*
G75*
G03*
X13360000Y-7750000I-50000J0D01*
G01*
D10*
X13590000Y-5350000D02*
X13590000Y-5450000D01*
X13540000Y-5400000D02*
X13640000Y-5400000D01*
D11*
X13540000Y-5350000D02*
X13540000Y-5450000D01*
X13540000Y-5450000D02*
G75*
G03*
X13640000Y-5450000I50000J0D01*
G01*
X13640000Y-5450000D02*
X13640000Y-5350000D01*
X13640000Y-5350000D02*
G75*
G03*
X13540000Y-5350000I-50000J0D01*
G01*
D10*
X13590000Y-6450000D02*
X13590000Y-6550000D01*
X13540000Y-6500000D02*
X13640000Y-6500000D01*
D11*
X13540000Y-6450000D02*
X13540000Y-6550000D01*
X13540000Y-6550000D02*
G75*
G03*
X13640000Y-6550000I50000J0D01*
G01*
X13640000Y-6550000D02*
X13640000Y-6450000D01*
X13640000Y-6450000D02*
G75*
G03*
X13540000Y-6450000I-50000J0D01*
G01*
D10*
X13590000Y-7550000D02*
X13590000Y-7650000D01*
X13540000Y-7600000D02*
X13640000Y-7600000D01*
D11*
X13540000Y-7550000D02*
X13540000Y-7650000D01*
X13540000Y-7650000D02*
G75*
G03*
X13640000Y-7650000I50000J0D01*
G01*
X13640000Y-7650000D02*
X13640000Y-7550000D01*
X13640000Y-7550000D02*
G75*
G03*
X13540000Y-7550000I-50000J0D01*
G01*
D10*
X13960000Y-5550000D02*
X13960000Y-5650000D01*
X13910000Y-5600000D02*
X14010000Y-5600000D01*
D11*
X13910000Y-5550000D02*
X13910000Y-5650000D01*
X13910000Y-5650000D02*
G75*
G03*
X14010000Y-5650000I50000J0D01*
G01*
X14010000Y-5650000D02*
X14010000Y-5550000D01*
X14010000Y-5550000D02*
G75*
G03*
X13910000Y-5550000I-50000J0D01*
G01*
D10*
X13960000Y-6650000D02*
X13960000Y-6750000D01*
X13910000Y-6700000D02*
X14010000Y-6700000D01*
D11*
X13910000Y-6650000D02*
X13910000Y-6750000D01*
X13910000Y-6750000D02*
G75*
G03*
X14010000Y-6750000I50000J0D01*
G01*
X14010000Y-6750000D02*
X14010000Y-6650000D01*
X14010000Y-6650000D02*
G75*
G03*
X13910000Y-6650000I-50000J0D01*
G01*
D10*
X13960000Y-7750000D02*
X13960000Y-7850000D01*
X13910000Y-7800000D02*
X14010000Y-7800000D01*
D11*
X13910000Y-7750000D02*
X13910000Y-7850000D01*
X13910000Y-7850000D02*
G75*
G03*
X14010000Y-7850000I50000J0D01*
G01*
X14010000Y-7850000D02*
X14010000Y-7750000D01*
X14010000Y-7750000D02*
G75*
G03*
X13910000Y-7750000I-50000J0D01*
G01*
D10*
X14846000Y-6184000D02*
X14846000Y-6284000D01*
X14796000Y-6234000D02*
X14896000Y-6234000D01*
X14846000Y-6438000D02*
X14846000Y-6538000D01*
X14796000Y-6488000D02*
X14896000Y-6488000D01*
X14846000Y-6692000D02*
X14846000Y-6792000D01*
X14796000Y-6742000D02*
X14896000Y-6742000D01*
X14846000Y-6946000D02*
X14846000Y-7046000D01*
X14796000Y-6996000D02*
X14896000Y-6996000D01*
X14846000Y-7200000D02*
X14846000Y-7300000D01*
X14796000Y-7250000D02*
X14896000Y-7250000D01*
X15100000Y-6184000D02*
X15100000Y-6284000D01*
X15050000Y-6234000D02*
X15150000Y-6234000D01*
X15100000Y-6438000D02*
X15100000Y-6538000D01*
X15050000Y-6488000D02*
X15150000Y-6488000D01*
X15100000Y-6692000D02*
X15100000Y-6792000D01*
X15050000Y-6742000D02*
X15150000Y-6742000D01*
X15100000Y-6946000D02*
X15100000Y-7046000D01*
X15050000Y-6996000D02*
X15150000Y-6996000D01*
X15100000Y-7200000D02*
X15100000Y-7300000D01*
X15050000Y-7250000D02*
X15150000Y-7250000D01*
X15940000Y-5550000D02*
X15940000Y-5650000D01*
X15890000Y-5600000D02*
X15990000Y-5600000D01*
D11*
X15990000Y-5650000D02*
X15990000Y-5550000D01*
X15990000Y-5550000D02*
G75*
G03*
X15890000Y-5550000I-50000J0D01*
G01*
X15890000Y-5550000D02*
X15890000Y-5650000D01*
X15890000Y-5650000D02*
G75*
G03*
X15990000Y-5650000I50000J0D01*
G01*
D10*
X15940000Y-6650000D02*
X15940000Y-6750000D01*
X15890000Y-6700000D02*
X15990000Y-6700000D01*
D11*
X15990000Y-6750000D02*
X15990000Y-6650000D01*
X15990000Y-6650000D02*
G75*
G03*
X15890000Y-6650000I-50000J0D01*
G01*
X15890000Y-6650000D02*
X15890000Y-6750000D01*
X15890000Y-6750000D02*
G75*
G03*
X15990000Y-6750000I50000J0D01*
G01*
D10*
X15940000Y-7750000D02*
X15940000Y-7850000D01*
X15890000Y-7800000D02*
X15990000Y-7800000D01*
D11*
X15990000Y-7850000D02*
X15990000Y-7750000D01*
X15990000Y-7750000D02*
G75*
G03*
X15890000Y-7750000I-50000J0D01*
G01*
X15890000Y-7750000D02*
X15890000Y-7850000D01*
X15890000Y-7850000D02*
G75*
G03*
X15990000Y-7850000I50000J0D01*
G01*
D10*
X16310000Y-5750000D02*
X16310000Y-5850000D01*
X16260000Y-5800000D02*
X16360000Y-5800000D01*
D11*
X16360000Y-5850000D02*
X16360000Y-5750000D01*
X16360000Y-5750000D02*
G75*
G03*
X16260000Y-5750000I-50000J0D01*
G01*
X16260000Y-5750000D02*
X16260000Y-5850000D01*
X16260000Y-5850000D02*
G75*
G03*
X16360000Y-5850000I50000J0D01*
G01*
D10*
X16310000Y-6850000D02*
X16310000Y-6950000D01*
X16260000Y-6900000D02*
X16360000Y-6900000D01*
D11*
X16360000Y-6950000D02*
X16360000Y-6850000D01*
X16360000Y-6850000D02*
G75*
G03*
X16260000Y-6850000I-50000J0D01*
G01*
X16260000Y-6850000D02*
X16260000Y-6950000D01*
X16260000Y-6950000D02*
G75*
G03*
X16360000Y-6950000I50000J0D01*
G01*
D10*
X16310000Y-7950000D02*
X16310000Y-8050000D01*
X16260000Y-8000000D02*
X16360000Y-8000000D01*
D11*
X16360000Y-8050000D02*
X16360000Y-7950000D01*
X16360000Y-7950000D02*
G75*
G03*
X16260000Y-7950000I-50000J0D01*
G01*
X16260000Y-7950000D02*
X16260000Y-8050000D01*
X16260000Y-8050000D02*
G75*
G03*
X16360000Y-8050000I50000J0D01*
G01*
D10*
X16490000Y-5550000D02*
X16490000Y-5650000D01*
X16440000Y-5600000D02*
X16540000Y-5600000D01*
D11*
X16540000Y-5650000D02*
X16540000Y-5550000D01*
X16540000Y-5550000D02*
G75*
G03*
X16440000Y-5550000I-50000J0D01*
G01*
X16440000Y-5550000D02*
X16440000Y-5650000D01*
X16440000Y-5650000D02*
G75*
G03*
X16540000Y-5650000I50000J0D01*
G01*
D10*
X16490000Y-6650000D02*
X16490000Y-6750000D01*
X16440000Y-6700000D02*
X16540000Y-6700000D01*
D11*
X16540000Y-6750000D02*
X16540000Y-6650000D01*
X16540000Y-6650000D02*
G75*
G03*
X16440000Y-6650000I-50000J0D01*
G01*
X16440000Y-6650000D02*
X16440000Y-6750000D01*
X16440000Y-6750000D02*
G75*
G03*
X16540000Y-6750000I50000J0D01*
G01*
D10*
X16490000Y-7750000D02*
X16490000Y-7850000D01*
X16440000Y-7800000D02*
X16540000Y-7800000D01*
D11*
X16540000Y-7850000D02*
X16540000Y-7750000D01*
X16540000Y-7750000D02*
G75*
G03*
X16440000Y-7750000I-50000J0D01*
G01*
X16440000Y-7750000D02*
X16440000Y-7850000D01*
X16440000Y-7850000D02*
G75*
G03*
X16540000Y-7850000I50000J0D01*
G01*
D10*
X16860000Y-5750000D02*
X16860000Y-5850000D01*
X16810000Y-5800000D02*
X16910000Y-5800000D01*
D11*
X16910000Y-5850000D02*
X16910000Y-5750000D01*
X16910000Y-5750000D02*
G75*
G03*
X16810000Y-5750000I-50000J0D01*
G01*
X16810000Y-5750000D02*
X16810000Y-5850000D01*
X16810000Y-5850000D02*
G75*
G03*
X16910000Y-5850000I50000J0D01*
G01*
D10*
X16860000Y-6850000D02*
X16860000Y-6950000D01*
X16810000Y-6900000D02*
X16910000Y-6900000D01*
D11*
X16910000Y-6950000D02*
X16910000Y-6850000D01*
X16910000Y-6850000D02*
G75*
G03*
X16810000Y-6850000I-50000J0D01*
G01*
X16810000Y-6850000D02*
X16810000Y-6950000D01*
X16810000Y-6950000D02*
G75*
G03*
X16910000Y-6950000I50000J0D01*
G01*
D10*
X16860000Y-7950000D02*
X16860000Y-8050000D01*
X16810000Y-8000000D02*
X16910000Y-8000000D01*
D11*
X16910000Y-8050000D02*
X16910000Y-7950000D01*
X16910000Y-7950000D02*
G75*
G03*
X16810000Y-7950000I-50000J0D01*
G01*
X16810000Y-7950000D02*
X16810000Y-8050000D01*
X16810000Y-8050000D02*
G75*
G03*
X16910000Y-8050000I50000J0D01*
G01*
D10*
X17100000Y-5550000D02*
X17100000Y-5650000D01*
X17050000Y-5600000D02*
X17150000Y-5600000D01*
D11*
X17150000Y-5650000D02*
X17150000Y-5550000D01*
X17150000Y-5550000D02*
G75*
G03*
X17050000Y-5550000I-50000J0D01*
G01*
X17050000Y-5550000D02*
X17050000Y-5650000D01*
X17050000Y-5650000D02*
G75*
G03*
X17150000Y-5650000I50000J0D01*
G01*
D10*
X17100000Y-6650000D02*
X17100000Y-6750000D01*
X17050000Y-6700000D02*
X17150000Y-6700000D01*
D11*
X17150000Y-6750000D02*
X17150000Y-6650000D01*
X17150000Y-6650000D02*
G75*
G03*
X17050000Y-6650000I-50000J0D01*
G01*
X17050000Y-6650000D02*
X17050000Y-6750000D01*
X17050000Y-6750000D02*
G75*
G03*
X17150000Y-6750000I50000J0D01*
G01*
D10*
X17100000Y-7750000D02*
X17100000Y-7850000D01*
X17050000Y-7800000D02*
X17150000Y-7800000D01*
D11*
X17150000Y-7850000D02*
X17150000Y-7750000D01*
X17150000Y-7750000D02*
G75*
G03*
X17050000Y-7750000I-50000J0D01*
G01*
X17050000Y-7750000D02*
X17050000Y-7850000D01*
X17050000Y-7850000D02*
G75*
G03*
X17150000Y-7850000I50000J0D01*
G01*
D14*
X13123745Y-4723745D02*
X13123745Y-4476255D01*
X12876255Y-4476255D01*
X12876255Y-4723745D01*
X13123745Y-4723745D01*
X13123745Y-8723745D02*
X13123745Y-8476255D01*
X12876255Y-8476255D01*
X12876255Y-8723745D01*
X13123745Y-8723745D01*
X16823745Y-4723745D02*
X16823745Y-4476255D01*
X16576255Y-4476255D01*
X16576255Y-4723745D01*
X16823745Y-4723745D01*
X16823745Y-8723745D02*
X16823745Y-8476255D01*
X16576255Y-8476255D01*
X16576255Y-8723745D01*
X16823745Y-8723745D01*
D11*
X12705777Y-9416484D02*
X12705777Y-9216484D01*
X12705777Y-9216484D02*
X12753396Y-9216484D01*
X12753396Y-9216484D02*
X12781967Y-9226008D01*
X12781967Y-9226008D02*
X12801015Y-9245055D01*
X12801015Y-9245055D02*
X12810539Y-9264103D01*
X12810539Y-9264103D02*
X12820062Y-9302198D01*
X12820062Y-9302198D02*
X12820062Y-9330770D01*
X12820062Y-9330770D02*
X12810539Y-9368865D01*
X12810539Y-9368865D02*
X12801015Y-9387912D01*
X12801015Y-9387912D02*
X12781967Y-9406960D01*
X12781967Y-9406960D02*
X12753396Y-9416484D01*
X12753396Y-9416484D02*
X12705777Y-9416484D01*
X12905777Y-9416484D02*
X12905777Y-9283150D01*
X12905777Y-9321246D02*
X12915301Y-9302198D01*
X12915301Y-9302198D02*
X12924824Y-9292674D01*
X12924824Y-9292674D02*
X12943872Y-9283150D01*
X12943872Y-9283150D02*
X12962920Y-9283150D01*
X13029586Y-9416484D02*
X13029586Y-9283150D01*
X13029586Y-9216484D02*
X13020062Y-9226008D01*
X13020062Y-9226008D02*
X13029586Y-9235531D01*
X13029586Y-9235531D02*
X13039110Y-9226008D01*
X13039110Y-9226008D02*
X13029586Y-9216484D01*
X13029586Y-9216484D02*
X13029586Y-9235531D01*
X13153396Y-9416484D02*
X13134348Y-9406960D01*
X13134348Y-9406960D02*
X13124824Y-9387912D01*
X13124824Y-9387912D02*
X13124824Y-9216484D01*
X13258158Y-9416484D02*
X13239110Y-9406960D01*
X13239110Y-9406960D02*
X13229586Y-9387912D01*
X13229586Y-9387912D02*
X13229586Y-9216484D01*
X13486729Y-9416484D02*
X13486729Y-9216484D01*
X13486729Y-9216484D02*
X13553396Y-9359341D01*
X13553396Y-9359341D02*
X13620062Y-9216484D01*
X13620062Y-9216484D02*
X13620062Y-9416484D01*
X13801015Y-9416484D02*
X13801015Y-9311722D01*
X13801015Y-9311722D02*
X13791491Y-9292674D01*
X13791491Y-9292674D02*
X13772443Y-9283150D01*
X13772443Y-9283150D02*
X13734348Y-9283150D01*
X13734348Y-9283150D02*
X13715301Y-9292674D01*
X13801015Y-9406960D02*
X13781967Y-9416484D01*
X13781967Y-9416484D02*
X13734348Y-9416484D01*
X13734348Y-9416484D02*
X13715301Y-9406960D01*
X13715301Y-9406960D02*
X13705777Y-9387912D01*
X13705777Y-9387912D02*
X13705777Y-9368865D01*
X13705777Y-9368865D02*
X13715301Y-9349817D01*
X13715301Y-9349817D02*
X13734348Y-9340293D01*
X13734348Y-9340293D02*
X13781967Y-9340293D01*
X13781967Y-9340293D02*
X13801015Y-9330770D01*
X13896253Y-9283150D02*
X13896253Y-9483150D01*
X13896253Y-9292674D02*
X13915301Y-9283150D01*
X13915301Y-9283150D02*
X13953396Y-9283150D01*
X13953396Y-9283150D02*
X13972443Y-9292674D01*
X13972443Y-9292674D02*
X13981967Y-9302198D01*
X13981967Y-9302198D02*
X13991491Y-9321246D01*
X13991491Y-9321246D02*
X13991491Y-9378389D01*
X13991491Y-9378389D02*
X13981967Y-9397436D01*
X13981967Y-9397436D02*
X13972443Y-9406960D01*
X13972443Y-9406960D02*
X13953396Y-9416484D01*
X13953396Y-9416484D02*
X13915301Y-9416484D01*
X13915301Y-9416484D02*
X13896253Y-9406960D01*
X14077205Y-9397436D02*
X14086729Y-9406960D01*
X14086729Y-9406960D02*
X14077205Y-9416484D01*
X14077205Y-9416484D02*
X14067682Y-9406960D01*
X14067682Y-9406960D02*
X14077205Y-9397436D01*
X14077205Y-9397436D02*
X14077205Y-9416484D01*
X14077205Y-9292674D02*
X14086729Y-9302198D01*
X14086729Y-9302198D02*
X14077205Y-9311722D01*
X14077205Y-9311722D02*
X14067682Y-9302198D01*
X14067682Y-9302198D02*
X14077205Y-9292674D01*
X14077205Y-9292674D02*
X14077205Y-9311722D01*
D12*
X12405000Y-9725000D02*
X12445000Y-9765000D01*
X12445000Y-9725000D02*
X12405000Y-9765000D01*
D11*
X12743872Y-9636484D02*
X12762920Y-9636484D01*
X12762920Y-9636484D02*
X12781967Y-9646008D01*
X12781967Y-9646008D02*
X12791491Y-9655531D01*
X12791491Y-9655531D02*
X12801015Y-9674579D01*
X12801015Y-9674579D02*
X12810539Y-9712674D01*
X12810539Y-9712674D02*
X12810539Y-9760293D01*
X12810539Y-9760293D02*
X12801015Y-9798389D01*
X12801015Y-9798389D02*
X12791491Y-9817436D01*
X12791491Y-9817436D02*
X12781967Y-9826960D01*
X12781967Y-9826960D02*
X12762920Y-9836484D01*
X12762920Y-9836484D02*
X12743872Y-9836484D01*
X12743872Y-9836484D02*
X12724824Y-9826960D01*
X12724824Y-9826960D02*
X12715301Y-9817436D01*
X12715301Y-9817436D02*
X12705777Y-9798389D01*
X12705777Y-9798389D02*
X12696253Y-9760293D01*
X12696253Y-9760293D02*
X12696253Y-9712674D01*
X12696253Y-9712674D02*
X12705777Y-9674579D01*
X12705777Y-9674579D02*
X12715301Y-9655531D01*
X12715301Y-9655531D02*
X12724824Y-9646008D01*
X12724824Y-9646008D02*
X12743872Y-9636484D01*
X12896253Y-9817436D02*
X12905777Y-9826960D01*
X12905777Y-9826960D02*
X12896253Y-9836484D01*
X12896253Y-9836484D02*
X12886729Y-9826960D01*
X12886729Y-9826960D02*
X12896253Y-9817436D01*
X12896253Y-9817436D02*
X12896253Y-9836484D01*
X13077205Y-9703150D02*
X13077205Y-9836484D01*
X13029586Y-9626960D02*
X12981967Y-9769817D01*
X12981967Y-9769817D02*
X13105777Y-9769817D01*
X13220062Y-9636484D02*
X13239110Y-9636484D01*
X13239110Y-9636484D02*
X13258158Y-9646008D01*
X13258158Y-9646008D02*
X13267682Y-9655531D01*
X13267682Y-9655531D02*
X13277205Y-9674579D01*
X13277205Y-9674579D02*
X13286729Y-9712674D01*
X13286729Y-9712674D02*
X13286729Y-9760293D01*
X13286729Y-9760293D02*
X13277205Y-9798389D01*
X13277205Y-9798389D02*
X13267682Y-9817436D01*
X13267682Y-9817436D02*
X13258158Y-9826960D01*
X13258158Y-9826960D02*
X13239110Y-9836484D01*
X13239110Y-9836484D02*
X13220062Y-9836484D01*
X13220062Y-9836484D02*
X13201015Y-9826960D01*
X13201015Y-9826960D02*
X13191491Y-9817436D01*
X13191491Y-9817436D02*
X13181967Y-9798389D01*
X13181967Y-9798389D02*
X13172443Y-9760293D01*
X13172443Y-9760293D02*
X13172443Y-9712674D01*
X13172443Y-9712674D02*
X13181967Y-9674579D01*
X13181967Y-9674579D02*
X13191491Y-9655531D01*
X13191491Y-9655531D02*
X13201015Y-9646008D01*
X13201015Y-9646008D02*
X13220062Y-9636484D01*
X13410539Y-9636484D02*
X13429586Y-9636484D01*
X13429586Y-9636484D02*
X13448634Y-9646008D01*
X13448634Y-9646008D02*
X13458158Y-9655531D01*
X13458158Y-9655531D02*
X13467682Y-9674579D01*
X13467682Y-9674579D02*
X13477205Y-9712674D01*
X13477205Y-9712674D02*
X13477205Y-9760293D01*
X13477205Y-9760293D02*
X13467682Y-9798389D01*
X13467682Y-9798389D02*
X13458158Y-9817436D01*
X13458158Y-9817436D02*
X13448634Y-9826960D01*
X13448634Y-9826960D02*
X13429586Y-9836484D01*
X13429586Y-9836484D02*
X13410539Y-9836484D01*
X13410539Y-9836484D02*
X13391491Y-9826960D01*
X13391491Y-9826960D02*
X13381967Y-9817436D01*
X13381967Y-9817436D02*
X13372443Y-9798389D01*
X13372443Y-9798389D02*
X13362920Y-9760293D01*
X13362920Y-9760293D02*
X13362920Y-9712674D01*
X13362920Y-9712674D02*
X13372443Y-9674579D01*
X13372443Y-9674579D02*
X13381967Y-9655531D01*
X13381967Y-9655531D02*
X13391491Y-9646008D01*
X13391491Y-9646008D02*
X13410539Y-9636484D01*
X13562920Y-9836484D02*
X13562920Y-9703150D01*
X13562920Y-9722198D02*
X13572443Y-9712674D01*
X13572443Y-9712674D02*
X13591491Y-9703150D01*
X13591491Y-9703150D02*
X13620063Y-9703150D01*
X13620063Y-9703150D02*
X13639110Y-9712674D01*
X13639110Y-9712674D02*
X13648634Y-9731722D01*
X13648634Y-9731722D02*
X13648634Y-9836484D01*
X13648634Y-9731722D02*
X13658158Y-9712674D01*
X13658158Y-9712674D02*
X13677205Y-9703150D01*
X13677205Y-9703150D02*
X13705777Y-9703150D01*
X13705777Y-9703150D02*
X13724824Y-9712674D01*
X13724824Y-9712674D02*
X13734348Y-9731722D01*
X13734348Y-9731722D02*
X13734348Y-9836484D01*
X13829586Y-9836484D02*
X13829586Y-9703150D01*
X13829586Y-9722198D02*
X13839110Y-9712674D01*
X13839110Y-9712674D02*
X13858158Y-9703150D01*
X13858158Y-9703150D02*
X13886729Y-9703150D01*
X13886729Y-9703150D02*
X13905777Y-9712674D01*
X13905777Y-9712674D02*
X13915301Y-9731722D01*
X13915301Y-9731722D02*
X13915301Y-9836484D01*
X13915301Y-9731722D02*
X13924824Y-9712674D01*
X13924824Y-9712674D02*
X13943872Y-9703150D01*
X13943872Y-9703150D02*
X13972443Y-9703150D01*
X13972443Y-9703150D02*
X13991491Y-9712674D01*
X13991491Y-9712674D02*
X14001015Y-9731722D01*
X14001015Y-9731722D02*
X14001015Y-9836484D01*
X14391491Y-9626960D02*
X14220063Y-9884103D01*
X14648634Y-9636484D02*
X14667682Y-9636484D01*
X14667682Y-9636484D02*
X14686729Y-9646008D01*
X14686729Y-9646008D02*
X14696253Y-9655531D01*
X14696253Y-9655531D02*
X14705777Y-9674579D01*
X14705777Y-9674579D02*
X14715301Y-9712674D01*
X14715301Y-9712674D02*
X14715301Y-9760293D01*
X14715301Y-9760293D02*
X14705777Y-9798389D01*
X14705777Y-9798389D02*
X14696253Y-9817436D01*
X14696253Y-9817436D02*
X14686729Y-9826960D01*
X14686729Y-9826960D02*
X14667682Y-9836484D01*
X14667682Y-9836484D02*
X14648634Y-9836484D01*
X14648634Y-9836484D02*
X14629586Y-9826960D01*
X14629586Y-9826960D02*
X14620063Y-9817436D01*
X14620063Y-9817436D02*
X14610539Y-9798389D01*
X14610539Y-9798389D02*
X14601015Y-9760293D01*
X14601015Y-9760293D02*
X14601015Y-9712674D01*
X14601015Y-9712674D02*
X14610539Y-9674579D01*
X14610539Y-9674579D02*
X14620063Y-9655531D01*
X14620063Y-9655531D02*
X14629586Y-9646008D01*
X14629586Y-9646008D02*
X14648634Y-9636484D01*
X14801015Y-9817436D02*
X14810539Y-9826960D01*
X14810539Y-9826960D02*
X14801015Y-9836484D01*
X14801015Y-9836484D02*
X14791491Y-9826960D01*
X14791491Y-9826960D02*
X14801015Y-9817436D01*
X14801015Y-9817436D02*
X14801015Y-9836484D01*
X14934348Y-9636484D02*
X14953396Y-9636484D01*
X14953396Y-9636484D02*
X14972444Y-9646008D01*
X14972444Y-9646008D02*
X14981967Y-9655531D01*
X14981967Y-9655531D02*
X14991491Y-9674579D01*
X14991491Y-9674579D02*
X15001015Y-9712674D01*
X15001015Y-9712674D02*
X15001015Y-9760293D01*
X15001015Y-9760293D02*
X14991491Y-9798389D01*
X14991491Y-9798389D02*
X14981967Y-9817436D01*
X14981967Y-9817436D02*
X14972444Y-9826960D01*
X14972444Y-9826960D02*
X14953396Y-9836484D01*
X14953396Y-9836484D02*
X14934348Y-9836484D01*
X14934348Y-9836484D02*
X14915301Y-9826960D01*
X14915301Y-9826960D02*
X14905777Y-9817436D01*
X14905777Y-9817436D02*
X14896253Y-9798389D01*
X14896253Y-9798389D02*
X14886729Y-9760293D01*
X14886729Y-9760293D02*
X14886729Y-9712674D01*
X14886729Y-9712674D02*
X14896253Y-9674579D01*
X14896253Y-9674579D02*
X14905777Y-9655531D01*
X14905777Y-9655531D02*
X14915301Y-9646008D01*
X14915301Y-9646008D02*
X14934348Y-9636484D01*
X15191491Y-9836484D02*
X15077206Y-9836484D01*
X15134348Y-9836484D02*
X15134348Y-9636484D01*
X15134348Y-9636484D02*
X15115301Y-9665055D01*
X15115301Y-9665055D02*
X15096253Y-9684103D01*
X15096253Y-9684103D02*
X15077206Y-9693627D01*
X15372444Y-9636484D02*
X15277206Y-9636484D01*
X15277206Y-9636484D02*
X15267682Y-9731722D01*
X15267682Y-9731722D02*
X15277206Y-9722198D01*
X15277206Y-9722198D02*
X15296253Y-9712674D01*
X15296253Y-9712674D02*
X15343872Y-9712674D01*
X15343872Y-9712674D02*
X15362920Y-9722198D01*
X15362920Y-9722198D02*
X15372444Y-9731722D01*
X15372444Y-9731722D02*
X15381967Y-9750770D01*
X15381967Y-9750770D02*
X15381967Y-9798389D01*
X15381967Y-9798389D02*
X15372444Y-9817436D01*
X15372444Y-9817436D02*
X15362920Y-9826960D01*
X15362920Y-9826960D02*
X15343872Y-9836484D01*
X15343872Y-9836484D02*
X15296253Y-9836484D01*
X15296253Y-9836484D02*
X15277206Y-9826960D01*
X15277206Y-9826960D02*
X15267682Y-9817436D01*
X15448634Y-9636484D02*
X15581967Y-9636484D01*
X15581967Y-9636484D02*
X15496253Y-9836484D01*
X15648634Y-9636484D02*
X15648634Y-9674579D01*
X15724825Y-9636484D02*
X15724825Y-9674579D01*
X16020063Y-9912674D02*
X16010539Y-9903150D01*
X16010539Y-9903150D02*
X15991491Y-9874579D01*
X15991491Y-9874579D02*
X15981968Y-9855531D01*
X15981968Y-9855531D02*
X15972444Y-9826960D01*
X15972444Y-9826960D02*
X15962920Y-9779341D01*
X15962920Y-9779341D02*
X15962920Y-9741246D01*
X15962920Y-9741246D02*
X15972444Y-9693627D01*
X15972444Y-9693627D02*
X15981968Y-9665055D01*
X15981968Y-9665055D02*
X15991491Y-9646008D01*
X15991491Y-9646008D02*
X16010539Y-9617436D01*
X16010539Y-9617436D02*
X16020063Y-9607912D01*
X16086729Y-9655531D02*
X16096253Y-9646008D01*
X16096253Y-9646008D02*
X16115301Y-9636484D01*
X16115301Y-9636484D02*
X16162920Y-9636484D01*
X16162920Y-9636484D02*
X16181968Y-9646008D01*
X16181968Y-9646008D02*
X16191491Y-9655531D01*
X16191491Y-9655531D02*
X16201015Y-9674579D01*
X16201015Y-9674579D02*
X16201015Y-9693627D01*
X16201015Y-9693627D02*
X16191491Y-9722198D01*
X16191491Y-9722198D02*
X16077206Y-9836484D01*
X16077206Y-9836484D02*
X16201015Y-9836484D01*
X16267682Y-9636484D02*
X16401015Y-9636484D01*
X16401015Y-9636484D02*
X16315301Y-9836484D01*
X16629587Y-9836484D02*
X16629587Y-9636484D01*
X16715301Y-9836484D02*
X16715301Y-9731722D01*
X16715301Y-9731722D02*
X16705777Y-9712674D01*
X16705777Y-9712674D02*
X16686730Y-9703150D01*
X16686730Y-9703150D02*
X16658158Y-9703150D01*
X16658158Y-9703150D02*
X16639110Y-9712674D01*
X16639110Y-9712674D02*
X16629587Y-9722198D01*
X16839111Y-9836484D02*
X16820063Y-9826960D01*
X16820063Y-9826960D02*
X16810539Y-9817436D01*
X16810539Y-9817436D02*
X16801015Y-9798389D01*
X16801015Y-9798389D02*
X16801015Y-9741246D01*
X16801015Y-9741246D02*
X16810539Y-9722198D01*
X16810539Y-9722198D02*
X16820063Y-9712674D01*
X16820063Y-9712674D02*
X16839111Y-9703150D01*
X16839111Y-9703150D02*
X16867682Y-9703150D01*
X16867682Y-9703150D02*
X16886730Y-9712674D01*
X16886730Y-9712674D02*
X16896253Y-9722198D01*
X16896253Y-9722198D02*
X16905777Y-9741246D01*
X16905777Y-9741246D02*
X16905777Y-9798389D01*
X16905777Y-9798389D02*
X16896253Y-9817436D01*
X16896253Y-9817436D02*
X16886730Y-9826960D01*
X16886730Y-9826960D02*
X16867682Y-9836484D01*
X16867682Y-9836484D02*
X16839111Y-9836484D01*
X17020063Y-9836484D02*
X17001015Y-9826960D01*
X17001015Y-9826960D02*
X16991492Y-9807912D01*
X16991492Y-9807912D02*
X16991492Y-9636484D01*
X17172444Y-9826960D02*
X17153396Y-9836484D01*
X17153396Y-9836484D02*
X17115301Y-9836484D01*
X17115301Y-9836484D02*
X17096253Y-9826960D01*
X17096253Y-9826960D02*
X17086730Y-9807912D01*
X17086730Y-9807912D02*
X17086730Y-9731722D01*
X17086730Y-9731722D02*
X17096253Y-9712674D01*
X17096253Y-9712674D02*
X17115301Y-9703150D01*
X17115301Y-9703150D02*
X17153396Y-9703150D01*
X17153396Y-9703150D02*
X17172444Y-9712674D01*
X17172444Y-9712674D02*
X17181968Y-9731722D01*
X17181968Y-9731722D02*
X17181968Y-9750770D01*
X17181968Y-9750770D02*
X17086730Y-9769817D01*
X17258158Y-9826960D02*
X17277206Y-9836484D01*
X17277206Y-9836484D02*
X17315301Y-9836484D01*
X17315301Y-9836484D02*
X17334349Y-9826960D01*
X17334349Y-9826960D02*
X17343873Y-9807912D01*
X17343873Y-9807912D02*
X17343873Y-9798389D01*
X17343873Y-9798389D02*
X17334349Y-9779341D01*
X17334349Y-9779341D02*
X17315301Y-9769817D01*
X17315301Y-9769817D02*
X17286730Y-9769817D01*
X17286730Y-9769817D02*
X17267682Y-9760293D01*
X17267682Y-9760293D02*
X17258158Y-9741246D01*
X17258158Y-9741246D02*
X17258158Y-9731722D01*
X17258158Y-9731722D02*
X17267682Y-9712674D01*
X17267682Y-9712674D02*
X17286730Y-9703150D01*
X17286730Y-9703150D02*
X17315301Y-9703150D01*
X17315301Y-9703150D02*
X17334349Y-9712674D01*
X17410539Y-9912674D02*
X17420063Y-9903150D01*
X17420063Y-9903150D02*
X17439111Y-9874579D01*
X17439111Y-9874579D02*
X17448634Y-9855531D01*
X17448634Y-9855531D02*
X17458158Y-9826960D01*
X17458158Y-9826960D02*
X17467682Y-9779341D01*
X17467682Y-9779341D02*
X17467682Y-9741246D01*
X17467682Y-9741246D02*
X17458158Y-9693627D01*
X17458158Y-9693627D02*
X17448634Y-9665055D01*
X17448634Y-9665055D02*
X17439111Y-9646008D01*
X17439111Y-9646008D02*
X17420063Y-9617436D01*
X17420063Y-9617436D02*
X17410539Y-9607912D01*
D13*
X12445000Y-10009000D02*
G75*
G03*
X12445000Y-10009000I-25000J0D01*
G01*
D11*
X12743872Y-9900484D02*
X12762920Y-9900484D01*
X12762920Y-9900484D02*
X12781967Y-9910008D01*
X12781967Y-9910008D02*
X12791491Y-9919531D01*
X12791491Y-9919531D02*
X12801015Y-9938579D01*
X12801015Y-9938579D02*
X12810539Y-9976674D01*
X12810539Y-9976674D02*
X12810539Y-10024293D01*
X12810539Y-10024293D02*
X12801015Y-10062389D01*
X12801015Y-10062389D02*
X12791491Y-10081436D01*
X12791491Y-10081436D02*
X12781967Y-10090960D01*
X12781967Y-10090960D02*
X12762920Y-10100484D01*
X12762920Y-10100484D02*
X12743872Y-10100484D01*
X12743872Y-10100484D02*
X12724824Y-10090960D01*
X12724824Y-10090960D02*
X12715301Y-10081436D01*
X12715301Y-10081436D02*
X12705777Y-10062389D01*
X12705777Y-10062389D02*
X12696253Y-10024293D01*
X12696253Y-10024293D02*
X12696253Y-9976674D01*
X12696253Y-9976674D02*
X12705777Y-9938579D01*
X12705777Y-9938579D02*
X12715301Y-9919531D01*
X12715301Y-9919531D02*
X12724824Y-9910008D01*
X12724824Y-9910008D02*
X12743872Y-9900484D01*
X12896253Y-10081436D02*
X12905777Y-10090960D01*
X12905777Y-10090960D02*
X12896253Y-10100484D01*
X12896253Y-10100484D02*
X12886729Y-10090960D01*
X12886729Y-10090960D02*
X12896253Y-10081436D01*
X12896253Y-10081436D02*
X12896253Y-10100484D01*
X13086729Y-9900484D02*
X12991491Y-9900484D01*
X12991491Y-9900484D02*
X12981967Y-9995722D01*
X12981967Y-9995722D02*
X12991491Y-9986198D01*
X12991491Y-9986198D02*
X13010539Y-9976674D01*
X13010539Y-9976674D02*
X13058158Y-9976674D01*
X13058158Y-9976674D02*
X13077205Y-9986198D01*
X13077205Y-9986198D02*
X13086729Y-9995722D01*
X13086729Y-9995722D02*
X13096253Y-10014770D01*
X13096253Y-10014770D02*
X13096253Y-10062389D01*
X13096253Y-10062389D02*
X13086729Y-10081436D01*
X13086729Y-10081436D02*
X13077205Y-10090960D01*
X13077205Y-10090960D02*
X13058158Y-10100484D01*
X13058158Y-10100484D02*
X13010539Y-10100484D01*
X13010539Y-10100484D02*
X12991491Y-10090960D01*
X12991491Y-10090960D02*
X12981967Y-10081436D01*
X13220062Y-9900484D02*
X13239110Y-9900484D01*
X13239110Y-9900484D02*
X13258158Y-9910008D01*
X13258158Y-9910008D02*
X13267682Y-9919531D01*
X13267682Y-9919531D02*
X13277205Y-9938579D01*
X13277205Y-9938579D02*
X13286729Y-9976674D01*
X13286729Y-9976674D02*
X13286729Y-10024293D01*
X13286729Y-10024293D02*
X13277205Y-10062389D01*
X13277205Y-10062389D02*
X13267682Y-10081436D01*
X13267682Y-10081436D02*
X13258158Y-10090960D01*
X13258158Y-10090960D02*
X13239110Y-10100484D01*
X13239110Y-10100484D02*
X13220062Y-10100484D01*
X13220062Y-10100484D02*
X13201015Y-10090960D01*
X13201015Y-10090960D02*
X13191491Y-10081436D01*
X13191491Y-10081436D02*
X13181967Y-10062389D01*
X13181967Y-10062389D02*
X13172443Y-10024293D01*
X13172443Y-10024293D02*
X13172443Y-9976674D01*
X13172443Y-9976674D02*
X13181967Y-9938579D01*
X13181967Y-9938579D02*
X13191491Y-9919531D01*
X13191491Y-9919531D02*
X13201015Y-9910008D01*
X13201015Y-9910008D02*
X13220062Y-9900484D01*
X13410539Y-9900484D02*
X13429586Y-9900484D01*
X13429586Y-9900484D02*
X13448634Y-9910008D01*
X13448634Y-9910008D02*
X13458158Y-9919531D01*
X13458158Y-9919531D02*
X13467682Y-9938579D01*
X13467682Y-9938579D02*
X13477205Y-9976674D01*
X13477205Y-9976674D02*
X13477205Y-10024293D01*
X13477205Y-10024293D02*
X13467682Y-10062389D01*
X13467682Y-10062389D02*
X13458158Y-10081436D01*
X13458158Y-10081436D02*
X13448634Y-10090960D01*
X13448634Y-10090960D02*
X13429586Y-10100484D01*
X13429586Y-10100484D02*
X13410539Y-10100484D01*
X13410539Y-10100484D02*
X13391491Y-10090960D01*
X13391491Y-10090960D02*
X13381967Y-10081436D01*
X13381967Y-10081436D02*
X13372443Y-10062389D01*
X13372443Y-10062389D02*
X13362920Y-10024293D01*
X13362920Y-10024293D02*
X13362920Y-9976674D01*
X13362920Y-9976674D02*
X13372443Y-9938579D01*
X13372443Y-9938579D02*
X13381967Y-9919531D01*
X13381967Y-9919531D02*
X13391491Y-9910008D01*
X13391491Y-9910008D02*
X13410539Y-9900484D01*
X13562920Y-10100484D02*
X13562920Y-9967150D01*
X13562920Y-9986198D02*
X13572443Y-9976674D01*
X13572443Y-9976674D02*
X13591491Y-9967150D01*
X13591491Y-9967150D02*
X13620063Y-9967150D01*
X13620063Y-9967150D02*
X13639110Y-9976674D01*
X13639110Y-9976674D02*
X13648634Y-9995722D01*
X13648634Y-9995722D02*
X13648634Y-10100484D01*
X13648634Y-9995722D02*
X13658158Y-9976674D01*
X13658158Y-9976674D02*
X13677205Y-9967150D01*
X13677205Y-9967150D02*
X13705777Y-9967150D01*
X13705777Y-9967150D02*
X13724824Y-9976674D01*
X13724824Y-9976674D02*
X13734348Y-9995722D01*
X13734348Y-9995722D02*
X13734348Y-10100484D01*
X13829586Y-10100484D02*
X13829586Y-9967150D01*
X13829586Y-9986198D02*
X13839110Y-9976674D01*
X13839110Y-9976674D02*
X13858158Y-9967150D01*
X13858158Y-9967150D02*
X13886729Y-9967150D01*
X13886729Y-9967150D02*
X13905777Y-9976674D01*
X13905777Y-9976674D02*
X13915301Y-9995722D01*
X13915301Y-9995722D02*
X13915301Y-10100484D01*
X13915301Y-9995722D02*
X13924824Y-9976674D01*
X13924824Y-9976674D02*
X13943872Y-9967150D01*
X13943872Y-9967150D02*
X13972443Y-9967150D01*
X13972443Y-9967150D02*
X13991491Y-9976674D01*
X13991491Y-9976674D02*
X14001015Y-9995722D01*
X14001015Y-9995722D02*
X14001015Y-10100484D01*
X14391491Y-9890960D02*
X14220063Y-10148103D01*
X14648634Y-9900484D02*
X14667682Y-9900484D01*
X14667682Y-9900484D02*
X14686729Y-9910008D01*
X14686729Y-9910008D02*
X14696253Y-9919531D01*
X14696253Y-9919531D02*
X14705777Y-9938579D01*
X14705777Y-9938579D02*
X14715301Y-9976674D01*
X14715301Y-9976674D02*
X14715301Y-10024293D01*
X14715301Y-10024293D02*
X14705777Y-10062389D01*
X14705777Y-10062389D02*
X14696253Y-10081436D01*
X14696253Y-10081436D02*
X14686729Y-10090960D01*
X14686729Y-10090960D02*
X14667682Y-10100484D01*
X14667682Y-10100484D02*
X14648634Y-10100484D01*
X14648634Y-10100484D02*
X14629586Y-10090960D01*
X14629586Y-10090960D02*
X14620063Y-10081436D01*
X14620063Y-10081436D02*
X14610539Y-10062389D01*
X14610539Y-10062389D02*
X14601015Y-10024293D01*
X14601015Y-10024293D02*
X14601015Y-9976674D01*
X14601015Y-9976674D02*
X14610539Y-9938579D01*
X14610539Y-9938579D02*
X14620063Y-9919531D01*
X14620063Y-9919531D02*
X14629586Y-9910008D01*
X14629586Y-9910008D02*
X14648634Y-9900484D01*
X14801015Y-10081436D02*
X14810539Y-10090960D01*
X14810539Y-10090960D02*
X14801015Y-10100484D01*
X14801015Y-10100484D02*
X14791491Y-10090960D01*
X14791491Y-10090960D02*
X14801015Y-10081436D01*
X14801015Y-10081436D02*
X14801015Y-10100484D01*
X14934348Y-9900484D02*
X14953396Y-9900484D01*
X14953396Y-9900484D02*
X14972444Y-9910008D01*
X14972444Y-9910008D02*
X14981967Y-9919531D01*
X14981967Y-9919531D02*
X14991491Y-9938579D01*
X14991491Y-9938579D02*
X15001015Y-9976674D01*
X15001015Y-9976674D02*
X15001015Y-10024293D01*
X15001015Y-10024293D02*
X14991491Y-10062389D01*
X14991491Y-10062389D02*
X14981967Y-10081436D01*
X14981967Y-10081436D02*
X14972444Y-10090960D01*
X14972444Y-10090960D02*
X14953396Y-10100484D01*
X14953396Y-10100484D02*
X14934348Y-10100484D01*
X14934348Y-10100484D02*
X14915301Y-10090960D01*
X14915301Y-10090960D02*
X14905777Y-10081436D01*
X14905777Y-10081436D02*
X14896253Y-10062389D01*
X14896253Y-10062389D02*
X14886729Y-10024293D01*
X14886729Y-10024293D02*
X14886729Y-9976674D01*
X14886729Y-9976674D02*
X14896253Y-9938579D01*
X14896253Y-9938579D02*
X14905777Y-9919531D01*
X14905777Y-9919531D02*
X14915301Y-9910008D01*
X14915301Y-9910008D02*
X14934348Y-9900484D01*
X15191491Y-10100484D02*
X15077206Y-10100484D01*
X15134348Y-10100484D02*
X15134348Y-9900484D01*
X15134348Y-9900484D02*
X15115301Y-9929055D01*
X15115301Y-9929055D02*
X15096253Y-9948103D01*
X15096253Y-9948103D02*
X15077206Y-9957627D01*
X15286729Y-10100484D02*
X15324825Y-10100484D01*
X15324825Y-10100484D02*
X15343872Y-10090960D01*
X15343872Y-10090960D02*
X15353396Y-10081436D01*
X15353396Y-10081436D02*
X15372444Y-10052865D01*
X15372444Y-10052865D02*
X15381967Y-10014770D01*
X15381967Y-10014770D02*
X15381967Y-9938579D01*
X15381967Y-9938579D02*
X15372444Y-9919531D01*
X15372444Y-9919531D02*
X15362920Y-9910008D01*
X15362920Y-9910008D02*
X15343872Y-9900484D01*
X15343872Y-9900484D02*
X15305777Y-9900484D01*
X15305777Y-9900484D02*
X15286729Y-9910008D01*
X15286729Y-9910008D02*
X15277206Y-9919531D01*
X15277206Y-9919531D02*
X15267682Y-9938579D01*
X15267682Y-9938579D02*
X15267682Y-9986198D01*
X15267682Y-9986198D02*
X15277206Y-10005246D01*
X15277206Y-10005246D02*
X15286729Y-10014770D01*
X15286729Y-10014770D02*
X15305777Y-10024293D01*
X15305777Y-10024293D02*
X15343872Y-10024293D01*
X15343872Y-10024293D02*
X15362920Y-10014770D01*
X15362920Y-10014770D02*
X15372444Y-10005246D01*
X15372444Y-10005246D02*
X15381967Y-9986198D01*
X15448634Y-9900484D02*
X15581967Y-9900484D01*
X15581967Y-9900484D02*
X15496253Y-10100484D01*
X15648634Y-9900484D02*
X15648634Y-9938579D01*
X15724825Y-9900484D02*
X15724825Y-9938579D01*
X16020063Y-10176674D02*
X16010539Y-10167150D01*
X16010539Y-10167150D02*
X15991491Y-10138579D01*
X15991491Y-10138579D02*
X15981968Y-10119531D01*
X15981968Y-10119531D02*
X15972444Y-10090960D01*
X15972444Y-10090960D02*
X15962920Y-10043341D01*
X15962920Y-10043341D02*
X15962920Y-10005246D01*
X15962920Y-10005246D02*
X15972444Y-9957627D01*
X15972444Y-9957627D02*
X15981968Y-9929055D01*
X15981968Y-9929055D02*
X15991491Y-9910008D01*
X15991491Y-9910008D02*
X16010539Y-9881436D01*
X16010539Y-9881436D02*
X16020063Y-9871912D01*
X16077206Y-9900484D02*
X16201015Y-9900484D01*
X16201015Y-9900484D02*
X16134348Y-9976674D01*
X16134348Y-9976674D02*
X16162920Y-9976674D01*
X16162920Y-9976674D02*
X16181968Y-9986198D01*
X16181968Y-9986198D02*
X16191491Y-9995722D01*
X16191491Y-9995722D02*
X16201015Y-10014770D01*
X16201015Y-10014770D02*
X16201015Y-10062389D01*
X16201015Y-10062389D02*
X16191491Y-10081436D01*
X16191491Y-10081436D02*
X16181968Y-10090960D01*
X16181968Y-10090960D02*
X16162920Y-10100484D01*
X16162920Y-10100484D02*
X16105777Y-10100484D01*
X16105777Y-10100484D02*
X16086729Y-10090960D01*
X16086729Y-10090960D02*
X16077206Y-10081436D01*
X16277206Y-9919531D02*
X16286729Y-9910008D01*
X16286729Y-9910008D02*
X16305777Y-9900484D01*
X16305777Y-9900484D02*
X16353396Y-9900484D01*
X16353396Y-9900484D02*
X16372444Y-9910008D01*
X16372444Y-9910008D02*
X16381968Y-9919531D01*
X16381968Y-9919531D02*
X16391491Y-9938579D01*
X16391491Y-9938579D02*
X16391491Y-9957627D01*
X16391491Y-9957627D02*
X16381968Y-9986198D01*
X16381968Y-9986198D02*
X16267682Y-10100484D01*
X16267682Y-10100484D02*
X16391491Y-10100484D01*
X16629587Y-10100484D02*
X16629587Y-9900484D01*
X16715301Y-10100484D02*
X16715301Y-9995722D01*
X16715301Y-9995722D02*
X16705777Y-9976674D01*
X16705777Y-9976674D02*
X16686730Y-9967150D01*
X16686730Y-9967150D02*
X16658158Y-9967150D01*
X16658158Y-9967150D02*
X16639110Y-9976674D01*
X16639110Y-9976674D02*
X16629587Y-9986198D01*
X16839111Y-10100484D02*
X16820063Y-10090960D01*
X16820063Y-10090960D02*
X16810539Y-10081436D01*
X16810539Y-10081436D02*
X16801015Y-10062389D01*
X16801015Y-10062389D02*
X16801015Y-10005246D01*
X16801015Y-10005246D02*
X16810539Y-9986198D01*
X16810539Y-9986198D02*
X16820063Y-9976674D01*
X16820063Y-9976674D02*
X16839111Y-9967150D01*
X16839111Y-9967150D02*
X16867682Y-9967150D01*
X16867682Y-9967150D02*
X16886730Y-9976674D01*
X16886730Y-9976674D02*
X16896253Y-9986198D01*
X16896253Y-9986198D02*
X16905777Y-10005246D01*
X16905777Y-10005246D02*
X16905777Y-10062389D01*
X16905777Y-10062389D02*
X16896253Y-10081436D01*
X16896253Y-10081436D02*
X16886730Y-10090960D01*
X16886730Y-10090960D02*
X16867682Y-10100484D01*
X16867682Y-10100484D02*
X16839111Y-10100484D01*
X17020063Y-10100484D02*
X17001015Y-10090960D01*
X17001015Y-10090960D02*
X16991492Y-10071912D01*
X16991492Y-10071912D02*
X16991492Y-9900484D01*
X17172444Y-10090960D02*
X17153396Y-10100484D01*
X17153396Y-10100484D02*
X17115301Y-10100484D01*
X17115301Y-10100484D02*
X17096253Y-10090960D01*
X17096253Y-10090960D02*
X17086730Y-10071912D01*
X17086730Y-10071912D02*
X17086730Y-9995722D01*
X17086730Y-9995722D02*
X17096253Y-9976674D01*
X17096253Y-9976674D02*
X17115301Y-9967150D01*
X17115301Y-9967150D02*
X17153396Y-9967150D01*
X17153396Y-9967150D02*
X17172444Y-9976674D01*
X17172444Y-9976674D02*
X17181968Y-9995722D01*
X17181968Y-9995722D02*
X17181968Y-10014770D01*
X17181968Y-10014770D02*
X17086730Y-10033817D01*
X17258158Y-10090960D02*
X17277206Y-10100484D01*
X17277206Y-10100484D02*
X17315301Y-10100484D01*
X17315301Y-10100484D02*
X17334349Y-10090960D01*
X17334349Y-10090960D02*
X17343873Y-10071912D01*
X17343873Y-10071912D02*
X17343873Y-10062389D01*
X17343873Y-10062389D02*
X17334349Y-10043341D01*
X17334349Y-10043341D02*
X17315301Y-10033817D01*
X17315301Y-10033817D02*
X17286730Y-10033817D01*
X17286730Y-10033817D02*
X17267682Y-10024293D01*
X17267682Y-10024293D02*
X17258158Y-10005246D01*
X17258158Y-10005246D02*
X17258158Y-9995722D01*
X17258158Y-9995722D02*
X17267682Y-9976674D01*
X17267682Y-9976674D02*
X17286730Y-9967150D01*
X17286730Y-9967150D02*
X17315301Y-9967150D01*
X17315301Y-9967150D02*
X17334349Y-9976674D01*
X17410539Y-10176674D02*
X17420063Y-10167150D01*
X17420063Y-10167150D02*
X17439111Y-10138579D01*
X17439111Y-10138579D02*
X17448634Y-10119531D01*
X17448634Y-10119531D02*
X17458158Y-10090960D01*
X17458158Y-10090960D02*
X17467682Y-10043341D01*
X17467682Y-10043341D02*
X17467682Y-10005246D01*
X17467682Y-10005246D02*
X17458158Y-9957627D01*
X17458158Y-9957627D02*
X17448634Y-9929055D01*
X17448634Y-9929055D02*
X17439111Y-9910008D01*
X17439111Y-9910008D02*
X17420063Y-9881436D01*
X17420063Y-9881436D02*
X17410539Y-9871912D01*
D10*
X12395000Y-10223000D02*
X12395000Y-10323000D01*
X12345000Y-10273000D02*
X12445000Y-10273000D01*
D11*
X12810539Y-10364484D02*
X12696253Y-10364484D01*
X12753396Y-10364484D02*
X12753396Y-10164484D01*
X12753396Y-10164484D02*
X12734348Y-10193055D01*
X12734348Y-10193055D02*
X12715301Y-10212103D01*
X12715301Y-10212103D02*
X12696253Y-10221627D01*
X12896253Y-10345436D02*
X12905777Y-10354960D01*
X12905777Y-10354960D02*
X12896253Y-10364484D01*
X12896253Y-10364484D02*
X12886729Y-10354960D01*
X12886729Y-10354960D02*
X12896253Y-10345436D01*
X12896253Y-10345436D02*
X12896253Y-10364484D01*
X13029586Y-10164484D02*
X13048634Y-10164484D01*
X13048634Y-10164484D02*
X13067682Y-10174008D01*
X13067682Y-10174008D02*
X13077205Y-10183531D01*
X13077205Y-10183531D02*
X13086729Y-10202579D01*
X13086729Y-10202579D02*
X13096253Y-10240674D01*
X13096253Y-10240674D02*
X13096253Y-10288293D01*
X13096253Y-10288293D02*
X13086729Y-10326389D01*
X13086729Y-10326389D02*
X13077205Y-10345436D01*
X13077205Y-10345436D02*
X13067682Y-10354960D01*
X13067682Y-10354960D02*
X13048634Y-10364484D01*
X13048634Y-10364484D02*
X13029586Y-10364484D01*
X13029586Y-10364484D02*
X13010539Y-10354960D01*
X13010539Y-10354960D02*
X13001015Y-10345436D01*
X13001015Y-10345436D02*
X12991491Y-10326389D01*
X12991491Y-10326389D02*
X12981967Y-10288293D01*
X12981967Y-10288293D02*
X12981967Y-10240674D01*
X12981967Y-10240674D02*
X12991491Y-10202579D01*
X12991491Y-10202579D02*
X13001015Y-10183531D01*
X13001015Y-10183531D02*
X13010539Y-10174008D01*
X13010539Y-10174008D02*
X13029586Y-10164484D01*
X13220062Y-10164484D02*
X13239110Y-10164484D01*
X13239110Y-10164484D02*
X13258158Y-10174008D01*
X13258158Y-10174008D02*
X13267682Y-10183531D01*
X13267682Y-10183531D02*
X13277205Y-10202579D01*
X13277205Y-10202579D02*
X13286729Y-10240674D01*
X13286729Y-10240674D02*
X13286729Y-10288293D01*
X13286729Y-10288293D02*
X13277205Y-10326389D01*
X13277205Y-10326389D02*
X13267682Y-10345436D01*
X13267682Y-10345436D02*
X13258158Y-10354960D01*
X13258158Y-10354960D02*
X13239110Y-10364484D01*
X13239110Y-10364484D02*
X13220062Y-10364484D01*
X13220062Y-10364484D02*
X13201015Y-10354960D01*
X13201015Y-10354960D02*
X13191491Y-10345436D01*
X13191491Y-10345436D02*
X13181967Y-10326389D01*
X13181967Y-10326389D02*
X13172443Y-10288293D01*
X13172443Y-10288293D02*
X13172443Y-10240674D01*
X13172443Y-10240674D02*
X13181967Y-10202579D01*
X13181967Y-10202579D02*
X13191491Y-10183531D01*
X13191491Y-10183531D02*
X13201015Y-10174008D01*
X13201015Y-10174008D02*
X13220062Y-10164484D01*
X13410539Y-10164484D02*
X13429586Y-10164484D01*
X13429586Y-10164484D02*
X13448634Y-10174008D01*
X13448634Y-10174008D02*
X13458158Y-10183531D01*
X13458158Y-10183531D02*
X13467682Y-10202579D01*
X13467682Y-10202579D02*
X13477205Y-10240674D01*
X13477205Y-10240674D02*
X13477205Y-10288293D01*
X13477205Y-10288293D02*
X13467682Y-10326389D01*
X13467682Y-10326389D02*
X13458158Y-10345436D01*
X13458158Y-10345436D02*
X13448634Y-10354960D01*
X13448634Y-10354960D02*
X13429586Y-10364484D01*
X13429586Y-10364484D02*
X13410539Y-10364484D01*
X13410539Y-10364484D02*
X13391491Y-10354960D01*
X13391491Y-10354960D02*
X13381967Y-10345436D01*
X13381967Y-10345436D02*
X13372443Y-10326389D01*
X13372443Y-10326389D02*
X13362920Y-10288293D01*
X13362920Y-10288293D02*
X13362920Y-10240674D01*
X13362920Y-10240674D02*
X13372443Y-10202579D01*
X13372443Y-10202579D02*
X13381967Y-10183531D01*
X13381967Y-10183531D02*
X13391491Y-10174008D01*
X13391491Y-10174008D02*
X13410539Y-10164484D01*
X13562920Y-10364484D02*
X13562920Y-10231150D01*
X13562920Y-10250198D02*
X13572443Y-10240674D01*
X13572443Y-10240674D02*
X13591491Y-10231150D01*
X13591491Y-10231150D02*
X13620063Y-10231150D01*
X13620063Y-10231150D02*
X13639110Y-10240674D01*
X13639110Y-10240674D02*
X13648634Y-10259722D01*
X13648634Y-10259722D02*
X13648634Y-10364484D01*
X13648634Y-10259722D02*
X13658158Y-10240674D01*
X13658158Y-10240674D02*
X13677205Y-10231150D01*
X13677205Y-10231150D02*
X13705777Y-10231150D01*
X13705777Y-10231150D02*
X13724824Y-10240674D01*
X13724824Y-10240674D02*
X13734348Y-10259722D01*
X13734348Y-10259722D02*
X13734348Y-10364484D01*
X13829586Y-10364484D02*
X13829586Y-10231150D01*
X13829586Y-10250198D02*
X13839110Y-10240674D01*
X13839110Y-10240674D02*
X13858158Y-10231150D01*
X13858158Y-10231150D02*
X13886729Y-10231150D01*
X13886729Y-10231150D02*
X13905777Y-10240674D01*
X13905777Y-10240674D02*
X13915301Y-10259722D01*
X13915301Y-10259722D02*
X13915301Y-10364484D01*
X13915301Y-10259722D02*
X13924824Y-10240674D01*
X13924824Y-10240674D02*
X13943872Y-10231150D01*
X13943872Y-10231150D02*
X13972443Y-10231150D01*
X13972443Y-10231150D02*
X13991491Y-10240674D01*
X13991491Y-10240674D02*
X14001015Y-10259722D01*
X14001015Y-10259722D02*
X14001015Y-10364484D01*
X14391491Y-10154960D02*
X14220063Y-10412103D01*
X14648634Y-10164484D02*
X14667682Y-10164484D01*
X14667682Y-10164484D02*
X14686729Y-10174008D01*
X14686729Y-10174008D02*
X14696253Y-10183531D01*
X14696253Y-10183531D02*
X14705777Y-10202579D01*
X14705777Y-10202579D02*
X14715301Y-10240674D01*
X14715301Y-10240674D02*
X14715301Y-10288293D01*
X14715301Y-10288293D02*
X14705777Y-10326389D01*
X14705777Y-10326389D02*
X14696253Y-10345436D01*
X14696253Y-10345436D02*
X14686729Y-10354960D01*
X14686729Y-10354960D02*
X14667682Y-10364484D01*
X14667682Y-10364484D02*
X14648634Y-10364484D01*
X14648634Y-10364484D02*
X14629586Y-10354960D01*
X14629586Y-10354960D02*
X14620063Y-10345436D01*
X14620063Y-10345436D02*
X14610539Y-10326389D01*
X14610539Y-10326389D02*
X14601015Y-10288293D01*
X14601015Y-10288293D02*
X14601015Y-10240674D01*
X14601015Y-10240674D02*
X14610539Y-10202579D01*
X14610539Y-10202579D02*
X14620063Y-10183531D01*
X14620063Y-10183531D02*
X14629586Y-10174008D01*
X14629586Y-10174008D02*
X14648634Y-10164484D01*
X14801015Y-10345436D02*
X14810539Y-10354960D01*
X14810539Y-10354960D02*
X14801015Y-10364484D01*
X14801015Y-10364484D02*
X14791491Y-10354960D01*
X14791491Y-10354960D02*
X14801015Y-10345436D01*
X14801015Y-10345436D02*
X14801015Y-10364484D01*
X14934348Y-10164484D02*
X14953396Y-10164484D01*
X14953396Y-10164484D02*
X14972444Y-10174008D01*
X14972444Y-10174008D02*
X14981967Y-10183531D01*
X14981967Y-10183531D02*
X14991491Y-10202579D01*
X14991491Y-10202579D02*
X15001015Y-10240674D01*
X15001015Y-10240674D02*
X15001015Y-10288293D01*
X15001015Y-10288293D02*
X14991491Y-10326389D01*
X14991491Y-10326389D02*
X14981967Y-10345436D01*
X14981967Y-10345436D02*
X14972444Y-10354960D01*
X14972444Y-10354960D02*
X14953396Y-10364484D01*
X14953396Y-10364484D02*
X14934348Y-10364484D01*
X14934348Y-10364484D02*
X14915301Y-10354960D01*
X14915301Y-10354960D02*
X14905777Y-10345436D01*
X14905777Y-10345436D02*
X14896253Y-10326389D01*
X14896253Y-10326389D02*
X14886729Y-10288293D01*
X14886729Y-10288293D02*
X14886729Y-10240674D01*
X14886729Y-10240674D02*
X14896253Y-10202579D01*
X14896253Y-10202579D02*
X14905777Y-10183531D01*
X14905777Y-10183531D02*
X14915301Y-10174008D01*
X14915301Y-10174008D02*
X14934348Y-10164484D01*
X15067682Y-10164484D02*
X15191491Y-10164484D01*
X15191491Y-10164484D02*
X15124825Y-10240674D01*
X15124825Y-10240674D02*
X15153396Y-10240674D01*
X15153396Y-10240674D02*
X15172444Y-10250198D01*
X15172444Y-10250198D02*
X15181967Y-10259722D01*
X15181967Y-10259722D02*
X15191491Y-10278770D01*
X15191491Y-10278770D02*
X15191491Y-10326389D01*
X15191491Y-10326389D02*
X15181967Y-10345436D01*
X15181967Y-10345436D02*
X15172444Y-10354960D01*
X15172444Y-10354960D02*
X15153396Y-10364484D01*
X15153396Y-10364484D02*
X15096253Y-10364484D01*
X15096253Y-10364484D02*
X15077206Y-10354960D01*
X15077206Y-10354960D02*
X15067682Y-10345436D01*
X15286729Y-10364484D02*
X15324825Y-10364484D01*
X15324825Y-10364484D02*
X15343872Y-10354960D01*
X15343872Y-10354960D02*
X15353396Y-10345436D01*
X15353396Y-10345436D02*
X15372444Y-10316865D01*
X15372444Y-10316865D02*
X15381967Y-10278770D01*
X15381967Y-10278770D02*
X15381967Y-10202579D01*
X15381967Y-10202579D02*
X15372444Y-10183531D01*
X15372444Y-10183531D02*
X15362920Y-10174008D01*
X15362920Y-10174008D02*
X15343872Y-10164484D01*
X15343872Y-10164484D02*
X15305777Y-10164484D01*
X15305777Y-10164484D02*
X15286729Y-10174008D01*
X15286729Y-10174008D02*
X15277206Y-10183531D01*
X15277206Y-10183531D02*
X15267682Y-10202579D01*
X15267682Y-10202579D02*
X15267682Y-10250198D01*
X15267682Y-10250198D02*
X15277206Y-10269246D01*
X15277206Y-10269246D02*
X15286729Y-10278770D01*
X15286729Y-10278770D02*
X15305777Y-10288293D01*
X15305777Y-10288293D02*
X15343872Y-10288293D01*
X15343872Y-10288293D02*
X15362920Y-10278770D01*
X15362920Y-10278770D02*
X15372444Y-10269246D01*
X15372444Y-10269246D02*
X15381967Y-10250198D01*
X15553396Y-10231150D02*
X15553396Y-10364484D01*
X15505777Y-10154960D02*
X15458158Y-10297817D01*
X15458158Y-10297817D02*
X15581967Y-10297817D01*
X15648634Y-10164484D02*
X15648634Y-10202579D01*
X15724825Y-10164484D02*
X15724825Y-10202579D01*
X16020063Y-10440674D02*
X16010539Y-10431150D01*
X16010539Y-10431150D02*
X15991491Y-10402579D01*
X15991491Y-10402579D02*
X15981968Y-10383531D01*
X15981968Y-10383531D02*
X15972444Y-10354960D01*
X15972444Y-10354960D02*
X15962920Y-10307341D01*
X15962920Y-10307341D02*
X15962920Y-10269246D01*
X15962920Y-10269246D02*
X15972444Y-10221627D01*
X15972444Y-10221627D02*
X15981968Y-10193055D01*
X15981968Y-10193055D02*
X15991491Y-10174008D01*
X15991491Y-10174008D02*
X16010539Y-10145436D01*
X16010539Y-10145436D02*
X16020063Y-10135912D01*
X16201015Y-10364484D02*
X16086729Y-10364484D01*
X16143872Y-10364484D02*
X16143872Y-10164484D01*
X16143872Y-10164484D02*
X16124825Y-10193055D01*
X16124825Y-10193055D02*
X16105777Y-10212103D01*
X16105777Y-10212103D02*
X16086729Y-10221627D01*
X16324825Y-10164484D02*
X16343872Y-10164484D01*
X16343872Y-10164484D02*
X16362920Y-10174008D01*
X16362920Y-10174008D02*
X16372444Y-10183531D01*
X16372444Y-10183531D02*
X16381968Y-10202579D01*
X16381968Y-10202579D02*
X16391491Y-10240674D01*
X16391491Y-10240674D02*
X16391491Y-10288293D01*
X16391491Y-10288293D02*
X16381968Y-10326389D01*
X16381968Y-10326389D02*
X16372444Y-10345436D01*
X16372444Y-10345436D02*
X16362920Y-10354960D01*
X16362920Y-10354960D02*
X16343872Y-10364484D01*
X16343872Y-10364484D02*
X16324825Y-10364484D01*
X16324825Y-10364484D02*
X16305777Y-10354960D01*
X16305777Y-10354960D02*
X16296253Y-10345436D01*
X16296253Y-10345436D02*
X16286729Y-10326389D01*
X16286729Y-10326389D02*
X16277206Y-10288293D01*
X16277206Y-10288293D02*
X16277206Y-10240674D01*
X16277206Y-10240674D02*
X16286729Y-10202579D01*
X16286729Y-10202579D02*
X16296253Y-10183531D01*
X16296253Y-10183531D02*
X16305777Y-10174008D01*
X16305777Y-10174008D02*
X16324825Y-10164484D01*
X16629587Y-10364484D02*
X16629587Y-10164484D01*
X16715301Y-10364484D02*
X16715301Y-10259722D01*
X16715301Y-10259722D02*
X16705777Y-10240674D01*
X16705777Y-10240674D02*
X16686730Y-10231150D01*
X16686730Y-10231150D02*
X16658158Y-10231150D01*
X16658158Y-10231150D02*
X16639110Y-10240674D01*
X16639110Y-10240674D02*
X16629587Y-10250198D01*
X16839111Y-10364484D02*
X16820063Y-10354960D01*
X16820063Y-10354960D02*
X16810539Y-10345436D01*
X16810539Y-10345436D02*
X16801015Y-10326389D01*
X16801015Y-10326389D02*
X16801015Y-10269246D01*
X16801015Y-10269246D02*
X16810539Y-10250198D01*
X16810539Y-10250198D02*
X16820063Y-10240674D01*
X16820063Y-10240674D02*
X16839111Y-10231150D01*
X16839111Y-10231150D02*
X16867682Y-10231150D01*
X16867682Y-10231150D02*
X16886730Y-10240674D01*
X16886730Y-10240674D02*
X16896253Y-10250198D01*
X16896253Y-10250198D02*
X16905777Y-10269246D01*
X16905777Y-10269246D02*
X16905777Y-10326389D01*
X16905777Y-10326389D02*
X16896253Y-10345436D01*
X16896253Y-10345436D02*
X16886730Y-10354960D01*
X16886730Y-10354960D02*
X16867682Y-10364484D01*
X16867682Y-10364484D02*
X16839111Y-10364484D01*
X17020063Y-10364484D02*
X17001015Y-10354960D01*
X17001015Y-10354960D02*
X16991492Y-10335912D01*
X16991492Y-10335912D02*
X16991492Y-10164484D01*
X17172444Y-10354960D02*
X17153396Y-10364484D01*
X17153396Y-10364484D02*
X17115301Y-10364484D01*
X17115301Y-10364484D02*
X17096253Y-10354960D01*
X17096253Y-10354960D02*
X17086730Y-10335912D01*
X17086730Y-10335912D02*
X17086730Y-10259722D01*
X17086730Y-10259722D02*
X17096253Y-10240674D01*
X17096253Y-10240674D02*
X17115301Y-10231150D01*
X17115301Y-10231150D02*
X17153396Y-10231150D01*
X17153396Y-10231150D02*
X17172444Y-10240674D01*
X17172444Y-10240674D02*
X17181968Y-10259722D01*
X17181968Y-10259722D02*
X17181968Y-10278770D01*
X17181968Y-10278770D02*
X17086730Y-10297817D01*
X17258158Y-10354960D02*
X17277206Y-10364484D01*
X17277206Y-10364484D02*
X17315301Y-10364484D01*
X17315301Y-10364484D02*
X17334349Y-10354960D01*
X17334349Y-10354960D02*
X17343873Y-10335912D01*
X17343873Y-10335912D02*
X17343873Y-10326389D01*
X17343873Y-10326389D02*
X17334349Y-10307341D01*
X17334349Y-10307341D02*
X17315301Y-10297817D01*
X17315301Y-10297817D02*
X17286730Y-10297817D01*
X17286730Y-10297817D02*
X17267682Y-10288293D01*
X17267682Y-10288293D02*
X17258158Y-10269246D01*
X17258158Y-10269246D02*
X17258158Y-10259722D01*
X17258158Y-10259722D02*
X17267682Y-10240674D01*
X17267682Y-10240674D02*
X17286730Y-10231150D01*
X17286730Y-10231150D02*
X17315301Y-10231150D01*
X17315301Y-10231150D02*
X17334349Y-10240674D01*
X17581968Y-10288293D02*
X17734349Y-10288293D01*
X17658158Y-10364484D02*
X17658158Y-10212103D01*
X17962920Y-10164484D02*
X18086730Y-10164484D01*
X18086730Y-10164484D02*
X18020063Y-10240674D01*
X18020063Y-10240674D02*
X18048635Y-10240674D01*
X18048635Y-10240674D02*
X18067682Y-10250198D01*
X18067682Y-10250198D02*
X18077206Y-10259722D01*
X18077206Y-10259722D02*
X18086730Y-10278770D01*
X18086730Y-10278770D02*
X18086730Y-10326389D01*
X18086730Y-10326389D02*
X18077206Y-10345436D01*
X18077206Y-10345436D02*
X18067682Y-10354960D01*
X18067682Y-10354960D02*
X18048635Y-10364484D01*
X18048635Y-10364484D02*
X17991492Y-10364484D01*
X17991492Y-10364484D02*
X17972444Y-10354960D01*
X17972444Y-10354960D02*
X17962920Y-10345436D01*
X18210539Y-10164484D02*
X18229587Y-10164484D01*
X18229587Y-10164484D02*
X18248635Y-10174008D01*
X18248635Y-10174008D02*
X18258158Y-10183531D01*
X18258158Y-10183531D02*
X18267682Y-10202579D01*
X18267682Y-10202579D02*
X18277206Y-10240674D01*
X18277206Y-10240674D02*
X18277206Y-10288293D01*
X18277206Y-10288293D02*
X18267682Y-10326389D01*
X18267682Y-10326389D02*
X18258158Y-10345436D01*
X18258158Y-10345436D02*
X18248635Y-10354960D01*
X18248635Y-10354960D02*
X18229587Y-10364484D01*
X18229587Y-10364484D02*
X18210539Y-10364484D01*
X18210539Y-10364484D02*
X18191492Y-10354960D01*
X18191492Y-10354960D02*
X18181968Y-10345436D01*
X18181968Y-10345436D02*
X18172444Y-10326389D01*
X18172444Y-10326389D02*
X18162920Y-10288293D01*
X18162920Y-10288293D02*
X18162920Y-10240674D01*
X18162920Y-10240674D02*
X18172444Y-10202579D01*
X18172444Y-10202579D02*
X18181968Y-10183531D01*
X18181968Y-10183531D02*
X18191492Y-10174008D01*
X18191492Y-10174008D02*
X18210539Y-10164484D01*
X18505777Y-10354960D02*
X18524825Y-10364484D01*
X18524825Y-10364484D02*
X18562920Y-10364484D01*
X18562920Y-10364484D02*
X18581968Y-10354960D01*
X18581968Y-10354960D02*
X18591492Y-10335912D01*
X18591492Y-10335912D02*
X18591492Y-10326389D01*
X18591492Y-10326389D02*
X18581968Y-10307341D01*
X18581968Y-10307341D02*
X18562920Y-10297817D01*
X18562920Y-10297817D02*
X18534349Y-10297817D01*
X18534349Y-10297817D02*
X18515301Y-10288293D01*
X18515301Y-10288293D02*
X18505777Y-10269246D01*
X18505777Y-10269246D02*
X18505777Y-10259722D01*
X18505777Y-10259722D02*
X18515301Y-10240674D01*
X18515301Y-10240674D02*
X18534349Y-10231150D01*
X18534349Y-10231150D02*
X18562920Y-10231150D01*
X18562920Y-10231150D02*
X18581968Y-10240674D01*
X18705777Y-10364484D02*
X18686730Y-10354960D01*
X18686730Y-10354960D02*
X18677206Y-10335912D01*
X18677206Y-10335912D02*
X18677206Y-10164484D01*
X18810539Y-10364484D02*
X18791492Y-10354960D01*
X18791492Y-10354960D02*
X18781968Y-10345436D01*
X18781968Y-10345436D02*
X18772444Y-10326389D01*
X18772444Y-10326389D02*
X18772444Y-10269246D01*
X18772444Y-10269246D02*
X18781968Y-10250198D01*
X18781968Y-10250198D02*
X18791492Y-10240674D01*
X18791492Y-10240674D02*
X18810539Y-10231150D01*
X18810539Y-10231150D02*
X18839111Y-10231150D01*
X18839111Y-10231150D02*
X18858158Y-10240674D01*
X18858158Y-10240674D02*
X18867682Y-10250198D01*
X18867682Y-10250198D02*
X18877206Y-10269246D01*
X18877206Y-10269246D02*
X18877206Y-10326389D01*
X18877206Y-10326389D02*
X18867682Y-10345436D01*
X18867682Y-10345436D02*
X18858158Y-10354960D01*
X18858158Y-10354960D02*
X18839111Y-10364484D01*
X18839111Y-10364484D02*
X18810539Y-10364484D01*
X18934349Y-10231150D02*
X19010539Y-10231150D01*
X18962920Y-10164484D02*
X18962920Y-10335912D01*
X18962920Y-10335912D02*
X18972444Y-10354960D01*
X18972444Y-10354960D02*
X18991492Y-10364484D01*
X18991492Y-10364484D02*
X19010539Y-10364484D01*
X19067682Y-10354960D02*
X19086730Y-10364484D01*
X19086730Y-10364484D02*
X19124825Y-10364484D01*
X19124825Y-10364484D02*
X19143873Y-10354960D01*
X19143873Y-10354960D02*
X19153397Y-10335912D01*
X19153397Y-10335912D02*
X19153397Y-10326389D01*
X19153397Y-10326389D02*
X19143873Y-10307341D01*
X19143873Y-10307341D02*
X19124825Y-10297817D01*
X19124825Y-10297817D02*
X19096254Y-10297817D01*
X19096254Y-10297817D02*
X19077206Y-10288293D01*
X19077206Y-10288293D02*
X19067682Y-10269246D01*
X19067682Y-10269246D02*
X19067682Y-10259722D01*
X19067682Y-10259722D02*
X19077206Y-10240674D01*
X19077206Y-10240674D02*
X19096254Y-10231150D01*
X19096254Y-10231150D02*
X19124825Y-10231150D01*
X19124825Y-10231150D02*
X19143873Y-10240674D01*
X19220063Y-10440674D02*
X19229587Y-10431150D01*
X19229587Y-10431150D02*
X19248635Y-10402579D01*
X19248635Y-10402579D02*
X19258158Y-10383531D01*
X19258158Y-10383531D02*
X19267682Y-10354960D01*
X19267682Y-10354960D02*
X19277206Y-10307341D01*
X19277206Y-10307341D02*
X19277206Y-10269246D01*
X19277206Y-10269246D02*
X19267682Y-10221627D01*
X19267682Y-10221627D02*
X19258158Y-10193055D01*
X19258158Y-10193055D02*
X19248635Y-10174008D01*
X19248635Y-10174008D02*
X19229587Y-10145436D01*
X19229587Y-10145436D02*
X19220063Y-10135912D01*
X12415711Y-10607711D02*
X12415711Y-10466289D01*
X12274289Y-10466289D01*
X12274289Y-10607711D01*
X12415711Y-10607711D01*
X12686729Y-10428484D02*
X12810539Y-10428484D01*
X12810539Y-10428484D02*
X12743872Y-10504674D01*
X12743872Y-10504674D02*
X12772443Y-10504674D01*
X12772443Y-10504674D02*
X12791491Y-10514198D01*
X12791491Y-10514198D02*
X12801015Y-10523722D01*
X12801015Y-10523722D02*
X12810539Y-10542770D01*
X12810539Y-10542770D02*
X12810539Y-10590389D01*
X12810539Y-10590389D02*
X12801015Y-10609436D01*
X12801015Y-10609436D02*
X12791491Y-10618960D01*
X12791491Y-10618960D02*
X12772443Y-10628484D01*
X12772443Y-10628484D02*
X12715301Y-10628484D01*
X12715301Y-10628484D02*
X12696253Y-10618960D01*
X12696253Y-10618960D02*
X12686729Y-10609436D01*
X12896253Y-10609436D02*
X12905777Y-10618960D01*
X12905777Y-10618960D02*
X12896253Y-10628484D01*
X12896253Y-10628484D02*
X12886729Y-10618960D01*
X12886729Y-10618960D02*
X12896253Y-10609436D01*
X12896253Y-10609436D02*
X12896253Y-10628484D01*
X13086729Y-10428484D02*
X12991491Y-10428484D01*
X12991491Y-10428484D02*
X12981967Y-10523722D01*
X12981967Y-10523722D02*
X12991491Y-10514198D01*
X12991491Y-10514198D02*
X13010539Y-10504674D01*
X13010539Y-10504674D02*
X13058158Y-10504674D01*
X13058158Y-10504674D02*
X13077205Y-10514198D01*
X13077205Y-10514198D02*
X13086729Y-10523722D01*
X13086729Y-10523722D02*
X13096253Y-10542770D01*
X13096253Y-10542770D02*
X13096253Y-10590389D01*
X13096253Y-10590389D02*
X13086729Y-10609436D01*
X13086729Y-10609436D02*
X13077205Y-10618960D01*
X13077205Y-10618960D02*
X13058158Y-10628484D01*
X13058158Y-10628484D02*
X13010539Y-10628484D01*
X13010539Y-10628484D02*
X12991491Y-10618960D01*
X12991491Y-10618960D02*
X12981967Y-10609436D01*
X13220062Y-10428484D02*
X13239110Y-10428484D01*
X13239110Y-10428484D02*
X13258158Y-10438008D01*
X13258158Y-10438008D02*
X13267682Y-10447531D01*
X13267682Y-10447531D02*
X13277205Y-10466579D01*
X13277205Y-10466579D02*
X13286729Y-10504674D01*
X13286729Y-10504674D02*
X13286729Y-10552293D01*
X13286729Y-10552293D02*
X13277205Y-10590389D01*
X13277205Y-10590389D02*
X13267682Y-10609436D01*
X13267682Y-10609436D02*
X13258158Y-10618960D01*
X13258158Y-10618960D02*
X13239110Y-10628484D01*
X13239110Y-10628484D02*
X13220062Y-10628484D01*
X13220062Y-10628484D02*
X13201015Y-10618960D01*
X13201015Y-10618960D02*
X13191491Y-10609436D01*
X13191491Y-10609436D02*
X13181967Y-10590389D01*
X13181967Y-10590389D02*
X13172443Y-10552293D01*
X13172443Y-10552293D02*
X13172443Y-10504674D01*
X13172443Y-10504674D02*
X13181967Y-10466579D01*
X13181967Y-10466579D02*
X13191491Y-10447531D01*
X13191491Y-10447531D02*
X13201015Y-10438008D01*
X13201015Y-10438008D02*
X13220062Y-10428484D01*
X13410539Y-10428484D02*
X13429586Y-10428484D01*
X13429586Y-10428484D02*
X13448634Y-10438008D01*
X13448634Y-10438008D02*
X13458158Y-10447531D01*
X13458158Y-10447531D02*
X13467682Y-10466579D01*
X13467682Y-10466579D02*
X13477205Y-10504674D01*
X13477205Y-10504674D02*
X13477205Y-10552293D01*
X13477205Y-10552293D02*
X13467682Y-10590389D01*
X13467682Y-10590389D02*
X13458158Y-10609436D01*
X13458158Y-10609436D02*
X13448634Y-10618960D01*
X13448634Y-10618960D02*
X13429586Y-10628484D01*
X13429586Y-10628484D02*
X13410539Y-10628484D01*
X13410539Y-10628484D02*
X13391491Y-10618960D01*
X13391491Y-10618960D02*
X13381967Y-10609436D01*
X13381967Y-10609436D02*
X13372443Y-10590389D01*
X13372443Y-10590389D02*
X13362920Y-10552293D01*
X13362920Y-10552293D02*
X13362920Y-10504674D01*
X13362920Y-10504674D02*
X13372443Y-10466579D01*
X13372443Y-10466579D02*
X13381967Y-10447531D01*
X13381967Y-10447531D02*
X13391491Y-10438008D01*
X13391491Y-10438008D02*
X13410539Y-10428484D01*
X13562920Y-10628484D02*
X13562920Y-10495150D01*
X13562920Y-10514198D02*
X13572443Y-10504674D01*
X13572443Y-10504674D02*
X13591491Y-10495150D01*
X13591491Y-10495150D02*
X13620063Y-10495150D01*
X13620063Y-10495150D02*
X13639110Y-10504674D01*
X13639110Y-10504674D02*
X13648634Y-10523722D01*
X13648634Y-10523722D02*
X13648634Y-10628484D01*
X13648634Y-10523722D02*
X13658158Y-10504674D01*
X13658158Y-10504674D02*
X13677205Y-10495150D01*
X13677205Y-10495150D02*
X13705777Y-10495150D01*
X13705777Y-10495150D02*
X13724824Y-10504674D01*
X13724824Y-10504674D02*
X13734348Y-10523722D01*
X13734348Y-10523722D02*
X13734348Y-10628484D01*
X13829586Y-10628484D02*
X13829586Y-10495150D01*
X13829586Y-10514198D02*
X13839110Y-10504674D01*
X13839110Y-10504674D02*
X13858158Y-10495150D01*
X13858158Y-10495150D02*
X13886729Y-10495150D01*
X13886729Y-10495150D02*
X13905777Y-10504674D01*
X13905777Y-10504674D02*
X13915301Y-10523722D01*
X13915301Y-10523722D02*
X13915301Y-10628484D01*
X13915301Y-10523722D02*
X13924824Y-10504674D01*
X13924824Y-10504674D02*
X13943872Y-10495150D01*
X13943872Y-10495150D02*
X13972443Y-10495150D01*
X13972443Y-10495150D02*
X13991491Y-10504674D01*
X13991491Y-10504674D02*
X14001015Y-10523722D01*
X14001015Y-10523722D02*
X14001015Y-10628484D01*
X14391491Y-10418960D02*
X14220063Y-10676103D01*
X14648634Y-10428484D02*
X14667682Y-10428484D01*
X14667682Y-10428484D02*
X14686729Y-10438008D01*
X14686729Y-10438008D02*
X14696253Y-10447531D01*
X14696253Y-10447531D02*
X14705777Y-10466579D01*
X14705777Y-10466579D02*
X14715301Y-10504674D01*
X14715301Y-10504674D02*
X14715301Y-10552293D01*
X14715301Y-10552293D02*
X14705777Y-10590389D01*
X14705777Y-10590389D02*
X14696253Y-10609436D01*
X14696253Y-10609436D02*
X14686729Y-10618960D01*
X14686729Y-10618960D02*
X14667682Y-10628484D01*
X14667682Y-10628484D02*
X14648634Y-10628484D01*
X14648634Y-10628484D02*
X14629586Y-10618960D01*
X14629586Y-10618960D02*
X14620063Y-10609436D01*
X14620063Y-10609436D02*
X14610539Y-10590389D01*
X14610539Y-10590389D02*
X14601015Y-10552293D01*
X14601015Y-10552293D02*
X14601015Y-10504674D01*
X14601015Y-10504674D02*
X14610539Y-10466579D01*
X14610539Y-10466579D02*
X14620063Y-10447531D01*
X14620063Y-10447531D02*
X14629586Y-10438008D01*
X14629586Y-10438008D02*
X14648634Y-10428484D01*
X14801015Y-10609436D02*
X14810539Y-10618960D01*
X14810539Y-10618960D02*
X14801015Y-10628484D01*
X14801015Y-10628484D02*
X14791491Y-10618960D01*
X14791491Y-10618960D02*
X14801015Y-10609436D01*
X14801015Y-10609436D02*
X14801015Y-10628484D01*
X15001015Y-10628484D02*
X14886729Y-10628484D01*
X14943872Y-10628484D02*
X14943872Y-10428484D01*
X14943872Y-10428484D02*
X14924825Y-10457055D01*
X14924825Y-10457055D02*
X14905777Y-10476103D01*
X14905777Y-10476103D02*
X14886729Y-10485627D01*
X15067682Y-10428484D02*
X15191491Y-10428484D01*
X15191491Y-10428484D02*
X15124825Y-10504674D01*
X15124825Y-10504674D02*
X15153396Y-10504674D01*
X15153396Y-10504674D02*
X15172444Y-10514198D01*
X15172444Y-10514198D02*
X15181967Y-10523722D01*
X15181967Y-10523722D02*
X15191491Y-10542770D01*
X15191491Y-10542770D02*
X15191491Y-10590389D01*
X15191491Y-10590389D02*
X15181967Y-10609436D01*
X15181967Y-10609436D02*
X15172444Y-10618960D01*
X15172444Y-10618960D02*
X15153396Y-10628484D01*
X15153396Y-10628484D02*
X15096253Y-10628484D01*
X15096253Y-10628484D02*
X15077206Y-10618960D01*
X15077206Y-10618960D02*
X15067682Y-10609436D01*
X15258158Y-10428484D02*
X15391491Y-10428484D01*
X15391491Y-10428484D02*
X15305777Y-10628484D01*
X15496253Y-10514198D02*
X15477206Y-10504674D01*
X15477206Y-10504674D02*
X15467682Y-10495150D01*
X15467682Y-10495150D02*
X15458158Y-10476103D01*
X15458158Y-10476103D02*
X15458158Y-10466579D01*
X15458158Y-10466579D02*
X15467682Y-10447531D01*
X15467682Y-10447531D02*
X15477206Y-10438008D01*
X15477206Y-10438008D02*
X15496253Y-10428484D01*
X15496253Y-10428484D02*
X15534348Y-10428484D01*
X15534348Y-10428484D02*
X15553396Y-10438008D01*
X15553396Y-10438008D02*
X15562920Y-10447531D01*
X15562920Y-10447531D02*
X15572444Y-10466579D01*
X15572444Y-10466579D02*
X15572444Y-10476103D01*
X15572444Y-10476103D02*
X15562920Y-10495150D01*
X15562920Y-10495150D02*
X15553396Y-10504674D01*
X15553396Y-10504674D02*
X15534348Y-10514198D01*
X15534348Y-10514198D02*
X15496253Y-10514198D01*
X15496253Y-10514198D02*
X15477206Y-10523722D01*
X15477206Y-10523722D02*
X15467682Y-10533246D01*
X15467682Y-10533246D02*
X15458158Y-10552293D01*
X15458158Y-10552293D02*
X15458158Y-10590389D01*
X15458158Y-10590389D02*
X15467682Y-10609436D01*
X15467682Y-10609436D02*
X15477206Y-10618960D01*
X15477206Y-10618960D02*
X15496253Y-10628484D01*
X15496253Y-10628484D02*
X15534348Y-10628484D01*
X15534348Y-10628484D02*
X15553396Y-10618960D01*
X15553396Y-10618960D02*
X15562920Y-10609436D01*
X15562920Y-10609436D02*
X15572444Y-10590389D01*
X15572444Y-10590389D02*
X15572444Y-10552293D01*
X15572444Y-10552293D02*
X15562920Y-10533246D01*
X15562920Y-10533246D02*
X15553396Y-10523722D01*
X15553396Y-10523722D02*
X15534348Y-10514198D01*
X15648634Y-10428484D02*
X15648634Y-10466579D01*
X15724825Y-10428484D02*
X15724825Y-10466579D01*
X16020063Y-10704674D02*
X16010539Y-10695150D01*
X16010539Y-10695150D02*
X15991491Y-10666579D01*
X15991491Y-10666579D02*
X15981968Y-10647531D01*
X15981968Y-10647531D02*
X15972444Y-10618960D01*
X15972444Y-10618960D02*
X15962920Y-10571341D01*
X15962920Y-10571341D02*
X15962920Y-10533246D01*
X15962920Y-10533246D02*
X15972444Y-10485627D01*
X15972444Y-10485627D02*
X15981968Y-10457055D01*
X15981968Y-10457055D02*
X15991491Y-10438008D01*
X15991491Y-10438008D02*
X16010539Y-10409436D01*
X16010539Y-10409436D02*
X16020063Y-10399912D01*
X16181968Y-10495150D02*
X16181968Y-10628484D01*
X16134348Y-10418960D02*
X16086729Y-10561817D01*
X16086729Y-10561817D02*
X16210539Y-10561817D01*
X16439110Y-10628484D02*
X16439110Y-10428484D01*
X16524825Y-10628484D02*
X16524825Y-10523722D01*
X16524825Y-10523722D02*
X16515301Y-10504674D01*
X16515301Y-10504674D02*
X16496253Y-10495150D01*
X16496253Y-10495150D02*
X16467682Y-10495150D01*
X16467682Y-10495150D02*
X16448634Y-10504674D01*
X16448634Y-10504674D02*
X16439110Y-10514198D01*
X16648634Y-10628484D02*
X16629587Y-10618960D01*
X16629587Y-10618960D02*
X16620063Y-10609436D01*
X16620063Y-10609436D02*
X16610539Y-10590389D01*
X16610539Y-10590389D02*
X16610539Y-10533246D01*
X16610539Y-10533246D02*
X16620063Y-10514198D01*
X16620063Y-10514198D02*
X16629587Y-10504674D01*
X16629587Y-10504674D02*
X16648634Y-10495150D01*
X16648634Y-10495150D02*
X16677206Y-10495150D01*
X16677206Y-10495150D02*
X16696253Y-10504674D01*
X16696253Y-10504674D02*
X16705777Y-10514198D01*
X16705777Y-10514198D02*
X16715301Y-10533246D01*
X16715301Y-10533246D02*
X16715301Y-10590389D01*
X16715301Y-10590389D02*
X16705777Y-10609436D01*
X16705777Y-10609436D02*
X16696253Y-10618960D01*
X16696253Y-10618960D02*
X16677206Y-10628484D01*
X16677206Y-10628484D02*
X16648634Y-10628484D01*
X16829587Y-10628484D02*
X16810539Y-10618960D01*
X16810539Y-10618960D02*
X16801015Y-10599912D01*
X16801015Y-10599912D02*
X16801015Y-10428484D01*
X16981968Y-10618960D02*
X16962920Y-10628484D01*
X16962920Y-10628484D02*
X16924825Y-10628484D01*
X16924825Y-10628484D02*
X16905777Y-10618960D01*
X16905777Y-10618960D02*
X16896253Y-10599912D01*
X16896253Y-10599912D02*
X16896253Y-10523722D01*
X16896253Y-10523722D02*
X16905777Y-10504674D01*
X16905777Y-10504674D02*
X16924825Y-10495150D01*
X16924825Y-10495150D02*
X16962920Y-10495150D01*
X16962920Y-10495150D02*
X16981968Y-10504674D01*
X16981968Y-10504674D02*
X16991492Y-10523722D01*
X16991492Y-10523722D02*
X16991492Y-10542770D01*
X16991492Y-10542770D02*
X16896253Y-10561817D01*
X17067682Y-10618960D02*
X17086730Y-10628484D01*
X17086730Y-10628484D02*
X17124825Y-10628484D01*
X17124825Y-10628484D02*
X17143873Y-10618960D01*
X17143873Y-10618960D02*
X17153396Y-10599912D01*
X17153396Y-10599912D02*
X17153396Y-10590389D01*
X17153396Y-10590389D02*
X17143873Y-10571341D01*
X17143873Y-10571341D02*
X17124825Y-10561817D01*
X17124825Y-10561817D02*
X17096253Y-10561817D01*
X17096253Y-10561817D02*
X17077206Y-10552293D01*
X17077206Y-10552293D02*
X17067682Y-10533246D01*
X17067682Y-10533246D02*
X17067682Y-10523722D01*
X17067682Y-10523722D02*
X17077206Y-10504674D01*
X17077206Y-10504674D02*
X17096253Y-10495150D01*
X17096253Y-10495150D02*
X17124825Y-10495150D01*
X17124825Y-10495150D02*
X17143873Y-10504674D01*
X17220063Y-10704674D02*
X17229587Y-10695150D01*
X17229587Y-10695150D02*
X17248634Y-10666579D01*
X17248634Y-10666579D02*
X17258158Y-10647531D01*
X17258158Y-10647531D02*
X17267682Y-10618960D01*
X17267682Y-10618960D02*
X17277206Y-10571341D01*
X17277206Y-10571341D02*
X17277206Y-10533246D01*
X17277206Y-10533246D02*
X17267682Y-10485627D01*
X17267682Y-10485627D02*
X17258158Y-10457055D01*
X17258158Y-10457055D02*
X17248634Y-10438008D01*
X17248634Y-10438008D02*
X17229587Y-10409436D01*
X17229587Y-10409436D02*
X17220063Y-10399912D01*
M02*
