G04 #@! TF.GenerationSoftware,KiCad,Pcbnew,7.0.7*
G04 #@! TF.CreationDate,2023-11-05T15:47:32+01:00*
G04 #@! TF.ProjectId,K_BF,4b5f4246-2e6b-4696-9361-645f70636258,rev?*
G04 #@! TF.SameCoordinates,Original*
G04 #@! TF.FileFunction,Copper,L2,Bot*
G04 #@! TF.FilePolarity,Positive*
%FSLAX46Y46*%
G04 Gerber Fmt 4.6, Leading zero omitted, Abs format (unit mm)*
G04 Created by KiCad (PCBNEW 7.0.7) date 2023-11-05 15:47:32*
%MOMM*%
%LPD*%
G01*
G04 APERTURE LIST*
G04 Aperture macros list*
%AMRoundRect*
0 Rectangle with rounded corners*
0 $1 Rounding radius*
0 $2 $3 $4 $5 $6 $7 $8 $9 X,Y pos of 4 corners*
0 Add a 4 corners polygon primitive as box body*
4,1,4,$2,$3,$4,$5,$6,$7,$8,$9,$2,$3,0*
0 Add four circle primitives for the rounded corners*
1,1,$1+$1,$2,$3*
1,1,$1+$1,$4,$5*
1,1,$1+$1,$6,$7*
1,1,$1+$1,$8,$9*
0 Add four rect primitives between the rounded corners*
20,1,$1+$1,$2,$3,$4,$5,0*
20,1,$1+$1,$4,$5,$6,$7,0*
20,1,$1+$1,$6,$7,$8,$9,0*
20,1,$1+$1,$8,$9,$2,$3,0*%
G04 Aperture macros list end*
G04 #@! TA.AperFunction,ComponentPad*
%ADD10O,1.508000X3.016000*%
G04 #@! TD*
G04 #@! TA.AperFunction,ComponentPad*
%ADD11C,0.800000*%
G04 #@! TD*
G04 #@! TA.AperFunction,ComponentPad*
%ADD12C,7.000000*%
G04 #@! TD*
G04 #@! TA.AperFunction,ComponentPad*
%ADD13RoundRect,0.250000X-0.600000X-0.600000X0.600000X-0.600000X0.600000X0.600000X-0.600000X0.600000X0*%
G04 #@! TD*
G04 #@! TA.AperFunction,ComponentPad*
%ADD14C,1.700000*%
G04 #@! TD*
G04 #@! TA.AperFunction,SMDPad,CuDef*
%ADD15RoundRect,0.250000X0.337500X0.475000X-0.337500X0.475000X-0.337500X-0.475000X0.337500X-0.475000X0*%
G04 #@! TD*
G04 #@! TA.AperFunction,SMDPad,CuDef*
%ADD16RoundRect,0.250000X-0.350000X0.275000X-0.350000X-0.275000X0.350000X-0.275000X0.350000X0.275000X0*%
G04 #@! TD*
G04 #@! TA.AperFunction,SMDPad,CuDef*
%ADD17RoundRect,0.250000X0.475000X-0.337500X0.475000X0.337500X-0.475000X0.337500X-0.475000X-0.337500X0*%
G04 #@! TD*
G04 #@! TA.AperFunction,SMDPad,CuDef*
%ADD18RoundRect,0.250000X-0.475000X0.337500X-0.475000X-0.337500X0.475000X-0.337500X0.475000X0.337500X0*%
G04 #@! TD*
G04 #@! TA.AperFunction,SMDPad,CuDef*
%ADD19RoundRect,0.250000X-0.275000X-0.350000X0.275000X-0.350000X0.275000X0.350000X-0.275000X0.350000X0*%
G04 #@! TD*
G04 #@! TA.AperFunction,SMDPad,CuDef*
%ADD20RoundRect,0.250000X0.350000X-0.275000X0.350000X0.275000X-0.350000X0.275000X-0.350000X-0.275000X0*%
G04 #@! TD*
G04 #@! TA.AperFunction,ViaPad*
%ADD21C,0.800000*%
G04 #@! TD*
G04 #@! TA.AperFunction,Conductor*
%ADD22C,1.000000*%
G04 #@! TD*
G04 APERTURE END LIST*
D10*
X128000000Y-78000000D03*
X130400000Y-76000000D03*
X135900000Y-76000000D03*
X139600000Y-78000000D03*
X134100000Y-78000000D03*
X171000000Y-56000000D03*
X168600000Y-58000000D03*
X163100000Y-58000000D03*
X159400000Y-56000000D03*
X164900000Y-56000000D03*
D11*
X127518845Y-86143845D03*
X128287690Y-84287690D03*
X128287690Y-88000000D03*
D12*
X130000000Y-86000000D03*
D11*
X130143845Y-83518845D03*
X130143845Y-88768845D03*
X132000000Y-84287690D03*
X132000000Y-88000000D03*
X132768845Y-86143845D03*
D10*
X171000000Y-67000000D03*
X168600000Y-69000000D03*
X163100000Y-69000000D03*
X159400000Y-67000000D03*
X164900000Y-67000000D03*
D11*
X164375000Y-86000000D03*
X165143845Y-84143845D03*
X165143845Y-87856155D03*
X167000000Y-83375000D03*
D12*
X167000000Y-86000000D03*
D11*
X167000000Y-88625000D03*
X168856155Y-84143845D03*
X168856155Y-87856155D03*
X169625000Y-86000000D03*
D10*
X171000000Y-78000000D03*
X168600000Y-80000000D03*
X163100000Y-80000000D03*
X159400000Y-78000000D03*
X164900000Y-78000000D03*
X128000000Y-67000000D03*
X130400000Y-65000000D03*
X135900000Y-65000000D03*
X139600000Y-67000000D03*
X134100000Y-67000000D03*
D11*
X164375000Y-46000000D03*
X165143845Y-44143845D03*
X165143845Y-47856155D03*
X167000000Y-43375000D03*
D12*
X167000000Y-46000000D03*
D11*
X167000000Y-48625000D03*
X168856155Y-44143845D03*
X168856155Y-47856155D03*
X169625000Y-46000000D03*
D13*
X148460000Y-62340000D03*
D14*
X151000000Y-62340000D03*
X148460000Y-64880000D03*
X151000000Y-64880000D03*
X148460000Y-67420000D03*
X151000000Y-67420000D03*
X148460000Y-69960000D03*
X151000000Y-69960000D03*
X148460000Y-72500000D03*
X151000000Y-72500000D03*
D10*
X128000000Y-56000000D03*
X130400000Y-54000000D03*
X135900000Y-54000000D03*
X139600000Y-56000000D03*
X134100000Y-56000000D03*
D11*
X127375000Y-46000000D03*
X128143845Y-44143845D03*
X128143845Y-47856155D03*
X130000000Y-43375000D03*
D12*
X130000000Y-46000000D03*
D11*
X130000000Y-48625000D03*
X131856155Y-44143845D03*
X131856155Y-47856155D03*
X132625000Y-46000000D03*
D15*
X155537500Y-70000000D03*
X153462500Y-70000000D03*
D16*
X146500000Y-74350000D03*
X146500000Y-76650000D03*
D17*
X146500000Y-56537500D03*
X146500000Y-54462500D03*
D18*
X144000000Y-69462500D03*
X144000000Y-71537500D03*
D19*
X143850000Y-67500000D03*
X146150000Y-67500000D03*
D16*
X146500000Y-58850000D03*
X146500000Y-61150000D03*
D19*
X153200000Y-67500000D03*
X155500000Y-67500000D03*
D17*
X168500000Y-75537500D03*
X168500000Y-73462500D03*
D18*
X155500000Y-58962500D03*
X155500000Y-61037500D03*
D17*
X143500000Y-76537500D03*
X143500000Y-74462500D03*
D20*
X153000000Y-61000000D03*
X153000000Y-58700000D03*
D19*
X152850000Y-72500000D03*
X155150000Y-72500000D03*
D21*
X145000000Y-42500000D03*
X165000000Y-90000000D03*
X173000000Y-72000000D03*
X170000000Y-90000000D03*
X160000000Y-42500000D03*
X168750000Y-72000000D03*
X160000000Y-90000000D03*
X130000000Y-72500000D03*
X145000000Y-80000000D03*
X150000000Y-90000000D03*
X150000000Y-42500000D03*
X140000000Y-72500000D03*
X135000000Y-90000000D03*
X145000000Y-90000000D03*
X130000000Y-90000000D03*
X172500000Y-42500000D03*
X130000000Y-61000000D03*
X140000000Y-90000000D03*
X135000000Y-42500000D03*
X140000000Y-42500000D03*
X140000000Y-53000000D03*
X155000000Y-42500000D03*
X135000000Y-72500000D03*
X143500000Y-53000000D03*
X155000000Y-90000000D03*
X144000000Y-69462500D03*
X143850000Y-67500000D03*
D22*
X157500000Y-59500000D02*
X156700000Y-58700000D01*
X163100000Y-58000000D02*
X161600000Y-59500000D01*
X161600000Y-59500000D02*
X157500000Y-59500000D01*
X156700000Y-58700000D02*
X153000000Y-58700000D01*
X151040000Y-70000000D02*
X151000000Y-69960000D01*
X153462500Y-70000000D02*
X151040000Y-70000000D01*
X155500000Y-67500000D02*
X155500000Y-69962500D01*
X157537500Y-72000000D02*
X165000000Y-72000000D01*
X168000000Y-69000000D02*
X168600000Y-69000000D01*
X168600000Y-69000000D02*
X168600000Y-69400000D01*
X155537500Y-70000000D02*
X157537500Y-72000000D01*
X155500000Y-69962500D02*
X155537500Y-70000000D01*
X165000000Y-72000000D02*
X168000000Y-69000000D01*
X152250000Y-52250000D02*
X147962500Y-56537500D01*
X146500000Y-58850000D02*
X146500000Y-56537500D01*
X165750000Y-52250000D02*
X152250000Y-52250000D01*
X147962500Y-56537500D02*
X146500000Y-56537500D01*
X168600000Y-58000000D02*
X168600000Y-55100000D01*
X168600000Y-55100000D02*
X165750000Y-52250000D01*
X144000000Y-67650000D02*
X143850000Y-67500000D01*
X144000000Y-69462500D02*
X144000000Y-67650000D01*
X164500000Y-73500000D02*
X167075000Y-76075000D01*
X155150000Y-72500000D02*
X156000000Y-72500000D01*
X156000000Y-72500000D02*
X157000000Y-73500000D01*
X168500000Y-79900000D02*
X168600000Y-80000000D01*
X167075000Y-76075000D02*
X167075000Y-78475000D01*
X168500000Y-75537500D02*
X168500000Y-79900000D01*
X157000000Y-73500000D02*
X164500000Y-73500000D01*
X167075000Y-78475000D02*
X168600000Y-80000000D01*
X143500000Y-76537500D02*
X146387500Y-76537500D01*
X148600000Y-76650000D02*
X146500000Y-76650000D01*
X150250000Y-75000000D02*
X148600000Y-76650000D01*
X163100000Y-76600000D02*
X161500000Y-75000000D01*
X163100000Y-80000000D02*
X163100000Y-76600000D01*
X163000000Y-80100000D02*
X163100000Y-80000000D01*
X146387500Y-76537500D02*
X146500000Y-76650000D01*
X161500000Y-75000000D02*
X150250000Y-75000000D01*
X151000000Y-62340000D02*
X151660000Y-62340000D01*
X151660000Y-62340000D02*
X153000000Y-61000000D01*
X153200000Y-67500000D02*
X151080000Y-67500000D01*
X151080000Y-67500000D02*
X151000000Y-67420000D01*
X148460000Y-62340000D02*
X147690000Y-62340000D01*
X147690000Y-62340000D02*
X146500000Y-61150000D01*
X146500000Y-74350000D02*
X146610000Y-74350000D01*
X146610000Y-74350000D02*
X148460000Y-72500000D01*
X152850000Y-72500000D02*
X151000000Y-72500000D01*
X146150000Y-67500000D02*
X148380000Y-67500000D01*
X148380000Y-67500000D02*
X148460000Y-67420000D01*
G04 #@! TA.AperFunction,Conductor*
G36*
X131450766Y-87115895D02*
G01*
X131499488Y-87145935D01*
X131924859Y-87571306D01*
X131958344Y-87632629D01*
X131953360Y-87702321D01*
X131911488Y-87758254D01*
X131906070Y-87762088D01*
X131819760Y-87819759D01*
X131819759Y-87819760D01*
X131762088Y-87906070D01*
X131708476Y-87950874D01*
X131639151Y-87959581D01*
X131576124Y-87929426D01*
X131571306Y-87924859D01*
X131146687Y-87500240D01*
X131113202Y-87438917D01*
X131118186Y-87369225D01*
X131157056Y-87315612D01*
X131193640Y-87286438D01*
X131320910Y-87149273D01*
X131380937Y-87113520D01*
X131450766Y-87115895D01*
G37*
G04 #@! TD.AperFunction*
G04 #@! TA.AperFunction,Conductor*
G36*
X128631526Y-87117433D02*
G01*
X128679090Y-87149274D01*
X128806351Y-87286429D01*
X128806355Y-87286432D01*
X128806360Y-87286438D01*
X128829285Y-87304720D01*
X128842944Y-87315613D01*
X128883084Y-87372801D01*
X128885933Y-87442613D01*
X128853311Y-87500240D01*
X128579369Y-87774182D01*
X128518046Y-87807667D01*
X128448354Y-87802683D01*
X128422798Y-87789604D01*
X128409942Y-87781014D01*
X128385235Y-87764505D01*
X128385234Y-87764504D01*
X128385233Y-87764504D01*
X128385230Y-87764503D01*
X128312317Y-87750000D01*
X128312314Y-87750000D01*
X128263066Y-87750000D01*
X128206330Y-87761285D01*
X128136739Y-87755056D01*
X128081562Y-87712193D01*
X128058318Y-87646303D01*
X128074386Y-87578306D01*
X128094459Y-87551986D01*
X128500511Y-87145934D01*
X128561834Y-87112449D01*
X128631526Y-87117433D01*
G37*
G04 #@! TD.AperFunction*
G04 #@! TA.AperFunction,Conductor*
G36*
X131683001Y-84065958D02*
G01*
X131738934Y-84107830D01*
X131763351Y-84173294D01*
X131761285Y-84206330D01*
X131745102Y-84287691D01*
X131745102Y-84287692D01*
X131764503Y-84385230D01*
X131764504Y-84385233D01*
X131764504Y-84385234D01*
X131764505Y-84385235D01*
X131770258Y-84393845D01*
X131789604Y-84422798D01*
X131810481Y-84489476D01*
X131791996Y-84556856D01*
X131774182Y-84579369D01*
X131499487Y-84854064D01*
X131438164Y-84887549D01*
X131368472Y-84882565D01*
X131320910Y-84850726D01*
X131257021Y-84781871D01*
X131193643Y-84713564D01*
X131157054Y-84684385D01*
X131116914Y-84627196D01*
X131114065Y-84557384D01*
X131146687Y-84499758D01*
X131551986Y-84094459D01*
X131613309Y-84060974D01*
X131683001Y-84065958D01*
G37*
G04 #@! TD.AperFunction*
G04 #@! TA.AperFunction,Conductor*
G36*
X128711564Y-84358262D02*
G01*
X128716383Y-84362830D01*
X128853312Y-84499759D01*
X128886797Y-84561082D01*
X128881813Y-84630774D01*
X128842945Y-84684386D01*
X128806356Y-84713565D01*
X128679090Y-84850725D01*
X128619062Y-84886479D01*
X128549233Y-84884104D01*
X128500511Y-84854064D01*
X128362830Y-84716383D01*
X128329345Y-84655060D01*
X128334329Y-84585368D01*
X128376201Y-84529435D01*
X128381620Y-84525600D01*
X128385233Y-84523185D01*
X128385235Y-84523185D01*
X128467930Y-84467930D01*
X128523185Y-84385235D01*
X128523185Y-84385233D01*
X128525600Y-84381620D01*
X128579212Y-84336815D01*
X128648537Y-84328108D01*
X128711564Y-84358262D01*
G37*
G04 #@! TD.AperFunction*
G04 #@! TA.AperFunction,Conductor*
G36*
X168450766Y-87115895D02*
G01*
X168499488Y-87145935D01*
X168781014Y-87427461D01*
X168814499Y-87488784D01*
X168809515Y-87558476D01*
X168767643Y-87614409D01*
X168762225Y-87618243D01*
X168675915Y-87675914D01*
X168675914Y-87675915D01*
X168618243Y-87762225D01*
X168564631Y-87807029D01*
X168495306Y-87815736D01*
X168432279Y-87785581D01*
X168427461Y-87781014D01*
X168146687Y-87500240D01*
X168113202Y-87438917D01*
X168118186Y-87369225D01*
X168157056Y-87315612D01*
X168193640Y-87286438D01*
X168320910Y-87149273D01*
X168380937Y-87113520D01*
X168450766Y-87115895D01*
G37*
G04 #@! TD.AperFunction*
G04 #@! TA.AperFunction,Conductor*
G36*
X165631526Y-87117433D02*
G01*
X165679090Y-87149274D01*
X165806351Y-87286429D01*
X165806355Y-87286432D01*
X165806360Y-87286438D01*
X165829285Y-87304720D01*
X165842944Y-87315613D01*
X165883084Y-87372801D01*
X165885933Y-87442613D01*
X165853311Y-87500240D01*
X165572537Y-87781014D01*
X165511214Y-87814499D01*
X165441522Y-87809515D01*
X165385589Y-87767643D01*
X165381754Y-87762223D01*
X165324085Y-87675915D01*
X165237774Y-87618244D01*
X165192969Y-87564632D01*
X165184262Y-87495307D01*
X165214416Y-87432279D01*
X165218984Y-87427461D01*
X165500511Y-87145934D01*
X165561834Y-87112449D01*
X165631526Y-87117433D01*
G37*
G04 #@! TD.AperFunction*
G04 #@! TA.AperFunction,Conductor*
G36*
X168558476Y-84190483D02*
G01*
X168614409Y-84232355D01*
X168618244Y-84237774D01*
X168675915Y-84324085D01*
X168762223Y-84381754D01*
X168807029Y-84435366D01*
X168815736Y-84504691D01*
X168785582Y-84567718D01*
X168781014Y-84572537D01*
X168499487Y-84854064D01*
X168438164Y-84887549D01*
X168368472Y-84882565D01*
X168320910Y-84850726D01*
X168257021Y-84781871D01*
X168193643Y-84713564D01*
X168157054Y-84684385D01*
X168116914Y-84627196D01*
X168114065Y-84557384D01*
X168146687Y-84499758D01*
X168427461Y-84218984D01*
X168488784Y-84185499D01*
X168558476Y-84190483D01*
G37*
G04 #@! TD.AperFunction*
G04 #@! TA.AperFunction,Conductor*
G36*
X165567719Y-84214417D02*
G01*
X165572538Y-84218985D01*
X165853312Y-84499759D01*
X165886797Y-84561082D01*
X165881813Y-84630774D01*
X165842945Y-84684386D01*
X165806356Y-84713565D01*
X165679090Y-84850725D01*
X165619062Y-84886479D01*
X165549233Y-84884104D01*
X165500511Y-84854064D01*
X165218985Y-84572538D01*
X165185500Y-84511215D01*
X165190484Y-84441523D01*
X165232356Y-84385590D01*
X165237775Y-84381755D01*
X165241388Y-84379340D01*
X165241390Y-84379340D01*
X165324085Y-84324085D01*
X165379340Y-84241390D01*
X165379340Y-84241388D01*
X165381755Y-84237775D01*
X165435367Y-84192970D01*
X165504692Y-84184263D01*
X165567719Y-84214417D01*
G37*
G04 #@! TD.AperFunction*
G04 #@! TA.AperFunction,Conductor*
G36*
X153655539Y-69769685D02*
G01*
X153701294Y-69822489D01*
X153712500Y-69874000D01*
X153712500Y-71224999D01*
X153849972Y-71224999D01*
X153849986Y-71224998D01*
X153952697Y-71214505D01*
X154119119Y-71159358D01*
X154119124Y-71159356D01*
X154268345Y-71067315D01*
X154392318Y-70943342D01*
X154394165Y-70940348D01*
X154395969Y-70938724D01*
X154396798Y-70937677D01*
X154396976Y-70937818D01*
X154446110Y-70893621D01*
X154515073Y-70882396D01*
X154579156Y-70910236D01*
X154605243Y-70940341D01*
X154607288Y-70943656D01*
X154731344Y-71067712D01*
X154880666Y-71159814D01*
X154880670Y-71159815D01*
X154887209Y-71162864D01*
X154885903Y-71165663D01*
X154931942Y-71197472D01*
X154958829Y-71261961D01*
X154946581Y-71330749D01*
X154899089Y-71381996D01*
X154835579Y-71399500D01*
X154825003Y-71399500D01*
X154824980Y-71399501D01*
X154722203Y-71410000D01*
X154722200Y-71410001D01*
X154555668Y-71465185D01*
X154555663Y-71465187D01*
X154406342Y-71557289D01*
X154282289Y-71681342D01*
X154190187Y-71830663D01*
X154190185Y-71830666D01*
X154190186Y-71830666D01*
X154135001Y-71997203D01*
X154135001Y-71997204D01*
X154135000Y-71997204D01*
X154124500Y-72099983D01*
X154124500Y-72900001D01*
X154124501Y-72900019D01*
X154135000Y-73002796D01*
X154135001Y-73002799D01*
X154158931Y-73075013D01*
X154190186Y-73169334D01*
X154282288Y-73318656D01*
X154406344Y-73442712D01*
X154555666Y-73534814D01*
X154722203Y-73589999D01*
X154824991Y-73600500D01*
X155475008Y-73600499D01*
X155475016Y-73600498D01*
X155475019Y-73600498D01*
X155498896Y-73598058D01*
X155577797Y-73589999D01*
X155578261Y-73589844D01*
X155578563Y-73589834D01*
X155584414Y-73588582D01*
X155584637Y-73589625D01*
X155648088Y-73587441D01*
X155704948Y-73619869D01*
X155872898Y-73787819D01*
X155906383Y-73849142D01*
X155901399Y-73918834D01*
X155859527Y-73974767D01*
X155794063Y-73999184D01*
X155785217Y-73999500D01*
X151539196Y-73999500D01*
X151472157Y-73979815D01*
X151426402Y-73927011D01*
X151416458Y-73857853D01*
X151445483Y-73794297D01*
X151486791Y-73763118D01*
X151677830Y-73674035D01*
X151871401Y-73538495D01*
X151873077Y-73536819D01*
X151873995Y-73536317D01*
X151875544Y-73535018D01*
X151875805Y-73535329D01*
X151934400Y-73503334D01*
X151960758Y-73500500D01*
X152164868Y-73500500D01*
X152229963Y-73518960D01*
X152255666Y-73534814D01*
X152422203Y-73589999D01*
X152524991Y-73600500D01*
X153175008Y-73600499D01*
X153175016Y-73600498D01*
X153175019Y-73600498D01*
X153231302Y-73594748D01*
X153277797Y-73589999D01*
X153444334Y-73534814D01*
X153593656Y-73442712D01*
X153717712Y-73318656D01*
X153809814Y-73169334D01*
X153864999Y-73002797D01*
X153875500Y-72900009D01*
X153875499Y-72099992D01*
X153864999Y-71997203D01*
X153809814Y-71830666D01*
X153717712Y-71681344D01*
X153593656Y-71557288D01*
X153444334Y-71465186D01*
X153280623Y-71410937D01*
X153223179Y-71371165D01*
X153196356Y-71306649D01*
X153208671Y-71237874D01*
X153212500Y-71232556D01*
X153212500Y-69874000D01*
X153232185Y-69806961D01*
X153284989Y-69761206D01*
X153336500Y-69750000D01*
X153588500Y-69750000D01*
X153655539Y-69769685D01*
G37*
G04 #@! TD.AperFunction*
G04 #@! TA.AperFunction,Conductor*
G36*
X150522064Y-70186894D02*
G01*
X150577998Y-70228765D01*
X150583039Y-70236025D01*
X150604010Y-70268657D01*
X150618239Y-70290798D01*
X150733602Y-70390759D01*
X150731293Y-70393422D01*
X150766006Y-70433499D01*
X150775935Y-70502660D01*
X150746898Y-70566210D01*
X150740882Y-70572669D01*
X150238625Y-71074925D01*
X150314594Y-71128119D01*
X150358219Y-71182696D01*
X150365413Y-71252194D01*
X150333890Y-71314549D01*
X150314595Y-71331269D01*
X150128594Y-71461508D01*
X149961505Y-71628597D01*
X149831575Y-71814158D01*
X149776998Y-71857783D01*
X149707500Y-71864977D01*
X149645145Y-71833454D01*
X149628425Y-71814158D01*
X149498494Y-71628597D01*
X149331402Y-71461506D01*
X149331396Y-71461501D01*
X149145842Y-71331575D01*
X149102217Y-71276998D01*
X149095023Y-71207500D01*
X149126546Y-71145145D01*
X149145842Y-71128425D01*
X149311681Y-71012303D01*
X149331401Y-70998495D01*
X149498495Y-70831401D01*
X149628732Y-70645403D01*
X149683307Y-70601780D01*
X149752805Y-70594586D01*
X149815160Y-70626109D01*
X149831880Y-70645405D01*
X149885073Y-70721373D01*
X150391050Y-70215395D01*
X150452373Y-70181910D01*
X150522064Y-70186894D01*
G37*
G04 #@! TD.AperFunction*
G04 #@! TA.AperFunction,Conductor*
G36*
X151602470Y-70209363D02*
G01*
X151608949Y-70215396D01*
X152114925Y-70721373D01*
X152114926Y-70721373D01*
X152176706Y-70633144D01*
X152178290Y-70634253D01*
X152222679Y-70591911D01*
X152291284Y-70578673D01*
X152356154Y-70604627D01*
X152396694Y-70661533D01*
X152397229Y-70663110D01*
X152440641Y-70794119D01*
X152440643Y-70794124D01*
X152532684Y-70943345D01*
X152656654Y-71067315D01*
X152805875Y-71159356D01*
X152812421Y-71162408D01*
X152811297Y-71164817D01*
X152858591Y-71197548D01*
X152885426Y-71262058D01*
X152873125Y-71330837D01*
X152825592Y-71382046D01*
X152762158Y-71399500D01*
X152524999Y-71399500D01*
X152524980Y-71399501D01*
X152422203Y-71410000D01*
X152422200Y-71410001D01*
X152255668Y-71465185D01*
X152255663Y-71465187D01*
X152239933Y-71474889D01*
X152229963Y-71481039D01*
X152164868Y-71499500D01*
X151960758Y-71499500D01*
X151893719Y-71479815D01*
X151873077Y-71463181D01*
X151871402Y-71461506D01*
X151871401Y-71461505D01*
X151685405Y-71331269D01*
X151641781Y-71276692D01*
X151634588Y-71207193D01*
X151666110Y-71144839D01*
X151685405Y-71128119D01*
X151761373Y-71074925D01*
X151259116Y-70572669D01*
X151225631Y-70511346D01*
X151230615Y-70441655D01*
X151267640Y-70392193D01*
X151266398Y-70390759D01*
X151273100Y-70384952D01*
X151381761Y-70290798D01*
X151416954Y-70236037D01*
X151469755Y-70190283D01*
X151538914Y-70180339D01*
X151602470Y-70209363D01*
G37*
G04 #@! TD.AperFunction*
G04 #@! TA.AperFunction,Conductor*
G36*
X149814855Y-68086546D02*
G01*
X149831575Y-68105842D01*
X149953784Y-68280375D01*
X149961505Y-68291401D01*
X150128599Y-68458495D01*
X150306012Y-68582721D01*
X150314594Y-68588730D01*
X150358218Y-68643307D01*
X150365411Y-68712806D01*
X150333889Y-68775160D01*
X150314593Y-68791880D01*
X150238626Y-68845072D01*
X150238625Y-68845072D01*
X150740883Y-69347330D01*
X150774368Y-69408653D01*
X150769384Y-69478345D01*
X150732357Y-69527805D01*
X150733602Y-69529241D01*
X150618238Y-69629202D01*
X150583046Y-69683962D01*
X150530242Y-69729717D01*
X150461083Y-69739660D01*
X150397528Y-69710634D01*
X150391050Y-69704603D01*
X149885073Y-69198626D01*
X149831881Y-69274594D01*
X149777304Y-69318219D01*
X149707806Y-69325413D01*
X149645451Y-69293891D01*
X149628730Y-69274594D01*
X149498494Y-69088597D01*
X149331402Y-68921506D01*
X149331401Y-68921505D01*
X149165305Y-68805203D01*
X149145841Y-68791574D01*
X149102216Y-68736997D01*
X149095024Y-68667498D01*
X149126546Y-68605144D01*
X149145836Y-68588428D01*
X149331401Y-68458495D01*
X149498495Y-68291401D01*
X149628424Y-68105842D01*
X149683002Y-68062217D01*
X149752500Y-68055023D01*
X149814855Y-68086546D01*
G37*
G04 #@! TD.AperFunction*
G04 #@! TA.AperFunction,Conductor*
G36*
X152579963Y-68518960D02*
G01*
X152605666Y-68534814D01*
X152772203Y-68589999D01*
X152799857Y-68592824D01*
X152864549Y-68619219D01*
X152904701Y-68676400D01*
X152907565Y-68746211D01*
X152872232Y-68806488D01*
X152826262Y-68833887D01*
X152805884Y-68840639D01*
X152805875Y-68840643D01*
X152656654Y-68932684D01*
X152532684Y-69056654D01*
X152440643Y-69205875D01*
X152440641Y-69205880D01*
X152413059Y-69289118D01*
X152373286Y-69346563D01*
X152308770Y-69373386D01*
X152239994Y-69361071D01*
X152188795Y-69313528D01*
X152182971Y-69302518D01*
X152173602Y-69282427D01*
X152173599Y-69282421D01*
X152114925Y-69198626D01*
X152114925Y-69198625D01*
X151608949Y-69704602D01*
X151547626Y-69738087D01*
X151477934Y-69733103D01*
X151422001Y-69691231D01*
X151416953Y-69683961D01*
X151381761Y-69629202D01*
X151266398Y-69529241D01*
X151268708Y-69526574D01*
X151234005Y-69486528D01*
X151224058Y-69417370D01*
X151253080Y-69353813D01*
X151259116Y-69347330D01*
X151761373Y-68845073D01*
X151761373Y-68845072D01*
X151685405Y-68791880D01*
X151641780Y-68737304D01*
X151634586Y-68667805D01*
X151666108Y-68605451D01*
X151685399Y-68588734D01*
X151779385Y-68522925D01*
X151845593Y-68500597D01*
X151850509Y-68500500D01*
X152514868Y-68500500D01*
X152579963Y-68518960D01*
G37*
G04 #@! TD.AperFunction*
G04 #@! TA.AperFunction,Conductor*
G36*
X150522064Y-65106894D02*
G01*
X150577998Y-65148765D01*
X150583039Y-65156025D01*
X150583048Y-65156039D01*
X150618239Y-65210798D01*
X150733602Y-65310759D01*
X150731293Y-65313422D01*
X150766006Y-65353499D01*
X150775935Y-65422660D01*
X150746898Y-65486210D01*
X150740882Y-65492669D01*
X150238625Y-65994925D01*
X150314594Y-66048119D01*
X150358219Y-66102696D01*
X150365413Y-66172194D01*
X150333890Y-66234549D01*
X150314595Y-66251269D01*
X150128594Y-66381508D01*
X149961505Y-66548597D01*
X149831575Y-66734158D01*
X149776998Y-66777783D01*
X149707500Y-66784977D01*
X149645145Y-66753454D01*
X149628425Y-66734158D01*
X149498494Y-66548597D01*
X149331402Y-66381506D01*
X149331396Y-66381501D01*
X149145842Y-66251575D01*
X149102217Y-66196998D01*
X149095023Y-66127500D01*
X149126546Y-66065145D01*
X149145842Y-66048425D01*
X149215000Y-66000000D01*
X149331401Y-65918495D01*
X149498495Y-65751401D01*
X149628732Y-65565403D01*
X149683307Y-65521780D01*
X149752805Y-65514586D01*
X149815160Y-65546109D01*
X149831880Y-65565405D01*
X149885073Y-65641373D01*
X150391050Y-65135395D01*
X150452373Y-65101910D01*
X150522064Y-65106894D01*
G37*
G04 #@! TD.AperFunction*
G04 #@! TA.AperFunction,Conductor*
G36*
X149920720Y-63178779D02*
G01*
X149957483Y-63207766D01*
X149957677Y-63207573D01*
X149959313Y-63209209D01*
X149960354Y-63210030D01*
X149961501Y-63211397D01*
X149961505Y-63211401D01*
X150128599Y-63378495D01*
X150310185Y-63505643D01*
X150314594Y-63508730D01*
X150358218Y-63563307D01*
X150365411Y-63632806D01*
X150333889Y-63695160D01*
X150314593Y-63711880D01*
X150238626Y-63765072D01*
X150238625Y-63765072D01*
X150740883Y-64267330D01*
X150774368Y-64328653D01*
X150769384Y-64398345D01*
X150732357Y-64447805D01*
X150733602Y-64449241D01*
X150618238Y-64549202D01*
X150583046Y-64603962D01*
X150530242Y-64649717D01*
X150461083Y-64659660D01*
X150397528Y-64630634D01*
X150391050Y-64624603D01*
X149885073Y-64118626D01*
X149831881Y-64194594D01*
X149777304Y-64238219D01*
X149707806Y-64245413D01*
X149645451Y-64213891D01*
X149628730Y-64194594D01*
X149498494Y-64008597D01*
X149331398Y-63841501D01*
X149330030Y-63840354D01*
X149329592Y-63839696D01*
X149327573Y-63837677D01*
X149327978Y-63837271D01*
X149291330Y-63782182D01*
X149290224Y-63712321D01*
X149327063Y-63652952D01*
X149370737Y-63627662D01*
X149379334Y-63624814D01*
X149528656Y-63532712D01*
X149652712Y-63408656D01*
X149744814Y-63259334D01*
X149747662Y-63250738D01*
X149787429Y-63193294D01*
X149851944Y-63166468D01*
X149920720Y-63178779D01*
G37*
G04 #@! TD.AperFunction*
G04 #@! TA.AperFunction,Conductor*
G36*
X131450766Y-47115895D02*
G01*
X131499488Y-47145935D01*
X131781014Y-47427461D01*
X131814499Y-47488784D01*
X131809515Y-47558476D01*
X131767643Y-47614409D01*
X131762225Y-47618243D01*
X131675915Y-47675914D01*
X131675914Y-47675915D01*
X131618243Y-47762225D01*
X131564631Y-47807029D01*
X131495306Y-47815736D01*
X131432279Y-47785581D01*
X131427461Y-47781014D01*
X131146687Y-47500240D01*
X131113202Y-47438917D01*
X131118186Y-47369225D01*
X131157056Y-47315612D01*
X131193640Y-47286438D01*
X131320910Y-47149273D01*
X131380937Y-47113520D01*
X131450766Y-47115895D01*
G37*
G04 #@! TD.AperFunction*
G04 #@! TA.AperFunction,Conductor*
G36*
X128631526Y-47117433D02*
G01*
X128679090Y-47149274D01*
X128806351Y-47286429D01*
X128806355Y-47286432D01*
X128806360Y-47286438D01*
X128829285Y-47304720D01*
X128842944Y-47315613D01*
X128883084Y-47372801D01*
X128885933Y-47442613D01*
X128853311Y-47500240D01*
X128572537Y-47781014D01*
X128511214Y-47814499D01*
X128441522Y-47809515D01*
X128385589Y-47767643D01*
X128381754Y-47762223D01*
X128324085Y-47675915D01*
X128237774Y-47618244D01*
X128192969Y-47564632D01*
X128184262Y-47495307D01*
X128214416Y-47432279D01*
X128218984Y-47427461D01*
X128500511Y-47145934D01*
X128561834Y-47112449D01*
X128631526Y-47117433D01*
G37*
G04 #@! TD.AperFunction*
G04 #@! TA.AperFunction,Conductor*
G36*
X131558476Y-44190483D02*
G01*
X131614409Y-44232355D01*
X131618244Y-44237774D01*
X131675915Y-44324085D01*
X131762223Y-44381754D01*
X131807029Y-44435366D01*
X131815736Y-44504691D01*
X131785582Y-44567718D01*
X131781014Y-44572537D01*
X131499487Y-44854064D01*
X131438164Y-44887549D01*
X131368472Y-44882565D01*
X131320910Y-44850726D01*
X131257021Y-44781871D01*
X131193643Y-44713564D01*
X131157054Y-44684385D01*
X131116914Y-44627196D01*
X131114065Y-44557384D01*
X131146687Y-44499758D01*
X131427461Y-44218984D01*
X131488784Y-44185499D01*
X131558476Y-44190483D01*
G37*
G04 #@! TD.AperFunction*
G04 #@! TA.AperFunction,Conductor*
G36*
X128567719Y-44214417D02*
G01*
X128572538Y-44218985D01*
X128853312Y-44499759D01*
X128886797Y-44561082D01*
X128881813Y-44630774D01*
X128842945Y-44684386D01*
X128806356Y-44713565D01*
X128679090Y-44850725D01*
X128619062Y-44886479D01*
X128549233Y-44884104D01*
X128500511Y-44854064D01*
X128218985Y-44572538D01*
X128185500Y-44511215D01*
X128190484Y-44441523D01*
X128232356Y-44385590D01*
X128237775Y-44381755D01*
X128241388Y-44379340D01*
X128241390Y-44379340D01*
X128324085Y-44324085D01*
X128379340Y-44241390D01*
X128379340Y-44241388D01*
X128381755Y-44237775D01*
X128435367Y-44192970D01*
X128504692Y-44184263D01*
X128567719Y-44214417D01*
G37*
G04 #@! TD.AperFunction*
G04 #@! TA.AperFunction,Conductor*
G36*
X168450766Y-47115895D02*
G01*
X168499488Y-47145935D01*
X168781014Y-47427461D01*
X168814499Y-47488784D01*
X168809515Y-47558476D01*
X168767643Y-47614409D01*
X168762225Y-47618243D01*
X168675915Y-47675914D01*
X168675914Y-47675915D01*
X168618243Y-47762225D01*
X168564631Y-47807029D01*
X168495306Y-47815736D01*
X168432279Y-47785581D01*
X168427461Y-47781014D01*
X168146687Y-47500240D01*
X168113202Y-47438917D01*
X168118186Y-47369225D01*
X168157056Y-47315612D01*
X168193640Y-47286438D01*
X168320910Y-47149273D01*
X168380937Y-47113520D01*
X168450766Y-47115895D01*
G37*
G04 #@! TD.AperFunction*
G04 #@! TA.AperFunction,Conductor*
G36*
X165631526Y-47117433D02*
G01*
X165679090Y-47149274D01*
X165806351Y-47286429D01*
X165806355Y-47286432D01*
X165806360Y-47286438D01*
X165829285Y-47304720D01*
X165842944Y-47315613D01*
X165883084Y-47372801D01*
X165885933Y-47442613D01*
X165853311Y-47500240D01*
X165572537Y-47781014D01*
X165511214Y-47814499D01*
X165441522Y-47809515D01*
X165385589Y-47767643D01*
X165381754Y-47762223D01*
X165324085Y-47675915D01*
X165237774Y-47618244D01*
X165192969Y-47564632D01*
X165184262Y-47495307D01*
X165214416Y-47432279D01*
X165218984Y-47427461D01*
X165500511Y-47145934D01*
X165561834Y-47112449D01*
X165631526Y-47117433D01*
G37*
G04 #@! TD.AperFunction*
G04 #@! TA.AperFunction,Conductor*
G36*
X168558476Y-44190483D02*
G01*
X168614409Y-44232355D01*
X168618244Y-44237774D01*
X168675915Y-44324085D01*
X168762223Y-44381754D01*
X168807029Y-44435366D01*
X168815736Y-44504691D01*
X168785582Y-44567718D01*
X168781014Y-44572537D01*
X168499487Y-44854064D01*
X168438164Y-44887549D01*
X168368472Y-44882565D01*
X168320910Y-44850726D01*
X168257021Y-44781871D01*
X168193643Y-44713564D01*
X168157054Y-44684385D01*
X168116914Y-44627196D01*
X168114065Y-44557384D01*
X168146687Y-44499758D01*
X168427461Y-44218984D01*
X168488784Y-44185499D01*
X168558476Y-44190483D01*
G37*
G04 #@! TD.AperFunction*
G04 #@! TA.AperFunction,Conductor*
G36*
X165567719Y-44214417D02*
G01*
X165572538Y-44218985D01*
X165853312Y-44499759D01*
X165886797Y-44561082D01*
X165881813Y-44630774D01*
X165842945Y-44684386D01*
X165806356Y-44713565D01*
X165679090Y-44850725D01*
X165619062Y-44886479D01*
X165549233Y-44884104D01*
X165500511Y-44854064D01*
X165218985Y-44572538D01*
X165185500Y-44511215D01*
X165190484Y-44441523D01*
X165232356Y-44385590D01*
X165237775Y-44381755D01*
X165241388Y-44379340D01*
X165241390Y-44379340D01*
X165324085Y-44324085D01*
X165379340Y-44241390D01*
X165379340Y-44241388D01*
X165381755Y-44237775D01*
X165435367Y-44192970D01*
X165504692Y-44184263D01*
X165567719Y-44214417D01*
G37*
G04 #@! TD.AperFunction*
G04 #@! TA.AperFunction,Conductor*
G36*
X174442539Y-41020185D02*
G01*
X174488294Y-41072989D01*
X174499500Y-41124500D01*
X174499500Y-90875500D01*
X174479815Y-90942539D01*
X174427011Y-90988294D01*
X174375500Y-90999500D01*
X124624500Y-90999500D01*
X124557461Y-90979815D01*
X124511706Y-90927011D01*
X124500500Y-90875500D01*
X124500500Y-85999999D01*
X125995176Y-85999999D01*
X126014461Y-86392550D01*
X126072129Y-86781308D01*
X126167625Y-87162549D01*
X126300016Y-87532559D01*
X126300023Y-87532575D01*
X126468062Y-87887864D01*
X126670109Y-88224958D01*
X126904228Y-88540632D01*
X127000068Y-88646376D01*
X127000069Y-88646376D01*
X127839676Y-87806769D01*
X127900999Y-87773284D01*
X127970690Y-87778268D01*
X128026624Y-87820140D01*
X128051041Y-87885604D01*
X128048975Y-87918640D01*
X128032792Y-88000001D01*
X128032792Y-88000002D01*
X128052193Y-88097540D01*
X128052194Y-88097543D01*
X128052194Y-88097544D01*
X128052195Y-88097545D01*
X128057948Y-88106155D01*
X128077294Y-88135108D01*
X128098171Y-88201786D01*
X128079686Y-88269166D01*
X128061872Y-88291679D01*
X127353622Y-88999929D01*
X127353622Y-88999930D01*
X127459367Y-89095771D01*
X127775041Y-89329890D01*
X128112135Y-89531937D01*
X128467424Y-89699976D01*
X128467440Y-89699983D01*
X128837450Y-89832374D01*
X129218691Y-89927870D01*
X129607449Y-89985538D01*
X129999999Y-90004823D01*
X130392550Y-89985538D01*
X130781308Y-89927870D01*
X131162549Y-89832374D01*
X131532559Y-89699983D01*
X131532575Y-89699976D01*
X131887864Y-89531937D01*
X132224958Y-89329890D01*
X132540632Y-89095770D01*
X132646376Y-88999929D01*
X132075140Y-88428693D01*
X132041655Y-88367370D01*
X132046639Y-88297678D01*
X132088511Y-88241745D01*
X132093930Y-88237910D01*
X132097543Y-88235495D01*
X132097545Y-88235495D01*
X132180240Y-88180240D01*
X132235495Y-88097545D01*
X132235495Y-88097543D01*
X132237910Y-88093930D01*
X132291522Y-88049125D01*
X132360847Y-88040418D01*
X132423874Y-88070572D01*
X132428693Y-88075140D01*
X132999929Y-88646376D01*
X133095770Y-88540632D01*
X133329890Y-88224958D01*
X133531937Y-87887864D01*
X133699976Y-87532575D01*
X133699983Y-87532559D01*
X133832374Y-87162549D01*
X133927870Y-86781308D01*
X133985538Y-86392550D01*
X134004823Y-85999999D01*
X133985538Y-85607449D01*
X133927870Y-85218691D01*
X133832374Y-84837450D01*
X133699983Y-84467440D01*
X133699976Y-84467424D01*
X133531937Y-84112135D01*
X133329890Y-83775041D01*
X133095771Y-83459367D01*
X132999930Y-83353622D01*
X132999929Y-83353622D01*
X132291679Y-84061872D01*
X132230356Y-84095357D01*
X132160664Y-84090373D01*
X132135108Y-84077294D01*
X132122252Y-84068704D01*
X132097545Y-84052195D01*
X132097544Y-84052194D01*
X132097543Y-84052194D01*
X132097540Y-84052193D01*
X132024627Y-84037690D01*
X132024624Y-84037690D01*
X131975376Y-84037690D01*
X131918640Y-84048975D01*
X131849049Y-84042746D01*
X131793872Y-83999883D01*
X131770628Y-83933993D01*
X131786696Y-83865996D01*
X131806769Y-83839676D01*
X132646376Y-83000069D01*
X132646376Y-83000068D01*
X132540632Y-82904228D01*
X132224958Y-82670109D01*
X131887864Y-82468062D01*
X131532575Y-82300023D01*
X131532559Y-82300016D01*
X131162549Y-82167625D01*
X130781308Y-82072129D01*
X130392550Y-82014461D01*
X129999999Y-81995176D01*
X129607449Y-82014461D01*
X129218691Y-82072129D01*
X128837450Y-82167625D01*
X128467440Y-82300016D01*
X128467424Y-82300023D01*
X128112135Y-82468062D01*
X127775041Y-82670109D01*
X127459368Y-82904228D01*
X127353622Y-83000069D01*
X128212549Y-83858996D01*
X128246034Y-83920319D01*
X128241050Y-83990011D01*
X128199178Y-84045944D01*
X128193760Y-84049778D01*
X128107450Y-84107449D01*
X128107449Y-84107450D01*
X128049778Y-84193760D01*
X127996166Y-84238564D01*
X127926841Y-84247271D01*
X127863814Y-84217116D01*
X127858996Y-84212549D01*
X127000069Y-83353622D01*
X126904228Y-83459368D01*
X126670109Y-83775041D01*
X126468062Y-84112135D01*
X126300023Y-84467424D01*
X126300016Y-84467440D01*
X126167625Y-84837450D01*
X126072129Y-85218691D01*
X126014461Y-85607449D01*
X125995176Y-85999999D01*
X124500500Y-85999999D01*
X124500500Y-78810316D01*
X126746000Y-78810316D01*
X126761164Y-78978816D01*
X126821211Y-79196393D01*
X126821217Y-79196408D01*
X126919150Y-79399769D01*
X126919154Y-79399777D01*
X127051826Y-79582384D01*
X127051833Y-79582392D01*
X127214981Y-79738378D01*
X127403363Y-79862729D01*
X127610927Y-79951445D01*
X127610935Y-79951448D01*
X127749998Y-79983188D01*
X127749999Y-79983188D01*
X127749999Y-79113346D01*
X127769684Y-79046307D01*
X127822488Y-79000552D01*
X127891646Y-78990608D01*
X127908929Y-78994367D01*
X127928111Y-79000000D01*
X127928112Y-79000000D01*
X128071890Y-79000000D01*
X128071890Y-78999999D01*
X128091063Y-78994369D01*
X128160932Y-78994368D01*
X128219711Y-79032141D01*
X128248737Y-79095696D01*
X128250000Y-79113346D01*
X128250000Y-79985587D01*
X128280165Y-79981503D01*
X128494845Y-79911749D01*
X128693614Y-79804786D01*
X128693623Y-79804780D01*
X128870087Y-79664055D01*
X128870102Y-79664041D01*
X129018607Y-79494062D01*
X129018608Y-79494060D01*
X129134378Y-79300296D01*
X129134380Y-79300291D01*
X129213696Y-79088958D01*
X129254000Y-78866864D01*
X129254000Y-78250000D01*
X128624000Y-78250000D01*
X128556961Y-78230315D01*
X128511206Y-78177511D01*
X128500000Y-78126000D01*
X128500000Y-77874000D01*
X128519685Y-77806961D01*
X128572489Y-77761206D01*
X128624000Y-77750000D01*
X129254000Y-77750000D01*
X129253999Y-77749999D01*
X129254000Y-77684048D01*
X129273685Y-77617009D01*
X129326489Y-77571254D01*
X129395647Y-77561310D01*
X129459203Y-77590335D01*
X129463677Y-77594409D01*
X129614670Y-77738772D01*
X129711710Y-77802827D01*
X129803125Y-77863171D01*
X129803127Y-77863172D01*
X129803129Y-77863173D01*
X130010771Y-77951923D01*
X130230924Y-78002172D01*
X130422153Y-78010760D01*
X130456506Y-78012303D01*
X130456506Y-78012302D01*
X130456510Y-78012303D01*
X130680281Y-77981991D01*
X130895043Y-77912211D01*
X131093894Y-77805204D01*
X131270442Y-77664411D01*
X131419014Y-77494357D01*
X131534834Y-77300507D01*
X131597667Y-77133090D01*
X132845499Y-77133090D01*
X132845500Y-78810337D01*
X132845500Y-78810339D01*
X132860670Y-78978906D01*
X132920741Y-79196570D01*
X132920747Y-79196585D01*
X133018719Y-79400026D01*
X133018723Y-79400034D01*
X133151448Y-79582715D01*
X133151449Y-79582717D01*
X133151452Y-79582720D01*
X133151453Y-79582721D01*
X133187092Y-79616795D01*
X133314671Y-79738773D01*
X133503125Y-79863171D01*
X133503127Y-79863172D01*
X133503129Y-79863173D01*
X133710771Y-79951923D01*
X133930924Y-80002172D01*
X134122153Y-80010760D01*
X134156506Y-80012303D01*
X134156506Y-80012302D01*
X134156510Y-80012303D01*
X134380281Y-79981991D01*
X134595043Y-79912211D01*
X134793894Y-79805204D01*
X134970442Y-79664411D01*
X135119014Y-79494357D01*
X135234834Y-79300507D01*
X135314180Y-79089092D01*
X135332052Y-78990608D01*
X135354500Y-78866909D01*
X135354500Y-78810339D01*
X138345500Y-78810339D01*
X138360670Y-78978906D01*
X138420741Y-79196570D01*
X138420747Y-79196585D01*
X138518719Y-79400026D01*
X138518723Y-79400034D01*
X138651448Y-79582715D01*
X138651449Y-79582717D01*
X138651452Y-79582720D01*
X138651453Y-79582721D01*
X138687092Y-79616795D01*
X138814671Y-79738773D01*
X139003125Y-79863171D01*
X139003127Y-79863172D01*
X139003129Y-79863173D01*
X139210771Y-79951923D01*
X139430924Y-80002172D01*
X139622153Y-80010760D01*
X139656506Y-80012303D01*
X139656506Y-80012302D01*
X139656510Y-80012303D01*
X139880281Y-79981991D01*
X140095043Y-79912211D01*
X140293894Y-79805204D01*
X140470442Y-79664411D01*
X140619014Y-79494357D01*
X140734834Y-79300507D01*
X140814180Y-79089092D01*
X140832052Y-78990608D01*
X140854500Y-78866909D01*
X140854500Y-77189662D01*
X140854500Y-77189657D01*
X140839329Y-77021095D01*
X140839329Y-77021093D01*
X140812809Y-76925001D01*
X142274500Y-76925001D01*
X142274501Y-76925019D01*
X142285000Y-77027796D01*
X142285001Y-77027799D01*
X142340185Y-77194331D01*
X142340187Y-77194336D01*
X142359603Y-77225814D01*
X142432288Y-77343656D01*
X142556344Y-77467712D01*
X142705666Y-77559814D01*
X142872203Y-77614999D01*
X142974991Y-77625500D01*
X144025008Y-77625499D01*
X144025016Y-77625498D01*
X144025019Y-77625498D01*
X144109598Y-77616858D01*
X144127797Y-77614999D01*
X144294334Y-77559814D01*
X144299768Y-77556461D01*
X144364866Y-77538000D01*
X145679070Y-77538000D01*
X145744166Y-77556461D01*
X145830659Y-77609810D01*
X145830660Y-77609810D01*
X145830666Y-77609814D01*
X145997203Y-77664999D01*
X146099991Y-77675500D01*
X146900008Y-77675499D01*
X146900016Y-77675498D01*
X146900019Y-77675498D01*
X146956302Y-77669748D01*
X147002797Y-77664999D01*
X147027558Y-77656793D01*
X147066562Y-77650500D01*
X148587284Y-77650500D01*
X148676358Y-77652757D01*
X148676358Y-77652756D01*
X148676363Y-77652757D01*
X148736753Y-77641932D01*
X148741412Y-77641280D01*
X148783607Y-77636988D01*
X148802438Y-77635074D01*
X148835227Y-77624786D01*
X148842840Y-77622918D01*
X148876653Y-77616858D01*
X148933621Y-77594101D01*
X148938053Y-77592524D01*
X148945030Y-77590335D01*
X148996588Y-77574159D01*
X149026627Y-77557484D01*
X149033708Y-77554122D01*
X149065617Y-77541377D01*
X149116854Y-77507608D01*
X149120851Y-77505187D01*
X149174502Y-77475409D01*
X149200568Y-77453030D01*
X149206843Y-77448300D01*
X149235519Y-77429402D01*
X149278917Y-77386002D01*
X149282336Y-77382834D01*
X149328895Y-77342866D01*
X149349931Y-77315688D01*
X149355101Y-77309818D01*
X150628101Y-76036819D01*
X150689425Y-76003334D01*
X150715783Y-76000500D01*
X158595374Y-76000500D01*
X158662413Y-76020185D01*
X158708168Y-76072989D01*
X158718112Y-76142147D01*
X158689087Y-76205703D01*
X158672687Y-76221447D01*
X158529560Y-76335586D01*
X158380988Y-76505639D01*
X158265166Y-76699493D01*
X158185819Y-76910908D01*
X158145500Y-77133090D01*
X158145500Y-78810339D01*
X158160670Y-78978906D01*
X158220741Y-79196570D01*
X158220747Y-79196585D01*
X158318719Y-79400026D01*
X158318723Y-79400034D01*
X158451448Y-79582715D01*
X158451449Y-79582717D01*
X158451452Y-79582720D01*
X158451453Y-79582721D01*
X158487092Y-79616795D01*
X158614671Y-79738773D01*
X158803125Y-79863171D01*
X158803127Y-79863172D01*
X158803129Y-79863173D01*
X159010771Y-79951923D01*
X159230924Y-80002172D01*
X159422153Y-80010760D01*
X159456506Y-80012303D01*
X159456506Y-80012302D01*
X159456510Y-80012303D01*
X159680281Y-79981991D01*
X159895043Y-79912211D01*
X160093894Y-79805204D01*
X160270442Y-79664411D01*
X160419014Y-79494357D01*
X160534834Y-79300507D01*
X160614180Y-79089092D01*
X160632052Y-78990608D01*
X160654500Y-78866909D01*
X160654500Y-77189662D01*
X160654500Y-77189657D01*
X160639329Y-77021095D01*
X160639329Y-77021093D01*
X160579258Y-76803429D01*
X160579252Y-76803414D01*
X160481280Y-76599973D01*
X160481276Y-76599965D01*
X160348551Y-76417284D01*
X160348550Y-76417282D01*
X160341841Y-76410868D01*
X160185330Y-76261228D01*
X160134971Y-76227986D01*
X160089867Y-76174626D01*
X160080771Y-76105351D01*
X160110573Y-76042156D01*
X160169809Y-76005104D01*
X160203284Y-76000500D01*
X161034217Y-76000500D01*
X161101256Y-76020185D01*
X161121898Y-76036819D01*
X162063181Y-76978102D01*
X162096666Y-77039425D01*
X162099500Y-77065783D01*
X162099500Y-78440434D01*
X162081948Y-78504034D01*
X162080988Y-78505640D01*
X162080986Y-78505643D01*
X162024630Y-78599967D01*
X161965166Y-78699493D01*
X161885819Y-78910908D01*
X161845500Y-79133090D01*
X161845500Y-80810339D01*
X161860670Y-80978906D01*
X161920741Y-81196570D01*
X161920747Y-81196585D01*
X162018719Y-81400026D01*
X162018723Y-81400034D01*
X162151448Y-81582715D01*
X162151449Y-81582717D01*
X162314671Y-81738773D01*
X162503125Y-81863171D01*
X162503127Y-81863172D01*
X162503129Y-81863173D01*
X162710771Y-81951923D01*
X162930924Y-82002172D01*
X163122153Y-82010760D01*
X163156506Y-82012303D01*
X163156506Y-82012302D01*
X163156510Y-82012303D01*
X163380281Y-81981991D01*
X163595043Y-81912211D01*
X163793894Y-81805204D01*
X163970442Y-81664411D01*
X164119014Y-81494357D01*
X164234834Y-81300507D01*
X164314180Y-81089092D01*
X164354500Y-80866907D01*
X164354500Y-80071742D01*
X164374183Y-80004707D01*
X164426987Y-79958952D01*
X164496146Y-79949008D01*
X164506092Y-79950855D01*
X164510770Y-79951922D01*
X164510771Y-79951923D01*
X164730924Y-80002172D01*
X164922153Y-80010760D01*
X164956506Y-80012303D01*
X164956506Y-80012302D01*
X164956510Y-80012303D01*
X165180281Y-79981991D01*
X165395043Y-79912211D01*
X165593894Y-79805204D01*
X165770442Y-79664411D01*
X165919014Y-79494357D01*
X166034834Y-79300507D01*
X166090195Y-79152998D01*
X166132179Y-79097152D01*
X166197693Y-79072869D01*
X166265936Y-79087860D01*
X166293967Y-79108889D01*
X166316466Y-79131387D01*
X166338978Y-79153899D01*
X166342169Y-79157343D01*
X166382131Y-79203892D01*
X166382134Y-79203895D01*
X166409294Y-79224918D01*
X166415190Y-79230111D01*
X166868913Y-79683834D01*
X167309181Y-80124101D01*
X167342666Y-80185424D01*
X167345500Y-80211782D01*
X167345500Y-80810339D01*
X167360670Y-80978906D01*
X167420741Y-81196570D01*
X167420747Y-81196585D01*
X167518719Y-81400026D01*
X167518723Y-81400034D01*
X167651448Y-81582715D01*
X167651449Y-81582717D01*
X167814671Y-81738773D01*
X168003125Y-81863171D01*
X168003127Y-81863172D01*
X168003129Y-81863173D01*
X168062244Y-81888439D01*
X168116151Y-81932888D01*
X168137471Y-81999425D01*
X168119433Y-82066926D01*
X168067765Y-82113960D01*
X167998871Y-82125594D01*
X167983379Y-82122745D01*
X167781310Y-82072129D01*
X167392550Y-82014461D01*
X167000000Y-81995176D01*
X166607449Y-82014461D01*
X166218691Y-82072129D01*
X165837450Y-82167625D01*
X165467440Y-82300016D01*
X165467424Y-82300023D01*
X165112135Y-82468062D01*
X164775041Y-82670109D01*
X164459368Y-82904228D01*
X164353622Y-83000069D01*
X165068704Y-83715151D01*
X165102189Y-83776474D01*
X165097205Y-83846166D01*
X165055333Y-83902099D01*
X165049915Y-83905933D01*
X164963605Y-83963604D01*
X164963604Y-83963605D01*
X164905933Y-84049915D01*
X164852321Y-84094719D01*
X164782996Y-84103426D01*
X164719969Y-84073271D01*
X164715151Y-84068704D01*
X164000069Y-83353622D01*
X163904228Y-83459368D01*
X163670109Y-83775041D01*
X163468062Y-84112135D01*
X163300023Y-84467424D01*
X163300016Y-84467440D01*
X163167625Y-84837450D01*
X163072129Y-85218691D01*
X163014461Y-85607449D01*
X162995176Y-85999999D01*
X163014461Y-86392550D01*
X163072129Y-86781308D01*
X163167625Y-87162549D01*
X163300016Y-87532559D01*
X163300023Y-87532575D01*
X163468062Y-87887864D01*
X163670109Y-88224958D01*
X163904228Y-88540632D01*
X164000068Y-88646376D01*
X164000069Y-88646376D01*
X164715151Y-87931294D01*
X164776474Y-87897809D01*
X164846165Y-87902793D01*
X164902099Y-87944665D01*
X164905934Y-87950084D01*
X164963605Y-88036395D01*
X165049913Y-88094064D01*
X165094719Y-88147676D01*
X165103426Y-88217001D01*
X165073272Y-88280028D01*
X165068704Y-88284847D01*
X164353622Y-88999929D01*
X164353622Y-88999930D01*
X164459367Y-89095771D01*
X164775041Y-89329890D01*
X165112135Y-89531937D01*
X165467424Y-89699976D01*
X165467440Y-89699983D01*
X165837450Y-89832374D01*
X166218691Y-89927870D01*
X166607449Y-89985538D01*
X167000000Y-90004823D01*
X167392550Y-89985538D01*
X167781308Y-89927870D01*
X168162549Y-89832374D01*
X168532559Y-89699983D01*
X168532575Y-89699976D01*
X168887864Y-89531937D01*
X169224958Y-89329890D01*
X169540632Y-89095770D01*
X169646376Y-88999929D01*
X168931295Y-88284848D01*
X168897810Y-88223525D01*
X168902794Y-88153833D01*
X168944666Y-88097900D01*
X168950085Y-88094065D01*
X168953698Y-88091650D01*
X168953700Y-88091650D01*
X169036395Y-88036395D01*
X169091650Y-87953700D01*
X169091650Y-87953698D01*
X169094065Y-87950085D01*
X169147677Y-87905280D01*
X169217002Y-87896573D01*
X169280029Y-87926727D01*
X169284848Y-87931295D01*
X169999929Y-88646376D01*
X170095770Y-88540632D01*
X170329890Y-88224958D01*
X170531937Y-87887864D01*
X170699976Y-87532575D01*
X170699983Y-87532559D01*
X170832374Y-87162549D01*
X170927870Y-86781308D01*
X170985538Y-86392550D01*
X171004823Y-85999999D01*
X170985538Y-85607449D01*
X170927870Y-85218691D01*
X170832374Y-84837450D01*
X170699983Y-84467440D01*
X170699976Y-84467424D01*
X170531937Y-84112135D01*
X170329890Y-83775041D01*
X170095771Y-83459367D01*
X169999930Y-83353622D01*
X169999929Y-83353622D01*
X169284847Y-84068704D01*
X169223524Y-84102189D01*
X169153832Y-84097205D01*
X169097899Y-84055333D01*
X169094064Y-84049913D01*
X169036395Y-83963605D01*
X168950084Y-83905934D01*
X168905279Y-83852322D01*
X168896572Y-83782997D01*
X168926726Y-83719969D01*
X168931294Y-83715151D01*
X169646376Y-83000069D01*
X169646376Y-83000068D01*
X169540632Y-82904228D01*
X169224958Y-82670109D01*
X168887864Y-82468062D01*
X168532576Y-82300023D01*
X168368241Y-82241224D01*
X168311752Y-82200105D01*
X168286460Y-82134973D01*
X168300397Y-82066508D01*
X168349136Y-82016445D01*
X168417204Y-82000681D01*
X168426659Y-82001594D01*
X168430911Y-82002169D01*
X168430924Y-82002172D01*
X168623413Y-82010816D01*
X168656506Y-82012303D01*
X168656506Y-82012302D01*
X168656510Y-82012303D01*
X168880281Y-81981991D01*
X169095043Y-81912211D01*
X169293894Y-81805204D01*
X169470442Y-81664411D01*
X169619014Y-81494357D01*
X169734834Y-81300507D01*
X169814180Y-81089092D01*
X169827620Y-81015030D01*
X169854500Y-80866909D01*
X169854500Y-79683834D01*
X169874185Y-79616795D01*
X169926989Y-79571040D01*
X169996147Y-79561096D01*
X170059703Y-79590121D01*
X170064192Y-79594208D01*
X170214981Y-79738378D01*
X170403363Y-79862729D01*
X170610929Y-79951446D01*
X170610932Y-79951447D01*
X170749999Y-79983188D01*
X170750000Y-79983188D01*
X170750000Y-79113346D01*
X170769685Y-79046307D01*
X170822489Y-79000552D01*
X170891647Y-78990608D01*
X170908937Y-78994370D01*
X170928108Y-78999999D01*
X170928110Y-79000000D01*
X170928111Y-79000000D01*
X171071890Y-79000000D01*
X171071890Y-78999999D01*
X171091063Y-78994369D01*
X171160932Y-78994368D01*
X171219711Y-79032141D01*
X171248737Y-79095696D01*
X171250000Y-79113346D01*
X171250000Y-79985587D01*
X171280165Y-79981503D01*
X171494845Y-79911749D01*
X171693614Y-79804786D01*
X171693623Y-79804780D01*
X171870087Y-79664055D01*
X171870102Y-79664041D01*
X172018607Y-79494062D01*
X172018608Y-79494060D01*
X172134378Y-79300296D01*
X172134380Y-79300291D01*
X172213696Y-79088958D01*
X172254000Y-78866864D01*
X172254000Y-78250000D01*
X171624000Y-78250000D01*
X171556961Y-78230315D01*
X171511206Y-78177511D01*
X171500000Y-78126000D01*
X171500000Y-77874000D01*
X171519685Y-77806961D01*
X171572489Y-77761206D01*
X171624000Y-77750000D01*
X172254000Y-77750000D01*
X172254000Y-77189685D01*
X172253999Y-77189683D01*
X172238835Y-77021183D01*
X172178788Y-76803606D01*
X172178782Y-76803591D01*
X172080849Y-76600230D01*
X172080845Y-76600222D01*
X171948173Y-76417615D01*
X171948166Y-76417607D01*
X171785018Y-76261621D01*
X171596636Y-76137270D01*
X171389072Y-76048554D01*
X171389066Y-76048552D01*
X171250000Y-76016811D01*
X171250000Y-76886653D01*
X171230315Y-76953692D01*
X171177511Y-76999447D01*
X171108353Y-77009391D01*
X171091067Y-77005631D01*
X171071889Y-77000000D01*
X170928111Y-77000000D01*
X170908933Y-77005631D01*
X170839064Y-77005630D01*
X170780286Y-76967855D01*
X170751262Y-76904299D01*
X170750000Y-76886653D01*
X170750000Y-76014411D01*
X170719828Y-76018498D01*
X170719825Y-76018499D01*
X170505154Y-76088250D01*
X170306385Y-76195213D01*
X170306376Y-76195219D01*
X170129912Y-76335944D01*
X170129897Y-76335958D01*
X169981392Y-76505937D01*
X169981391Y-76505939D01*
X169865621Y-76699703D01*
X169865619Y-76699708D01*
X169786303Y-76911041D01*
X169746507Y-77130341D01*
X169715169Y-77192788D01*
X169655044Y-77228379D01*
X169585221Y-77225814D01*
X169527869Y-77185908D01*
X169501197Y-77121329D01*
X169500500Y-77108200D01*
X169500500Y-76462230D01*
X169520185Y-76395191D01*
X169536819Y-76374549D01*
X169567712Y-76343656D01*
X169659814Y-76194334D01*
X169714999Y-76027797D01*
X169725500Y-75925009D01*
X169725499Y-75149992D01*
X169723772Y-75133090D01*
X169714999Y-75047203D01*
X169714998Y-75047200D01*
X169706347Y-75021093D01*
X169659814Y-74880666D01*
X169567712Y-74731344D01*
X169443656Y-74607288D01*
X169440342Y-74605243D01*
X169438546Y-74603248D01*
X169437989Y-74602807D01*
X169438064Y-74602711D01*
X169393618Y-74553297D01*
X169382397Y-74484334D01*
X169410240Y-74420252D01*
X169440348Y-74394165D01*
X169443342Y-74392318D01*
X169567315Y-74268345D01*
X169659356Y-74119124D01*
X169659358Y-74119119D01*
X169714505Y-73952697D01*
X169714506Y-73952690D01*
X169724999Y-73849986D01*
X169725000Y-73849973D01*
X169725000Y-73712500D01*
X167275001Y-73712500D01*
X167275001Y-73849986D01*
X167285494Y-73952697D01*
X167340641Y-74119119D01*
X167340643Y-74119124D01*
X167432684Y-74268345D01*
X167556655Y-74392316D01*
X167556659Y-74392319D01*
X167559656Y-74394168D01*
X167561279Y-74395972D01*
X167562323Y-74396798D01*
X167562181Y-74396976D01*
X167606381Y-74446116D01*
X167617602Y-74515079D01*
X167589759Y-74579161D01*
X167559661Y-74605241D01*
X167556349Y-74607283D01*
X167556343Y-74607288D01*
X167432289Y-74731342D01*
X167405500Y-74774775D01*
X167353552Y-74821499D01*
X167284589Y-74832722D01*
X167220507Y-74804878D01*
X167212280Y-74797359D01*
X166358286Y-73943365D01*
X165627420Y-73212500D01*
X167275000Y-73212500D01*
X168250000Y-73212500D01*
X168250000Y-72375000D01*
X168750000Y-72375000D01*
X168750000Y-73212500D01*
X169724999Y-73212500D01*
X169724999Y-73075028D01*
X169724998Y-73075013D01*
X169714505Y-72972302D01*
X169659358Y-72805880D01*
X169659356Y-72805875D01*
X169567315Y-72656654D01*
X169443345Y-72532684D01*
X169294124Y-72440643D01*
X169294119Y-72440641D01*
X169127697Y-72385494D01*
X169127690Y-72385493D01*
X169024986Y-72375000D01*
X168750000Y-72375000D01*
X168250000Y-72375000D01*
X167975029Y-72375000D01*
X167975012Y-72375001D01*
X167872302Y-72385494D01*
X167705880Y-72440641D01*
X167705875Y-72440643D01*
X167556654Y-72532684D01*
X167432684Y-72656654D01*
X167340643Y-72805875D01*
X167340641Y-72805880D01*
X167285494Y-72972302D01*
X167285493Y-72972309D01*
X167275000Y-73075013D01*
X167275000Y-73212500D01*
X165627420Y-73212500D01*
X165477117Y-73062197D01*
X165443633Y-73000875D01*
X165448617Y-72931183D01*
X165490489Y-72875250D01*
X165496526Y-72871005D01*
X165516861Y-72857603D01*
X165520851Y-72855187D01*
X165574502Y-72825409D01*
X165600568Y-72803030D01*
X165606843Y-72798300D01*
X165635519Y-72779402D01*
X165678917Y-72736002D01*
X165682336Y-72732834D01*
X165728895Y-72692866D01*
X165749931Y-72665688D01*
X165755101Y-72659818D01*
X167659682Y-70755237D01*
X167721003Y-70721754D01*
X167790695Y-70726738D01*
X167815665Y-70739429D01*
X168003129Y-70863173D01*
X168210771Y-70951923D01*
X168430924Y-71002172D01*
X168622153Y-71010760D01*
X168656506Y-71012303D01*
X168656506Y-71012302D01*
X168656510Y-71012303D01*
X168880281Y-70981991D01*
X169095043Y-70912211D01*
X169293894Y-70805204D01*
X169470442Y-70664411D01*
X169619014Y-70494357D01*
X169734834Y-70300507D01*
X169814180Y-70089092D01*
X169827620Y-70015030D01*
X169854500Y-69866909D01*
X169854500Y-68683834D01*
X169874185Y-68616795D01*
X169926989Y-68571040D01*
X169996147Y-68561096D01*
X170059703Y-68590121D01*
X170064192Y-68594208D01*
X170214981Y-68738378D01*
X170403363Y-68862729D01*
X170610929Y-68951446D01*
X170610932Y-68951447D01*
X170749999Y-68983188D01*
X170750000Y-68983188D01*
X170750000Y-68113346D01*
X170769685Y-68046307D01*
X170822489Y-68000552D01*
X170891647Y-67990608D01*
X170908937Y-67994370D01*
X170928108Y-67999999D01*
X170928110Y-68000000D01*
X170928111Y-68000000D01*
X171071890Y-68000000D01*
X171071890Y-67999999D01*
X171091063Y-67994369D01*
X171160932Y-67994368D01*
X171219711Y-68032141D01*
X171248737Y-68095696D01*
X171250000Y-68113346D01*
X171250000Y-68985587D01*
X171280165Y-68981503D01*
X171494845Y-68911749D01*
X171693614Y-68804786D01*
X171693623Y-68804780D01*
X171870087Y-68664055D01*
X171870102Y-68664041D01*
X172018607Y-68494062D01*
X172018608Y-68494060D01*
X172134378Y-68300296D01*
X172134380Y-68300291D01*
X172213696Y-68088958D01*
X172254000Y-67866864D01*
X172254000Y-67250000D01*
X171624000Y-67250000D01*
X171556961Y-67230315D01*
X171511206Y-67177511D01*
X171500000Y-67126000D01*
X171500000Y-66874000D01*
X171519685Y-66806961D01*
X171572489Y-66761206D01*
X171624000Y-66750000D01*
X172254000Y-66750000D01*
X172254000Y-66189685D01*
X172253999Y-66189683D01*
X172238835Y-66021183D01*
X172178788Y-65803606D01*
X172178782Y-65803591D01*
X172080849Y-65600230D01*
X172080845Y-65600222D01*
X171948173Y-65417615D01*
X171948166Y-65417607D01*
X171785018Y-65261621D01*
X171596636Y-65137270D01*
X171389072Y-65048554D01*
X171389066Y-65048552D01*
X171250000Y-65016811D01*
X171250000Y-65886653D01*
X171230315Y-65953692D01*
X171177511Y-65999447D01*
X171108353Y-66009391D01*
X171091067Y-66005631D01*
X171071889Y-66000000D01*
X170928111Y-66000000D01*
X170908933Y-66005631D01*
X170839064Y-66005630D01*
X170780286Y-65967855D01*
X170751262Y-65904299D01*
X170750000Y-65886653D01*
X170750000Y-65014411D01*
X170719828Y-65018498D01*
X170719825Y-65018499D01*
X170505154Y-65088250D01*
X170306385Y-65195213D01*
X170306376Y-65195219D01*
X170129912Y-65335944D01*
X170129897Y-65335958D01*
X169981392Y-65505937D01*
X169981391Y-65505939D01*
X169865621Y-65699703D01*
X169865619Y-65699708D01*
X169786303Y-65911041D01*
X169746000Y-66133135D01*
X169746000Y-66750000D01*
X170376000Y-66750000D01*
X170443039Y-66769685D01*
X170488794Y-66822489D01*
X170500000Y-66874000D01*
X170500000Y-67126000D01*
X170480315Y-67193039D01*
X170427511Y-67238794D01*
X170376000Y-67250000D01*
X169746000Y-67250000D01*
X169746000Y-67315951D01*
X169726315Y-67382990D01*
X169673511Y-67428745D01*
X169604353Y-67438689D01*
X169540797Y-67409664D01*
X169536322Y-67405590D01*
X169385330Y-67261228D01*
X169385328Y-67261226D01*
X169196874Y-67136828D01*
X169145330Y-67114797D01*
X168989229Y-67048077D01*
X168989222Y-67048075D01*
X168989221Y-67048075D01*
X168832494Y-67012303D01*
X168769076Y-66997828D01*
X168760486Y-66997442D01*
X168543493Y-66987696D01*
X168417918Y-67004707D01*
X168319719Y-67018009D01*
X168319716Y-67018009D01*
X168319715Y-67018010D01*
X168104955Y-67087789D01*
X167906108Y-67194794D01*
X167906105Y-67194796D01*
X167729560Y-67335586D01*
X167580988Y-67505639D01*
X167465166Y-67699493D01*
X167385819Y-67910908D01*
X167345500Y-68133090D01*
X167345500Y-68186292D01*
X167325815Y-68253331D01*
X167302273Y-68280375D01*
X167271106Y-68307132D01*
X167271105Y-68307133D01*
X167250076Y-68334300D01*
X167244884Y-68340194D01*
X164621899Y-70963181D01*
X164560576Y-70996666D01*
X164534218Y-70999500D01*
X163904626Y-70999500D01*
X163837587Y-70979815D01*
X163791832Y-70927011D01*
X163781888Y-70857853D01*
X163810913Y-70794297D01*
X163827313Y-70778553D01*
X163876368Y-70739433D01*
X163970442Y-70664411D01*
X164119014Y-70494357D01*
X164234834Y-70300507D01*
X164314180Y-70089092D01*
X164354500Y-69866907D01*
X164354500Y-69071742D01*
X164374183Y-69004707D01*
X164426987Y-68958952D01*
X164496146Y-68949008D01*
X164506092Y-68950855D01*
X164510770Y-68951922D01*
X164510771Y-68951923D01*
X164730924Y-69002172D01*
X164922153Y-69010760D01*
X164956506Y-69012303D01*
X164956506Y-69012302D01*
X164956510Y-69012303D01*
X165180281Y-68981991D01*
X165395043Y-68912211D01*
X165593894Y-68805204D01*
X165770442Y-68664411D01*
X165919014Y-68494357D01*
X166034834Y-68300507D01*
X166114180Y-68089092D01*
X166132052Y-67990608D01*
X166154500Y-67866909D01*
X166154500Y-66189662D01*
X166154500Y-66189657D01*
X166139329Y-66021095D01*
X166139329Y-66021093D01*
X166079258Y-65803429D01*
X166079252Y-65803414D01*
X165981280Y-65599973D01*
X165981276Y-65599965D01*
X165848551Y-65417284D01*
X165848550Y-65417282D01*
X165685328Y-65261226D01*
X165496874Y-65136828D01*
X165415178Y-65101910D01*
X165289229Y-65048077D01*
X165289222Y-65048075D01*
X165289221Y-65048075D01*
X165193981Y-65026337D01*
X165069076Y-64997828D01*
X165060486Y-64997442D01*
X164843493Y-64987696D01*
X164717193Y-65004805D01*
X164619719Y-65018009D01*
X164619716Y-65018009D01*
X164619715Y-65018010D01*
X164404955Y-65087789D01*
X164206108Y-65194794D01*
X164206105Y-65194796D01*
X164029560Y-65335586D01*
X163880988Y-65505639D01*
X163765166Y-65699493D01*
X163685819Y-65910908D01*
X163645500Y-66133090D01*
X163645500Y-66928253D01*
X163625815Y-66995292D01*
X163573011Y-67041047D01*
X163503853Y-67050991D01*
X163493908Y-67049144D01*
X163269077Y-66997828D01*
X163043493Y-66987696D01*
X162917918Y-67004707D01*
X162819719Y-67018009D01*
X162819716Y-67018009D01*
X162819715Y-67018010D01*
X162604955Y-67087789D01*
X162406108Y-67194794D01*
X162406105Y-67194796D01*
X162229560Y-67335586D01*
X162080988Y-67505639D01*
X161965166Y-67699493D01*
X161885819Y-67910908D01*
X161845500Y-68133090D01*
X161845500Y-69810339D01*
X161860670Y-69978906D01*
X161920741Y-70196570D01*
X161920747Y-70196585D01*
X162018719Y-70400026D01*
X162018723Y-70400034D01*
X162151448Y-70582715D01*
X162151449Y-70582717D01*
X162151452Y-70582720D01*
X162151453Y-70582721D01*
X162314670Y-70738772D01*
X162365028Y-70772013D01*
X162410133Y-70825374D01*
X162419229Y-70894649D01*
X162389427Y-70957844D01*
X162330191Y-70994896D01*
X162296716Y-70999500D01*
X158003283Y-70999500D01*
X157936244Y-70979815D01*
X157915602Y-70963181D01*
X156661818Y-69709397D01*
X156628333Y-69648074D01*
X156625499Y-69621716D01*
X156625499Y-69474998D01*
X156625498Y-69474981D01*
X156614999Y-69372203D01*
X156614998Y-69372200D01*
X156595556Y-69313528D01*
X156559814Y-69205666D01*
X156518961Y-69139432D01*
X156500500Y-69074336D01*
X156500500Y-68066561D01*
X156506794Y-68027557D01*
X156514999Y-68002797D01*
X156525500Y-67900009D01*
X156525500Y-67810339D01*
X158145500Y-67810339D01*
X158160670Y-67978906D01*
X158220741Y-68196570D01*
X158220747Y-68196585D01*
X158318719Y-68400026D01*
X158318723Y-68400034D01*
X158451448Y-68582715D01*
X158451449Y-68582717D01*
X158451452Y-68582720D01*
X158451453Y-68582721D01*
X158474555Y-68604809D01*
X158614671Y-68738773D01*
X158803125Y-68863171D01*
X158803127Y-68863172D01*
X158803129Y-68863173D01*
X159010771Y-68951923D01*
X159230924Y-69002172D01*
X159422153Y-69010760D01*
X159456506Y-69012303D01*
X159456506Y-69012302D01*
X159456510Y-69012303D01*
X159680281Y-68981991D01*
X159895043Y-68912211D01*
X160093894Y-68805204D01*
X160270442Y-68664411D01*
X160419014Y-68494357D01*
X160534834Y-68300507D01*
X160614180Y-68089092D01*
X160632052Y-67990608D01*
X160654500Y-67866909D01*
X160654500Y-66189662D01*
X160654500Y-66189657D01*
X160639329Y-66021095D01*
X160639329Y-66021093D01*
X160579258Y-65803429D01*
X160579252Y-65803414D01*
X160481280Y-65599973D01*
X160481276Y-65599965D01*
X160348551Y-65417284D01*
X160348550Y-65417282D01*
X160185328Y-65261226D01*
X159996874Y-65136828D01*
X159915178Y-65101910D01*
X159789229Y-65048077D01*
X159789222Y-65048075D01*
X159789221Y-65048075D01*
X159693981Y-65026337D01*
X159569076Y-64997828D01*
X159560486Y-64997442D01*
X159343493Y-64987696D01*
X159217193Y-65004805D01*
X159119719Y-65018009D01*
X159119716Y-65018009D01*
X159119715Y-65018010D01*
X158904955Y-65087789D01*
X158706108Y-65194794D01*
X158706105Y-65194796D01*
X158529560Y-65335586D01*
X158380988Y-65505639D01*
X158265166Y-65699493D01*
X158185819Y-65910908D01*
X158145500Y-66133090D01*
X158145500Y-67810339D01*
X156525500Y-67810339D01*
X156525499Y-67099992D01*
X156524252Y-67087789D01*
X156514999Y-66997203D01*
X156514998Y-66997200D01*
X156499995Y-66951924D01*
X156459814Y-66830666D01*
X156367712Y-66681344D01*
X156243656Y-66557288D01*
X156094334Y-66465186D01*
X155927797Y-66410001D01*
X155927795Y-66410000D01*
X155825010Y-66399500D01*
X155174998Y-66399500D01*
X155174980Y-66399501D01*
X155072203Y-66410000D01*
X155072200Y-66410001D01*
X154905668Y-66465185D01*
X154905663Y-66465187D01*
X154756342Y-66557289D01*
X154632289Y-66681342D01*
X154540187Y-66830663D01*
X154540185Y-66830668D01*
X154522139Y-66885129D01*
X154485001Y-66997203D01*
X154485001Y-66997204D01*
X154485000Y-66997204D01*
X154474500Y-67099983D01*
X154474500Y-67900001D01*
X154474501Y-67900019D01*
X154485000Y-68002796D01*
X154493206Y-68027557D01*
X154499500Y-68066562D01*
X154499500Y-68864477D01*
X154479815Y-68931516D01*
X154427011Y-68977271D01*
X154357853Y-68987215D01*
X154294297Y-68958190D01*
X154287819Y-68952158D01*
X154268345Y-68932684D01*
X154119124Y-68840643D01*
X154119119Y-68840641D01*
X153952697Y-68785494D01*
X153952690Y-68785493D01*
X153849986Y-68775000D01*
X153837923Y-68775000D01*
X153770884Y-68755315D01*
X153725129Y-68702511D01*
X153715185Y-68633353D01*
X153744210Y-68569797D01*
X153788807Y-68540043D01*
X153787791Y-68537864D01*
X153794326Y-68534816D01*
X153794334Y-68534814D01*
X153943656Y-68442712D01*
X154067712Y-68318656D01*
X154159814Y-68169334D01*
X154214999Y-68002797D01*
X154225500Y-67900009D01*
X154225499Y-67099992D01*
X154224252Y-67087789D01*
X154214999Y-66997203D01*
X154214998Y-66997200D01*
X154199995Y-66951924D01*
X154159814Y-66830666D01*
X154067712Y-66681344D01*
X153943656Y-66557288D01*
X153794334Y-66465186D01*
X153627797Y-66410001D01*
X153627795Y-66410000D01*
X153525010Y-66399500D01*
X152874998Y-66399500D01*
X152874980Y-66399501D01*
X152772203Y-66410000D01*
X152772200Y-66410001D01*
X152605668Y-66465185D01*
X152605663Y-66465187D01*
X152589933Y-66474889D01*
X152579963Y-66481039D01*
X152514868Y-66499500D01*
X152040758Y-66499500D01*
X151973719Y-66479815D01*
X151953077Y-66463181D01*
X151871402Y-66381506D01*
X151871401Y-66381505D01*
X151685405Y-66251269D01*
X151641781Y-66196692D01*
X151634588Y-66127193D01*
X151666110Y-66064839D01*
X151685405Y-66048119D01*
X151761373Y-65994925D01*
X151259116Y-65492669D01*
X151225631Y-65431346D01*
X151230615Y-65361655D01*
X151267640Y-65312193D01*
X151266398Y-65310759D01*
X151323107Y-65261621D01*
X151381761Y-65210798D01*
X151416954Y-65156037D01*
X151469755Y-65110283D01*
X151538914Y-65100339D01*
X151602470Y-65129363D01*
X151608949Y-65135396D01*
X152114925Y-65641373D01*
X152114926Y-65641373D01*
X152173598Y-65557582D01*
X152173600Y-65557578D01*
X152273429Y-65343492D01*
X152273433Y-65343483D01*
X152334567Y-65115326D01*
X152334569Y-65115315D01*
X152355157Y-64880001D01*
X152355157Y-64879998D01*
X152334569Y-64644684D01*
X152334567Y-64644673D01*
X152273433Y-64416516D01*
X152273429Y-64416507D01*
X152173600Y-64202423D01*
X152173599Y-64202421D01*
X152114925Y-64118626D01*
X152114925Y-64118625D01*
X151608949Y-64624602D01*
X151547626Y-64658087D01*
X151477934Y-64653103D01*
X151422001Y-64611231D01*
X151416953Y-64603961D01*
X151381761Y-64549202D01*
X151266398Y-64449241D01*
X151268708Y-64446574D01*
X151234005Y-64406528D01*
X151224058Y-64337370D01*
X151253080Y-64273813D01*
X151259116Y-64267330D01*
X151761373Y-63765073D01*
X151761373Y-63765072D01*
X151685405Y-63711880D01*
X151641780Y-63657304D01*
X151634586Y-63587805D01*
X151666108Y-63525451D01*
X151685399Y-63508734D01*
X151871401Y-63378495D01*
X151929267Y-63320627D01*
X151970947Y-63293159D01*
X151974163Y-63291873D01*
X151993629Y-63284098D01*
X151998044Y-63282526D01*
X152056588Y-63264159D01*
X152086627Y-63247484D01*
X152093708Y-63244122D01*
X152125617Y-63231377D01*
X152176854Y-63197608D01*
X152180851Y-63195187D01*
X152234502Y-63165409D01*
X152260568Y-63143030D01*
X152266843Y-63138300D01*
X152295519Y-63119402D01*
X152338892Y-63076027D01*
X152342350Y-63072823D01*
X152345613Y-63070020D01*
X152388895Y-63032866D01*
X152409928Y-63005691D01*
X152415098Y-62999821D01*
X153357024Y-62057895D01*
X153418345Y-62024412D01*
X153432094Y-62022221D01*
X153502797Y-62014999D01*
X153669334Y-61959814D01*
X153818656Y-61867712D01*
X153942712Y-61743656D01*
X154034814Y-61594334D01*
X154053489Y-61537974D01*
X154093260Y-61480532D01*
X154157775Y-61453708D01*
X154226551Y-61466022D01*
X154277752Y-61513565D01*
X154288900Y-61537976D01*
X154340641Y-61694119D01*
X154340643Y-61694124D01*
X154432684Y-61843345D01*
X154556654Y-61967315D01*
X154705875Y-62059356D01*
X154705880Y-62059358D01*
X154872302Y-62114505D01*
X154872309Y-62114506D01*
X154975019Y-62124999D01*
X155249999Y-62124999D01*
X155250000Y-62124998D01*
X155250000Y-61287500D01*
X155750000Y-61287500D01*
X155750000Y-62124999D01*
X156024972Y-62124999D01*
X156024986Y-62124998D01*
X156127697Y-62114505D01*
X156294119Y-62059358D01*
X156294124Y-62059356D01*
X156443345Y-61967315D01*
X156567315Y-61843345D01*
X156659356Y-61694124D01*
X156659358Y-61694119D01*
X156714505Y-61527697D01*
X156714506Y-61527690D01*
X156724999Y-61424986D01*
X156725000Y-61424973D01*
X156725000Y-61287500D01*
X155750000Y-61287500D01*
X155250000Y-61287500D01*
X155250000Y-60911500D01*
X155269685Y-60844461D01*
X155322489Y-60798706D01*
X155374000Y-60787500D01*
X156724999Y-60787500D01*
X156724999Y-60650028D01*
X156724998Y-60650013D01*
X156714505Y-60547302D01*
X156670131Y-60413390D01*
X156667729Y-60343562D01*
X156703461Y-60283520D01*
X156765981Y-60252327D01*
X156835440Y-60259887D01*
X156858674Y-60272611D01*
X156895297Y-60298102D01*
X156899044Y-60300926D01*
X156946593Y-60339698D01*
X156977045Y-60355604D01*
X156983758Y-60359672D01*
X157011951Y-60379295D01*
X157068329Y-60403489D01*
X157072578Y-60405507D01*
X157126951Y-60433909D01*
X157154489Y-60441788D01*
X157159974Y-60443358D01*
X157167368Y-60445990D01*
X157198942Y-60459540D01*
X157198945Y-60459540D01*
X157198946Y-60459541D01*
X157259022Y-60471887D01*
X157263600Y-60473010D01*
X157265704Y-60473612D01*
X157322582Y-60489887D01*
X157356839Y-60492495D01*
X157364614Y-60493586D01*
X157398255Y-60500500D01*
X157398259Y-60500500D01*
X157459598Y-60500500D01*
X157464304Y-60500678D01*
X157491595Y-60502757D01*
X157525475Y-60505337D01*
X157525475Y-60505336D01*
X157525476Y-60505337D01*
X157559559Y-60500996D01*
X157567389Y-60500500D01*
X161587284Y-60500500D01*
X161676358Y-60502757D01*
X161676358Y-60502756D01*
X161676363Y-60502757D01*
X161736753Y-60491932D01*
X161741412Y-60491280D01*
X161783607Y-60486988D01*
X161802438Y-60485074D01*
X161835227Y-60474786D01*
X161842840Y-60472918D01*
X161876653Y-60466858D01*
X161933621Y-60444101D01*
X161938053Y-60442524D01*
X161996588Y-60424159D01*
X162026627Y-60407484D01*
X162033708Y-60404122D01*
X162065617Y-60391377D01*
X162116854Y-60357608D01*
X162120851Y-60355187D01*
X162174502Y-60325409D01*
X162200568Y-60303030D01*
X162206843Y-60298300D01*
X162235519Y-60279402D01*
X162278917Y-60236002D01*
X162282336Y-60232834D01*
X162328895Y-60192866D01*
X162349931Y-60165688D01*
X162355101Y-60159818D01*
X162547946Y-59966973D01*
X162609267Y-59933490D01*
X162678959Y-59938474D01*
X162684360Y-59940635D01*
X162710763Y-59951920D01*
X162710765Y-59951920D01*
X162710771Y-59951923D01*
X162930924Y-60002172D01*
X163122153Y-60010760D01*
X163156506Y-60012303D01*
X163156506Y-60012302D01*
X163156510Y-60012303D01*
X163380281Y-59981991D01*
X163595043Y-59912211D01*
X163793894Y-59805204D01*
X163970442Y-59664411D01*
X164119014Y-59494357D01*
X164234834Y-59300507D01*
X164314180Y-59089092D01*
X164354500Y-58866907D01*
X164354500Y-58071742D01*
X164374183Y-58004707D01*
X164426987Y-57958952D01*
X164496146Y-57949008D01*
X164506092Y-57950855D01*
X164510770Y-57951922D01*
X164510771Y-57951923D01*
X164730924Y-58002172D01*
X164922153Y-58010760D01*
X164956506Y-58012303D01*
X164956506Y-58012302D01*
X164956510Y-58012303D01*
X165180281Y-57981991D01*
X165395043Y-57912211D01*
X165593894Y-57805204D01*
X165770442Y-57664411D01*
X165919014Y-57494357D01*
X166034834Y-57300507D01*
X166114180Y-57089092D01*
X166132052Y-56990608D01*
X166154500Y-56866909D01*
X166154500Y-55189662D01*
X166154500Y-55189657D01*
X166139329Y-55021095D01*
X166139329Y-55021093D01*
X166079258Y-54803429D01*
X166079252Y-54803414D01*
X165981280Y-54599973D01*
X165981276Y-54599965D01*
X165848551Y-54417284D01*
X165848550Y-54417282D01*
X165685328Y-54261226D01*
X165496874Y-54136828D01*
X165445330Y-54114797D01*
X165289229Y-54048077D01*
X165289222Y-54048075D01*
X165289221Y-54048075D01*
X165193981Y-54026337D01*
X165069076Y-53997828D01*
X165060486Y-53997442D01*
X164843493Y-53987696D01*
X164717193Y-54004805D01*
X164619719Y-54018009D01*
X164619716Y-54018009D01*
X164619715Y-54018010D01*
X164404955Y-54087789D01*
X164206108Y-54194794D01*
X164206105Y-54194796D01*
X164029560Y-54335586D01*
X163880988Y-54505639D01*
X163765166Y-54699493D01*
X163685819Y-54910908D01*
X163645500Y-55133090D01*
X163645500Y-55928253D01*
X163625815Y-55995292D01*
X163573011Y-56041047D01*
X163503853Y-56050991D01*
X163493908Y-56049144D01*
X163269077Y-55997828D01*
X163043493Y-55987696D01*
X162917918Y-56004707D01*
X162819719Y-56018009D01*
X162819716Y-56018009D01*
X162819715Y-56018010D01*
X162604955Y-56087789D01*
X162406108Y-56194794D01*
X162406105Y-56194796D01*
X162229560Y-56335586D01*
X162080988Y-56505639D01*
X161965166Y-56699493D01*
X161885819Y-56910908D01*
X161845500Y-57133090D01*
X161845500Y-57788217D01*
X161825815Y-57855256D01*
X161809181Y-57875898D01*
X161221899Y-58463181D01*
X161160576Y-58496666D01*
X161134218Y-58499500D01*
X157965782Y-58499500D01*
X157898743Y-58479815D01*
X157878101Y-58463181D01*
X157416452Y-58001532D01*
X157355061Y-57936949D01*
X157355060Y-57936948D01*
X157355059Y-57936947D01*
X157318856Y-57911749D01*
X157304709Y-57901902D01*
X157300946Y-57899064D01*
X157253413Y-57860305D01*
X157253406Y-57860300D01*
X157222959Y-57844397D01*
X157216251Y-57840334D01*
X157188049Y-57820705D01*
X157188046Y-57820703D01*
X157188045Y-57820703D01*
X157188041Y-57820701D01*
X157131680Y-57796514D01*
X157127424Y-57794493D01*
X157073057Y-57766094D01*
X157073050Y-57766091D01*
X157073049Y-57766091D01*
X157067008Y-57764362D01*
X157040030Y-57756642D01*
X157032630Y-57754008D01*
X157001057Y-57740459D01*
X157001058Y-57740459D01*
X156940966Y-57728109D01*
X156936391Y-57726986D01*
X156877420Y-57710113D01*
X156877425Y-57710113D01*
X156843158Y-57707503D01*
X156835380Y-57706412D01*
X156801742Y-57699500D01*
X156801741Y-57699500D01*
X156740402Y-57699500D01*
X156735695Y-57699321D01*
X156730121Y-57698896D01*
X156674524Y-57694662D01*
X156654589Y-57697201D01*
X156640440Y-57699003D01*
X156632611Y-57699500D01*
X153566562Y-57699500D01*
X153527559Y-57693206D01*
X153502799Y-57685001D01*
X153502795Y-57685000D01*
X153400010Y-57674500D01*
X152599998Y-57674500D01*
X152599980Y-57674501D01*
X152497203Y-57685000D01*
X152497200Y-57685001D01*
X152330668Y-57740185D01*
X152330663Y-57740187D01*
X152181342Y-57832289D01*
X152057289Y-57956342D01*
X151965187Y-58105663D01*
X151965185Y-58105666D01*
X151965186Y-58105666D01*
X151910001Y-58272203D01*
X151910001Y-58272204D01*
X151910000Y-58272204D01*
X151899500Y-58374983D01*
X151899500Y-59025001D01*
X151899501Y-59025019D01*
X151910000Y-59127796D01*
X151910001Y-59127799D01*
X151965185Y-59294331D01*
X151965187Y-59294336D01*
X152000069Y-59350888D01*
X152057288Y-59443656D01*
X152181344Y-59567712D01*
X152330666Y-59659814D01*
X152497203Y-59714999D01*
X152599991Y-59725500D01*
X153400008Y-59725499D01*
X153400016Y-59725498D01*
X153400019Y-59725498D01*
X153476238Y-59717712D01*
X153502797Y-59714999D01*
X153527558Y-59706793D01*
X153566562Y-59700500D01*
X154321042Y-59700500D01*
X154388081Y-59720185D01*
X154426580Y-59759402D01*
X154432288Y-59768656D01*
X154556344Y-59892712D01*
X154559628Y-59894737D01*
X154559653Y-59894753D01*
X154561445Y-59896746D01*
X154562011Y-59897193D01*
X154561934Y-59897289D01*
X154606379Y-59946699D01*
X154617603Y-60015661D01*
X154589761Y-60079744D01*
X154559665Y-60105826D01*
X154556660Y-60107679D01*
X154556655Y-60107683D01*
X154432684Y-60231654D01*
X154340643Y-60380875D01*
X154340641Y-60380880D01*
X154301327Y-60499523D01*
X154261554Y-60556968D01*
X154197038Y-60583791D01*
X154128262Y-60571476D01*
X154077063Y-60523933D01*
X154065915Y-60499523D01*
X154063400Y-60491934D01*
X154034814Y-60405666D01*
X153942712Y-60256344D01*
X153818656Y-60132288D01*
X153669334Y-60040186D01*
X153502797Y-59985001D01*
X153502795Y-59985000D01*
X153400010Y-59974500D01*
X152599998Y-59974500D01*
X152599980Y-59974501D01*
X152497203Y-59985000D01*
X152497200Y-59985001D01*
X152330668Y-60040185D01*
X152330663Y-60040187D01*
X152181342Y-60132289D01*
X152057289Y-60256342D01*
X151965187Y-60405663D01*
X151965185Y-60405668D01*
X151938873Y-60485074D01*
X151915050Y-60556968D01*
X151910001Y-60572204D01*
X151910000Y-60572205D01*
X151902778Y-60642899D01*
X151876381Y-60707591D01*
X151867101Y-60717977D01*
X151557914Y-61027164D01*
X151496591Y-61060649D01*
X151438140Y-61059258D01*
X151235413Y-61004938D01*
X151235403Y-61004936D01*
X151000001Y-60984341D01*
X150999999Y-60984341D01*
X150764596Y-61004936D01*
X150764586Y-61004938D01*
X150536344Y-61066094D01*
X150536335Y-61066098D01*
X150322171Y-61165964D01*
X150322169Y-61165965D01*
X150128597Y-61301505D01*
X149961503Y-61468599D01*
X149960349Y-61469975D01*
X149959688Y-61470414D01*
X149957676Y-61472427D01*
X149957271Y-61472022D01*
X149902173Y-61508671D01*
X149832312Y-61509772D01*
X149772946Y-61472928D01*
X149747663Y-61429265D01*
X149744814Y-61420666D01*
X149652712Y-61271344D01*
X149528656Y-61147288D01*
X149425545Y-61083689D01*
X149379336Y-61055187D01*
X149379331Y-61055185D01*
X149377862Y-61054698D01*
X149212797Y-61000001D01*
X149212795Y-61000000D01*
X149110010Y-60989500D01*
X149110009Y-60989500D01*
X149109600Y-60989500D01*
X147806836Y-60989501D01*
X147806836Y-60988151D01*
X147744083Y-60973081D01*
X147718154Y-60953232D01*
X147632897Y-60867975D01*
X147599412Y-60806652D01*
X147597220Y-60792895D01*
X147596669Y-60787500D01*
X147589999Y-60722203D01*
X147534814Y-60555666D01*
X147442712Y-60406344D01*
X147318656Y-60282288D01*
X147225888Y-60225068D01*
X147169336Y-60190187D01*
X147169331Y-60190185D01*
X147095464Y-60165708D01*
X147002797Y-60135001D01*
X147002795Y-60135000D01*
X146900010Y-60124500D01*
X146099998Y-60124500D01*
X146099980Y-60124501D01*
X145997203Y-60135000D01*
X145997200Y-60135001D01*
X145830668Y-60190185D01*
X145830663Y-60190187D01*
X145681342Y-60282289D01*
X145557289Y-60406342D01*
X145465187Y-60555663D01*
X145465185Y-60555668D01*
X145455866Y-60583791D01*
X145410001Y-60722203D01*
X145410001Y-60722204D01*
X145410000Y-60722204D01*
X145399500Y-60824983D01*
X145399500Y-61475001D01*
X145399501Y-61475019D01*
X145410000Y-61577796D01*
X145410001Y-61577799D01*
X145447179Y-61689992D01*
X145465186Y-61744334D01*
X145557288Y-61893656D01*
X145681344Y-62017712D01*
X145830666Y-62109814D01*
X145997203Y-62164999D01*
X146067900Y-62172221D01*
X146132591Y-62198617D01*
X146142978Y-62207897D01*
X146973548Y-63038468D01*
X147034941Y-63103053D01*
X147034947Y-63103057D01*
X147034948Y-63103058D01*
X147085297Y-63138102D01*
X147089048Y-63140930D01*
X147091628Y-63143033D01*
X147125331Y-63170516D01*
X147164672Y-63227608D01*
X147175185Y-63259332D01*
X147175186Y-63259334D01*
X147267288Y-63408656D01*
X147391344Y-63532712D01*
X147540666Y-63624814D01*
X147549264Y-63627663D01*
X147606707Y-63667433D01*
X147633531Y-63731948D01*
X147621217Y-63800724D01*
X147592234Y-63837483D01*
X147592427Y-63837676D01*
X147590798Y-63839304D01*
X147589975Y-63840349D01*
X147588599Y-63841503D01*
X147421505Y-64008597D01*
X147285965Y-64202169D01*
X147285964Y-64202171D01*
X147186098Y-64416335D01*
X147186094Y-64416344D01*
X147124938Y-64644586D01*
X147124936Y-64644596D01*
X147104341Y-64879999D01*
X147104341Y-64880000D01*
X147124936Y-65115403D01*
X147124938Y-65115413D01*
X147186094Y-65343655D01*
X147186096Y-65343659D01*
X147186097Y-65343663D01*
X147252568Y-65486210D01*
X147285965Y-65557830D01*
X147285967Y-65557834D01*
X147344462Y-65641373D01*
X147421501Y-65751396D01*
X147421506Y-65751402D01*
X147588597Y-65918493D01*
X147588603Y-65918498D01*
X147774158Y-66048425D01*
X147817783Y-66103002D01*
X147824977Y-66172500D01*
X147793454Y-66234855D01*
X147774158Y-66251575D01*
X147588600Y-66381503D01*
X147560104Y-66410000D01*
X147506921Y-66463182D01*
X147445601Y-66496666D01*
X147419242Y-66499500D01*
X146835132Y-66499500D01*
X146770036Y-66481039D01*
X146744334Y-66465186D01*
X146577797Y-66410001D01*
X146577795Y-66410000D01*
X146475010Y-66399500D01*
X145824998Y-66399500D01*
X145824980Y-66399501D01*
X145722203Y-66410000D01*
X145722200Y-66410001D01*
X145555668Y-66465185D01*
X145555663Y-66465187D01*
X145406342Y-66557289D01*
X145282289Y-66681342D01*
X145190187Y-66830663D01*
X145190185Y-66830668D01*
X145172139Y-66885129D01*
X145135001Y-66997203D01*
X145135001Y-66997204D01*
X145135000Y-66997204D01*
X145124500Y-67099983D01*
X145124500Y-67125467D01*
X145104815Y-67192506D01*
X145052011Y-67238261D01*
X144982853Y-67248205D01*
X144919297Y-67219180D01*
X144890595Y-67182886D01*
X144889594Y-67180970D01*
X144875499Y-67123551D01*
X144875499Y-67099998D01*
X144875498Y-67099981D01*
X144864999Y-66997203D01*
X144864998Y-66997200D01*
X144849995Y-66951924D01*
X144809814Y-66830666D01*
X144717712Y-66681344D01*
X144593656Y-66557288D01*
X144444334Y-66465186D01*
X144277797Y-66410001D01*
X144277795Y-66410000D01*
X144175010Y-66399500D01*
X143524998Y-66399500D01*
X143524980Y-66399501D01*
X143422203Y-66410000D01*
X143422200Y-66410001D01*
X143255668Y-66465185D01*
X143255663Y-66465187D01*
X143106342Y-66557289D01*
X142982289Y-66681342D01*
X142890187Y-66830663D01*
X142890185Y-66830668D01*
X142872139Y-66885129D01*
X142835001Y-66997203D01*
X142835001Y-66997204D01*
X142835000Y-66997204D01*
X142824500Y-67099983D01*
X142824500Y-67900001D01*
X142824501Y-67900019D01*
X142835000Y-68002796D01*
X142835001Y-68002799D01*
X142890185Y-68169331D01*
X142890187Y-68169336D01*
X142900646Y-68186292D01*
X142981039Y-68316631D01*
X142999500Y-68381727D01*
X142999500Y-68537770D01*
X142979815Y-68604809D01*
X142963181Y-68625451D01*
X142932289Y-68656342D01*
X142840187Y-68805663D01*
X142840185Y-68805668D01*
X142830834Y-68833887D01*
X142785001Y-68972203D01*
X142785001Y-68972204D01*
X142785000Y-68972204D01*
X142774500Y-69074983D01*
X142774500Y-69850001D01*
X142774501Y-69850019D01*
X142785000Y-69952796D01*
X142785001Y-69952799D01*
X142830164Y-70089091D01*
X142840186Y-70119334D01*
X142932288Y-70268656D01*
X143056344Y-70392712D01*
X143059628Y-70394737D01*
X143059653Y-70394753D01*
X143061445Y-70396746D01*
X143062011Y-70397193D01*
X143061934Y-70397289D01*
X143106379Y-70446699D01*
X143117603Y-70515661D01*
X143089761Y-70579744D01*
X143059665Y-70605826D01*
X143056660Y-70607679D01*
X143056655Y-70607683D01*
X142932684Y-70731654D01*
X142840643Y-70880875D01*
X142840641Y-70880880D01*
X142785494Y-71047302D01*
X142785493Y-71047309D01*
X142775000Y-71150013D01*
X142775000Y-71287500D01*
X145224999Y-71287500D01*
X145224999Y-71150028D01*
X145224998Y-71150013D01*
X145214505Y-71047302D01*
X145159358Y-70880880D01*
X145159356Y-70880875D01*
X145067315Y-70731654D01*
X144943344Y-70607683D01*
X144943341Y-70607681D01*
X144940339Y-70605829D01*
X144938713Y-70604021D01*
X144937677Y-70603202D01*
X144937817Y-70603024D01*
X144893617Y-70553880D01*
X144882397Y-70484917D01*
X144910243Y-70420836D01*
X144940344Y-70394754D01*
X144943656Y-70392712D01*
X145067712Y-70268656D01*
X145159814Y-70119334D01*
X145214999Y-69952797D01*
X145225500Y-69850009D01*
X145225499Y-69074992D01*
X145225167Y-69071746D01*
X145214999Y-68972203D01*
X145214998Y-68972200D01*
X145210608Y-68958952D01*
X145159814Y-68805666D01*
X145067712Y-68656344D01*
X145054370Y-68643002D01*
X145036818Y-68625449D01*
X145003333Y-68564125D01*
X145000500Y-68537769D01*
X145000500Y-68299042D01*
X145020185Y-68232003D01*
X145072989Y-68186248D01*
X145142147Y-68176304D01*
X145205703Y-68205329D01*
X145230038Y-68233944D01*
X145249585Y-68265636D01*
X145275180Y-68307133D01*
X145282288Y-68318656D01*
X145406344Y-68442712D01*
X145555666Y-68534814D01*
X145722203Y-68589999D01*
X145824991Y-68600500D01*
X146475008Y-68600499D01*
X146475016Y-68600498D01*
X146475019Y-68600498D01*
X146538287Y-68594035D01*
X146577797Y-68589999D01*
X146744334Y-68534814D01*
X146770036Y-68518960D01*
X146835132Y-68500500D01*
X147609491Y-68500500D01*
X147676530Y-68520185D01*
X147680614Y-68522925D01*
X147774158Y-68588425D01*
X147817783Y-68643002D01*
X147824977Y-68712500D01*
X147793454Y-68774855D01*
X147774158Y-68791575D01*
X147588597Y-68921505D01*
X147421505Y-69088597D01*
X147285965Y-69282169D01*
X147285964Y-69282171D01*
X147186098Y-69496335D01*
X147186094Y-69496344D01*
X147124938Y-69724586D01*
X147124936Y-69724596D01*
X147104341Y-69959999D01*
X147104341Y-69960000D01*
X147124936Y-70195403D01*
X147124938Y-70195413D01*
X147186094Y-70423655D01*
X147186096Y-70423659D01*
X147186097Y-70423663D01*
X147260265Y-70582717D01*
X147285965Y-70637830D01*
X147285967Y-70637834D01*
X147356645Y-70738772D01*
X147421501Y-70831396D01*
X147421506Y-70831402D01*
X147588597Y-70998493D01*
X147588603Y-70998498D01*
X147774158Y-71128425D01*
X147817783Y-71183002D01*
X147824977Y-71252500D01*
X147793454Y-71314855D01*
X147774158Y-71331575D01*
X147588597Y-71461505D01*
X147421505Y-71628597D01*
X147285965Y-71822169D01*
X147285964Y-71822171D01*
X147186098Y-72036335D01*
X147186094Y-72036344D01*
X147124938Y-72264586D01*
X147124936Y-72264596D01*
X147113955Y-72390097D01*
X147088501Y-72455166D01*
X147078108Y-72466969D01*
X146256896Y-73288181D01*
X146195573Y-73321666D01*
X146169217Y-73324500D01*
X146099999Y-73324500D01*
X146099980Y-73324501D01*
X145997203Y-73335000D01*
X145997200Y-73335001D01*
X145830668Y-73390185D01*
X145830663Y-73390187D01*
X145681342Y-73482289D01*
X145557289Y-73606342D01*
X145465187Y-73755663D01*
X145465185Y-73755668D01*
X145452385Y-73794297D01*
X145410001Y-73922203D01*
X145410001Y-73922204D01*
X145410000Y-73922204D01*
X145399500Y-74024983D01*
X145399500Y-74675001D01*
X145399501Y-74675019D01*
X145410000Y-74777796D01*
X145410001Y-74777799D01*
X145433922Y-74849986D01*
X145465186Y-74944334D01*
X145557288Y-75093656D01*
X145681344Y-75217712D01*
X145763434Y-75268345D01*
X145826851Y-75307461D01*
X145873576Y-75359409D01*
X145884799Y-75428371D01*
X145856955Y-75492454D01*
X145798887Y-75531310D01*
X145761755Y-75537000D01*
X144598023Y-75537000D01*
X144530984Y-75517315D01*
X144485229Y-75464511D01*
X144475285Y-75395353D01*
X144504310Y-75331797D01*
X144510342Y-75325319D01*
X144567315Y-75268345D01*
X144659356Y-75119124D01*
X144659358Y-75119119D01*
X144714505Y-74952697D01*
X144714506Y-74952690D01*
X144724999Y-74849986D01*
X144725000Y-74849973D01*
X144725000Y-74712500D01*
X142275001Y-74712500D01*
X142275001Y-74849986D01*
X142285494Y-74952697D01*
X142340641Y-75119119D01*
X142340643Y-75119124D01*
X142432684Y-75268345D01*
X142556655Y-75392316D01*
X142556659Y-75392319D01*
X142559656Y-75394168D01*
X142561279Y-75395972D01*
X142562323Y-75396798D01*
X142562181Y-75396976D01*
X142606381Y-75446116D01*
X142617602Y-75515079D01*
X142589759Y-75579161D01*
X142559661Y-75605241D01*
X142556349Y-75607283D01*
X142556343Y-75607288D01*
X142432289Y-75731342D01*
X142340187Y-75880663D01*
X142340185Y-75880668D01*
X142326783Y-75921113D01*
X142285001Y-76047203D01*
X142285001Y-76047204D01*
X142285000Y-76047204D01*
X142274500Y-76149983D01*
X142274500Y-76925001D01*
X140812809Y-76925001D01*
X140779258Y-76803429D01*
X140779252Y-76803414D01*
X140681280Y-76599973D01*
X140681276Y-76599965D01*
X140548551Y-76417284D01*
X140548550Y-76417282D01*
X140541841Y-76410868D01*
X140385330Y-76261228D01*
X140385328Y-76261226D01*
X140196874Y-76136828D01*
X140123229Y-76105351D01*
X139989229Y-76048077D01*
X139989222Y-76048075D01*
X139989221Y-76048075D01*
X139867027Y-76020185D01*
X139769076Y-75997828D01*
X139760486Y-75997442D01*
X139543493Y-75987696D01*
X139417193Y-76004805D01*
X139319719Y-76018009D01*
X139319716Y-76018009D01*
X139319715Y-76018010D01*
X139104955Y-76087789D01*
X138906108Y-76194794D01*
X138906105Y-76194796D01*
X138729560Y-76335586D01*
X138580988Y-76505639D01*
X138465166Y-76699493D01*
X138385819Y-76910908D01*
X138345500Y-77133090D01*
X138345500Y-78810339D01*
X135354500Y-78810339D01*
X135354500Y-78071746D01*
X135374185Y-78004707D01*
X135426989Y-77958952D01*
X135496147Y-77949008D01*
X135506093Y-77950855D01*
X135510769Y-77951922D01*
X135510771Y-77951923D01*
X135730924Y-78002172D01*
X135922153Y-78010760D01*
X135956506Y-78012303D01*
X135956506Y-78012302D01*
X135956510Y-78012303D01*
X136180281Y-77981991D01*
X136395043Y-77912211D01*
X136593894Y-77805204D01*
X136770442Y-77664411D01*
X136919014Y-77494357D01*
X137034834Y-77300507D01*
X137114180Y-77089092D01*
X137138751Y-76953692D01*
X137154500Y-76866909D01*
X137154500Y-75189662D01*
X137154500Y-75189657D01*
X137139329Y-75021095D01*
X137139329Y-75021093D01*
X137079258Y-74803429D01*
X137079252Y-74803414D01*
X137066916Y-74777799D01*
X136982645Y-74602807D01*
X136981280Y-74599973D01*
X136981276Y-74599965D01*
X136848551Y-74417284D01*
X136848550Y-74417282D01*
X136826261Y-74395972D01*
X136685330Y-74261228D01*
X136685328Y-74261226D01*
X136611512Y-74212500D01*
X142275000Y-74212500D01*
X143250000Y-74212500D01*
X143250000Y-73375000D01*
X143750000Y-73375000D01*
X143750000Y-74212500D01*
X144724999Y-74212500D01*
X144724999Y-74075028D01*
X144724998Y-74075013D01*
X144714505Y-73972302D01*
X144659358Y-73805880D01*
X144659356Y-73805875D01*
X144567315Y-73656654D01*
X144443345Y-73532684D01*
X144294124Y-73440643D01*
X144294119Y-73440641D01*
X144127697Y-73385494D01*
X144127690Y-73385493D01*
X144024986Y-73375000D01*
X143750000Y-73375000D01*
X143250000Y-73375000D01*
X142975029Y-73375000D01*
X142975012Y-73375001D01*
X142872302Y-73385494D01*
X142705880Y-73440641D01*
X142705875Y-73440643D01*
X142556654Y-73532684D01*
X142432684Y-73656654D01*
X142340643Y-73805875D01*
X142340641Y-73805880D01*
X142285494Y-73972302D01*
X142285493Y-73972309D01*
X142275000Y-74075013D01*
X142275000Y-74212500D01*
X136611512Y-74212500D01*
X136496874Y-74136828D01*
X136430884Y-74108623D01*
X136289229Y-74048077D01*
X136289222Y-74048075D01*
X136289221Y-74048075D01*
X136143982Y-74014925D01*
X136069076Y-73997828D01*
X136060486Y-73997442D01*
X135843493Y-73987696D01*
X135717193Y-74004805D01*
X135619719Y-74018009D01*
X135619716Y-74018009D01*
X135619715Y-74018010D01*
X135404955Y-74087789D01*
X135206108Y-74194794D01*
X135206105Y-74194796D01*
X135029560Y-74335586D01*
X134880988Y-74505639D01*
X134765166Y-74699493D01*
X134685819Y-74910908D01*
X134645500Y-75133090D01*
X134645500Y-75928253D01*
X134625815Y-75995292D01*
X134573011Y-76041047D01*
X134503853Y-76050991D01*
X134493908Y-76049144D01*
X134269077Y-75997828D01*
X134043493Y-75987696D01*
X133917193Y-76004805D01*
X133819719Y-76018009D01*
X133819716Y-76018009D01*
X133819715Y-76018010D01*
X133604955Y-76087789D01*
X133406108Y-76194794D01*
X133406105Y-76194796D01*
X133229560Y-76335586D01*
X133080988Y-76505639D01*
X132965166Y-76699493D01*
X132885819Y-76910908D01*
X132845499Y-77133090D01*
X131597667Y-77133090D01*
X131614180Y-77089092D01*
X131638751Y-76953692D01*
X131654500Y-76866909D01*
X131654500Y-75189662D01*
X131654500Y-75189657D01*
X131639329Y-75021095D01*
X131639329Y-75021093D01*
X131579258Y-74803429D01*
X131579252Y-74803414D01*
X131566916Y-74777799D01*
X131482645Y-74602807D01*
X131481280Y-74599973D01*
X131481276Y-74599965D01*
X131348551Y-74417284D01*
X131348550Y-74417282D01*
X131326261Y-74395972D01*
X131185330Y-74261228D01*
X131185328Y-74261226D01*
X130996874Y-74136828D01*
X130930884Y-74108623D01*
X130789229Y-74048077D01*
X130789222Y-74048075D01*
X130789221Y-74048075D01*
X130643982Y-74014925D01*
X130569076Y-73997828D01*
X130560486Y-73997442D01*
X130343493Y-73987696D01*
X130217193Y-74004805D01*
X130119719Y-74018009D01*
X130119716Y-74018009D01*
X130119715Y-74018010D01*
X129904955Y-74087789D01*
X129706108Y-74194794D01*
X129706105Y-74194796D01*
X129529560Y-74335586D01*
X129380988Y-74505639D01*
X129265166Y-74699493D01*
X129185819Y-74910908D01*
X129145499Y-75133090D01*
X129145500Y-76316165D01*
X129125815Y-76383204D01*
X129073011Y-76428959D01*
X129003853Y-76438903D01*
X128940297Y-76409878D01*
X128935808Y-76405791D01*
X128785018Y-76261621D01*
X128596636Y-76137270D01*
X128389072Y-76048554D01*
X128389066Y-76048552D01*
X128250000Y-76016811D01*
X128249999Y-76016811D01*
X128249999Y-76886653D01*
X128230314Y-76953693D01*
X128177510Y-76999447D01*
X128108352Y-77009391D01*
X128091064Y-77005630D01*
X128071890Y-77000000D01*
X128071889Y-77000000D01*
X127928111Y-77000000D01*
X127928110Y-77000000D01*
X127908931Y-77005631D01*
X127839062Y-77005629D01*
X127780284Y-76967854D01*
X127751261Y-76904297D01*
X127749999Y-76886653D01*
X127749999Y-76014411D01*
X127749998Y-76014411D01*
X127719827Y-76018498D01*
X127505154Y-76088250D01*
X127306385Y-76195213D01*
X127306376Y-76195219D01*
X127129912Y-76335944D01*
X127129897Y-76335958D01*
X126981392Y-76505937D01*
X126981391Y-76505939D01*
X126865621Y-76699703D01*
X126865619Y-76699708D01*
X126786303Y-76911041D01*
X126746000Y-77133135D01*
X126746000Y-77750000D01*
X127376000Y-77750000D01*
X127443039Y-77769685D01*
X127488794Y-77822489D01*
X127500000Y-77874000D01*
X127500000Y-78126000D01*
X127480315Y-78193039D01*
X127427511Y-78238794D01*
X127376000Y-78250000D01*
X126746000Y-78250000D01*
X126746000Y-78810316D01*
X124500500Y-78810316D01*
X124500500Y-71787500D01*
X142775001Y-71787500D01*
X142775001Y-71924986D01*
X142785494Y-72027697D01*
X142840641Y-72194119D01*
X142840643Y-72194124D01*
X142932684Y-72343345D01*
X143056654Y-72467315D01*
X143205875Y-72559356D01*
X143205880Y-72559358D01*
X143372302Y-72614505D01*
X143372309Y-72614506D01*
X143475019Y-72624999D01*
X143749999Y-72624999D01*
X143750000Y-72624998D01*
X143750000Y-71787500D01*
X144250000Y-71787500D01*
X144250000Y-72624999D01*
X144524972Y-72624999D01*
X144524986Y-72624998D01*
X144627697Y-72614505D01*
X144794119Y-72559358D01*
X144794124Y-72559356D01*
X144943345Y-72467315D01*
X145067315Y-72343345D01*
X145159356Y-72194124D01*
X145159358Y-72194119D01*
X145214505Y-72027697D01*
X145214506Y-72027690D01*
X145224999Y-71924986D01*
X145225000Y-71924973D01*
X145225000Y-71787500D01*
X144250000Y-71787500D01*
X143750000Y-71787500D01*
X142775001Y-71787500D01*
X124500500Y-71787500D01*
X124500500Y-67810316D01*
X126746000Y-67810316D01*
X126761164Y-67978816D01*
X126821211Y-68196393D01*
X126821217Y-68196408D01*
X126919150Y-68399769D01*
X126919154Y-68399777D01*
X127051826Y-68582384D01*
X127051833Y-68582392D01*
X127214981Y-68738378D01*
X127403363Y-68862729D01*
X127610927Y-68951445D01*
X127610935Y-68951448D01*
X127749998Y-68983188D01*
X127749999Y-68983188D01*
X127749999Y-68113346D01*
X127769684Y-68046307D01*
X127822488Y-68000552D01*
X127891646Y-67990608D01*
X127908929Y-67994367D01*
X127928111Y-68000000D01*
X127928112Y-68000000D01*
X128071890Y-68000000D01*
X128071890Y-67999999D01*
X128091063Y-67994369D01*
X128160932Y-67994368D01*
X128219711Y-68032141D01*
X128248737Y-68095696D01*
X128250000Y-68113346D01*
X128250000Y-68985587D01*
X128280165Y-68981503D01*
X128494845Y-68911749D01*
X128693614Y-68804786D01*
X128693623Y-68804780D01*
X128870087Y-68664055D01*
X128870102Y-68664041D01*
X129018607Y-68494062D01*
X129018608Y-68494060D01*
X129134378Y-68300296D01*
X129134380Y-68300291D01*
X129213696Y-68088958D01*
X129254000Y-67866864D01*
X129254000Y-67250000D01*
X128624000Y-67250000D01*
X128556961Y-67230315D01*
X128511206Y-67177511D01*
X128500000Y-67126000D01*
X128500000Y-66874000D01*
X128519685Y-66806961D01*
X128572489Y-66761206D01*
X128624000Y-66750000D01*
X129253999Y-66750000D01*
X129254000Y-66684048D01*
X129273685Y-66617009D01*
X129326489Y-66571254D01*
X129395647Y-66561310D01*
X129459203Y-66590335D01*
X129463677Y-66594409D01*
X129614670Y-66738772D01*
X129711710Y-66802827D01*
X129803125Y-66863171D01*
X129803127Y-66863172D01*
X129803129Y-66863173D01*
X130010771Y-66951923D01*
X130230924Y-67002172D01*
X130422153Y-67010760D01*
X130456506Y-67012303D01*
X130456506Y-67012302D01*
X130456510Y-67012303D01*
X130680281Y-66981991D01*
X130895043Y-66912211D01*
X131093894Y-66805204D01*
X131270442Y-66664411D01*
X131419014Y-66494357D01*
X131534834Y-66300507D01*
X131597667Y-66133090D01*
X132845499Y-66133090D01*
X132845500Y-67810337D01*
X132845500Y-67810339D01*
X132860670Y-67978906D01*
X132920741Y-68196570D01*
X132920747Y-68196585D01*
X133018719Y-68400026D01*
X133018723Y-68400034D01*
X133151448Y-68582715D01*
X133151449Y-68582717D01*
X133151452Y-68582720D01*
X133151453Y-68582721D01*
X133174555Y-68604809D01*
X133314671Y-68738773D01*
X133503125Y-68863171D01*
X133503127Y-68863172D01*
X133503129Y-68863173D01*
X133710771Y-68951923D01*
X133930924Y-69002172D01*
X134122153Y-69010760D01*
X134156506Y-69012303D01*
X134156506Y-69012302D01*
X134156510Y-69012303D01*
X134380281Y-68981991D01*
X134595043Y-68912211D01*
X134793894Y-68805204D01*
X134970442Y-68664411D01*
X135119014Y-68494357D01*
X135234834Y-68300507D01*
X135314180Y-68089092D01*
X135332052Y-67990608D01*
X135354500Y-67866909D01*
X135354500Y-67810339D01*
X138345500Y-67810339D01*
X138360670Y-67978906D01*
X138420741Y-68196570D01*
X138420747Y-68196585D01*
X138518719Y-68400026D01*
X138518723Y-68400034D01*
X138651448Y-68582715D01*
X138651449Y-68582717D01*
X138651452Y-68582720D01*
X138651453Y-68582721D01*
X138674555Y-68604809D01*
X138814671Y-68738773D01*
X139003125Y-68863171D01*
X139003127Y-68863172D01*
X139003129Y-68863173D01*
X139210771Y-68951923D01*
X139430924Y-69002172D01*
X139622153Y-69010760D01*
X139656506Y-69012303D01*
X139656506Y-69012302D01*
X139656510Y-69012303D01*
X139880281Y-68981991D01*
X140095043Y-68912211D01*
X140293894Y-68805204D01*
X140470442Y-68664411D01*
X140619014Y-68494357D01*
X140734834Y-68300507D01*
X140814180Y-68089092D01*
X140832052Y-67990608D01*
X140854500Y-67866909D01*
X140854500Y-66189662D01*
X140854500Y-66189657D01*
X140839329Y-66021095D01*
X140839329Y-66021093D01*
X140779258Y-65803429D01*
X140779252Y-65803414D01*
X140681280Y-65599973D01*
X140681276Y-65599965D01*
X140548551Y-65417284D01*
X140548550Y-65417282D01*
X140385328Y-65261226D01*
X140196874Y-65136828D01*
X140115178Y-65101910D01*
X139989229Y-65048077D01*
X139989222Y-65048075D01*
X139989221Y-65048075D01*
X139893981Y-65026337D01*
X139769076Y-64997828D01*
X139760486Y-64997442D01*
X139543493Y-64987696D01*
X139417193Y-65004805D01*
X139319719Y-65018009D01*
X139319716Y-65018009D01*
X139319715Y-65018010D01*
X139104955Y-65087789D01*
X138906108Y-65194794D01*
X138906105Y-65194796D01*
X138729560Y-65335586D01*
X138580988Y-65505639D01*
X138465166Y-65699493D01*
X138385819Y-65910908D01*
X138345500Y-66133090D01*
X138345500Y-67810339D01*
X135354500Y-67810339D01*
X135354500Y-67071746D01*
X135374185Y-67004707D01*
X135426989Y-66958952D01*
X135496147Y-66949008D01*
X135506093Y-66950855D01*
X135510769Y-66951922D01*
X135510771Y-66951923D01*
X135730924Y-67002172D01*
X135922153Y-67010760D01*
X135956506Y-67012303D01*
X135956506Y-67012302D01*
X135956510Y-67012303D01*
X136180281Y-66981991D01*
X136395043Y-66912211D01*
X136593894Y-66805204D01*
X136770442Y-66664411D01*
X136919014Y-66494357D01*
X137034834Y-66300507D01*
X137114180Y-66089092D01*
X137145138Y-65918498D01*
X137154500Y-65866909D01*
X137154500Y-64189662D01*
X137154500Y-64189657D01*
X137139329Y-64021095D01*
X137139329Y-64021093D01*
X137079258Y-63803429D01*
X137079252Y-63803414D01*
X137060787Y-63765072D01*
X137006793Y-63652952D01*
X136981280Y-63599973D01*
X136981276Y-63599965D01*
X136848551Y-63417284D01*
X136848550Y-63417282D01*
X136685328Y-63261226D01*
X136496874Y-63136828D01*
X136417852Y-63103053D01*
X136289229Y-63048077D01*
X136289222Y-63048075D01*
X136289221Y-63048075D01*
X136157494Y-63018009D01*
X136069076Y-62997828D01*
X136060486Y-62997442D01*
X135843493Y-62987696D01*
X135717193Y-63004805D01*
X135619719Y-63018009D01*
X135619716Y-63018009D01*
X135619715Y-63018010D01*
X135404955Y-63087789D01*
X135206108Y-63194794D01*
X135206105Y-63194796D01*
X135029560Y-63335586D01*
X134880988Y-63505639D01*
X134765166Y-63699493D01*
X134685819Y-63910908D01*
X134645500Y-64133090D01*
X134645500Y-64928253D01*
X134625815Y-64995292D01*
X134573011Y-65041047D01*
X134503853Y-65050991D01*
X134493908Y-65049144D01*
X134269077Y-64997828D01*
X134043493Y-64987696D01*
X133917193Y-65004805D01*
X133819719Y-65018009D01*
X133819716Y-65018009D01*
X133819715Y-65018010D01*
X133604955Y-65087789D01*
X133406108Y-65194794D01*
X133406105Y-65194796D01*
X133229560Y-65335586D01*
X133080988Y-65505639D01*
X132965166Y-65699493D01*
X132885819Y-65910908D01*
X132845499Y-66133090D01*
X131597667Y-66133090D01*
X131614180Y-66089092D01*
X131645138Y-65918498D01*
X131654500Y-65866909D01*
X131654500Y-64189662D01*
X131654500Y-64189657D01*
X131639329Y-64021095D01*
X131639329Y-64021093D01*
X131579258Y-63803429D01*
X131579252Y-63803414D01*
X131560787Y-63765072D01*
X131506793Y-63652952D01*
X131481280Y-63599973D01*
X131481276Y-63599965D01*
X131348551Y-63417284D01*
X131348550Y-63417282D01*
X131185328Y-63261226D01*
X130996874Y-63136828D01*
X130917852Y-63103053D01*
X130789229Y-63048077D01*
X130789222Y-63048075D01*
X130789221Y-63048075D01*
X130657494Y-63018009D01*
X130569076Y-62997828D01*
X130560486Y-62997442D01*
X130343493Y-62987696D01*
X130217193Y-63004805D01*
X130119719Y-63018009D01*
X130119716Y-63018009D01*
X130119715Y-63018010D01*
X129904955Y-63087789D01*
X129706108Y-63194794D01*
X129706105Y-63194796D01*
X129529560Y-63335586D01*
X129380988Y-63505639D01*
X129265166Y-63699493D01*
X129185819Y-63910908D01*
X129145499Y-64133090D01*
X129145500Y-65316165D01*
X129125815Y-65383204D01*
X129073011Y-65428959D01*
X129003853Y-65438903D01*
X128940297Y-65409878D01*
X128935808Y-65405791D01*
X128785018Y-65261621D01*
X128596636Y-65137270D01*
X128389072Y-65048554D01*
X128389066Y-65048552D01*
X128250000Y-65016811D01*
X128249999Y-65016811D01*
X128249999Y-65886653D01*
X128230314Y-65953693D01*
X128177510Y-65999447D01*
X128108352Y-66009391D01*
X128091064Y-66005630D01*
X128071890Y-66000000D01*
X128071889Y-66000000D01*
X127928111Y-66000000D01*
X127928110Y-66000000D01*
X127908931Y-66005631D01*
X127839062Y-66005629D01*
X127780284Y-65967854D01*
X127751261Y-65904297D01*
X127749999Y-65886653D01*
X127749999Y-65014411D01*
X127749998Y-65014411D01*
X127719827Y-65018498D01*
X127505154Y-65088250D01*
X127306385Y-65195213D01*
X127306376Y-65195219D01*
X127129912Y-65335944D01*
X127129897Y-65335958D01*
X126981392Y-65505937D01*
X126981391Y-65505939D01*
X126865621Y-65699703D01*
X126865619Y-65699708D01*
X126786303Y-65911041D01*
X126746000Y-66133135D01*
X126746000Y-66750000D01*
X127376000Y-66750000D01*
X127443039Y-66769685D01*
X127488794Y-66822489D01*
X127500000Y-66874000D01*
X127500000Y-67126000D01*
X127480315Y-67193039D01*
X127427511Y-67238794D01*
X127376000Y-67250000D01*
X126746000Y-67250000D01*
X126746000Y-67810316D01*
X124500500Y-67810316D01*
X124500500Y-56810316D01*
X126746000Y-56810316D01*
X126761164Y-56978816D01*
X126821211Y-57196393D01*
X126821217Y-57196408D01*
X126919150Y-57399769D01*
X126919154Y-57399777D01*
X127051826Y-57582384D01*
X127051833Y-57582392D01*
X127214981Y-57738378D01*
X127403363Y-57862729D01*
X127610927Y-57951445D01*
X127610935Y-57951448D01*
X127749998Y-57983188D01*
X127749999Y-57983188D01*
X127749999Y-57113346D01*
X127769684Y-57046307D01*
X127822488Y-57000552D01*
X127891646Y-56990608D01*
X127908929Y-56994367D01*
X127928111Y-57000000D01*
X127928112Y-57000000D01*
X128071890Y-57000000D01*
X128071890Y-56999999D01*
X128091063Y-56994369D01*
X128160932Y-56994368D01*
X128219711Y-57032141D01*
X128248737Y-57095696D01*
X128250000Y-57113346D01*
X128250000Y-57985587D01*
X128280165Y-57981503D01*
X128494845Y-57911749D01*
X128693614Y-57804786D01*
X128693623Y-57804780D01*
X128870087Y-57664055D01*
X128870102Y-57664041D01*
X129018607Y-57494062D01*
X129018608Y-57494060D01*
X129134378Y-57300296D01*
X129134380Y-57300291D01*
X129213696Y-57088958D01*
X129254000Y-56866864D01*
X129254000Y-56250000D01*
X128624000Y-56250000D01*
X128556961Y-56230315D01*
X128511206Y-56177511D01*
X128500000Y-56126000D01*
X128500000Y-55874000D01*
X128519685Y-55806961D01*
X128572489Y-55761206D01*
X128624000Y-55750000D01*
X129254000Y-55750000D01*
X129253999Y-55749999D01*
X129254000Y-55684048D01*
X129273685Y-55617009D01*
X129326489Y-55571254D01*
X129395647Y-55561310D01*
X129459203Y-55590335D01*
X129463677Y-55594409D01*
X129614670Y-55738772D01*
X129711710Y-55802827D01*
X129803125Y-55863171D01*
X129803127Y-55863172D01*
X129803129Y-55863173D01*
X130010771Y-55951923D01*
X130230924Y-56002172D01*
X130422153Y-56010760D01*
X130456506Y-56012303D01*
X130456506Y-56012302D01*
X130456510Y-56012303D01*
X130680281Y-55981991D01*
X130895043Y-55912211D01*
X131093894Y-55805204D01*
X131270442Y-55664411D01*
X131419014Y-55494357D01*
X131534834Y-55300507D01*
X131597667Y-55133090D01*
X132845499Y-55133090D01*
X132845500Y-56810337D01*
X132845500Y-56810339D01*
X132860670Y-56978906D01*
X132920741Y-57196570D01*
X132920747Y-57196585D01*
X133018719Y-57400026D01*
X133018723Y-57400034D01*
X133151448Y-57582715D01*
X133151449Y-57582717D01*
X133151452Y-57582720D01*
X133151453Y-57582721D01*
X133164255Y-57594961D01*
X133314671Y-57738773D01*
X133503125Y-57863171D01*
X133503127Y-57863172D01*
X133503129Y-57863173D01*
X133710771Y-57951923D01*
X133930924Y-58002172D01*
X134122153Y-58010760D01*
X134156506Y-58012303D01*
X134156506Y-58012302D01*
X134156510Y-58012303D01*
X134380281Y-57981991D01*
X134595043Y-57912211D01*
X134793894Y-57805204D01*
X134970442Y-57664411D01*
X135119014Y-57494357D01*
X135234834Y-57300507D01*
X135314180Y-57089092D01*
X135332052Y-56990608D01*
X135354500Y-56866909D01*
X135354500Y-56810339D01*
X138345500Y-56810339D01*
X138360670Y-56978906D01*
X138420741Y-57196570D01*
X138420747Y-57196585D01*
X138518719Y-57400026D01*
X138518723Y-57400034D01*
X138651448Y-57582715D01*
X138651449Y-57582717D01*
X138651452Y-57582720D01*
X138651453Y-57582721D01*
X138664255Y-57594961D01*
X138814671Y-57738773D01*
X139003125Y-57863171D01*
X139003127Y-57863172D01*
X139003129Y-57863173D01*
X139210771Y-57951923D01*
X139430924Y-58002172D01*
X139622153Y-58010760D01*
X139656506Y-58012303D01*
X139656506Y-58012302D01*
X139656510Y-58012303D01*
X139880281Y-57981991D01*
X140095043Y-57912211D01*
X140293894Y-57805204D01*
X140470442Y-57664411D01*
X140619014Y-57494357D01*
X140734834Y-57300507D01*
X140814180Y-57089092D01*
X140832052Y-56990608D01*
X140843958Y-56925001D01*
X145274500Y-56925001D01*
X145274501Y-56925019D01*
X145285000Y-57027796D01*
X145285001Y-57027799D01*
X145340185Y-57194331D01*
X145340187Y-57194336D01*
X145345659Y-57203208D01*
X145432288Y-57343656D01*
X145463181Y-57374549D01*
X145496666Y-57435869D01*
X145499500Y-57462229D01*
X145499500Y-58164867D01*
X145481040Y-58229961D01*
X145465187Y-58255663D01*
X145465186Y-58255665D01*
X145465186Y-58255666D01*
X145410001Y-58422203D01*
X145410001Y-58422204D01*
X145410000Y-58422204D01*
X145399500Y-58524983D01*
X145399500Y-59175001D01*
X145399501Y-59175019D01*
X145410000Y-59277796D01*
X145410001Y-59277799D01*
X145417526Y-59300507D01*
X145465186Y-59444334D01*
X145557288Y-59593656D01*
X145681344Y-59717712D01*
X145830666Y-59809814D01*
X145997203Y-59864999D01*
X146099991Y-59875500D01*
X146900008Y-59875499D01*
X146900016Y-59875498D01*
X146900019Y-59875498D01*
X146956302Y-59869748D01*
X147002797Y-59864999D01*
X147169334Y-59809814D01*
X147318656Y-59717712D01*
X147442712Y-59593656D01*
X147534814Y-59444334D01*
X147589999Y-59277797D01*
X147600500Y-59175009D01*
X147600499Y-58524992D01*
X147597605Y-58496666D01*
X147589999Y-58422203D01*
X147589998Y-58422200D01*
X147574352Y-58374983D01*
X147534814Y-58255666D01*
X147531820Y-58250812D01*
X147518960Y-58229961D01*
X147500500Y-58164867D01*
X147500500Y-57662000D01*
X147520185Y-57594961D01*
X147572989Y-57549206D01*
X147624500Y-57538000D01*
X147949784Y-57538000D01*
X148038858Y-57540257D01*
X148038858Y-57540256D01*
X148038863Y-57540257D01*
X148099253Y-57529432D01*
X148103912Y-57528780D01*
X148146107Y-57524488D01*
X148164938Y-57522574D01*
X148197727Y-57512286D01*
X148205340Y-57510418D01*
X148239153Y-57504358D01*
X148296121Y-57481601D01*
X148300553Y-57480024D01*
X148359088Y-57461659D01*
X148389127Y-57444984D01*
X148396208Y-57441622D01*
X148428117Y-57428877D01*
X148479354Y-57395108D01*
X148483351Y-57392687D01*
X148537002Y-57362909D01*
X148563068Y-57340530D01*
X148569343Y-57335800D01*
X148598019Y-57316902D01*
X148641417Y-57273502D01*
X148644836Y-57270334D01*
X148691395Y-57230366D01*
X148712431Y-57203188D01*
X148717601Y-57197318D01*
X149104580Y-56810339D01*
X158145500Y-56810339D01*
X158160670Y-56978906D01*
X158220741Y-57196570D01*
X158220747Y-57196585D01*
X158318719Y-57400026D01*
X158318723Y-57400034D01*
X158451448Y-57582715D01*
X158451449Y-57582717D01*
X158451452Y-57582720D01*
X158451453Y-57582721D01*
X158464255Y-57594961D01*
X158614671Y-57738773D01*
X158803125Y-57863171D01*
X158803127Y-57863172D01*
X158803129Y-57863173D01*
X159010771Y-57951923D01*
X159230924Y-58002172D01*
X159422153Y-58010760D01*
X159456506Y-58012303D01*
X159456506Y-58012302D01*
X159456510Y-58012303D01*
X159680281Y-57981991D01*
X159895043Y-57912211D01*
X160093894Y-57805204D01*
X160270442Y-57664411D01*
X160419014Y-57494357D01*
X160534834Y-57300507D01*
X160614180Y-57089092D01*
X160632052Y-56990608D01*
X160654500Y-56866909D01*
X160654500Y-55189662D01*
X160654500Y-55189657D01*
X160639329Y-55021095D01*
X160639329Y-55021093D01*
X160579258Y-54803429D01*
X160579252Y-54803414D01*
X160481280Y-54599973D01*
X160481276Y-54599965D01*
X160348551Y-54417284D01*
X160348550Y-54417282D01*
X160185328Y-54261226D01*
X159996874Y-54136828D01*
X159945330Y-54114797D01*
X159789229Y-54048077D01*
X159789222Y-54048075D01*
X159789221Y-54048075D01*
X159693981Y-54026337D01*
X159569076Y-53997828D01*
X159560486Y-53997442D01*
X159343493Y-53987696D01*
X159217193Y-54004805D01*
X159119719Y-54018009D01*
X159119716Y-54018009D01*
X159119715Y-54018010D01*
X158904955Y-54087789D01*
X158706108Y-54194794D01*
X158706105Y-54194796D01*
X158529560Y-54335586D01*
X158380988Y-54505639D01*
X158265166Y-54699493D01*
X158185819Y-54910908D01*
X158145500Y-55133090D01*
X158145500Y-56810339D01*
X149104580Y-56810339D01*
X152628101Y-53286819D01*
X152689425Y-53253334D01*
X152715783Y-53250500D01*
X165284217Y-53250500D01*
X165351256Y-53270185D01*
X165371898Y-53286819D01*
X167563181Y-55478102D01*
X167596666Y-55539425D01*
X167599500Y-55565783D01*
X167599500Y-56440434D01*
X167581948Y-56504034D01*
X167580989Y-56505639D01*
X167580986Y-56505643D01*
X167524630Y-56599967D01*
X167465166Y-56699493D01*
X167385819Y-56910908D01*
X167345500Y-57133090D01*
X167345500Y-58810339D01*
X167360670Y-58978906D01*
X167420741Y-59196570D01*
X167420747Y-59196585D01*
X167518719Y-59400026D01*
X167518723Y-59400034D01*
X167651448Y-59582715D01*
X167651449Y-59582717D01*
X167814671Y-59738773D01*
X168003125Y-59863171D01*
X168003127Y-59863172D01*
X168003129Y-59863173D01*
X168210771Y-59951923D01*
X168430924Y-60002172D01*
X168622153Y-60010760D01*
X168656506Y-60012303D01*
X168656506Y-60012302D01*
X168656510Y-60012303D01*
X168880281Y-59981991D01*
X169095043Y-59912211D01*
X169293894Y-59805204D01*
X169470442Y-59664411D01*
X169619014Y-59494357D01*
X169734834Y-59300507D01*
X169814180Y-59089092D01*
X169827620Y-59015030D01*
X169854500Y-58866909D01*
X169854500Y-57683834D01*
X169874185Y-57616795D01*
X169926989Y-57571040D01*
X169996147Y-57561096D01*
X170059703Y-57590121D01*
X170064192Y-57594208D01*
X170214981Y-57738378D01*
X170403363Y-57862729D01*
X170610929Y-57951446D01*
X170610932Y-57951447D01*
X170749999Y-57983188D01*
X170750000Y-57983188D01*
X170750000Y-57113346D01*
X170769685Y-57046307D01*
X170822489Y-57000552D01*
X170891647Y-56990608D01*
X170908937Y-56994370D01*
X170928108Y-56999999D01*
X170928110Y-57000000D01*
X170928111Y-57000000D01*
X171071890Y-57000000D01*
X171071890Y-56999999D01*
X171091063Y-56994369D01*
X171160932Y-56994368D01*
X171219711Y-57032141D01*
X171248737Y-57095696D01*
X171250000Y-57113346D01*
X171250000Y-57985587D01*
X171280165Y-57981503D01*
X171494845Y-57911749D01*
X171693614Y-57804786D01*
X171693623Y-57804780D01*
X171870087Y-57664055D01*
X171870102Y-57664041D01*
X172018607Y-57494062D01*
X172018608Y-57494060D01*
X172134378Y-57300296D01*
X172134380Y-57300291D01*
X172213696Y-57088958D01*
X172254000Y-56866864D01*
X172254000Y-56250000D01*
X171624000Y-56250000D01*
X171556961Y-56230315D01*
X171511206Y-56177511D01*
X171500000Y-56126000D01*
X171500000Y-55874000D01*
X171519685Y-55806961D01*
X171572489Y-55761206D01*
X171624000Y-55750000D01*
X172254000Y-55750000D01*
X172254000Y-55189685D01*
X172253999Y-55189683D01*
X172238835Y-55021183D01*
X172178788Y-54803606D01*
X172178782Y-54803591D01*
X172080849Y-54600230D01*
X172080845Y-54600222D01*
X171948173Y-54417615D01*
X171948166Y-54417607D01*
X171785018Y-54261621D01*
X171596636Y-54137270D01*
X171389072Y-54048554D01*
X171389066Y-54048552D01*
X171250000Y-54016811D01*
X171250000Y-54886653D01*
X171230315Y-54953692D01*
X171177511Y-54999447D01*
X171108353Y-55009391D01*
X171091067Y-55005631D01*
X171071889Y-55000000D01*
X170928111Y-55000000D01*
X170908933Y-55005631D01*
X170839064Y-55005630D01*
X170780286Y-54967855D01*
X170751262Y-54904299D01*
X170750000Y-54886653D01*
X170750000Y-54014411D01*
X170719828Y-54018498D01*
X170719825Y-54018499D01*
X170505154Y-54088250D01*
X170306385Y-54195213D01*
X170306376Y-54195219D01*
X170129912Y-54335944D01*
X170129897Y-54335958D01*
X169981392Y-54505937D01*
X169981391Y-54505939D01*
X169865621Y-54699703D01*
X169865618Y-54699708D01*
X169806966Y-54855985D01*
X169764980Y-54911833D01*
X169699466Y-54936116D01*
X169631223Y-54921124D01*
X169581919Y-54871618D01*
X169568819Y-54834290D01*
X169566858Y-54823348D01*
X169544092Y-54766352D01*
X169542527Y-54761955D01*
X169524159Y-54703412D01*
X169522100Y-54699703D01*
X169507491Y-54673382D01*
X169504120Y-54666284D01*
X169491378Y-54634384D01*
X169491377Y-54634381D01*
X169483471Y-54622386D01*
X169457605Y-54583139D01*
X169455183Y-54579142D01*
X169425409Y-54525498D01*
X169403034Y-54499434D01*
X169398306Y-54493163D01*
X169379404Y-54464484D01*
X169379399Y-54464478D01*
X169353823Y-54438903D01*
X169336019Y-54421099D01*
X169332828Y-54417655D01*
X169292865Y-54371104D01*
X169265694Y-54350072D01*
X169259807Y-54344887D01*
X166466452Y-51551532D01*
X166405059Y-51486947D01*
X166377204Y-51467559D01*
X166354709Y-51451902D01*
X166350946Y-51449064D01*
X166303413Y-51410305D01*
X166303406Y-51410300D01*
X166272959Y-51394397D01*
X166266251Y-51390334D01*
X166238049Y-51370705D01*
X166238046Y-51370703D01*
X166238045Y-51370703D01*
X166238041Y-51370701D01*
X166181680Y-51346514D01*
X166177424Y-51344493D01*
X166123057Y-51316094D01*
X166123050Y-51316091D01*
X166123049Y-51316091D01*
X166117008Y-51314362D01*
X166090030Y-51306642D01*
X166082630Y-51304008D01*
X166051057Y-51290459D01*
X166051058Y-51290459D01*
X165990966Y-51278109D01*
X165986391Y-51276986D01*
X165927420Y-51260113D01*
X165927425Y-51260113D01*
X165893158Y-51257503D01*
X165885380Y-51256412D01*
X165851742Y-51249500D01*
X165851741Y-51249500D01*
X165790402Y-51249500D01*
X165785695Y-51249321D01*
X165780121Y-51248896D01*
X165724524Y-51244662D01*
X165704589Y-51247201D01*
X165690440Y-51249003D01*
X165682611Y-51249500D01*
X152262717Y-51249500D01*
X152173637Y-51247243D01*
X152173628Y-51247243D01*
X152113260Y-51258064D01*
X152108595Y-51258718D01*
X152047563Y-51264925D01*
X152047555Y-51264927D01*
X152014781Y-51275210D01*
X152007154Y-51277082D01*
X151973350Y-51283141D01*
X151916384Y-51305894D01*
X151911948Y-51307473D01*
X151853414Y-51325840D01*
X151853412Y-51325841D01*
X151823385Y-51342506D01*
X151816293Y-51345874D01*
X151784383Y-51358621D01*
X151733154Y-51392383D01*
X151729126Y-51394824D01*
X151675502Y-51424588D01*
X151675499Y-51424590D01*
X151649427Y-51446970D01*
X151643160Y-51451695D01*
X151614482Y-51470598D01*
X151614475Y-51470603D01*
X151571116Y-51513962D01*
X151567661Y-51517164D01*
X151521106Y-51557132D01*
X151521105Y-51557133D01*
X151500076Y-51584300D01*
X151494884Y-51590194D01*
X147877367Y-55207711D01*
X147816044Y-55241196D01*
X147746352Y-55236212D01*
X147690419Y-55194340D01*
X147666002Y-55128876D01*
X147671980Y-55081025D01*
X147714505Y-54952694D01*
X147714506Y-54952690D01*
X147724999Y-54849986D01*
X147725000Y-54849973D01*
X147725000Y-54712500D01*
X145275001Y-54712500D01*
X145275001Y-54849986D01*
X145285494Y-54952697D01*
X145340641Y-55119119D01*
X145340643Y-55119124D01*
X145432684Y-55268345D01*
X145556655Y-55392316D01*
X145556659Y-55392319D01*
X145559656Y-55394168D01*
X145561279Y-55395972D01*
X145562323Y-55396798D01*
X145562181Y-55396976D01*
X145606381Y-55446116D01*
X145617602Y-55515079D01*
X145589759Y-55579161D01*
X145559661Y-55605241D01*
X145556349Y-55607283D01*
X145556343Y-55607288D01*
X145432289Y-55731342D01*
X145340187Y-55880663D01*
X145340185Y-55880666D01*
X145340186Y-55880666D01*
X145285001Y-56047203D01*
X145285001Y-56047204D01*
X145285000Y-56047204D01*
X145274500Y-56149983D01*
X145274500Y-56925001D01*
X140843958Y-56925001D01*
X140854500Y-56866909D01*
X140854500Y-55189662D01*
X140854500Y-55189657D01*
X140839329Y-55021095D01*
X140839329Y-55021093D01*
X140779258Y-54803429D01*
X140779252Y-54803414D01*
X140681280Y-54599973D01*
X140681276Y-54599965D01*
X140548551Y-54417284D01*
X140548550Y-54417282D01*
X140385328Y-54261226D01*
X140311512Y-54212500D01*
X145275000Y-54212500D01*
X146250000Y-54212500D01*
X146250000Y-53375000D01*
X146750000Y-53375000D01*
X146750000Y-54212500D01*
X147724999Y-54212500D01*
X147724999Y-54075028D01*
X147724998Y-54075013D01*
X147714505Y-53972302D01*
X147659358Y-53805880D01*
X147659356Y-53805875D01*
X147567315Y-53656654D01*
X147443345Y-53532684D01*
X147294124Y-53440643D01*
X147294119Y-53440641D01*
X147127697Y-53385494D01*
X147127690Y-53385493D01*
X147024986Y-53375000D01*
X146750000Y-53375000D01*
X146250000Y-53375000D01*
X145975029Y-53375000D01*
X145975012Y-53375001D01*
X145872302Y-53385494D01*
X145705880Y-53440641D01*
X145705875Y-53440643D01*
X145556654Y-53532684D01*
X145432684Y-53656654D01*
X145340643Y-53805875D01*
X145340641Y-53805880D01*
X145285494Y-53972302D01*
X145285493Y-53972309D01*
X145275000Y-54075013D01*
X145275000Y-54212500D01*
X140311512Y-54212500D01*
X140196874Y-54136828D01*
X140145330Y-54114797D01*
X139989229Y-54048077D01*
X139989222Y-54048075D01*
X139989221Y-54048075D01*
X139893981Y-54026337D01*
X139769076Y-53997828D01*
X139760486Y-53997442D01*
X139543493Y-53987696D01*
X139417193Y-54004805D01*
X139319719Y-54018009D01*
X139319716Y-54018009D01*
X139319715Y-54018010D01*
X139104955Y-54087789D01*
X138906108Y-54194794D01*
X138906105Y-54194796D01*
X138729560Y-54335586D01*
X138580988Y-54505639D01*
X138465166Y-54699493D01*
X138385819Y-54910908D01*
X138345500Y-55133090D01*
X138345500Y-56810339D01*
X135354500Y-56810339D01*
X135354500Y-56071746D01*
X135374185Y-56004707D01*
X135426989Y-55958952D01*
X135496147Y-55949008D01*
X135506093Y-55950855D01*
X135510769Y-55951922D01*
X135510771Y-55951923D01*
X135730924Y-56002172D01*
X135922153Y-56010760D01*
X135956506Y-56012303D01*
X135956506Y-56012302D01*
X135956510Y-56012303D01*
X136180281Y-55981991D01*
X136395043Y-55912211D01*
X136593894Y-55805204D01*
X136770442Y-55664411D01*
X136919014Y-55494357D01*
X137034834Y-55300507D01*
X137114180Y-55089092D01*
X137144661Y-54921124D01*
X137154500Y-54866909D01*
X137154500Y-53189662D01*
X137154500Y-53189657D01*
X137139329Y-53021095D01*
X137139329Y-53021093D01*
X137079258Y-52803429D01*
X137079252Y-52803414D01*
X136981280Y-52599973D01*
X136981276Y-52599965D01*
X136848551Y-52417284D01*
X136848550Y-52417282D01*
X136685328Y-52261226D01*
X136496874Y-52136828D01*
X136382140Y-52087789D01*
X136289229Y-52048077D01*
X136289222Y-52048075D01*
X136289221Y-52048075D01*
X136157494Y-52018009D01*
X136069076Y-51997828D01*
X136060486Y-51997442D01*
X135843493Y-51987696D01*
X135717193Y-52004805D01*
X135619719Y-52018009D01*
X135619716Y-52018009D01*
X135619715Y-52018010D01*
X135404955Y-52087789D01*
X135206108Y-52194794D01*
X135206105Y-52194796D01*
X135029560Y-52335586D01*
X134880988Y-52505639D01*
X134765166Y-52699493D01*
X134685819Y-52910908D01*
X134645500Y-53133090D01*
X134645500Y-53928253D01*
X134625815Y-53995292D01*
X134573011Y-54041047D01*
X134503853Y-54050991D01*
X134493908Y-54049144D01*
X134269077Y-53997828D01*
X134043493Y-53987696D01*
X133917193Y-54004805D01*
X133819719Y-54018009D01*
X133819716Y-54018009D01*
X133819715Y-54018010D01*
X133604955Y-54087789D01*
X133406108Y-54194794D01*
X133406105Y-54194796D01*
X133229560Y-54335586D01*
X133080988Y-54505639D01*
X132965166Y-54699493D01*
X132885819Y-54910908D01*
X132845499Y-55133090D01*
X131597667Y-55133090D01*
X131614180Y-55089092D01*
X131644661Y-54921124D01*
X131654500Y-54866909D01*
X131654500Y-53189662D01*
X131654500Y-53189657D01*
X131639329Y-53021095D01*
X131639329Y-53021093D01*
X131579258Y-52803429D01*
X131579252Y-52803414D01*
X131481280Y-52599973D01*
X131481276Y-52599965D01*
X131348551Y-52417284D01*
X131348550Y-52417282D01*
X131185328Y-52261226D01*
X130996874Y-52136828D01*
X130882140Y-52087789D01*
X130789229Y-52048077D01*
X130789222Y-52048075D01*
X130789221Y-52048075D01*
X130657494Y-52018009D01*
X130569076Y-51997828D01*
X130560486Y-51997442D01*
X130343493Y-51987696D01*
X130217193Y-52004805D01*
X130119719Y-52018009D01*
X130119716Y-52018009D01*
X130119715Y-52018010D01*
X129904955Y-52087789D01*
X129706108Y-52194794D01*
X129706105Y-52194796D01*
X129529560Y-52335586D01*
X129380988Y-52505639D01*
X129265166Y-52699493D01*
X129185819Y-52910908D01*
X129145499Y-53133090D01*
X129145500Y-54316165D01*
X129125815Y-54383204D01*
X129073011Y-54428959D01*
X129003853Y-54438903D01*
X128940297Y-54409878D01*
X128935808Y-54405791D01*
X128785018Y-54261621D01*
X128596636Y-54137270D01*
X128389072Y-54048554D01*
X128389066Y-54048552D01*
X128250000Y-54016811D01*
X128249999Y-54016811D01*
X128249999Y-54886653D01*
X128230314Y-54953693D01*
X128177510Y-54999447D01*
X128108352Y-55009391D01*
X128091064Y-55005630D01*
X128071890Y-55000000D01*
X128071889Y-55000000D01*
X127928111Y-55000000D01*
X127928110Y-55000000D01*
X127908931Y-55005631D01*
X127839062Y-55005629D01*
X127780284Y-54967854D01*
X127751261Y-54904297D01*
X127749999Y-54886653D01*
X127749999Y-54014411D01*
X127749998Y-54014411D01*
X127719827Y-54018498D01*
X127505154Y-54088250D01*
X127306385Y-54195213D01*
X127306376Y-54195219D01*
X127129912Y-54335944D01*
X127129897Y-54335958D01*
X126981392Y-54505937D01*
X126981391Y-54505939D01*
X126865621Y-54699703D01*
X126865619Y-54699708D01*
X126786303Y-54911041D01*
X126746000Y-55133135D01*
X126746000Y-55750000D01*
X127376000Y-55750000D01*
X127443039Y-55769685D01*
X127488794Y-55822489D01*
X127500000Y-55874000D01*
X127500000Y-56126000D01*
X127480315Y-56193039D01*
X127427511Y-56238794D01*
X127376000Y-56250000D01*
X126746000Y-56250000D01*
X126746000Y-56810316D01*
X124500500Y-56810316D01*
X124500500Y-46000000D01*
X125995176Y-46000000D01*
X126014461Y-46392550D01*
X126072129Y-46781308D01*
X126167625Y-47162549D01*
X126300016Y-47532559D01*
X126300023Y-47532575D01*
X126468062Y-47887864D01*
X126670109Y-48224958D01*
X126904228Y-48540632D01*
X127000068Y-48646376D01*
X127000069Y-48646376D01*
X127715151Y-47931294D01*
X127776474Y-47897809D01*
X127846165Y-47902793D01*
X127902099Y-47944665D01*
X127905934Y-47950084D01*
X127963605Y-48036395D01*
X128049913Y-48094064D01*
X128094719Y-48147676D01*
X128103426Y-48217001D01*
X128073272Y-48280028D01*
X128068704Y-48284847D01*
X127353622Y-48999929D01*
X127353622Y-48999930D01*
X127459367Y-49095771D01*
X127775041Y-49329890D01*
X128112135Y-49531937D01*
X128467424Y-49699976D01*
X128467440Y-49699983D01*
X128837450Y-49832374D01*
X129218691Y-49927870D01*
X129607449Y-49985538D01*
X130000000Y-50004823D01*
X130392550Y-49985538D01*
X130781308Y-49927870D01*
X131162549Y-49832374D01*
X131532559Y-49699983D01*
X131532575Y-49699976D01*
X131887864Y-49531937D01*
X132224958Y-49329890D01*
X132540632Y-49095770D01*
X132646376Y-48999929D01*
X131931295Y-48284848D01*
X131897810Y-48223525D01*
X131902794Y-48153833D01*
X131944666Y-48097900D01*
X131950085Y-48094065D01*
X131953698Y-48091650D01*
X131953700Y-48091650D01*
X132036395Y-48036395D01*
X132091650Y-47953700D01*
X132091650Y-47953698D01*
X132094065Y-47950085D01*
X132147677Y-47905280D01*
X132217002Y-47896573D01*
X132280029Y-47926727D01*
X132284848Y-47931295D01*
X132999929Y-48646376D01*
X133095770Y-48540632D01*
X133329890Y-48224958D01*
X133531937Y-47887864D01*
X133699976Y-47532575D01*
X133699983Y-47532559D01*
X133832374Y-47162549D01*
X133927870Y-46781308D01*
X133985538Y-46392550D01*
X134004823Y-46000000D01*
X162995176Y-46000000D01*
X163014461Y-46392550D01*
X163072129Y-46781308D01*
X163167625Y-47162549D01*
X163300016Y-47532559D01*
X163300023Y-47532575D01*
X163468062Y-47887864D01*
X163670109Y-48224958D01*
X163904228Y-48540632D01*
X164000068Y-48646376D01*
X164000069Y-48646376D01*
X164715151Y-47931294D01*
X164776474Y-47897809D01*
X164846165Y-47902793D01*
X164902099Y-47944665D01*
X164905934Y-47950084D01*
X164963605Y-48036395D01*
X165049913Y-48094064D01*
X165094719Y-48147676D01*
X165103426Y-48217001D01*
X165073272Y-48280028D01*
X165068704Y-48284847D01*
X164353622Y-48999929D01*
X164353622Y-48999930D01*
X164459367Y-49095771D01*
X164775041Y-49329890D01*
X165112135Y-49531937D01*
X165467424Y-49699976D01*
X165467440Y-49699983D01*
X165837450Y-49832374D01*
X166218691Y-49927870D01*
X166607449Y-49985538D01*
X167000000Y-50004823D01*
X167392550Y-49985538D01*
X167781308Y-49927870D01*
X168162549Y-49832374D01*
X168532559Y-49699983D01*
X168532575Y-49699976D01*
X168887864Y-49531937D01*
X169224958Y-49329890D01*
X169540632Y-49095770D01*
X169646376Y-48999929D01*
X168931295Y-48284848D01*
X168897810Y-48223525D01*
X168902794Y-48153833D01*
X168944666Y-48097900D01*
X168950085Y-48094065D01*
X168953698Y-48091650D01*
X168953700Y-48091650D01*
X169036395Y-48036395D01*
X169091650Y-47953700D01*
X169091650Y-47953698D01*
X169094065Y-47950085D01*
X169147677Y-47905280D01*
X169217002Y-47896573D01*
X169280029Y-47926727D01*
X169284848Y-47931295D01*
X169999929Y-48646376D01*
X170095770Y-48540632D01*
X170329890Y-48224958D01*
X170531937Y-47887864D01*
X170699976Y-47532575D01*
X170699983Y-47532559D01*
X170832374Y-47162549D01*
X170927870Y-46781308D01*
X170985538Y-46392550D01*
X171004823Y-46000000D01*
X170985538Y-45607449D01*
X170927870Y-45218691D01*
X170832374Y-44837450D01*
X170699983Y-44467440D01*
X170699976Y-44467424D01*
X170531937Y-44112135D01*
X170329890Y-43775041D01*
X170095771Y-43459367D01*
X169999930Y-43353622D01*
X169999929Y-43353622D01*
X169284847Y-44068704D01*
X169223524Y-44102189D01*
X169153832Y-44097205D01*
X169097899Y-44055333D01*
X169094064Y-44049913D01*
X169036395Y-43963605D01*
X168950084Y-43905934D01*
X168905279Y-43852322D01*
X168896572Y-43782997D01*
X168926726Y-43719969D01*
X168931294Y-43715151D01*
X169646376Y-43000069D01*
X169646376Y-43000068D01*
X169540632Y-42904228D01*
X169224958Y-42670109D01*
X168887864Y-42468062D01*
X168532575Y-42300023D01*
X168532559Y-42300016D01*
X168162549Y-42167625D01*
X167781308Y-42072129D01*
X167392550Y-42014461D01*
X167000000Y-41995176D01*
X166607449Y-42014461D01*
X166218691Y-42072129D01*
X165837450Y-42167625D01*
X165467440Y-42300016D01*
X165467424Y-42300023D01*
X165112135Y-42468062D01*
X164775041Y-42670109D01*
X164459368Y-42904228D01*
X164353622Y-43000069D01*
X165068704Y-43715151D01*
X165102189Y-43776474D01*
X165097205Y-43846166D01*
X165055333Y-43902099D01*
X165049915Y-43905933D01*
X164963605Y-43963604D01*
X164963604Y-43963605D01*
X164905933Y-44049915D01*
X164852321Y-44094719D01*
X164782996Y-44103426D01*
X164719969Y-44073271D01*
X164715151Y-44068704D01*
X164000069Y-43353622D01*
X163904228Y-43459368D01*
X163670109Y-43775041D01*
X163468062Y-44112135D01*
X163300023Y-44467424D01*
X163300016Y-44467440D01*
X163167625Y-44837450D01*
X163072129Y-45218691D01*
X163014461Y-45607449D01*
X162995176Y-46000000D01*
X134004823Y-46000000D01*
X133985538Y-45607449D01*
X133927870Y-45218691D01*
X133832374Y-44837450D01*
X133699983Y-44467440D01*
X133699976Y-44467424D01*
X133531937Y-44112135D01*
X133329890Y-43775041D01*
X133095771Y-43459367D01*
X132999930Y-43353622D01*
X132999929Y-43353622D01*
X132284847Y-44068704D01*
X132223524Y-44102189D01*
X132153832Y-44097205D01*
X132097899Y-44055333D01*
X132094064Y-44049913D01*
X132036395Y-43963605D01*
X131950084Y-43905934D01*
X131905279Y-43852322D01*
X131896572Y-43782997D01*
X131926726Y-43719969D01*
X131931294Y-43715151D01*
X132646376Y-43000069D01*
X132646376Y-43000068D01*
X132540632Y-42904228D01*
X132224958Y-42670109D01*
X131887864Y-42468062D01*
X131532575Y-42300023D01*
X131532559Y-42300016D01*
X131162549Y-42167625D01*
X130781308Y-42072129D01*
X130392550Y-42014461D01*
X130000000Y-41995176D01*
X129607449Y-42014461D01*
X129218691Y-42072129D01*
X128837450Y-42167625D01*
X128467440Y-42300016D01*
X128467424Y-42300023D01*
X128112135Y-42468062D01*
X127775041Y-42670109D01*
X127459368Y-42904228D01*
X127353622Y-43000069D01*
X128068704Y-43715151D01*
X128102189Y-43776474D01*
X128097205Y-43846166D01*
X128055333Y-43902099D01*
X128049915Y-43905933D01*
X127963605Y-43963604D01*
X127963604Y-43963605D01*
X127905933Y-44049915D01*
X127852321Y-44094719D01*
X127782996Y-44103426D01*
X127719969Y-44073271D01*
X127715151Y-44068704D01*
X127000069Y-43353622D01*
X126904228Y-43459368D01*
X126670109Y-43775041D01*
X126468062Y-44112135D01*
X126300023Y-44467424D01*
X126300016Y-44467440D01*
X126167625Y-44837450D01*
X126072129Y-45218691D01*
X126014461Y-45607449D01*
X125995176Y-46000000D01*
X124500500Y-46000000D01*
X124500500Y-41124500D01*
X124520185Y-41057461D01*
X124572989Y-41011706D01*
X124624500Y-41000500D01*
X174375500Y-41000500D01*
X174442539Y-41020185D01*
G37*
G04 #@! TD.AperFunction*
M02*
