G04 #@! TF.GenerationSoftware,KiCad,Pcbnew,7.0.7*
G04 #@! TF.CreationDate,2023-11-05T15:47:32+01:00*
G04 #@! TF.ProjectId,K_BF,4b5f4246-2e6b-4696-9361-645f70636258,rev?*
G04 #@! TF.SameCoordinates,Original*
G04 #@! TF.FileFunction,Copper,L1,Top*
G04 #@! TF.FilePolarity,Positive*
%FSLAX46Y46*%
G04 Gerber Fmt 4.6, Leading zero omitted, Abs format (unit mm)*
G04 Created by KiCad (PCBNEW 7.0.7) date 2023-11-05 15:47:32*
%MOMM*%
%LPD*%
G01*
G04 APERTURE LIST*
G04 Aperture macros list*
%AMRoundRect*
0 Rectangle with rounded corners*
0 $1 Rounding radius*
0 $2 $3 $4 $5 $6 $7 $8 $9 X,Y pos of 4 corners*
0 Add a 4 corners polygon primitive as box body*
4,1,4,$2,$3,$4,$5,$6,$7,$8,$9,$2,$3,0*
0 Add four circle primitives for the rounded corners*
1,1,$1+$1,$2,$3*
1,1,$1+$1,$4,$5*
1,1,$1+$1,$6,$7*
1,1,$1+$1,$8,$9*
0 Add four rect primitives between the rounded corners*
20,1,$1+$1,$2,$3,$4,$5,0*
20,1,$1+$1,$4,$5,$6,$7,0*
20,1,$1+$1,$6,$7,$8,$9,0*
20,1,$1+$1,$8,$9,$2,$3,0*%
G04 Aperture macros list end*
G04 #@! TA.AperFunction,ComponentPad*
%ADD10O,1.508000X3.016000*%
G04 #@! TD*
G04 #@! TA.AperFunction,ComponentPad*
%ADD11C,0.800000*%
G04 #@! TD*
G04 #@! TA.AperFunction,ComponentPad*
%ADD12C,7.000000*%
G04 #@! TD*
G04 #@! TA.AperFunction,ComponentPad*
%ADD13RoundRect,0.250000X-0.600000X-0.600000X0.600000X-0.600000X0.600000X0.600000X-0.600000X0.600000X0*%
G04 #@! TD*
G04 #@! TA.AperFunction,ComponentPad*
%ADD14C,1.700000*%
G04 #@! TD*
G04 #@! TA.AperFunction,ViaPad*
%ADD15C,0.800000*%
G04 #@! TD*
G04 #@! TA.AperFunction,Conductor*
%ADD16C,1.000000*%
G04 #@! TD*
G04 APERTURE END LIST*
D10*
X128000000Y-78000000D03*
X130400000Y-76000000D03*
X135900000Y-76000000D03*
X139600000Y-78000000D03*
X134100000Y-78000000D03*
X171000000Y-56000000D03*
X168600000Y-58000000D03*
X163100000Y-58000000D03*
X159400000Y-56000000D03*
X164900000Y-56000000D03*
D11*
X127518845Y-86143845D03*
X128287690Y-84287690D03*
X128287690Y-88000000D03*
D12*
X130000000Y-86000000D03*
D11*
X130143845Y-83518845D03*
X130143845Y-88768845D03*
X132000000Y-84287690D03*
X132000000Y-88000000D03*
X132768845Y-86143845D03*
D10*
X171000000Y-67000000D03*
X168600000Y-69000000D03*
X163100000Y-69000000D03*
X159400000Y-67000000D03*
X164900000Y-67000000D03*
D11*
X164375000Y-86000000D03*
X165143845Y-84143845D03*
X165143845Y-87856155D03*
X167000000Y-83375000D03*
D12*
X167000000Y-86000000D03*
D11*
X167000000Y-88625000D03*
X168856155Y-84143845D03*
X168856155Y-87856155D03*
X169625000Y-86000000D03*
D10*
X171000000Y-78000000D03*
X168600000Y-80000000D03*
X163100000Y-80000000D03*
X159400000Y-78000000D03*
X164900000Y-78000000D03*
X128000000Y-67000000D03*
X130400000Y-65000000D03*
X135900000Y-65000000D03*
X139600000Y-67000000D03*
X134100000Y-67000000D03*
D11*
X164375000Y-46000000D03*
X165143845Y-44143845D03*
X165143845Y-47856155D03*
X167000000Y-43375000D03*
D12*
X167000000Y-46000000D03*
D11*
X167000000Y-48625000D03*
X168856155Y-44143845D03*
X168856155Y-47856155D03*
X169625000Y-46000000D03*
D13*
X148460000Y-62340000D03*
D14*
X151000000Y-62340000D03*
X148460000Y-64880000D03*
X151000000Y-64880000D03*
X148460000Y-67420000D03*
X151000000Y-67420000D03*
X148460000Y-69960000D03*
X151000000Y-69960000D03*
X148460000Y-72500000D03*
X151000000Y-72500000D03*
D10*
X128000000Y-56000000D03*
X130400000Y-54000000D03*
X135900000Y-54000000D03*
X139600000Y-56000000D03*
X134100000Y-56000000D03*
D11*
X127375000Y-46000000D03*
X128143845Y-44143845D03*
X128143845Y-47856155D03*
X130000000Y-43375000D03*
D12*
X130000000Y-46000000D03*
D11*
X130000000Y-48625000D03*
X131856155Y-44143845D03*
X131856155Y-47856155D03*
X132625000Y-46000000D03*
D15*
X145000000Y-42500000D03*
X165000000Y-90000000D03*
X173000000Y-72000000D03*
X170000000Y-90000000D03*
X160000000Y-42500000D03*
X168750000Y-72000000D03*
X160000000Y-90000000D03*
X130000000Y-72500000D03*
X145000000Y-80000000D03*
X150000000Y-90000000D03*
X150000000Y-42500000D03*
X140000000Y-72500000D03*
X135000000Y-90000000D03*
X145000000Y-90000000D03*
X130000000Y-90000000D03*
X172500000Y-42500000D03*
X130000000Y-61000000D03*
X140000000Y-90000000D03*
X135000000Y-42500000D03*
X140000000Y-42500000D03*
X140000000Y-53000000D03*
X155000000Y-42500000D03*
X135000000Y-72500000D03*
X143500000Y-53000000D03*
X155000000Y-90000000D03*
X144000000Y-69462500D03*
X143850000Y-67500000D03*
D16*
X144000000Y-67650000D02*
X143850000Y-67500000D01*
X166750000Y-71694365D02*
X166750000Y-64247733D01*
X144000000Y-69462500D02*
X144000000Y-67650000D01*
X145250000Y-75000000D02*
X155500000Y-75000000D01*
X144000000Y-73750000D02*
X145250000Y-75000000D01*
X144000000Y-73750000D02*
X144000000Y-69462500D01*
X156450000Y-74050000D02*
X164394365Y-74050000D01*
X164394365Y-74050000D02*
X166750000Y-71694365D01*
X166750000Y-64247733D02*
X165502267Y-63000000D01*
X164250000Y-63000000D02*
X163100000Y-64150000D01*
X163100000Y-64150000D02*
X163100000Y-69000000D01*
X165502267Y-63000000D02*
X164250000Y-63000000D01*
X155500000Y-75000000D02*
X156450000Y-74050000D01*
X159400000Y-56000000D02*
X158900000Y-56500000D01*
X143000000Y-56500000D02*
X140500000Y-59000000D01*
X158900000Y-56500000D02*
X143000000Y-56500000D01*
X140500000Y-59000000D02*
X132892000Y-59000000D01*
X130400000Y-56508000D02*
X130400000Y-54000000D01*
X132892000Y-59000000D02*
X130400000Y-56508000D01*
X138400000Y-51500000D02*
X135900000Y-54000000D01*
X160400000Y-51500000D02*
X138400000Y-51500000D01*
X164900000Y-56000000D02*
X160400000Y-51500000D01*
X159500000Y-64000000D02*
X153500000Y-58000000D01*
X159500000Y-66900000D02*
X159500000Y-64000000D01*
X140750000Y-61000000D02*
X134400000Y-61000000D01*
X159400000Y-67000000D02*
X159500000Y-66900000D01*
X134400000Y-61000000D02*
X130400000Y-65000000D01*
X153500000Y-58000000D02*
X143750000Y-58000000D01*
X143750000Y-58000000D02*
X140750000Y-61000000D01*
X163500000Y-72500000D02*
X157750000Y-72500000D01*
X164900000Y-71100000D02*
X163500000Y-72500000D01*
X138150000Y-62750000D02*
X135900000Y-65000000D01*
X164900000Y-67000000D02*
X164900000Y-71100000D01*
X152500000Y-59500000D02*
X144250000Y-59500000D01*
X156500000Y-63500000D02*
X152500000Y-59500000D01*
X156500000Y-71250000D02*
X156500000Y-63500000D01*
X144250000Y-59500000D02*
X141000000Y-62750000D01*
X141000000Y-62750000D02*
X138150000Y-62750000D01*
X157750000Y-72500000D02*
X156500000Y-71250000D01*
X159400000Y-78000000D02*
X144000000Y-78000000D01*
X132892000Y-81000000D02*
X130400000Y-78508000D01*
X130400000Y-78508000D02*
X130400000Y-76000000D01*
X141000000Y-81000000D02*
X132892000Y-81000000D01*
X144000000Y-78000000D02*
X141000000Y-81000000D01*
X136900000Y-75000000D02*
X135900000Y-76000000D01*
X157500000Y-75500000D02*
X156500000Y-76500000D01*
X164900000Y-78000000D02*
X162400000Y-75500000D01*
X142000000Y-76500000D02*
X140500000Y-75000000D01*
X140500000Y-75000000D02*
X136900000Y-75000000D01*
X162400000Y-75500000D02*
X157500000Y-75500000D01*
X156500000Y-76500000D02*
X142000000Y-76500000D01*
G04 #@! TA.AperFunction,Conductor*
G36*
X131450766Y-87115895D02*
G01*
X131499488Y-87145935D01*
X131924859Y-87571306D01*
X131958344Y-87632629D01*
X131953360Y-87702321D01*
X131911488Y-87758254D01*
X131906070Y-87762088D01*
X131819760Y-87819759D01*
X131819759Y-87819760D01*
X131762088Y-87906070D01*
X131708476Y-87950874D01*
X131639151Y-87959581D01*
X131576124Y-87929426D01*
X131571306Y-87924859D01*
X131146687Y-87500240D01*
X131113202Y-87438917D01*
X131118186Y-87369225D01*
X131157056Y-87315612D01*
X131193640Y-87286438D01*
X131320910Y-87149273D01*
X131380937Y-87113520D01*
X131450766Y-87115895D01*
G37*
G04 #@! TD.AperFunction*
G04 #@! TA.AperFunction,Conductor*
G36*
X128631526Y-87117433D02*
G01*
X128679090Y-87149274D01*
X128806351Y-87286429D01*
X128806355Y-87286432D01*
X128806360Y-87286438D01*
X128829285Y-87304720D01*
X128842944Y-87315613D01*
X128883084Y-87372801D01*
X128885933Y-87442613D01*
X128853311Y-87500240D01*
X128579369Y-87774182D01*
X128518046Y-87807667D01*
X128448354Y-87802683D01*
X128422798Y-87789604D01*
X128409942Y-87781014D01*
X128385235Y-87764505D01*
X128385234Y-87764504D01*
X128385233Y-87764504D01*
X128385230Y-87764503D01*
X128312317Y-87750000D01*
X128312314Y-87750000D01*
X128263066Y-87750000D01*
X128206330Y-87761285D01*
X128136739Y-87755056D01*
X128081562Y-87712193D01*
X128058318Y-87646303D01*
X128074386Y-87578306D01*
X128094459Y-87551986D01*
X128500511Y-87145934D01*
X128561834Y-87112449D01*
X128631526Y-87117433D01*
G37*
G04 #@! TD.AperFunction*
G04 #@! TA.AperFunction,Conductor*
G36*
X131683001Y-84065958D02*
G01*
X131738934Y-84107830D01*
X131763351Y-84173294D01*
X131761285Y-84206330D01*
X131745102Y-84287691D01*
X131745102Y-84287692D01*
X131764503Y-84385230D01*
X131764504Y-84385233D01*
X131764504Y-84385234D01*
X131764505Y-84385235D01*
X131770258Y-84393845D01*
X131789604Y-84422798D01*
X131810481Y-84489476D01*
X131791996Y-84556856D01*
X131774182Y-84579369D01*
X131499487Y-84854064D01*
X131438164Y-84887549D01*
X131368472Y-84882565D01*
X131320910Y-84850726D01*
X131257021Y-84781871D01*
X131193643Y-84713564D01*
X131157054Y-84684385D01*
X131116914Y-84627196D01*
X131114065Y-84557384D01*
X131146687Y-84499758D01*
X131551986Y-84094459D01*
X131613309Y-84060974D01*
X131683001Y-84065958D01*
G37*
G04 #@! TD.AperFunction*
G04 #@! TA.AperFunction,Conductor*
G36*
X128711564Y-84358262D02*
G01*
X128716383Y-84362830D01*
X128853312Y-84499759D01*
X128886797Y-84561082D01*
X128881813Y-84630774D01*
X128842945Y-84684386D01*
X128806356Y-84713565D01*
X128679090Y-84850725D01*
X128619062Y-84886479D01*
X128549233Y-84884104D01*
X128500511Y-84854064D01*
X128362830Y-84716383D01*
X128329345Y-84655060D01*
X128334329Y-84585368D01*
X128376201Y-84529435D01*
X128381620Y-84525600D01*
X128385233Y-84523185D01*
X128385235Y-84523185D01*
X128467930Y-84467930D01*
X128523185Y-84385235D01*
X128523185Y-84385233D01*
X128525600Y-84381620D01*
X128579212Y-84336815D01*
X128648537Y-84328108D01*
X128711564Y-84358262D01*
G37*
G04 #@! TD.AperFunction*
G04 #@! TA.AperFunction,Conductor*
G36*
X168450766Y-87115895D02*
G01*
X168499488Y-87145935D01*
X168781014Y-87427461D01*
X168814499Y-87488784D01*
X168809515Y-87558476D01*
X168767643Y-87614409D01*
X168762225Y-87618243D01*
X168675915Y-87675914D01*
X168675914Y-87675915D01*
X168618243Y-87762225D01*
X168564631Y-87807029D01*
X168495306Y-87815736D01*
X168432279Y-87785581D01*
X168427461Y-87781014D01*
X168146687Y-87500240D01*
X168113202Y-87438917D01*
X168118186Y-87369225D01*
X168157056Y-87315612D01*
X168193640Y-87286438D01*
X168320910Y-87149273D01*
X168380937Y-87113520D01*
X168450766Y-87115895D01*
G37*
G04 #@! TD.AperFunction*
G04 #@! TA.AperFunction,Conductor*
G36*
X165631526Y-87117433D02*
G01*
X165679090Y-87149274D01*
X165806351Y-87286429D01*
X165806355Y-87286432D01*
X165806360Y-87286438D01*
X165829285Y-87304720D01*
X165842944Y-87315613D01*
X165883084Y-87372801D01*
X165885933Y-87442613D01*
X165853311Y-87500240D01*
X165572537Y-87781014D01*
X165511214Y-87814499D01*
X165441522Y-87809515D01*
X165385589Y-87767643D01*
X165381754Y-87762223D01*
X165324085Y-87675915D01*
X165237774Y-87618244D01*
X165192969Y-87564632D01*
X165184262Y-87495307D01*
X165214416Y-87432279D01*
X165218984Y-87427461D01*
X165500511Y-87145934D01*
X165561834Y-87112449D01*
X165631526Y-87117433D01*
G37*
G04 #@! TD.AperFunction*
G04 #@! TA.AperFunction,Conductor*
G36*
X168558476Y-84190483D02*
G01*
X168614409Y-84232355D01*
X168618244Y-84237774D01*
X168675915Y-84324085D01*
X168762223Y-84381754D01*
X168807029Y-84435366D01*
X168815736Y-84504691D01*
X168785582Y-84567718D01*
X168781014Y-84572537D01*
X168499487Y-84854064D01*
X168438164Y-84887549D01*
X168368472Y-84882565D01*
X168320910Y-84850726D01*
X168257021Y-84781871D01*
X168193643Y-84713564D01*
X168157054Y-84684385D01*
X168116914Y-84627196D01*
X168114065Y-84557384D01*
X168146687Y-84499758D01*
X168427461Y-84218984D01*
X168488784Y-84185499D01*
X168558476Y-84190483D01*
G37*
G04 #@! TD.AperFunction*
G04 #@! TA.AperFunction,Conductor*
G36*
X165567719Y-84214417D02*
G01*
X165572538Y-84218985D01*
X165853312Y-84499759D01*
X165886797Y-84561082D01*
X165881813Y-84630774D01*
X165842945Y-84684386D01*
X165806356Y-84713565D01*
X165679090Y-84850725D01*
X165619062Y-84886479D01*
X165549233Y-84884104D01*
X165500511Y-84854064D01*
X165218985Y-84572538D01*
X165185500Y-84511215D01*
X165190484Y-84441523D01*
X165232356Y-84385590D01*
X165237775Y-84381755D01*
X165241388Y-84379340D01*
X165241390Y-84379340D01*
X165324085Y-84324085D01*
X165379340Y-84241390D01*
X165379340Y-84241388D01*
X165381755Y-84237775D01*
X165435367Y-84192970D01*
X165504692Y-84184263D01*
X165567719Y-84214417D01*
G37*
G04 #@! TD.AperFunction*
G04 #@! TA.AperFunction,Conductor*
G36*
X150522064Y-70186894D02*
G01*
X150577998Y-70228765D01*
X150583039Y-70236025D01*
X150583048Y-70236039D01*
X150618239Y-70290798D01*
X150733602Y-70390759D01*
X150731293Y-70393422D01*
X150766006Y-70433499D01*
X150775935Y-70502660D01*
X150746898Y-70566210D01*
X150740882Y-70572669D01*
X150238625Y-71074925D01*
X150314594Y-71128119D01*
X150358219Y-71182696D01*
X150365413Y-71252194D01*
X150333890Y-71314549D01*
X150314595Y-71331269D01*
X150128594Y-71461508D01*
X149961505Y-71628597D01*
X149831575Y-71814158D01*
X149776998Y-71857783D01*
X149707500Y-71864977D01*
X149645145Y-71833454D01*
X149628425Y-71814158D01*
X149498494Y-71628597D01*
X149331402Y-71461506D01*
X149331396Y-71461501D01*
X149145842Y-71331575D01*
X149102217Y-71276998D01*
X149095023Y-71207500D01*
X149126546Y-71145145D01*
X149145842Y-71128425D01*
X149222248Y-71074925D01*
X149331401Y-70998495D01*
X149498495Y-70831401D01*
X149628732Y-70645403D01*
X149683307Y-70601780D01*
X149752805Y-70594586D01*
X149815160Y-70626109D01*
X149831880Y-70645405D01*
X149885073Y-70721373D01*
X150391050Y-70215395D01*
X150452373Y-70181910D01*
X150522064Y-70186894D01*
G37*
G04 #@! TD.AperFunction*
G04 #@! TA.AperFunction,Conductor*
G36*
X149814855Y-68086546D02*
G01*
X149831575Y-68105842D01*
X149961500Y-68291395D01*
X149961505Y-68291401D01*
X150128599Y-68458495D01*
X150306012Y-68582721D01*
X150314594Y-68588730D01*
X150358218Y-68643307D01*
X150365411Y-68712806D01*
X150333889Y-68775160D01*
X150314593Y-68791880D01*
X150238626Y-68845072D01*
X150238625Y-68845072D01*
X150740883Y-69347330D01*
X150774368Y-69408653D01*
X150769384Y-69478345D01*
X150732357Y-69527805D01*
X150733602Y-69529241D01*
X150618238Y-69629202D01*
X150583046Y-69683962D01*
X150530242Y-69729717D01*
X150461083Y-69739660D01*
X150397528Y-69710634D01*
X150391050Y-69704603D01*
X149885073Y-69198626D01*
X149831881Y-69274594D01*
X149777304Y-69318219D01*
X149707806Y-69325413D01*
X149645451Y-69293891D01*
X149628730Y-69274594D01*
X149498494Y-69088597D01*
X149331402Y-68921506D01*
X149331401Y-68921505D01*
X149165305Y-68805203D01*
X149145841Y-68791574D01*
X149102216Y-68736997D01*
X149095024Y-68667498D01*
X149126546Y-68605144D01*
X149145836Y-68588428D01*
X149331401Y-68458495D01*
X149498495Y-68291401D01*
X149628424Y-68105842D01*
X149683002Y-68062217D01*
X149752500Y-68055023D01*
X149814855Y-68086546D01*
G37*
G04 #@! TD.AperFunction*
G04 #@! TA.AperFunction,Conductor*
G36*
X150522064Y-65106894D02*
G01*
X150577998Y-65148765D01*
X150583039Y-65156025D01*
X150602270Y-65185949D01*
X150618239Y-65210798D01*
X150733602Y-65310759D01*
X150731293Y-65313422D01*
X150766006Y-65353499D01*
X150775935Y-65422660D01*
X150746898Y-65486210D01*
X150740882Y-65492669D01*
X150238625Y-65994925D01*
X150314594Y-66048119D01*
X150358219Y-66102696D01*
X150365413Y-66172194D01*
X150333890Y-66234549D01*
X150314595Y-66251269D01*
X150128594Y-66381508D01*
X149961505Y-66548597D01*
X149831575Y-66734158D01*
X149776998Y-66777783D01*
X149707500Y-66784977D01*
X149645145Y-66753454D01*
X149628425Y-66734158D01*
X149498494Y-66548597D01*
X149331402Y-66381506D01*
X149331396Y-66381501D01*
X149145842Y-66251575D01*
X149102217Y-66196998D01*
X149095023Y-66127500D01*
X149126546Y-66065145D01*
X149145842Y-66048425D01*
X149215000Y-66000000D01*
X149331401Y-65918495D01*
X149498495Y-65751401D01*
X149628732Y-65565403D01*
X149683307Y-65521780D01*
X149752805Y-65514586D01*
X149815160Y-65546109D01*
X149831880Y-65565405D01*
X149885073Y-65641373D01*
X150391050Y-65135395D01*
X150452373Y-65101910D01*
X150522064Y-65106894D01*
G37*
G04 #@! TD.AperFunction*
G04 #@! TA.AperFunction,Conductor*
G36*
X149920720Y-63178779D02*
G01*
X149957483Y-63207766D01*
X149957677Y-63207573D01*
X149959313Y-63209209D01*
X149960354Y-63210030D01*
X149961501Y-63211397D01*
X149961505Y-63211401D01*
X150128599Y-63378495D01*
X150310185Y-63505643D01*
X150314594Y-63508730D01*
X150358218Y-63563307D01*
X150365411Y-63632806D01*
X150333889Y-63695160D01*
X150314593Y-63711880D01*
X150238626Y-63765072D01*
X150238625Y-63765072D01*
X150740883Y-64267330D01*
X150774368Y-64328653D01*
X150769384Y-64398345D01*
X150732357Y-64447805D01*
X150733602Y-64449241D01*
X150618238Y-64549202D01*
X150583046Y-64603962D01*
X150530242Y-64649717D01*
X150461083Y-64659660D01*
X150397528Y-64630634D01*
X150391050Y-64624603D01*
X149885073Y-64118626D01*
X149831881Y-64194594D01*
X149777304Y-64238219D01*
X149707806Y-64245413D01*
X149645451Y-64213891D01*
X149628730Y-64194594D01*
X149498494Y-64008597D01*
X149331398Y-63841501D01*
X149330030Y-63840354D01*
X149329592Y-63839696D01*
X149327573Y-63837677D01*
X149327978Y-63837271D01*
X149291330Y-63782182D01*
X149290224Y-63712321D01*
X149327063Y-63652952D01*
X149370737Y-63627662D01*
X149379334Y-63624814D01*
X149528656Y-63532712D01*
X149652712Y-63408656D01*
X149744814Y-63259334D01*
X149747662Y-63250738D01*
X149787429Y-63193294D01*
X149851944Y-63166468D01*
X149920720Y-63178779D01*
G37*
G04 #@! TD.AperFunction*
G04 #@! TA.AperFunction,Conductor*
G36*
X131450766Y-47115895D02*
G01*
X131499488Y-47145935D01*
X131781014Y-47427461D01*
X131814499Y-47488784D01*
X131809515Y-47558476D01*
X131767643Y-47614409D01*
X131762225Y-47618243D01*
X131675915Y-47675914D01*
X131675914Y-47675915D01*
X131618243Y-47762225D01*
X131564631Y-47807029D01*
X131495306Y-47815736D01*
X131432279Y-47785581D01*
X131427461Y-47781014D01*
X131146687Y-47500240D01*
X131113202Y-47438917D01*
X131118186Y-47369225D01*
X131157056Y-47315612D01*
X131193640Y-47286438D01*
X131320910Y-47149273D01*
X131380937Y-47113520D01*
X131450766Y-47115895D01*
G37*
G04 #@! TD.AperFunction*
G04 #@! TA.AperFunction,Conductor*
G36*
X128631526Y-47117433D02*
G01*
X128679090Y-47149274D01*
X128806351Y-47286429D01*
X128806355Y-47286432D01*
X128806360Y-47286438D01*
X128829285Y-47304720D01*
X128842944Y-47315613D01*
X128883084Y-47372801D01*
X128885933Y-47442613D01*
X128853311Y-47500240D01*
X128572537Y-47781014D01*
X128511214Y-47814499D01*
X128441522Y-47809515D01*
X128385589Y-47767643D01*
X128381754Y-47762223D01*
X128324085Y-47675915D01*
X128237774Y-47618244D01*
X128192969Y-47564632D01*
X128184262Y-47495307D01*
X128214416Y-47432279D01*
X128218984Y-47427461D01*
X128500511Y-47145934D01*
X128561834Y-47112449D01*
X128631526Y-47117433D01*
G37*
G04 #@! TD.AperFunction*
G04 #@! TA.AperFunction,Conductor*
G36*
X131558476Y-44190483D02*
G01*
X131614409Y-44232355D01*
X131618244Y-44237774D01*
X131675915Y-44324085D01*
X131762223Y-44381754D01*
X131807029Y-44435366D01*
X131815736Y-44504691D01*
X131785582Y-44567718D01*
X131781014Y-44572537D01*
X131499487Y-44854064D01*
X131438164Y-44887549D01*
X131368472Y-44882565D01*
X131320910Y-44850726D01*
X131257021Y-44781871D01*
X131193643Y-44713564D01*
X131157054Y-44684385D01*
X131116914Y-44627196D01*
X131114065Y-44557384D01*
X131146687Y-44499758D01*
X131427461Y-44218984D01*
X131488784Y-44185499D01*
X131558476Y-44190483D01*
G37*
G04 #@! TD.AperFunction*
G04 #@! TA.AperFunction,Conductor*
G36*
X128567719Y-44214417D02*
G01*
X128572538Y-44218985D01*
X128853312Y-44499759D01*
X128886797Y-44561082D01*
X128881813Y-44630774D01*
X128842945Y-44684386D01*
X128806356Y-44713565D01*
X128679090Y-44850725D01*
X128619062Y-44886479D01*
X128549233Y-44884104D01*
X128500511Y-44854064D01*
X128218985Y-44572538D01*
X128185500Y-44511215D01*
X128190484Y-44441523D01*
X128232356Y-44385590D01*
X128237775Y-44381755D01*
X128241388Y-44379340D01*
X128241390Y-44379340D01*
X128324085Y-44324085D01*
X128379340Y-44241390D01*
X128379340Y-44241388D01*
X128381755Y-44237775D01*
X128435367Y-44192970D01*
X128504692Y-44184263D01*
X128567719Y-44214417D01*
G37*
G04 #@! TD.AperFunction*
G04 #@! TA.AperFunction,Conductor*
G36*
X168450766Y-47115895D02*
G01*
X168499488Y-47145935D01*
X168781014Y-47427461D01*
X168814499Y-47488784D01*
X168809515Y-47558476D01*
X168767643Y-47614409D01*
X168762225Y-47618243D01*
X168675915Y-47675914D01*
X168675914Y-47675915D01*
X168618243Y-47762225D01*
X168564631Y-47807029D01*
X168495306Y-47815736D01*
X168432279Y-47785581D01*
X168427461Y-47781014D01*
X168146687Y-47500240D01*
X168113202Y-47438917D01*
X168118186Y-47369225D01*
X168157056Y-47315612D01*
X168193640Y-47286438D01*
X168320910Y-47149273D01*
X168380937Y-47113520D01*
X168450766Y-47115895D01*
G37*
G04 #@! TD.AperFunction*
G04 #@! TA.AperFunction,Conductor*
G36*
X165631526Y-47117433D02*
G01*
X165679090Y-47149274D01*
X165806351Y-47286429D01*
X165806355Y-47286432D01*
X165806360Y-47286438D01*
X165829285Y-47304720D01*
X165842944Y-47315613D01*
X165883084Y-47372801D01*
X165885933Y-47442613D01*
X165853311Y-47500240D01*
X165572537Y-47781014D01*
X165511214Y-47814499D01*
X165441522Y-47809515D01*
X165385589Y-47767643D01*
X165381754Y-47762223D01*
X165324085Y-47675915D01*
X165237774Y-47618244D01*
X165192969Y-47564632D01*
X165184262Y-47495307D01*
X165214416Y-47432279D01*
X165218984Y-47427461D01*
X165500511Y-47145934D01*
X165561834Y-47112449D01*
X165631526Y-47117433D01*
G37*
G04 #@! TD.AperFunction*
G04 #@! TA.AperFunction,Conductor*
G36*
X168558476Y-44190483D02*
G01*
X168614409Y-44232355D01*
X168618244Y-44237774D01*
X168675915Y-44324085D01*
X168762223Y-44381754D01*
X168807029Y-44435366D01*
X168815736Y-44504691D01*
X168785582Y-44567718D01*
X168781014Y-44572537D01*
X168499487Y-44854064D01*
X168438164Y-44887549D01*
X168368472Y-44882565D01*
X168320910Y-44850726D01*
X168257021Y-44781871D01*
X168193643Y-44713564D01*
X168157054Y-44684385D01*
X168116914Y-44627196D01*
X168114065Y-44557384D01*
X168146687Y-44499758D01*
X168427461Y-44218984D01*
X168488784Y-44185499D01*
X168558476Y-44190483D01*
G37*
G04 #@! TD.AperFunction*
G04 #@! TA.AperFunction,Conductor*
G36*
X165567719Y-44214417D02*
G01*
X165572538Y-44218985D01*
X165853312Y-44499759D01*
X165886797Y-44561082D01*
X165881813Y-44630774D01*
X165842945Y-44684386D01*
X165806356Y-44713565D01*
X165679090Y-44850725D01*
X165619062Y-44886479D01*
X165549233Y-44884104D01*
X165500511Y-44854064D01*
X165218985Y-44572538D01*
X165185500Y-44511215D01*
X165190484Y-44441523D01*
X165232356Y-44385590D01*
X165237775Y-44381755D01*
X165241388Y-44379340D01*
X165241390Y-44379340D01*
X165324085Y-44324085D01*
X165379340Y-44241390D01*
X165379340Y-44241388D01*
X165381755Y-44237775D01*
X165435367Y-44192970D01*
X165504692Y-44184263D01*
X165567719Y-44214417D01*
G37*
G04 #@! TD.AperFunction*
G04 #@! TA.AperFunction,Conductor*
G36*
X174442539Y-41020185D02*
G01*
X174488294Y-41072989D01*
X174499500Y-41124500D01*
X174499500Y-90875500D01*
X174479815Y-90942539D01*
X174427011Y-90988294D01*
X174375500Y-90999500D01*
X124624500Y-90999500D01*
X124557461Y-90979815D01*
X124511706Y-90927011D01*
X124500500Y-90875500D01*
X124500500Y-85999999D01*
X125995176Y-85999999D01*
X126014461Y-86392550D01*
X126072129Y-86781308D01*
X126167625Y-87162549D01*
X126300016Y-87532559D01*
X126300023Y-87532575D01*
X126468062Y-87887864D01*
X126670109Y-88224958D01*
X126904228Y-88540632D01*
X127000068Y-88646376D01*
X127000069Y-88646376D01*
X127839676Y-87806769D01*
X127900999Y-87773284D01*
X127970690Y-87778268D01*
X128026624Y-87820140D01*
X128051041Y-87885604D01*
X128048975Y-87918640D01*
X128032792Y-88000001D01*
X128032792Y-88000002D01*
X128052193Y-88097540D01*
X128052194Y-88097543D01*
X128052194Y-88097544D01*
X128052195Y-88097545D01*
X128057948Y-88106155D01*
X128077294Y-88135108D01*
X128098171Y-88201786D01*
X128079686Y-88269166D01*
X128061872Y-88291679D01*
X127353622Y-88999929D01*
X127353622Y-88999930D01*
X127459367Y-89095771D01*
X127775041Y-89329890D01*
X128112135Y-89531937D01*
X128467424Y-89699976D01*
X128467440Y-89699983D01*
X128837450Y-89832374D01*
X129218691Y-89927870D01*
X129607449Y-89985538D01*
X129999999Y-90004823D01*
X130392550Y-89985538D01*
X130781308Y-89927870D01*
X131162549Y-89832374D01*
X131532559Y-89699983D01*
X131532575Y-89699976D01*
X131887864Y-89531937D01*
X132224958Y-89329890D01*
X132540632Y-89095770D01*
X132646376Y-88999929D01*
X132075140Y-88428693D01*
X132041655Y-88367370D01*
X132046639Y-88297678D01*
X132088511Y-88241745D01*
X132093930Y-88237910D01*
X132097543Y-88235495D01*
X132097545Y-88235495D01*
X132180240Y-88180240D01*
X132235495Y-88097545D01*
X132235495Y-88097543D01*
X132237910Y-88093930D01*
X132291522Y-88049125D01*
X132360847Y-88040418D01*
X132423874Y-88070572D01*
X132428693Y-88075140D01*
X132999929Y-88646376D01*
X133095770Y-88540632D01*
X133329890Y-88224958D01*
X133531937Y-87887864D01*
X133699976Y-87532575D01*
X133699983Y-87532559D01*
X133832374Y-87162549D01*
X133927870Y-86781308D01*
X133985538Y-86392550D01*
X134004823Y-85999999D01*
X162995176Y-85999999D01*
X163014461Y-86392550D01*
X163072129Y-86781308D01*
X163167625Y-87162549D01*
X163300016Y-87532559D01*
X163300023Y-87532575D01*
X163468062Y-87887864D01*
X163670109Y-88224958D01*
X163904228Y-88540632D01*
X164000068Y-88646376D01*
X164000069Y-88646376D01*
X164715151Y-87931294D01*
X164776474Y-87897809D01*
X164846165Y-87902793D01*
X164902099Y-87944665D01*
X164905934Y-87950084D01*
X164963605Y-88036395D01*
X165049913Y-88094064D01*
X165094719Y-88147676D01*
X165103426Y-88217001D01*
X165073272Y-88280028D01*
X165068704Y-88284847D01*
X164353622Y-88999929D01*
X164353622Y-88999930D01*
X164459367Y-89095771D01*
X164775041Y-89329890D01*
X165112135Y-89531937D01*
X165467424Y-89699976D01*
X165467440Y-89699983D01*
X165837450Y-89832374D01*
X166218691Y-89927870D01*
X166607449Y-89985538D01*
X167000000Y-90004823D01*
X167392550Y-89985538D01*
X167781308Y-89927870D01*
X168162549Y-89832374D01*
X168532559Y-89699983D01*
X168532575Y-89699976D01*
X168887864Y-89531937D01*
X169224958Y-89329890D01*
X169540632Y-89095770D01*
X169646376Y-88999929D01*
X168931295Y-88284848D01*
X168897810Y-88223525D01*
X168902794Y-88153833D01*
X168944666Y-88097900D01*
X168950085Y-88094065D01*
X168953698Y-88091650D01*
X168953700Y-88091650D01*
X169036395Y-88036395D01*
X169091650Y-87953700D01*
X169091650Y-87953698D01*
X169094065Y-87950085D01*
X169147677Y-87905280D01*
X169217002Y-87896573D01*
X169280029Y-87926727D01*
X169284848Y-87931295D01*
X169999929Y-88646376D01*
X170095770Y-88540632D01*
X170329890Y-88224958D01*
X170531937Y-87887864D01*
X170699976Y-87532575D01*
X170699983Y-87532559D01*
X170832374Y-87162549D01*
X170927870Y-86781308D01*
X170985538Y-86392550D01*
X171004823Y-85999999D01*
X170985538Y-85607449D01*
X170927870Y-85218691D01*
X170832374Y-84837450D01*
X170699983Y-84467440D01*
X170699976Y-84467424D01*
X170531937Y-84112135D01*
X170329890Y-83775041D01*
X170095771Y-83459367D01*
X169999930Y-83353622D01*
X169999929Y-83353622D01*
X169284847Y-84068704D01*
X169223524Y-84102189D01*
X169153832Y-84097205D01*
X169097899Y-84055333D01*
X169094064Y-84049913D01*
X169036395Y-83963605D01*
X168950084Y-83905934D01*
X168905279Y-83852322D01*
X168896572Y-83782997D01*
X168926726Y-83719969D01*
X168931294Y-83715151D01*
X169646376Y-83000069D01*
X169646376Y-83000068D01*
X169540632Y-82904228D01*
X169224958Y-82670109D01*
X168887864Y-82468062D01*
X168532576Y-82300023D01*
X168368241Y-82241224D01*
X168311752Y-82200105D01*
X168286460Y-82134973D01*
X168300397Y-82066508D01*
X168349136Y-82016445D01*
X168417204Y-82000681D01*
X168426659Y-82001594D01*
X168430911Y-82002169D01*
X168430924Y-82002172D01*
X168623413Y-82010816D01*
X168656506Y-82012303D01*
X168656506Y-82012302D01*
X168656510Y-82012303D01*
X168880281Y-81981991D01*
X169095043Y-81912211D01*
X169293894Y-81805204D01*
X169470442Y-81664411D01*
X169619014Y-81494357D01*
X169734834Y-81300507D01*
X169814180Y-81089092D01*
X169827620Y-81015030D01*
X169854500Y-80866909D01*
X169854500Y-79683834D01*
X169874185Y-79616795D01*
X169926989Y-79571040D01*
X169996147Y-79561096D01*
X170059703Y-79590121D01*
X170064192Y-79594208D01*
X170214981Y-79738378D01*
X170403363Y-79862729D01*
X170610929Y-79951446D01*
X170610932Y-79951447D01*
X170749999Y-79983188D01*
X170750000Y-79983188D01*
X170750000Y-79113346D01*
X170769685Y-79046307D01*
X170822489Y-79000552D01*
X170891647Y-78990608D01*
X170908937Y-78994370D01*
X170928108Y-78999999D01*
X170928110Y-79000000D01*
X170928111Y-79000000D01*
X171071890Y-79000000D01*
X171071890Y-78999999D01*
X171091063Y-78994369D01*
X171160932Y-78994368D01*
X171219711Y-79032141D01*
X171248737Y-79095696D01*
X171250000Y-79113346D01*
X171250000Y-79985587D01*
X171280165Y-79981503D01*
X171494845Y-79911749D01*
X171693614Y-79804786D01*
X171693623Y-79804780D01*
X171870087Y-79664055D01*
X171870102Y-79664041D01*
X172018607Y-79494062D01*
X172018608Y-79494060D01*
X172134378Y-79300296D01*
X172134380Y-79300291D01*
X172213696Y-79088958D01*
X172254000Y-78866864D01*
X172254000Y-78250000D01*
X171624000Y-78250000D01*
X171556961Y-78230315D01*
X171511206Y-78177511D01*
X171500000Y-78126000D01*
X171500000Y-77874000D01*
X171519685Y-77806961D01*
X171572489Y-77761206D01*
X171624000Y-77750000D01*
X172254000Y-77750000D01*
X172254000Y-77189685D01*
X172253999Y-77189683D01*
X172238835Y-77021183D01*
X172178788Y-76803606D01*
X172178782Y-76803591D01*
X172080849Y-76600230D01*
X172080845Y-76600222D01*
X171948173Y-76417615D01*
X171948166Y-76417607D01*
X171785018Y-76261621D01*
X171596636Y-76137270D01*
X171389072Y-76048554D01*
X171389066Y-76048552D01*
X171250000Y-76016811D01*
X171250000Y-76886653D01*
X171230315Y-76953692D01*
X171177511Y-76999447D01*
X171108353Y-77009391D01*
X171091067Y-77005631D01*
X171071889Y-77000000D01*
X170928111Y-77000000D01*
X170908933Y-77005631D01*
X170839064Y-77005630D01*
X170780286Y-76967855D01*
X170751262Y-76904299D01*
X170750000Y-76886653D01*
X170750000Y-76014411D01*
X170719828Y-76018498D01*
X170719825Y-76018499D01*
X170505154Y-76088250D01*
X170306385Y-76195213D01*
X170306376Y-76195219D01*
X170129912Y-76335944D01*
X170129897Y-76335958D01*
X169981392Y-76505937D01*
X169981391Y-76505939D01*
X169865621Y-76699703D01*
X169865619Y-76699708D01*
X169786303Y-76911041D01*
X169746000Y-77133135D01*
X169746000Y-77750000D01*
X170376000Y-77750000D01*
X170443039Y-77769685D01*
X170488794Y-77822489D01*
X170500000Y-77874000D01*
X170500000Y-78126000D01*
X170480315Y-78193039D01*
X170427511Y-78238794D01*
X170376000Y-78250000D01*
X169746000Y-78250000D01*
X169746000Y-78315951D01*
X169726315Y-78382990D01*
X169673511Y-78428745D01*
X169604353Y-78438689D01*
X169540797Y-78409664D01*
X169536322Y-78405590D01*
X169385330Y-78261228D01*
X169385328Y-78261226D01*
X169196874Y-78136828D01*
X169145330Y-78114797D01*
X168989229Y-78048077D01*
X168989222Y-78048075D01*
X168989221Y-78048075D01*
X168832494Y-78012303D01*
X168769076Y-77997828D01*
X168760486Y-77997442D01*
X168543493Y-77987696D01*
X168417918Y-78004707D01*
X168319719Y-78018009D01*
X168319716Y-78018009D01*
X168319715Y-78018010D01*
X168104955Y-78087789D01*
X167906108Y-78194794D01*
X167906105Y-78194796D01*
X167729560Y-78335586D01*
X167580988Y-78505639D01*
X167465166Y-78699493D01*
X167385819Y-78910908D01*
X167345500Y-79133090D01*
X167345500Y-80810339D01*
X167360670Y-80978906D01*
X167420741Y-81196570D01*
X167420747Y-81196585D01*
X167518719Y-81400026D01*
X167518723Y-81400034D01*
X167651448Y-81582715D01*
X167651449Y-81582717D01*
X167814671Y-81738773D01*
X168003125Y-81863171D01*
X168003127Y-81863172D01*
X168003129Y-81863173D01*
X168062244Y-81888439D01*
X168116151Y-81932888D01*
X168137471Y-81999425D01*
X168119433Y-82066926D01*
X168067765Y-82113960D01*
X167998871Y-82125594D01*
X167983379Y-82122745D01*
X167781310Y-82072129D01*
X167392550Y-82014461D01*
X167000000Y-81995176D01*
X166607449Y-82014461D01*
X166218691Y-82072129D01*
X165837450Y-82167625D01*
X165467440Y-82300016D01*
X165467424Y-82300023D01*
X165112135Y-82468062D01*
X164775041Y-82670109D01*
X164459368Y-82904228D01*
X164353622Y-83000069D01*
X165068704Y-83715151D01*
X165102189Y-83776474D01*
X165097205Y-83846166D01*
X165055333Y-83902099D01*
X165049915Y-83905933D01*
X164963605Y-83963604D01*
X164963604Y-83963605D01*
X164905933Y-84049915D01*
X164852321Y-84094719D01*
X164782996Y-84103426D01*
X164719969Y-84073271D01*
X164715151Y-84068704D01*
X164000069Y-83353622D01*
X163904228Y-83459368D01*
X163670109Y-83775041D01*
X163468062Y-84112135D01*
X163300023Y-84467424D01*
X163300016Y-84467440D01*
X163167625Y-84837450D01*
X163072129Y-85218691D01*
X163014461Y-85607449D01*
X162995176Y-85999999D01*
X134004823Y-85999999D01*
X133985538Y-85607449D01*
X133927870Y-85218691D01*
X133832374Y-84837450D01*
X133699983Y-84467440D01*
X133699976Y-84467424D01*
X133531937Y-84112135D01*
X133329890Y-83775041D01*
X133095771Y-83459367D01*
X132999930Y-83353622D01*
X132999929Y-83353622D01*
X132291679Y-84061872D01*
X132230356Y-84095357D01*
X132160664Y-84090373D01*
X132135108Y-84077294D01*
X132122252Y-84068704D01*
X132097545Y-84052195D01*
X132097544Y-84052194D01*
X132097543Y-84052194D01*
X132097540Y-84052193D01*
X132024627Y-84037690D01*
X132024624Y-84037690D01*
X131975376Y-84037690D01*
X131918640Y-84048975D01*
X131849049Y-84042746D01*
X131793872Y-83999883D01*
X131770628Y-83933993D01*
X131786696Y-83865996D01*
X131806769Y-83839676D01*
X132646376Y-83000069D01*
X132646376Y-83000068D01*
X132540632Y-82904228D01*
X132224958Y-82670109D01*
X131887864Y-82468062D01*
X131532575Y-82300023D01*
X131532559Y-82300016D01*
X131162549Y-82167625D01*
X130781308Y-82072129D01*
X130392550Y-82014461D01*
X129999999Y-81995176D01*
X129607449Y-82014461D01*
X129218691Y-82072129D01*
X128837450Y-82167625D01*
X128467440Y-82300016D01*
X128467424Y-82300023D01*
X128112135Y-82468062D01*
X127775041Y-82670109D01*
X127459368Y-82904228D01*
X127353622Y-83000069D01*
X128212549Y-83858996D01*
X128246034Y-83920319D01*
X128241050Y-83990011D01*
X128199178Y-84045944D01*
X128193760Y-84049778D01*
X128107450Y-84107449D01*
X128107449Y-84107450D01*
X128049778Y-84193760D01*
X127996166Y-84238564D01*
X127926841Y-84247271D01*
X127863814Y-84217116D01*
X127858996Y-84212549D01*
X127000069Y-83353622D01*
X126904228Y-83459368D01*
X126670109Y-83775041D01*
X126468062Y-84112135D01*
X126300023Y-84467424D01*
X126300016Y-84467440D01*
X126167625Y-84837450D01*
X126072129Y-85218691D01*
X126014461Y-85607449D01*
X125995176Y-85999999D01*
X124500500Y-85999999D01*
X124500500Y-78810316D01*
X126746000Y-78810316D01*
X126761164Y-78978816D01*
X126821211Y-79196393D01*
X126821217Y-79196408D01*
X126919150Y-79399769D01*
X126919154Y-79399777D01*
X127051826Y-79582384D01*
X127051833Y-79582392D01*
X127214981Y-79738378D01*
X127403363Y-79862729D01*
X127610927Y-79951445D01*
X127610935Y-79951448D01*
X127749998Y-79983188D01*
X127749999Y-79983188D01*
X127749999Y-79113346D01*
X127769684Y-79046307D01*
X127822488Y-79000552D01*
X127891646Y-78990608D01*
X127908929Y-78994367D01*
X127928111Y-79000000D01*
X127928112Y-79000000D01*
X128071890Y-79000000D01*
X128071890Y-78999999D01*
X128091063Y-78994369D01*
X128160932Y-78994368D01*
X128219711Y-79032141D01*
X128248737Y-79095696D01*
X128250000Y-79113346D01*
X128250000Y-79985587D01*
X128280165Y-79981503D01*
X128494845Y-79911749D01*
X128693614Y-79804786D01*
X128693623Y-79804780D01*
X128870087Y-79664055D01*
X128870102Y-79664041D01*
X129018607Y-79494062D01*
X129018608Y-79494060D01*
X129134378Y-79300296D01*
X129134380Y-79300291D01*
X129213696Y-79088958D01*
X129213696Y-79088956D01*
X129241580Y-78935303D01*
X129272918Y-78872855D01*
X129333043Y-78837264D01*
X129402865Y-78839828D01*
X129460217Y-78879735D01*
X129472089Y-78899478D01*
X129472789Y-78899090D01*
X129492509Y-78934619D01*
X129495879Y-78941714D01*
X129508622Y-78973614D01*
X129508627Y-78973624D01*
X129526340Y-79000500D01*
X129539313Y-79020185D01*
X129542377Y-79024833D01*
X129544818Y-79028863D01*
X129574588Y-79082498D01*
X129574589Y-79082499D01*
X129574591Y-79082502D01*
X129596968Y-79108567D01*
X129601693Y-79114835D01*
X129613725Y-79133090D01*
X129620598Y-79143519D01*
X129663978Y-79186899D01*
X129667169Y-79190343D01*
X129707131Y-79236892D01*
X129707130Y-79236892D01*
X129734299Y-79257923D01*
X129740186Y-79263107D01*
X131287418Y-80810339D01*
X132175547Y-81698468D01*
X132236938Y-81763051D01*
X132236943Y-81763055D01*
X132267545Y-81784354D01*
X132287303Y-81798106D01*
X132291044Y-81800926D01*
X132338593Y-81839698D01*
X132369045Y-81855604D01*
X132375756Y-81859671D01*
X132403951Y-81879295D01*
X132460332Y-81903490D01*
X132464567Y-81905501D01*
X132518951Y-81933909D01*
X132551973Y-81943356D01*
X132559365Y-81945989D01*
X132590940Y-81959539D01*
X132590941Y-81959540D01*
X132604054Y-81962234D01*
X132651055Y-81971892D01*
X132655595Y-81973006D01*
X132714582Y-81989886D01*
X132748841Y-81992494D01*
X132756609Y-81993585D01*
X132790255Y-82000500D01*
X132790259Y-82000500D01*
X132851601Y-82000500D01*
X132856308Y-82000678D01*
X132883597Y-82002757D01*
X132917475Y-82005337D01*
X132917475Y-82005336D01*
X132917476Y-82005337D01*
X132951559Y-82000996D01*
X132959389Y-82000500D01*
X140987284Y-82000500D01*
X141076358Y-82002757D01*
X141076358Y-82002756D01*
X141076363Y-82002757D01*
X141136753Y-81991932D01*
X141141412Y-81991280D01*
X141183607Y-81986988D01*
X141202438Y-81985074D01*
X141235227Y-81974786D01*
X141242840Y-81972918D01*
X141276653Y-81966858D01*
X141333621Y-81944101D01*
X141338053Y-81942524D01*
X141396588Y-81924159D01*
X141426627Y-81907484D01*
X141433708Y-81904122D01*
X141465617Y-81891377D01*
X141516854Y-81857608D01*
X141520851Y-81855187D01*
X141574502Y-81825409D01*
X141600568Y-81803030D01*
X141606843Y-81798300D01*
X141607145Y-81798101D01*
X141635519Y-81779402D01*
X141678917Y-81736002D01*
X141682336Y-81732834D01*
X141728895Y-81692866D01*
X141749931Y-81665688D01*
X141755101Y-81659818D01*
X144378101Y-79036819D01*
X144439425Y-79003334D01*
X144465783Y-79000500D01*
X158072217Y-79000500D01*
X158139256Y-79020185D01*
X158185011Y-79072989D01*
X158191748Y-79091512D01*
X158220741Y-79196570D01*
X158220747Y-79196585D01*
X158318719Y-79400026D01*
X158318723Y-79400034D01*
X158451448Y-79582715D01*
X158451449Y-79582717D01*
X158451452Y-79582720D01*
X158451453Y-79582721D01*
X158487092Y-79616795D01*
X158614671Y-79738773D01*
X158803125Y-79863171D01*
X158803127Y-79863172D01*
X158803129Y-79863173D01*
X159010771Y-79951923D01*
X159230924Y-80002172D01*
X159422153Y-80010760D01*
X159456506Y-80012303D01*
X159456506Y-80012302D01*
X159456510Y-80012303D01*
X159680281Y-79981991D01*
X159895043Y-79912211D01*
X160093894Y-79805204D01*
X160270442Y-79664411D01*
X160419014Y-79494357D01*
X160534834Y-79300507D01*
X160614180Y-79089092D01*
X160632052Y-78990608D01*
X160654500Y-78866909D01*
X160654500Y-77189662D01*
X160654500Y-77189657D01*
X160639329Y-77021095D01*
X160639329Y-77021093D01*
X160579258Y-76803429D01*
X160579252Y-76803414D01*
X160519001Y-76678301D01*
X160507649Y-76609360D01*
X160535371Y-76545226D01*
X160593367Y-76506260D01*
X160630721Y-76500500D01*
X161934217Y-76500500D01*
X162001256Y-76520185D01*
X162021898Y-76536819D01*
X162748137Y-77263058D01*
X163267074Y-77781994D01*
X163300559Y-77843317D01*
X163295575Y-77913009D01*
X163253703Y-77968942D01*
X163188239Y-77993359D01*
X163173830Y-77993550D01*
X163043493Y-77987696D01*
X162917918Y-78004707D01*
X162819719Y-78018009D01*
X162819716Y-78018009D01*
X162819715Y-78018010D01*
X162604955Y-78087789D01*
X162406108Y-78194794D01*
X162406105Y-78194796D01*
X162229560Y-78335586D01*
X162080988Y-78505639D01*
X161965166Y-78699493D01*
X161885819Y-78910908D01*
X161845500Y-79133090D01*
X161845500Y-80810339D01*
X161860670Y-80978906D01*
X161920741Y-81196570D01*
X161920747Y-81196585D01*
X162018719Y-81400026D01*
X162018723Y-81400034D01*
X162151448Y-81582715D01*
X162151449Y-81582717D01*
X162314671Y-81738773D01*
X162503125Y-81863171D01*
X162503127Y-81863172D01*
X162503129Y-81863173D01*
X162710771Y-81951923D01*
X162930924Y-82002172D01*
X163122153Y-82010760D01*
X163156506Y-82012303D01*
X163156506Y-82012302D01*
X163156510Y-82012303D01*
X163380281Y-81981991D01*
X163595043Y-81912211D01*
X163793894Y-81805204D01*
X163970442Y-81664411D01*
X164119014Y-81494357D01*
X164234834Y-81300507D01*
X164314180Y-81089092D01*
X164354500Y-80866907D01*
X164354500Y-80071742D01*
X164374183Y-80004707D01*
X164426987Y-79958952D01*
X164496146Y-79949008D01*
X164506092Y-79950855D01*
X164510770Y-79951922D01*
X164510771Y-79951923D01*
X164730924Y-80002172D01*
X164922153Y-80010760D01*
X164956506Y-80012303D01*
X164956506Y-80012302D01*
X164956510Y-80012303D01*
X165180281Y-79981991D01*
X165395043Y-79912211D01*
X165593894Y-79805204D01*
X165770442Y-79664411D01*
X165919014Y-79494357D01*
X166034834Y-79300507D01*
X166114180Y-79089092D01*
X166132052Y-78990608D01*
X166154500Y-78866909D01*
X166154500Y-77189662D01*
X166154500Y-77189657D01*
X166139329Y-77021095D01*
X166139329Y-77021093D01*
X166079258Y-76803429D01*
X166079252Y-76803414D01*
X166074861Y-76794297D01*
X166001590Y-76642147D01*
X165981280Y-76599973D01*
X165981276Y-76599965D01*
X165848551Y-76417284D01*
X165848550Y-76417282D01*
X165685328Y-76261226D01*
X165496874Y-76136828D01*
X165445330Y-76114797D01*
X165289229Y-76048077D01*
X165289222Y-76048075D01*
X165289221Y-76048075D01*
X165167027Y-76020185D01*
X165069076Y-75997828D01*
X165060486Y-75997442D01*
X164843493Y-75987696D01*
X164698522Y-76007334D01*
X164619719Y-76018009D01*
X164619717Y-76018009D01*
X164619714Y-76018010D01*
X164475528Y-76064859D01*
X164405687Y-76066854D01*
X164349529Y-76034609D01*
X163577101Y-75262181D01*
X163543616Y-75200858D01*
X163548600Y-75131166D01*
X163590472Y-75075233D01*
X163655936Y-75050816D01*
X163664782Y-75050500D01*
X164381649Y-75050500D01*
X164470723Y-75052757D01*
X164470723Y-75052756D01*
X164470728Y-75052757D01*
X164531118Y-75041932D01*
X164535777Y-75041280D01*
X164577972Y-75036988D01*
X164596803Y-75035074D01*
X164629592Y-75024786D01*
X164637205Y-75022918D01*
X164671018Y-75016858D01*
X164727986Y-74994101D01*
X164732418Y-74992524D01*
X164790953Y-74974159D01*
X164820992Y-74957484D01*
X164828073Y-74954122D01*
X164859982Y-74941377D01*
X164911219Y-74907608D01*
X164915216Y-74905187D01*
X164968867Y-74875409D01*
X164994933Y-74853030D01*
X165001208Y-74848300D01*
X165029884Y-74829402D01*
X165073257Y-74786027D01*
X165076715Y-74782823D01*
X165079978Y-74780020D01*
X165123260Y-74742866D01*
X165144293Y-74715691D01*
X165149463Y-74709821D01*
X167448468Y-72410816D01*
X167513053Y-72349424D01*
X167548099Y-72299071D01*
X167550938Y-72295306D01*
X167575979Y-72264596D01*
X167589698Y-72247772D01*
X167605601Y-72217325D01*
X167609674Y-72210604D01*
X167614489Y-72203685D01*
X167629295Y-72182414D01*
X167653492Y-72126025D01*
X167655498Y-72121800D01*
X167683909Y-72067414D01*
X167693360Y-72034380D01*
X167695991Y-72026993D01*
X167709540Y-71995423D01*
X167721893Y-71935305D01*
X167723006Y-71930777D01*
X167739887Y-71871783D01*
X167742495Y-71837520D01*
X167743587Y-71829741D01*
X167744665Y-71824500D01*
X167750500Y-71796106D01*
X167750500Y-71734766D01*
X167750679Y-71730057D01*
X167755337Y-71668891D01*
X167750997Y-71634807D01*
X167750500Y-71626968D01*
X167750500Y-70926844D01*
X167770185Y-70859805D01*
X167822989Y-70814050D01*
X167892147Y-70804106D01*
X167942812Y-70823358D01*
X167998026Y-70859805D01*
X168003129Y-70863173D01*
X168210771Y-70951923D01*
X168430924Y-71002172D01*
X168622153Y-71010760D01*
X168656506Y-71012303D01*
X168656506Y-71012302D01*
X168656510Y-71012303D01*
X168880281Y-70981991D01*
X169095043Y-70912211D01*
X169293894Y-70805204D01*
X169470442Y-70664411D01*
X169619014Y-70494357D01*
X169734834Y-70300507D01*
X169814180Y-70089092D01*
X169827620Y-70015030D01*
X169854500Y-69866909D01*
X169854500Y-68683834D01*
X169874185Y-68616795D01*
X169926989Y-68571040D01*
X169996147Y-68561096D01*
X170059703Y-68590121D01*
X170064192Y-68594208D01*
X170214981Y-68738378D01*
X170403363Y-68862729D01*
X170610929Y-68951446D01*
X170610932Y-68951447D01*
X170749999Y-68983188D01*
X170750000Y-68983188D01*
X170750000Y-68113346D01*
X170769685Y-68046307D01*
X170822489Y-68000552D01*
X170891647Y-67990608D01*
X170908937Y-67994370D01*
X170928108Y-67999999D01*
X170928110Y-68000000D01*
X170928111Y-68000000D01*
X171071890Y-68000000D01*
X171071890Y-67999999D01*
X171091063Y-67994369D01*
X171160932Y-67994368D01*
X171219711Y-68032141D01*
X171248737Y-68095696D01*
X171250000Y-68113346D01*
X171250000Y-68985587D01*
X171280165Y-68981503D01*
X171494845Y-68911749D01*
X171693614Y-68804786D01*
X171693623Y-68804780D01*
X171870087Y-68664055D01*
X171870102Y-68664041D01*
X172018607Y-68494062D01*
X172018608Y-68494060D01*
X172134378Y-68300296D01*
X172134380Y-68300291D01*
X172213696Y-68088958D01*
X172254000Y-67866864D01*
X172254000Y-67250000D01*
X171624000Y-67250000D01*
X171556961Y-67230315D01*
X171511206Y-67177511D01*
X171500000Y-67126000D01*
X171500000Y-66874000D01*
X171519685Y-66806961D01*
X171572489Y-66761206D01*
X171624000Y-66750000D01*
X172254000Y-66750000D01*
X172254000Y-66189685D01*
X172253999Y-66189683D01*
X172238835Y-66021183D01*
X172178788Y-65803606D01*
X172178782Y-65803591D01*
X172080849Y-65600230D01*
X172080845Y-65600222D01*
X171948173Y-65417615D01*
X171948166Y-65417607D01*
X171785018Y-65261621D01*
X171596636Y-65137270D01*
X171389072Y-65048554D01*
X171389066Y-65048552D01*
X171250000Y-65016811D01*
X171250000Y-65886653D01*
X171230315Y-65953692D01*
X171177511Y-65999447D01*
X171108353Y-66009391D01*
X171091067Y-66005631D01*
X171071889Y-66000000D01*
X170928111Y-66000000D01*
X170908933Y-66005631D01*
X170839064Y-66005630D01*
X170780286Y-65967855D01*
X170751262Y-65904299D01*
X170750000Y-65886653D01*
X170750000Y-65014411D01*
X170719828Y-65018498D01*
X170719825Y-65018499D01*
X170505154Y-65088250D01*
X170306385Y-65195213D01*
X170306376Y-65195219D01*
X170129912Y-65335944D01*
X170129897Y-65335958D01*
X169981392Y-65505937D01*
X169981391Y-65505939D01*
X169865621Y-65699703D01*
X169865619Y-65699708D01*
X169786303Y-65911041D01*
X169746000Y-66133135D01*
X169746000Y-66750000D01*
X170376000Y-66750000D01*
X170443039Y-66769685D01*
X170488794Y-66822489D01*
X170500000Y-66874000D01*
X170500000Y-67126000D01*
X170480315Y-67193039D01*
X170427511Y-67238794D01*
X170376000Y-67250000D01*
X169746000Y-67250000D01*
X169746000Y-67315951D01*
X169726315Y-67382990D01*
X169673511Y-67428745D01*
X169604353Y-67438689D01*
X169540797Y-67409664D01*
X169536322Y-67405590D01*
X169385330Y-67261228D01*
X169385328Y-67261226D01*
X169196874Y-67136828D01*
X169082140Y-67087789D01*
X168989229Y-67048077D01*
X168989222Y-67048075D01*
X168989221Y-67048075D01*
X168857494Y-67018009D01*
X168769076Y-66997828D01*
X168760486Y-66997442D01*
X168543493Y-66987696D01*
X168417918Y-67004707D01*
X168319719Y-67018009D01*
X168319716Y-67018009D01*
X168319715Y-67018010D01*
X168104955Y-67087789D01*
X167933260Y-67180183D01*
X167864897Y-67194617D01*
X167799583Y-67169799D01*
X167758055Y-67113611D01*
X167750500Y-67070989D01*
X167750500Y-64260448D01*
X167752757Y-64171374D01*
X167752756Y-64171373D01*
X167752757Y-64171370D01*
X167741933Y-64110982D01*
X167741280Y-64106320D01*
X167735074Y-64045296D01*
X167735074Y-64045295D01*
X167724784Y-64012501D01*
X167722917Y-64004888D01*
X167722638Y-64003334D01*
X167716858Y-63971080D01*
X167694100Y-63914107D01*
X167692521Y-63909671D01*
X167692316Y-63909019D01*
X167674159Y-63851145D01*
X167674158Y-63851143D01*
X167674157Y-63851140D01*
X167657488Y-63821111D01*
X167654117Y-63814011D01*
X167647545Y-63797557D01*
X167641377Y-63782116D01*
X167607620Y-63730896D01*
X167605180Y-63726867D01*
X167593578Y-63705965D01*
X167575409Y-63673231D01*
X167575407Y-63673228D01*
X167558000Y-63652952D01*
X167553030Y-63647164D01*
X167548302Y-63640892D01*
X167542973Y-63632806D01*
X167529402Y-63612214D01*
X167486012Y-63568824D01*
X167482822Y-63565381D01*
X167442867Y-63518839D01*
X167442863Y-63518835D01*
X167415698Y-63497807D01*
X167409803Y-63492615D01*
X166218718Y-62301531D01*
X166157328Y-62236949D01*
X166157327Y-62236948D01*
X166157326Y-62236947D01*
X166121744Y-62212181D01*
X166106976Y-62201902D01*
X166103213Y-62199064D01*
X166055680Y-62160305D01*
X166055673Y-62160300D01*
X166025226Y-62144397D01*
X166018518Y-62140334D01*
X165990316Y-62120705D01*
X165990313Y-62120703D01*
X165990312Y-62120703D01*
X165990308Y-62120701D01*
X165933947Y-62096514D01*
X165929691Y-62094493D01*
X165875324Y-62066094D01*
X165875317Y-62066091D01*
X165875316Y-62066091D01*
X165869275Y-62064362D01*
X165842297Y-62056642D01*
X165834897Y-62054008D01*
X165803324Y-62040459D01*
X165803325Y-62040459D01*
X165743233Y-62028109D01*
X165738658Y-62026986D01*
X165679687Y-62010113D01*
X165679692Y-62010113D01*
X165645425Y-62007503D01*
X165637647Y-62006412D01*
X165604009Y-61999500D01*
X165604008Y-61999500D01*
X165542669Y-61999500D01*
X165537962Y-61999321D01*
X165532388Y-61998896D01*
X165476791Y-61994662D01*
X165456856Y-61997201D01*
X165442707Y-61999003D01*
X165434878Y-61999500D01*
X164262717Y-61999500D01*
X164173637Y-61997243D01*
X164173628Y-61997243D01*
X164113260Y-62008064D01*
X164108595Y-62008718D01*
X164047563Y-62014925D01*
X164047555Y-62014927D01*
X164014781Y-62025210D01*
X164007154Y-62027082D01*
X163973350Y-62033141D01*
X163916384Y-62055894D01*
X163911948Y-62057473D01*
X163853414Y-62075840D01*
X163853412Y-62075841D01*
X163823385Y-62092506D01*
X163816293Y-62095874D01*
X163784383Y-62108621D01*
X163733154Y-62142383D01*
X163729126Y-62144824D01*
X163675502Y-62174588D01*
X163675499Y-62174590D01*
X163649427Y-62196970D01*
X163643160Y-62201695D01*
X163614482Y-62220598D01*
X163614475Y-62220603D01*
X163571116Y-62263962D01*
X163567661Y-62267164D01*
X163521106Y-62307132D01*
X163521105Y-62307133D01*
X163500076Y-62334300D01*
X163494884Y-62340194D01*
X162401532Y-63433546D01*
X162336946Y-63494942D01*
X162301899Y-63545294D01*
X162299062Y-63549056D01*
X162260302Y-63596592D01*
X162260299Y-63596597D01*
X162244392Y-63627047D01*
X162240324Y-63633761D01*
X162220702Y-63661954D01*
X162196509Y-63718330D01*
X162194488Y-63722584D01*
X162166091Y-63776951D01*
X162166090Y-63776952D01*
X162156640Y-63809975D01*
X162154007Y-63817371D01*
X162140459Y-63848943D01*
X162128113Y-63909019D01*
X162126990Y-63913595D01*
X162110113Y-63972577D01*
X162110113Y-63972579D01*
X162107503Y-64006841D01*
X162106414Y-64014608D01*
X162105269Y-64020185D01*
X162099500Y-64048258D01*
X162099500Y-64109597D01*
X162099321Y-64114306D01*
X162094662Y-64175474D01*
X162096707Y-64191527D01*
X162099003Y-64209560D01*
X162099500Y-64217388D01*
X162099500Y-67440434D01*
X162081948Y-67504034D01*
X162080988Y-67505640D01*
X162080986Y-67505643D01*
X162038736Y-67576358D01*
X161965166Y-67699493D01*
X161885819Y-67910908D01*
X161845500Y-68133090D01*
X161845500Y-69810339D01*
X161860670Y-69978906D01*
X161920741Y-70196570D01*
X161920747Y-70196585D01*
X162018719Y-70400026D01*
X162018723Y-70400034D01*
X162151448Y-70582715D01*
X162151449Y-70582717D01*
X162151452Y-70582720D01*
X162151453Y-70582721D01*
X162208829Y-70637578D01*
X162314671Y-70738773D01*
X162503125Y-70863171D01*
X162503127Y-70863172D01*
X162503129Y-70863173D01*
X162710771Y-70951923D01*
X162930924Y-71002172D01*
X163156510Y-71012303D01*
X163273780Y-70996417D01*
X163342852Y-71006924D01*
X163395281Y-71053108D01*
X163414418Y-71120306D01*
X163394187Y-71187183D01*
X163378103Y-71206976D01*
X163121899Y-71463181D01*
X163060576Y-71496666D01*
X163034218Y-71499500D01*
X158215783Y-71499500D01*
X158148744Y-71479815D01*
X158128102Y-71463181D01*
X157536819Y-70871898D01*
X157503334Y-70810575D01*
X157500500Y-70784217D01*
X157500500Y-63714783D01*
X157520185Y-63647744D01*
X157572989Y-63601989D01*
X157642147Y-63592045D01*
X157705703Y-63621070D01*
X157712181Y-63627102D01*
X158463181Y-64378102D01*
X158496666Y-64439425D01*
X158499500Y-64465783D01*
X158499499Y-65323455D01*
X158479814Y-65390495D01*
X158468880Y-65405039D01*
X158380991Y-65505636D01*
X158380990Y-65505636D01*
X158265166Y-65699493D01*
X158185819Y-65910908D01*
X158145500Y-66133090D01*
X158145500Y-67810339D01*
X158160670Y-67978906D01*
X158220741Y-68196570D01*
X158220747Y-68196585D01*
X158318719Y-68400026D01*
X158318723Y-68400034D01*
X158451448Y-68582715D01*
X158451449Y-68582717D01*
X158451452Y-68582720D01*
X158451453Y-68582721D01*
X158474906Y-68605144D01*
X158614671Y-68738773D01*
X158803125Y-68863171D01*
X158803127Y-68863172D01*
X158803129Y-68863173D01*
X159010771Y-68951923D01*
X159230924Y-69002172D01*
X159422153Y-69010760D01*
X159456506Y-69012303D01*
X159456506Y-69012302D01*
X159456510Y-69012303D01*
X159680281Y-68981991D01*
X159895043Y-68912211D01*
X160093894Y-68805204D01*
X160270442Y-68664411D01*
X160419014Y-68494357D01*
X160534834Y-68300507D01*
X160614180Y-68089092D01*
X160632052Y-67990608D01*
X160654500Y-67866909D01*
X160654500Y-66189662D01*
X160654500Y-66189657D01*
X160639329Y-66021095D01*
X160639329Y-66021093D01*
X160579258Y-65803429D01*
X160579255Y-65803424D01*
X160579254Y-65803418D01*
X160512778Y-65665378D01*
X160500500Y-65611585D01*
X160500500Y-64012675D01*
X160500737Y-64003334D01*
X160502756Y-63923642D01*
X160502755Y-63923641D01*
X160502756Y-63923636D01*
X160491929Y-63863233D01*
X160491282Y-63858620D01*
X160485074Y-63797562D01*
X160485073Y-63797560D01*
X160485073Y-63797557D01*
X160474880Y-63765073D01*
X160474789Y-63764784D01*
X160472917Y-63757154D01*
X160467489Y-63726867D01*
X160466858Y-63723347D01*
X160446839Y-63673231D01*
X160444102Y-63666378D01*
X160442521Y-63661937D01*
X160441125Y-63657488D01*
X160424159Y-63603412D01*
X160424158Y-63603410D01*
X160424157Y-63603407D01*
X160408617Y-63575411D01*
X160407485Y-63573371D01*
X160404117Y-63566278D01*
X160391378Y-63534386D01*
X160391377Y-63534383D01*
X160357620Y-63483163D01*
X160355180Y-63479134D01*
X160335049Y-63442866D01*
X160325409Y-63425498D01*
X160325407Y-63425495D01*
X160303033Y-63399434D01*
X160298302Y-63393159D01*
X160279402Y-63364481D01*
X160236012Y-63321091D01*
X160232822Y-63317648D01*
X160192867Y-63271106D01*
X160192863Y-63271102D01*
X160165698Y-63250074D01*
X160159803Y-63244882D01*
X154627101Y-57712181D01*
X154593616Y-57650858D01*
X154598600Y-57581166D01*
X154640472Y-57525233D01*
X154705936Y-57500816D01*
X154714782Y-57500500D01*
X158328535Y-57500500D01*
X158395574Y-57520185D01*
X158428854Y-57551616D01*
X158451450Y-57582717D01*
X158451449Y-57582717D01*
X158451452Y-57582720D01*
X158451453Y-57582721D01*
X158487092Y-57616795D01*
X158614671Y-57738773D01*
X158803125Y-57863171D01*
X158803127Y-57863172D01*
X158803129Y-57863173D01*
X159010771Y-57951923D01*
X159230924Y-58002172D01*
X159422153Y-58010760D01*
X159456506Y-58012303D01*
X159456506Y-58012302D01*
X159456510Y-58012303D01*
X159680281Y-57981991D01*
X159895043Y-57912211D01*
X160093894Y-57805204D01*
X160270442Y-57664411D01*
X160419014Y-57494357D01*
X160534834Y-57300507D01*
X160614180Y-57089092D01*
X160632052Y-56990608D01*
X160654500Y-56866909D01*
X160654500Y-55189662D01*
X160654500Y-55189657D01*
X160639329Y-55021095D01*
X160639329Y-55021093D01*
X160579258Y-54803429D01*
X160579252Y-54803414D01*
X160481280Y-54599973D01*
X160481276Y-54599965D01*
X160348551Y-54417284D01*
X160348550Y-54417282D01*
X160185328Y-54261226D01*
X159996874Y-54136828D01*
X159945330Y-54114797D01*
X159789229Y-54048077D01*
X159789222Y-54048075D01*
X159789221Y-54048075D01*
X159693981Y-54026337D01*
X159569076Y-53997828D01*
X159560486Y-53997442D01*
X159343493Y-53987696D01*
X159217193Y-54004805D01*
X159119719Y-54018009D01*
X159119716Y-54018009D01*
X159119715Y-54018010D01*
X158904955Y-54087789D01*
X158706108Y-54194794D01*
X158706105Y-54194796D01*
X158529560Y-54335586D01*
X158380988Y-54505639D01*
X158265166Y-54699493D01*
X158185819Y-54910908D01*
X158145500Y-55133090D01*
X158145500Y-55375500D01*
X158125815Y-55442539D01*
X158073011Y-55488294D01*
X158021500Y-55499500D01*
X143012717Y-55499500D01*
X142923637Y-55497243D01*
X142923628Y-55497243D01*
X142870636Y-55506741D01*
X142863254Y-55508064D01*
X142858595Y-55508718D01*
X142797564Y-55514925D01*
X142797562Y-55514926D01*
X142764780Y-55525210D01*
X142757156Y-55527081D01*
X142749308Y-55528488D01*
X142723349Y-55533141D01*
X142666381Y-55555895D01*
X142661945Y-55557474D01*
X142603414Y-55575840D01*
X142603410Y-55575842D01*
X142573378Y-55592510D01*
X142566284Y-55595879D01*
X142534382Y-55608623D01*
X142534377Y-55608625D01*
X142483156Y-55642381D01*
X142479128Y-55644822D01*
X142425501Y-55674588D01*
X142399434Y-55696965D01*
X142393165Y-55701692D01*
X142364484Y-55720595D01*
X142364478Y-55720600D01*
X142321109Y-55763968D01*
X142317655Y-55767169D01*
X142271102Y-55807136D01*
X142250076Y-55834298D01*
X142244885Y-55840192D01*
X141054397Y-57030680D01*
X140993074Y-57064165D01*
X140923382Y-57059181D01*
X140867449Y-57017309D01*
X140843032Y-56951845D01*
X140844708Y-56920862D01*
X140854500Y-56866907D01*
X140854500Y-55189657D01*
X140839329Y-55021095D01*
X140839329Y-55021093D01*
X140779258Y-54803429D01*
X140779252Y-54803414D01*
X140681280Y-54599973D01*
X140681276Y-54599965D01*
X140548551Y-54417284D01*
X140548550Y-54417282D01*
X140385328Y-54261226D01*
X140196874Y-54136828D01*
X140145330Y-54114797D01*
X139989229Y-54048077D01*
X139989222Y-54048075D01*
X139989221Y-54048075D01*
X139893981Y-54026337D01*
X139769076Y-53997828D01*
X139760486Y-53997442D01*
X139543493Y-53987696D01*
X139417193Y-54004805D01*
X139319719Y-54018009D01*
X139319716Y-54018009D01*
X139319715Y-54018010D01*
X139104955Y-54087789D01*
X138906108Y-54194794D01*
X138906105Y-54194796D01*
X138729560Y-54335586D01*
X138580988Y-54505639D01*
X138465166Y-54699493D01*
X138385819Y-54910908D01*
X138345500Y-55133090D01*
X138345500Y-56810339D01*
X138360670Y-56978906D01*
X138420741Y-57196570D01*
X138420747Y-57196585D01*
X138518719Y-57400026D01*
X138518723Y-57400034D01*
X138651448Y-57582715D01*
X138651449Y-57582717D01*
X138651452Y-57582720D01*
X138651453Y-57582721D01*
X138814670Y-57738772D01*
X138814672Y-57738773D01*
X138865028Y-57772013D01*
X138910133Y-57825374D01*
X138919229Y-57894649D01*
X138889427Y-57957844D01*
X138830191Y-57994896D01*
X138796716Y-57999500D01*
X134904626Y-57999500D01*
X134837587Y-57979815D01*
X134791832Y-57927011D01*
X134781888Y-57857853D01*
X134810913Y-57794297D01*
X134827313Y-57778553D01*
X134877195Y-57738773D01*
X134970442Y-57664411D01*
X135119014Y-57494357D01*
X135234834Y-57300507D01*
X135314180Y-57089092D01*
X135332052Y-56990608D01*
X135354500Y-56866909D01*
X135354500Y-56071746D01*
X135374185Y-56004707D01*
X135426989Y-55958952D01*
X135496147Y-55949008D01*
X135506093Y-55950855D01*
X135510769Y-55951922D01*
X135510771Y-55951923D01*
X135730924Y-56002172D01*
X135922153Y-56010760D01*
X135956506Y-56012303D01*
X135956506Y-56012302D01*
X135956510Y-56012303D01*
X136180281Y-55981991D01*
X136395043Y-55912211D01*
X136593894Y-55805204D01*
X136770442Y-55664411D01*
X136919014Y-55494357D01*
X137034834Y-55300507D01*
X137114180Y-55089092D01*
X137146515Y-54910908D01*
X137154500Y-54866909D01*
X137154500Y-54211781D01*
X137174185Y-54144742D01*
X137190814Y-54124105D01*
X138778101Y-52536818D01*
X138839424Y-52503334D01*
X138865782Y-52500500D01*
X159934217Y-52500500D01*
X160001256Y-52520185D01*
X160021898Y-52536819D01*
X163267073Y-55781994D01*
X163300558Y-55843317D01*
X163295574Y-55913009D01*
X163253702Y-55968942D01*
X163188238Y-55993359D01*
X163173829Y-55993550D01*
X163043493Y-55987696D01*
X162917918Y-56004707D01*
X162819719Y-56018009D01*
X162819716Y-56018009D01*
X162819715Y-56018010D01*
X162604955Y-56087789D01*
X162406108Y-56194794D01*
X162406105Y-56194796D01*
X162229560Y-56335586D01*
X162080988Y-56505639D01*
X161965166Y-56699493D01*
X161885819Y-56910908D01*
X161845500Y-57133090D01*
X161845500Y-58810339D01*
X161860670Y-58978906D01*
X161920741Y-59196570D01*
X161920747Y-59196585D01*
X162018719Y-59400026D01*
X162018723Y-59400034D01*
X162151448Y-59582715D01*
X162151449Y-59582717D01*
X162314671Y-59738773D01*
X162503125Y-59863171D01*
X162503127Y-59863172D01*
X162503129Y-59863173D01*
X162710771Y-59951923D01*
X162930924Y-60002172D01*
X163122153Y-60010760D01*
X163156506Y-60012303D01*
X163156506Y-60012302D01*
X163156510Y-60012303D01*
X163380281Y-59981991D01*
X163595043Y-59912211D01*
X163793894Y-59805204D01*
X163970442Y-59664411D01*
X164119014Y-59494357D01*
X164234834Y-59300507D01*
X164314180Y-59089092D01*
X164354500Y-58866907D01*
X164354500Y-58810339D01*
X167345500Y-58810339D01*
X167360670Y-58978906D01*
X167420741Y-59196570D01*
X167420747Y-59196585D01*
X167518719Y-59400026D01*
X167518723Y-59400034D01*
X167651448Y-59582715D01*
X167651449Y-59582717D01*
X167814671Y-59738773D01*
X168003125Y-59863171D01*
X168003127Y-59863172D01*
X168003129Y-59863173D01*
X168210771Y-59951923D01*
X168430924Y-60002172D01*
X168622153Y-60010760D01*
X168656506Y-60012303D01*
X168656506Y-60012302D01*
X168656510Y-60012303D01*
X168880281Y-59981991D01*
X169095043Y-59912211D01*
X169293894Y-59805204D01*
X169470442Y-59664411D01*
X169619014Y-59494357D01*
X169734834Y-59300507D01*
X169814180Y-59089092D01*
X169827620Y-59015030D01*
X169854500Y-58866909D01*
X169854500Y-57683834D01*
X169874185Y-57616795D01*
X169926989Y-57571040D01*
X169996147Y-57561096D01*
X170059703Y-57590121D01*
X170064192Y-57594208D01*
X170214981Y-57738378D01*
X170403363Y-57862729D01*
X170610929Y-57951446D01*
X170610932Y-57951447D01*
X170749999Y-57983188D01*
X170750000Y-57983188D01*
X170750000Y-57113346D01*
X170769685Y-57046307D01*
X170822489Y-57000552D01*
X170891647Y-56990608D01*
X170908937Y-56994370D01*
X170928108Y-56999999D01*
X170928110Y-57000000D01*
X170928111Y-57000000D01*
X171071890Y-57000000D01*
X171071890Y-56999999D01*
X171091063Y-56994369D01*
X171160932Y-56994368D01*
X171219711Y-57032141D01*
X171248737Y-57095696D01*
X171250000Y-57113346D01*
X171250000Y-57985587D01*
X171280165Y-57981503D01*
X171494845Y-57911749D01*
X171693614Y-57804786D01*
X171693623Y-57804780D01*
X171870087Y-57664055D01*
X171870102Y-57664041D01*
X172018607Y-57494062D01*
X172018608Y-57494060D01*
X172134378Y-57300296D01*
X172134380Y-57300291D01*
X172213696Y-57088958D01*
X172254000Y-56866864D01*
X172254000Y-56250000D01*
X171624000Y-56250000D01*
X171556961Y-56230315D01*
X171511206Y-56177511D01*
X171500000Y-56126000D01*
X171500000Y-55874000D01*
X171519685Y-55806961D01*
X171572489Y-55761206D01*
X171624000Y-55750000D01*
X172254000Y-55750000D01*
X172254000Y-55189685D01*
X172253999Y-55189683D01*
X172238835Y-55021183D01*
X172178788Y-54803606D01*
X172178782Y-54803591D01*
X172080849Y-54600230D01*
X172080845Y-54600222D01*
X171948173Y-54417615D01*
X171948166Y-54417607D01*
X171785018Y-54261621D01*
X171596636Y-54137270D01*
X171389072Y-54048554D01*
X171389066Y-54048552D01*
X171250000Y-54016811D01*
X171250000Y-54886653D01*
X171230315Y-54953692D01*
X171177511Y-54999447D01*
X171108353Y-55009391D01*
X171091067Y-55005631D01*
X171071889Y-55000000D01*
X170928111Y-55000000D01*
X170908933Y-55005631D01*
X170839064Y-55005630D01*
X170780286Y-54967855D01*
X170751262Y-54904299D01*
X170750000Y-54886653D01*
X170750000Y-54014411D01*
X170719828Y-54018498D01*
X170719825Y-54018499D01*
X170505154Y-54088250D01*
X170306385Y-54195213D01*
X170306376Y-54195219D01*
X170129912Y-54335944D01*
X170129897Y-54335958D01*
X169981392Y-54505937D01*
X169981391Y-54505939D01*
X169865621Y-54699703D01*
X169865619Y-54699708D01*
X169786303Y-54911041D01*
X169746000Y-55133135D01*
X169746000Y-55750000D01*
X170376000Y-55750000D01*
X170443039Y-55769685D01*
X170488794Y-55822489D01*
X170500000Y-55874000D01*
X170500000Y-56126000D01*
X170480315Y-56193039D01*
X170427511Y-56238794D01*
X170376000Y-56250000D01*
X169746000Y-56250000D01*
X169746000Y-56315951D01*
X169726315Y-56382990D01*
X169673511Y-56428745D01*
X169604353Y-56438689D01*
X169540797Y-56409664D01*
X169536322Y-56405590D01*
X169385330Y-56261228D01*
X169385328Y-56261226D01*
X169196874Y-56136828D01*
X169145330Y-56114797D01*
X168989229Y-56048077D01*
X168989222Y-56048075D01*
X168989221Y-56048075D01*
X168832494Y-56012303D01*
X168769076Y-55997828D01*
X168760486Y-55997442D01*
X168543493Y-55987696D01*
X168417918Y-56004707D01*
X168319719Y-56018009D01*
X168319716Y-56018009D01*
X168319715Y-56018010D01*
X168104955Y-56087789D01*
X167906108Y-56194794D01*
X167906105Y-56194796D01*
X167729560Y-56335586D01*
X167580988Y-56505639D01*
X167465166Y-56699493D01*
X167385819Y-56910908D01*
X167345500Y-57133090D01*
X167345500Y-58810339D01*
X164354500Y-58810339D01*
X164354500Y-58071742D01*
X164374183Y-58004707D01*
X164426987Y-57958952D01*
X164496146Y-57949008D01*
X164506092Y-57950855D01*
X164510770Y-57951922D01*
X164510771Y-57951923D01*
X164730924Y-58002172D01*
X164922153Y-58010760D01*
X164956506Y-58012303D01*
X164956506Y-58012302D01*
X164956510Y-58012303D01*
X165180281Y-57981991D01*
X165395043Y-57912211D01*
X165593894Y-57805204D01*
X165770442Y-57664411D01*
X165919014Y-57494357D01*
X166034834Y-57300507D01*
X166114180Y-57089092D01*
X166132052Y-56990608D01*
X166154500Y-56866909D01*
X166154500Y-55189662D01*
X166154500Y-55189657D01*
X166139329Y-55021095D01*
X166139329Y-55021093D01*
X166079258Y-54803429D01*
X166079252Y-54803414D01*
X165981280Y-54599973D01*
X165981276Y-54599965D01*
X165848551Y-54417284D01*
X165848550Y-54417282D01*
X165685328Y-54261226D01*
X165496874Y-54136828D01*
X165445330Y-54114797D01*
X165289229Y-54048077D01*
X165289222Y-54048075D01*
X165289221Y-54048075D01*
X165193981Y-54026337D01*
X165069076Y-53997828D01*
X165060486Y-53997442D01*
X164843493Y-53987696D01*
X164698522Y-54007334D01*
X164619719Y-54018009D01*
X164619717Y-54018009D01*
X164619714Y-54018010D01*
X164475528Y-54064859D01*
X164405687Y-54066854D01*
X164349529Y-54034609D01*
X161116452Y-50801532D01*
X161055061Y-50736949D01*
X161055060Y-50736948D01*
X161055059Y-50736947D01*
X161027204Y-50717559D01*
X161004709Y-50701902D01*
X161000946Y-50699064D01*
X160953413Y-50660305D01*
X160953406Y-50660300D01*
X160922959Y-50644397D01*
X160916251Y-50640334D01*
X160888049Y-50620705D01*
X160888046Y-50620703D01*
X160888045Y-50620703D01*
X160888041Y-50620701D01*
X160831680Y-50596514D01*
X160827424Y-50594493D01*
X160773057Y-50566094D01*
X160773050Y-50566091D01*
X160773049Y-50566091D01*
X160767008Y-50564362D01*
X160740030Y-50556642D01*
X160732630Y-50554008D01*
X160701057Y-50540459D01*
X160701058Y-50540459D01*
X160640966Y-50528109D01*
X160636391Y-50526986D01*
X160577420Y-50510113D01*
X160577425Y-50510113D01*
X160543158Y-50507503D01*
X160535380Y-50506412D01*
X160501742Y-50499500D01*
X160501741Y-50499500D01*
X160440402Y-50499500D01*
X160435695Y-50499321D01*
X160430121Y-50498896D01*
X160374524Y-50494662D01*
X160354589Y-50497201D01*
X160340440Y-50499003D01*
X160332611Y-50499500D01*
X138412717Y-50499500D01*
X138323637Y-50497243D01*
X138323628Y-50497243D01*
X138272476Y-50506412D01*
X138263254Y-50508064D01*
X138258595Y-50508718D01*
X138197564Y-50514925D01*
X138197562Y-50514926D01*
X138164780Y-50525210D01*
X138157156Y-50527081D01*
X138154057Y-50527637D01*
X138123349Y-50533141D01*
X138066381Y-50555895D01*
X138061945Y-50557474D01*
X138003414Y-50575840D01*
X138003410Y-50575842D01*
X137973378Y-50592510D01*
X137966284Y-50595879D01*
X137934382Y-50608623D01*
X137934377Y-50608625D01*
X137883156Y-50642381D01*
X137879128Y-50644822D01*
X137825501Y-50674588D01*
X137799434Y-50696965D01*
X137793165Y-50701692D01*
X137764484Y-50720595D01*
X137764478Y-50720600D01*
X137721109Y-50763968D01*
X137717655Y-50767169D01*
X137671102Y-50807136D01*
X137671101Y-50807137D01*
X137650077Y-50834298D01*
X137644885Y-50840193D01*
X136452054Y-52033024D01*
X136390731Y-52066509D01*
X136321039Y-52061525D01*
X136315640Y-52059365D01*
X136289236Y-52048080D01*
X136289229Y-52048077D01*
X136289222Y-52048075D01*
X136289221Y-52048075D01*
X136157494Y-52018009D01*
X136069076Y-51997828D01*
X136060486Y-51997442D01*
X135843493Y-51987696D01*
X135717193Y-52004805D01*
X135619719Y-52018009D01*
X135619716Y-52018009D01*
X135619715Y-52018010D01*
X135404955Y-52087789D01*
X135206108Y-52194794D01*
X135206105Y-52194796D01*
X135029560Y-52335586D01*
X134880988Y-52505639D01*
X134765166Y-52699493D01*
X134685819Y-52910908D01*
X134645500Y-53133090D01*
X134645500Y-53928253D01*
X134625815Y-53995292D01*
X134573011Y-54041047D01*
X134503853Y-54050991D01*
X134493908Y-54049144D01*
X134269077Y-53997828D01*
X134043493Y-53987696D01*
X133917193Y-54004805D01*
X133819719Y-54018009D01*
X133819716Y-54018009D01*
X133819715Y-54018010D01*
X133604955Y-54087789D01*
X133406108Y-54194794D01*
X133406105Y-54194796D01*
X133229560Y-54335586D01*
X133080988Y-54505639D01*
X132965166Y-54699493D01*
X132885819Y-54910908D01*
X132845499Y-55133090D01*
X132845500Y-56810337D01*
X132845500Y-56810339D01*
X132860670Y-56978906D01*
X132920741Y-57196570D01*
X132920747Y-57196585D01*
X132991677Y-57343873D01*
X133003029Y-57412814D01*
X132975307Y-57476949D01*
X132917311Y-57515914D01*
X132847456Y-57517339D01*
X132792276Y-57485355D01*
X131436819Y-56129898D01*
X131403334Y-56068575D01*
X131400500Y-56042217D01*
X131400500Y-55805203D01*
X131400500Y-55559562D01*
X131418052Y-55495966D01*
X131419011Y-55494359D01*
X131419014Y-55494357D01*
X131534834Y-55300507D01*
X131614180Y-55089092D01*
X131646515Y-54910908D01*
X131654500Y-54866909D01*
X131654500Y-53189662D01*
X131654500Y-53189657D01*
X131639329Y-53021095D01*
X131639329Y-53021093D01*
X131579258Y-52803429D01*
X131579252Y-52803414D01*
X131481280Y-52599973D01*
X131481276Y-52599965D01*
X131348551Y-52417284D01*
X131348550Y-52417282D01*
X131185328Y-52261226D01*
X130996874Y-52136828D01*
X130945330Y-52114797D01*
X130789229Y-52048077D01*
X130789222Y-52048075D01*
X130789221Y-52048075D01*
X130657494Y-52018009D01*
X130569076Y-51997828D01*
X130560486Y-51997442D01*
X130343493Y-51987696D01*
X130217193Y-52004805D01*
X130119719Y-52018009D01*
X130119716Y-52018009D01*
X130119715Y-52018010D01*
X129904955Y-52087789D01*
X129706108Y-52194794D01*
X129706105Y-52194796D01*
X129529560Y-52335586D01*
X129380988Y-52505639D01*
X129265166Y-52699493D01*
X129185819Y-52910908D01*
X129145499Y-53133090D01*
X129145500Y-54316165D01*
X129125815Y-54383204D01*
X129073011Y-54428959D01*
X129003853Y-54438903D01*
X128940297Y-54409878D01*
X128935808Y-54405791D01*
X128785018Y-54261621D01*
X128596636Y-54137270D01*
X128389072Y-54048554D01*
X128389066Y-54048552D01*
X128250000Y-54016811D01*
X128249999Y-54016811D01*
X128249999Y-54886653D01*
X128230314Y-54953693D01*
X128177510Y-54999447D01*
X128108352Y-55009391D01*
X128091064Y-55005630D01*
X128071890Y-55000000D01*
X128071889Y-55000000D01*
X127928111Y-55000000D01*
X127928110Y-55000000D01*
X127908931Y-55005631D01*
X127839062Y-55005629D01*
X127780284Y-54967854D01*
X127751261Y-54904297D01*
X127749999Y-54886653D01*
X127749999Y-54014411D01*
X127749998Y-54014411D01*
X127719827Y-54018498D01*
X127505154Y-54088250D01*
X127306385Y-54195213D01*
X127306376Y-54195219D01*
X127129912Y-54335944D01*
X127129897Y-54335958D01*
X126981392Y-54505937D01*
X126981391Y-54505939D01*
X126865621Y-54699703D01*
X126865619Y-54699708D01*
X126786303Y-54911041D01*
X126746000Y-55133135D01*
X126746000Y-55750000D01*
X127376000Y-55750000D01*
X127443039Y-55769685D01*
X127488794Y-55822489D01*
X127500000Y-55874000D01*
X127500000Y-56126000D01*
X127480315Y-56193039D01*
X127427511Y-56238794D01*
X127376000Y-56250000D01*
X126746000Y-56250000D01*
X126746000Y-56810316D01*
X126761164Y-56978816D01*
X126821211Y-57196393D01*
X126821217Y-57196408D01*
X126919150Y-57399769D01*
X126919154Y-57399777D01*
X127051826Y-57582384D01*
X127051833Y-57582392D01*
X127214981Y-57738378D01*
X127403363Y-57862729D01*
X127610927Y-57951445D01*
X127610935Y-57951448D01*
X127749998Y-57983188D01*
X127749999Y-57983188D01*
X127749999Y-57113346D01*
X127769684Y-57046307D01*
X127822488Y-57000552D01*
X127891646Y-56990608D01*
X127908929Y-56994367D01*
X127928111Y-57000000D01*
X127928112Y-57000000D01*
X128071890Y-57000000D01*
X128071890Y-56999999D01*
X128091063Y-56994369D01*
X128160932Y-56994368D01*
X128219711Y-57032141D01*
X128248737Y-57095696D01*
X128250000Y-57113346D01*
X128250000Y-57985587D01*
X128280165Y-57981503D01*
X128494845Y-57911749D01*
X128693614Y-57804786D01*
X128693623Y-57804780D01*
X128870087Y-57664055D01*
X128870102Y-57664041D01*
X129018607Y-57494062D01*
X129018608Y-57494060D01*
X129134378Y-57300296D01*
X129134380Y-57300291D01*
X129213696Y-57088958D01*
X129213696Y-57088956D01*
X129241580Y-56935303D01*
X129272918Y-56872855D01*
X129333043Y-56837264D01*
X129402865Y-56839828D01*
X129460217Y-56879735D01*
X129472089Y-56899478D01*
X129472789Y-56899090D01*
X129492509Y-56934619D01*
X129495879Y-56941714D01*
X129508622Y-56973614D01*
X129508627Y-56973624D01*
X129542377Y-57024833D01*
X129544818Y-57028863D01*
X129574588Y-57082498D01*
X129574589Y-57082499D01*
X129574591Y-57082502D01*
X129596968Y-57108567D01*
X129601693Y-57114835D01*
X129613725Y-57133090D01*
X129620598Y-57143519D01*
X129663978Y-57186899D01*
X129667169Y-57190343D01*
X129707131Y-57236892D01*
X129707130Y-57236892D01*
X129734299Y-57257923D01*
X129740186Y-57263107D01*
X131287418Y-58810339D01*
X132175547Y-59698468D01*
X132236938Y-59763051D01*
X132236943Y-59763055D01*
X132267545Y-59784354D01*
X132287303Y-59798106D01*
X132291044Y-59800926D01*
X132338593Y-59839698D01*
X132369045Y-59855604D01*
X132375756Y-59859671D01*
X132403951Y-59879295D01*
X132460332Y-59903490D01*
X132464567Y-59905501D01*
X132518951Y-59933909D01*
X132551973Y-59943356D01*
X132559365Y-59945989D01*
X132590940Y-59959539D01*
X132590941Y-59959540D01*
X132604054Y-59962234D01*
X132651055Y-59971892D01*
X132655595Y-59973006D01*
X132714582Y-59989886D01*
X132748841Y-59992494D01*
X132756609Y-59993585D01*
X132790255Y-60000500D01*
X132790259Y-60000500D01*
X132851601Y-60000500D01*
X132856308Y-60000678D01*
X132892651Y-60003446D01*
X132917475Y-60005337D01*
X132917475Y-60005336D01*
X132917476Y-60005337D01*
X132951559Y-60000996D01*
X132959389Y-60000500D01*
X133686116Y-60000500D01*
X133753155Y-60020185D01*
X133798910Y-60072989D01*
X133808854Y-60142147D01*
X133779829Y-60205703D01*
X133764502Y-60220576D01*
X133721109Y-60263968D01*
X133717655Y-60267169D01*
X133671102Y-60307136D01*
X133650076Y-60334298D01*
X133644885Y-60340192D01*
X130952054Y-63033024D01*
X130890731Y-63066509D01*
X130821039Y-63061525D01*
X130815640Y-63059365D01*
X130789236Y-63048080D01*
X130789229Y-63048077D01*
X130789222Y-63048075D01*
X130789221Y-63048075D01*
X130656727Y-63017834D01*
X130569076Y-62997828D01*
X130560486Y-62997442D01*
X130343493Y-62987696D01*
X130217193Y-63004805D01*
X130119719Y-63018009D01*
X130119716Y-63018009D01*
X130119715Y-63018010D01*
X129904955Y-63087789D01*
X129706108Y-63194794D01*
X129706105Y-63194796D01*
X129529560Y-63335586D01*
X129380988Y-63505639D01*
X129265166Y-63699493D01*
X129185819Y-63910908D01*
X129145499Y-64133090D01*
X129145500Y-65316165D01*
X129125815Y-65383204D01*
X129073011Y-65428959D01*
X129003853Y-65438903D01*
X128940297Y-65409878D01*
X128935808Y-65405791D01*
X128785018Y-65261621D01*
X128596636Y-65137270D01*
X128389072Y-65048554D01*
X128389066Y-65048552D01*
X128250000Y-65016811D01*
X128249999Y-65016811D01*
X128249999Y-65886653D01*
X128230314Y-65953693D01*
X128177510Y-65999447D01*
X128108352Y-66009391D01*
X128091064Y-66005630D01*
X128071890Y-66000000D01*
X128071889Y-66000000D01*
X127928111Y-66000000D01*
X127928110Y-66000000D01*
X127908931Y-66005631D01*
X127839062Y-66005629D01*
X127780284Y-65967854D01*
X127751261Y-65904297D01*
X127749999Y-65886653D01*
X127749999Y-65014411D01*
X127749998Y-65014411D01*
X127719827Y-65018498D01*
X127505154Y-65088250D01*
X127306385Y-65195213D01*
X127306376Y-65195219D01*
X127129912Y-65335944D01*
X127129897Y-65335958D01*
X126981392Y-65505937D01*
X126981391Y-65505939D01*
X126865621Y-65699703D01*
X126865619Y-65699708D01*
X126786303Y-65911041D01*
X126746000Y-66133135D01*
X126746000Y-66750000D01*
X127376000Y-66750000D01*
X127443039Y-66769685D01*
X127488794Y-66822489D01*
X127500000Y-66874000D01*
X127500000Y-67126000D01*
X127480315Y-67193039D01*
X127427511Y-67238794D01*
X127376000Y-67250000D01*
X126746000Y-67250000D01*
X126746000Y-67810316D01*
X126761164Y-67978816D01*
X126821211Y-68196393D01*
X126821217Y-68196408D01*
X126919150Y-68399769D01*
X126919154Y-68399777D01*
X127051826Y-68582384D01*
X127051833Y-68582392D01*
X127214981Y-68738378D01*
X127403363Y-68862729D01*
X127610927Y-68951445D01*
X127610935Y-68951448D01*
X127749998Y-68983188D01*
X127749999Y-68983188D01*
X127749999Y-68113346D01*
X127769684Y-68046307D01*
X127822488Y-68000552D01*
X127891646Y-67990608D01*
X127908929Y-67994367D01*
X127928111Y-68000000D01*
X127928112Y-68000000D01*
X128071890Y-68000000D01*
X128071890Y-67999999D01*
X128091063Y-67994369D01*
X128160932Y-67994368D01*
X128219711Y-68032141D01*
X128248737Y-68095696D01*
X128250000Y-68113346D01*
X128250000Y-68985587D01*
X128280165Y-68981503D01*
X128494845Y-68911749D01*
X128693614Y-68804786D01*
X128693623Y-68804780D01*
X128870087Y-68664055D01*
X128870102Y-68664041D01*
X129018607Y-68494062D01*
X129018608Y-68494060D01*
X129134378Y-68300296D01*
X129134380Y-68300291D01*
X129213696Y-68088958D01*
X129254000Y-67866864D01*
X129254000Y-67250000D01*
X128624000Y-67250000D01*
X128556961Y-67230315D01*
X128511206Y-67177511D01*
X128500000Y-67126000D01*
X128500000Y-66874000D01*
X128519685Y-66806961D01*
X128572489Y-66761206D01*
X128624000Y-66750000D01*
X129253999Y-66750000D01*
X129254000Y-66684048D01*
X129273685Y-66617009D01*
X129326489Y-66571254D01*
X129395647Y-66561310D01*
X129459203Y-66590335D01*
X129463677Y-66594409D01*
X129614670Y-66738772D01*
X129711710Y-66802827D01*
X129803125Y-66863171D01*
X129803127Y-66863172D01*
X129803129Y-66863173D01*
X130010771Y-66951923D01*
X130230924Y-67002172D01*
X130422153Y-67010760D01*
X130456506Y-67012303D01*
X130456506Y-67012302D01*
X130456510Y-67012303D01*
X130680281Y-66981991D01*
X130895043Y-66912211D01*
X131093894Y-66805204D01*
X131270442Y-66664411D01*
X131419014Y-66494357D01*
X131534834Y-66300507D01*
X131614180Y-66089092D01*
X131645138Y-65918498D01*
X131654500Y-65866909D01*
X131654500Y-65211781D01*
X131674185Y-65144742D01*
X131690814Y-65124105D01*
X134778100Y-62036819D01*
X134839424Y-62003334D01*
X134865782Y-62000500D01*
X137185217Y-62000500D01*
X137252256Y-62020185D01*
X137298011Y-62072989D01*
X137307955Y-62142147D01*
X137278930Y-62205703D01*
X137272898Y-62212181D01*
X136452054Y-63033024D01*
X136390731Y-63066509D01*
X136321039Y-63061525D01*
X136315640Y-63059365D01*
X136289236Y-63048080D01*
X136289229Y-63048077D01*
X136289222Y-63048075D01*
X136289221Y-63048075D01*
X136156727Y-63017834D01*
X136069076Y-62997828D01*
X136060486Y-62997442D01*
X135843493Y-62987696D01*
X135717193Y-63004805D01*
X135619719Y-63018009D01*
X135619716Y-63018009D01*
X135619715Y-63018010D01*
X135404955Y-63087789D01*
X135206108Y-63194794D01*
X135206105Y-63194796D01*
X135029560Y-63335586D01*
X134880988Y-63505639D01*
X134765166Y-63699493D01*
X134685819Y-63910908D01*
X134645500Y-64133090D01*
X134645500Y-64928253D01*
X134625815Y-64995292D01*
X134573011Y-65041047D01*
X134503853Y-65050991D01*
X134493908Y-65049144D01*
X134269077Y-64997828D01*
X134043493Y-64987696D01*
X133917193Y-65004805D01*
X133819719Y-65018009D01*
X133819716Y-65018009D01*
X133819715Y-65018010D01*
X133604955Y-65087789D01*
X133406108Y-65194794D01*
X133406105Y-65194796D01*
X133229560Y-65335586D01*
X133080988Y-65505639D01*
X132965166Y-65699493D01*
X132885819Y-65910908D01*
X132845499Y-66133090D01*
X132845500Y-67810337D01*
X132845500Y-67810339D01*
X132860670Y-67978906D01*
X132920741Y-68196570D01*
X132920747Y-68196585D01*
X133018719Y-68400026D01*
X133018723Y-68400034D01*
X133151448Y-68582715D01*
X133151449Y-68582717D01*
X133151452Y-68582720D01*
X133151453Y-68582721D01*
X133174906Y-68605144D01*
X133314671Y-68738773D01*
X133503125Y-68863171D01*
X133503127Y-68863172D01*
X133503129Y-68863173D01*
X133710771Y-68951923D01*
X133930924Y-69002172D01*
X134122153Y-69010760D01*
X134156506Y-69012303D01*
X134156506Y-69012302D01*
X134156510Y-69012303D01*
X134380281Y-68981991D01*
X134595043Y-68912211D01*
X134793894Y-68805204D01*
X134970442Y-68664411D01*
X135119014Y-68494357D01*
X135234834Y-68300507D01*
X135314180Y-68089092D01*
X135332052Y-67990608D01*
X135354500Y-67866909D01*
X135354500Y-67810339D01*
X138345500Y-67810339D01*
X138360670Y-67978906D01*
X138420741Y-68196570D01*
X138420747Y-68196585D01*
X138518719Y-68400026D01*
X138518723Y-68400034D01*
X138651448Y-68582715D01*
X138651449Y-68582717D01*
X138651452Y-68582720D01*
X138651453Y-68582721D01*
X138674906Y-68605144D01*
X138814671Y-68738773D01*
X139003125Y-68863171D01*
X139003127Y-68863172D01*
X139003129Y-68863173D01*
X139210771Y-68951923D01*
X139430924Y-69002172D01*
X139622153Y-69010760D01*
X139656506Y-69012303D01*
X139656506Y-69012302D01*
X139656510Y-69012303D01*
X139880281Y-68981991D01*
X140095043Y-68912211D01*
X140293894Y-68805204D01*
X140470442Y-68664411D01*
X140619014Y-68494357D01*
X140734834Y-68300507D01*
X140814180Y-68089092D01*
X140832052Y-67990608D01*
X140854500Y-67866909D01*
X140854500Y-66189662D01*
X140854500Y-66189657D01*
X140839329Y-66021095D01*
X140839329Y-66021093D01*
X140779258Y-65803429D01*
X140779252Y-65803414D01*
X140681280Y-65599973D01*
X140681276Y-65599965D01*
X140548551Y-65417284D01*
X140548550Y-65417282D01*
X140385328Y-65261226D01*
X140196874Y-65136828D01*
X140115178Y-65101910D01*
X139989229Y-65048077D01*
X139989222Y-65048075D01*
X139989221Y-65048075D01*
X139893981Y-65026337D01*
X139769076Y-64997828D01*
X139760486Y-64997442D01*
X139543493Y-64987696D01*
X139417193Y-65004805D01*
X139319719Y-65018009D01*
X139319716Y-65018009D01*
X139319715Y-65018010D01*
X139104955Y-65087789D01*
X138906108Y-65194794D01*
X138906105Y-65194796D01*
X138729560Y-65335586D01*
X138580988Y-65505639D01*
X138465166Y-65699493D01*
X138385819Y-65910908D01*
X138345500Y-66133090D01*
X138345500Y-67810339D01*
X135354500Y-67810339D01*
X135354500Y-67071746D01*
X135374185Y-67004707D01*
X135426989Y-66958952D01*
X135496147Y-66949008D01*
X135506093Y-66950855D01*
X135510769Y-66951922D01*
X135510771Y-66951923D01*
X135730924Y-67002172D01*
X135922153Y-67010760D01*
X135956506Y-67012303D01*
X135956506Y-67012302D01*
X135956510Y-67012303D01*
X136180281Y-66981991D01*
X136395043Y-66912211D01*
X136593894Y-66805204D01*
X136770442Y-66664411D01*
X136919014Y-66494357D01*
X137034834Y-66300507D01*
X137114180Y-66089092D01*
X137145138Y-65918498D01*
X137154500Y-65866909D01*
X137154500Y-65211782D01*
X137174185Y-65144743D01*
X137190819Y-65124101D01*
X138528102Y-63786819D01*
X138589425Y-63753334D01*
X138615783Y-63750500D01*
X140987284Y-63750500D01*
X141076358Y-63752757D01*
X141076358Y-63752756D01*
X141076363Y-63752757D01*
X141136753Y-63741932D01*
X141141412Y-63741280D01*
X141183607Y-63736988D01*
X141202438Y-63735074D01*
X141235227Y-63724786D01*
X141242840Y-63722918D01*
X141276653Y-63716858D01*
X141333621Y-63694101D01*
X141338053Y-63692524D01*
X141344507Y-63690499D01*
X141396588Y-63674159D01*
X141426627Y-63657484D01*
X141433708Y-63654122D01*
X141465617Y-63641377D01*
X141516854Y-63607608D01*
X141520851Y-63605187D01*
X141574502Y-63575409D01*
X141600568Y-63553030D01*
X141606843Y-63548300D01*
X141608473Y-63547226D01*
X141635519Y-63529402D01*
X141678892Y-63486027D01*
X141682350Y-63482823D01*
X141686647Y-63479134D01*
X141728895Y-63442866D01*
X141749928Y-63415691D01*
X141755098Y-63409821D01*
X144628101Y-60536818D01*
X144689424Y-60503334D01*
X144715782Y-60500500D01*
X152034217Y-60500500D01*
X152101256Y-60520185D01*
X152121898Y-60536819D01*
X155463181Y-63878101D01*
X155496666Y-63939424D01*
X155499500Y-63965782D01*
X155499500Y-71237283D01*
X155497243Y-71326362D01*
X155497243Y-71326370D01*
X155508064Y-71386739D01*
X155508718Y-71391404D01*
X155514925Y-71452430D01*
X155514927Y-71452444D01*
X155525208Y-71485213D01*
X155527079Y-71492837D01*
X155533142Y-71526652D01*
X155533142Y-71526655D01*
X155555894Y-71583612D01*
X155557474Y-71588051D01*
X155575841Y-71646588D01*
X155575844Y-71646595D01*
X155592509Y-71676619D01*
X155595879Y-71683714D01*
X155608622Y-71715614D01*
X155608627Y-71715624D01*
X155642377Y-71766833D01*
X155644818Y-71770863D01*
X155674588Y-71824498D01*
X155674589Y-71824499D01*
X155674591Y-71824502D01*
X155696968Y-71850567D01*
X155701693Y-71856835D01*
X155711545Y-71871783D01*
X155720598Y-71885519D01*
X155763978Y-71928899D01*
X155767169Y-71932343D01*
X155807131Y-71978892D01*
X155807130Y-71978892D01*
X155834299Y-71999923D01*
X155840186Y-72005107D01*
X156570483Y-72735403D01*
X156672899Y-72837819D01*
X156706384Y-72899142D01*
X156701400Y-72968833D01*
X156659528Y-73024767D01*
X156594064Y-73049184D01*
X156585218Y-73049500D01*
X156462717Y-73049500D01*
X156373637Y-73047243D01*
X156373628Y-73047243D01*
X156320636Y-73056741D01*
X156313254Y-73058064D01*
X156308595Y-73058718D01*
X156247564Y-73064925D01*
X156247562Y-73064926D01*
X156214780Y-73075210D01*
X156207156Y-73077081D01*
X156199308Y-73078488D01*
X156173349Y-73083141D01*
X156116381Y-73105895D01*
X156111945Y-73107474D01*
X156053414Y-73125840D01*
X156053410Y-73125842D01*
X156023378Y-73142510D01*
X156016284Y-73145879D01*
X155984382Y-73158623D01*
X155984377Y-73158625D01*
X155933156Y-73192381D01*
X155929128Y-73194822D01*
X155875501Y-73224588D01*
X155849434Y-73246965D01*
X155843165Y-73251692D01*
X155814481Y-73270597D01*
X155814477Y-73270601D01*
X155771112Y-73313967D01*
X155767656Y-73317169D01*
X155721105Y-73357134D01*
X155700076Y-73384299D01*
X155694885Y-73390192D01*
X155121899Y-73963181D01*
X155060576Y-73996666D01*
X155034218Y-73999500D01*
X151539196Y-73999500D01*
X151472157Y-73979815D01*
X151426402Y-73927011D01*
X151416458Y-73857853D01*
X151445483Y-73794297D01*
X151486791Y-73763118D01*
X151542192Y-73737284D01*
X151677830Y-73674035D01*
X151871401Y-73538495D01*
X152038495Y-73371401D01*
X152174035Y-73177830D01*
X152273903Y-72963663D01*
X152335063Y-72735408D01*
X152355659Y-72500000D01*
X152335063Y-72264592D01*
X152273903Y-72036337D01*
X152174035Y-71822171D01*
X152168425Y-71814158D01*
X152038494Y-71628597D01*
X151871402Y-71461506D01*
X151871401Y-71461505D01*
X151685405Y-71331269D01*
X151641781Y-71276692D01*
X151634588Y-71207193D01*
X151666110Y-71144839D01*
X151685405Y-71128119D01*
X151761373Y-71074925D01*
X151259116Y-70572669D01*
X151225631Y-70511346D01*
X151230615Y-70441655D01*
X151267640Y-70392193D01*
X151266398Y-70390759D01*
X151273100Y-70384952D01*
X151381761Y-70290798D01*
X151416954Y-70236037D01*
X151469755Y-70190283D01*
X151538914Y-70180339D01*
X151602470Y-70209363D01*
X151608949Y-70215396D01*
X152114925Y-70721373D01*
X152114926Y-70721373D01*
X152173598Y-70637582D01*
X152173600Y-70637578D01*
X152273429Y-70423492D01*
X152273433Y-70423483D01*
X152334567Y-70195326D01*
X152334569Y-70195315D01*
X152355157Y-69960001D01*
X152355157Y-69959998D01*
X152334569Y-69724684D01*
X152334567Y-69724673D01*
X152273433Y-69496516D01*
X152273429Y-69496507D01*
X152173600Y-69282423D01*
X152173599Y-69282421D01*
X152114925Y-69198626D01*
X152114925Y-69198625D01*
X151608949Y-69704602D01*
X151547626Y-69738087D01*
X151477934Y-69733103D01*
X151422001Y-69691231D01*
X151416953Y-69683961D01*
X151381761Y-69629202D01*
X151266398Y-69529241D01*
X151268708Y-69526574D01*
X151234005Y-69486528D01*
X151224058Y-69417370D01*
X151253080Y-69353813D01*
X151259116Y-69347330D01*
X151761373Y-68845073D01*
X151761373Y-68845072D01*
X151685405Y-68791880D01*
X151641780Y-68737304D01*
X151634586Y-68667805D01*
X151666108Y-68605451D01*
X151685399Y-68588734D01*
X151871401Y-68458495D01*
X152038495Y-68291401D01*
X152174035Y-68097830D01*
X152273903Y-67883663D01*
X152335063Y-67655408D01*
X152355659Y-67420000D01*
X152335063Y-67184592D01*
X152273903Y-66956337D01*
X152174035Y-66742171D01*
X152168425Y-66734158D01*
X152038494Y-66548597D01*
X151871402Y-66381506D01*
X151871401Y-66381505D01*
X151685405Y-66251269D01*
X151641781Y-66196692D01*
X151634588Y-66127193D01*
X151666110Y-66064839D01*
X151685405Y-66048119D01*
X151761373Y-65994925D01*
X151259116Y-65492669D01*
X151225631Y-65431346D01*
X151230615Y-65361655D01*
X151267640Y-65312193D01*
X151266398Y-65310759D01*
X151323107Y-65261621D01*
X151381761Y-65210798D01*
X151416954Y-65156037D01*
X151469755Y-65110283D01*
X151538914Y-65100339D01*
X151602470Y-65129363D01*
X151608949Y-65135396D01*
X152114925Y-65641373D01*
X152114926Y-65641373D01*
X152173598Y-65557582D01*
X152173600Y-65557578D01*
X152273429Y-65343492D01*
X152273433Y-65343483D01*
X152334567Y-65115326D01*
X152334569Y-65115315D01*
X152355157Y-64880001D01*
X152355157Y-64879998D01*
X152334569Y-64644684D01*
X152334567Y-64644673D01*
X152273433Y-64416516D01*
X152273429Y-64416507D01*
X152173600Y-64202423D01*
X152173599Y-64202421D01*
X152114925Y-64118626D01*
X152114925Y-64118625D01*
X151608949Y-64624602D01*
X151547626Y-64658087D01*
X151477934Y-64653103D01*
X151422001Y-64611231D01*
X151416953Y-64603961D01*
X151381761Y-64549202D01*
X151266398Y-64449241D01*
X151268708Y-64446574D01*
X151234005Y-64406528D01*
X151224058Y-64337370D01*
X151253080Y-64273813D01*
X151259116Y-64267330D01*
X151761373Y-63765073D01*
X151761373Y-63765072D01*
X151685405Y-63711880D01*
X151641780Y-63657304D01*
X151634586Y-63587805D01*
X151666108Y-63525451D01*
X151685399Y-63508734D01*
X151871401Y-63378495D01*
X152038495Y-63211401D01*
X152174035Y-63017830D01*
X152273903Y-62803663D01*
X152335063Y-62575408D01*
X152355659Y-62340000D01*
X152335063Y-62104592D01*
X152273903Y-61876337D01*
X152174035Y-61662171D01*
X152041527Y-61472928D01*
X152038494Y-61468597D01*
X151871402Y-61301506D01*
X151871395Y-61301501D01*
X151677834Y-61165967D01*
X151677830Y-61165965D01*
X151637777Y-61147288D01*
X151463663Y-61066097D01*
X151463659Y-61066096D01*
X151463655Y-61066094D01*
X151235413Y-61004938D01*
X151235403Y-61004936D01*
X151000001Y-60984341D01*
X150999999Y-60984341D01*
X150764596Y-61004936D01*
X150764586Y-61004938D01*
X150536344Y-61066094D01*
X150536335Y-61066098D01*
X150322171Y-61165964D01*
X150322169Y-61165965D01*
X150128597Y-61301505D01*
X149961503Y-61468599D01*
X149960349Y-61469975D01*
X149959688Y-61470414D01*
X149957676Y-61472427D01*
X149957271Y-61472022D01*
X149902173Y-61508671D01*
X149832312Y-61509772D01*
X149772946Y-61472928D01*
X149747663Y-61429265D01*
X149744814Y-61420666D01*
X149652712Y-61271344D01*
X149528656Y-61147288D01*
X149435888Y-61090069D01*
X149379336Y-61055187D01*
X149379331Y-61055185D01*
X149377862Y-61054698D01*
X149212797Y-61000001D01*
X149212795Y-61000000D01*
X149110010Y-60989500D01*
X147809998Y-60989500D01*
X147809981Y-60989501D01*
X147707203Y-61000000D01*
X147707200Y-61000001D01*
X147540668Y-61055185D01*
X147540663Y-61055187D01*
X147391342Y-61147289D01*
X147267289Y-61271342D01*
X147175187Y-61420663D01*
X147175185Y-61420668D01*
X147158701Y-61470414D01*
X147120001Y-61587203D01*
X147120001Y-61587204D01*
X147120000Y-61587204D01*
X147109500Y-61689983D01*
X147109500Y-62990001D01*
X147109501Y-62990018D01*
X147120000Y-63092796D01*
X147120001Y-63092799D01*
X147175185Y-63259331D01*
X147175187Y-63259336D01*
X147182446Y-63271105D01*
X147267288Y-63408656D01*
X147391344Y-63532712D01*
X147540666Y-63624814D01*
X147549264Y-63627663D01*
X147606707Y-63667433D01*
X147633531Y-63731948D01*
X147621217Y-63800724D01*
X147592234Y-63837483D01*
X147592427Y-63837676D01*
X147590798Y-63839304D01*
X147589975Y-63840349D01*
X147588599Y-63841503D01*
X147421505Y-64008597D01*
X147285965Y-64202169D01*
X147285964Y-64202171D01*
X147226985Y-64328653D01*
X147186991Y-64414421D01*
X147186098Y-64416335D01*
X147186094Y-64416344D01*
X147124938Y-64644586D01*
X147124936Y-64644596D01*
X147104341Y-64879999D01*
X147104341Y-64880000D01*
X147124936Y-65115403D01*
X147124938Y-65115413D01*
X147186094Y-65343655D01*
X147186096Y-65343659D01*
X147186097Y-65343663D01*
X147261628Y-65505639D01*
X147285965Y-65557830D01*
X147285967Y-65557834D01*
X147343419Y-65639883D01*
X147421501Y-65751396D01*
X147421506Y-65751402D01*
X147588597Y-65918493D01*
X147588603Y-65918498D01*
X147774158Y-66048425D01*
X147817783Y-66103002D01*
X147824977Y-66172500D01*
X147793454Y-66234855D01*
X147774158Y-66251575D01*
X147588597Y-66381505D01*
X147421505Y-66548597D01*
X147285965Y-66742169D01*
X147285964Y-66742171D01*
X147186098Y-66956335D01*
X147186094Y-66956344D01*
X147124938Y-67184586D01*
X147124936Y-67184596D01*
X147104341Y-67419999D01*
X147104341Y-67420000D01*
X147124936Y-67655403D01*
X147124938Y-67655413D01*
X147186094Y-67883655D01*
X147186096Y-67883659D01*
X147186097Y-67883663D01*
X147250183Y-68021095D01*
X147285965Y-68097830D01*
X147285967Y-68097834D01*
X147355112Y-68196582D01*
X147421501Y-68291396D01*
X147421506Y-68291402D01*
X147588597Y-68458493D01*
X147588603Y-68458498D01*
X147774158Y-68588425D01*
X147817783Y-68643002D01*
X147824977Y-68712500D01*
X147793454Y-68774855D01*
X147774158Y-68791575D01*
X147588597Y-68921505D01*
X147421505Y-69088597D01*
X147285965Y-69282169D01*
X147285964Y-69282171D01*
X147186098Y-69496335D01*
X147186094Y-69496344D01*
X147124938Y-69724586D01*
X147124936Y-69724596D01*
X147104341Y-69959999D01*
X147104341Y-69960000D01*
X147124936Y-70195403D01*
X147124938Y-70195413D01*
X147186094Y-70423655D01*
X147186096Y-70423659D01*
X147186097Y-70423663D01*
X147260265Y-70582717D01*
X147285965Y-70637830D01*
X147285967Y-70637834D01*
X147344462Y-70721373D01*
X147421501Y-70831396D01*
X147421506Y-70831402D01*
X147588597Y-70998493D01*
X147588603Y-70998498D01*
X147774158Y-71128425D01*
X147817783Y-71183002D01*
X147824977Y-71252500D01*
X147793454Y-71314855D01*
X147774158Y-71331575D01*
X147588597Y-71461505D01*
X147421505Y-71628597D01*
X147285965Y-71822169D01*
X147285964Y-71822171D01*
X147205176Y-71995423D01*
X147188769Y-72030608D01*
X147186098Y-72036335D01*
X147186094Y-72036344D01*
X147124938Y-72264586D01*
X147124936Y-72264596D01*
X147104341Y-72499999D01*
X147104341Y-72500000D01*
X147124936Y-72735403D01*
X147124938Y-72735413D01*
X147186094Y-72963655D01*
X147186096Y-72963659D01*
X147186097Y-72963663D01*
X147261722Y-73125840D01*
X147285965Y-73177830D01*
X147285967Y-73177834D01*
X147350921Y-73270597D01*
X147421505Y-73371401D01*
X147588599Y-73538495D01*
X147685384Y-73606264D01*
X147782165Y-73674032D01*
X147782167Y-73674033D01*
X147782170Y-73674035D01*
X147917808Y-73737284D01*
X147973209Y-73763118D01*
X148025648Y-73809290D01*
X148044800Y-73876484D01*
X148024584Y-73943365D01*
X147971419Y-73988700D01*
X147920804Y-73999500D01*
X145715783Y-73999500D01*
X145648744Y-73979815D01*
X145628102Y-73963181D01*
X145036819Y-73371898D01*
X145003334Y-73310575D01*
X145000500Y-73284217D01*
X145000500Y-67662698D01*
X145002757Y-67573641D01*
X145002756Y-67573640D01*
X145002757Y-67573637D01*
X144991933Y-67513249D01*
X144991280Y-67508587D01*
X144985074Y-67447563D01*
X144985074Y-67447562D01*
X144974784Y-67414768D01*
X144972917Y-67407155D01*
X144972634Y-67405578D01*
X144966858Y-67373347D01*
X144944100Y-67316374D01*
X144942521Y-67311938D01*
X144926610Y-67261226D01*
X144924159Y-67253412D01*
X144924158Y-67253410D01*
X144924157Y-67253407D01*
X144907488Y-67223378D01*
X144904117Y-67216278D01*
X144891378Y-67184386D01*
X144891377Y-67184383D01*
X144857620Y-67133163D01*
X144855180Y-67129134D01*
X144832231Y-67087789D01*
X144825409Y-67075498D01*
X144825407Y-67075495D01*
X144803033Y-67049434D01*
X144798302Y-67043159D01*
X144779402Y-67014481D01*
X144736033Y-66971112D01*
X144732829Y-66967656D01*
X144719323Y-66951924D01*
X144692866Y-66921105D01*
X144692863Y-66921103D01*
X144692860Y-66921099D01*
X144665706Y-66900081D01*
X144659811Y-66894889D01*
X144549897Y-66784977D01*
X144521580Y-66756660D01*
X144403407Y-66660302D01*
X144223049Y-66566091D01*
X144206340Y-66561310D01*
X144063257Y-66520368D01*
X144027418Y-66510113D01*
X144027417Y-66510112D01*
X144027416Y-66510112D01*
X143824525Y-66494662D01*
X143824522Y-66494662D01*
X143622678Y-66520368D01*
X143622670Y-66520370D01*
X143430129Y-66586183D01*
X143430117Y-66586189D01*
X143254778Y-66689406D01*
X143254771Y-66689411D01*
X143103787Y-66825820D01*
X143103787Y-66825821D01*
X142983353Y-66989828D01*
X142983349Y-66989835D01*
X142898397Y-67174725D01*
X142898393Y-67174737D01*
X142852396Y-67372945D01*
X142847242Y-67576358D01*
X142883140Y-67776648D01*
X142883142Y-67776654D01*
X142956177Y-67959493D01*
X142958623Y-67965617D01*
X142977572Y-67994369D01*
X142979035Y-67996588D01*
X142999492Y-68063396D01*
X142999500Y-68064826D01*
X142999500Y-73737283D01*
X142997243Y-73826362D01*
X142997243Y-73826370D01*
X143008064Y-73886739D01*
X143008718Y-73891404D01*
X143014925Y-73952430D01*
X143014927Y-73952444D01*
X143025208Y-73985213D01*
X143027079Y-73992837D01*
X143033142Y-74026652D01*
X143033142Y-74026655D01*
X143044688Y-74055559D01*
X143052788Y-74075838D01*
X143055894Y-74083612D01*
X143057474Y-74088051D01*
X143075841Y-74146588D01*
X143075844Y-74146595D01*
X143092509Y-74176619D01*
X143095879Y-74183714D01*
X143108622Y-74215614D01*
X143108627Y-74215624D01*
X143122680Y-74236947D01*
X143138681Y-74261226D01*
X143142377Y-74266833D01*
X143144818Y-74270863D01*
X143174588Y-74324498D01*
X143174589Y-74324499D01*
X143174591Y-74324502D01*
X143196968Y-74350567D01*
X143201693Y-74356835D01*
X143214263Y-74375906D01*
X143220598Y-74385519D01*
X143263978Y-74428899D01*
X143267169Y-74432343D01*
X143307131Y-74478892D01*
X143307130Y-74478892D01*
X143334299Y-74499923D01*
X143340186Y-74505107D01*
X143851936Y-75016856D01*
X144122899Y-75287819D01*
X144156384Y-75349142D01*
X144151400Y-75418833D01*
X144109528Y-75474767D01*
X144044064Y-75499184D01*
X144035218Y-75499500D01*
X142465783Y-75499500D01*
X142398744Y-75479815D01*
X142378102Y-75463181D01*
X141216451Y-74301531D01*
X141155061Y-74236949D01*
X141155060Y-74236948D01*
X141155059Y-74236947D01*
X141124409Y-74215614D01*
X141104709Y-74201902D01*
X141100946Y-74199064D01*
X141053413Y-74160305D01*
X141053406Y-74160300D01*
X141022959Y-74144397D01*
X141016251Y-74140334D01*
X140988049Y-74120705D01*
X140988046Y-74120703D01*
X140988045Y-74120703D01*
X140988041Y-74120701D01*
X140931680Y-74096514D01*
X140927424Y-74094493D01*
X140873057Y-74066094D01*
X140873050Y-74066091D01*
X140873049Y-74066091D01*
X140867008Y-74064362D01*
X140840030Y-74056642D01*
X140832630Y-74054008D01*
X140801057Y-74040459D01*
X140801058Y-74040459D01*
X140740966Y-74028109D01*
X140736391Y-74026986D01*
X140677420Y-74010113D01*
X140677425Y-74010113D01*
X140643158Y-74007503D01*
X140635380Y-74006412D01*
X140601742Y-73999500D01*
X140601741Y-73999500D01*
X140540402Y-73999500D01*
X140535695Y-73999321D01*
X140530121Y-73998896D01*
X140474524Y-73994662D01*
X140454589Y-73997201D01*
X140440440Y-73999003D01*
X140432611Y-73999500D01*
X136912717Y-73999500D01*
X136868176Y-73998371D01*
X136823637Y-73997243D01*
X136823636Y-73997243D01*
X136823627Y-73997243D01*
X136763253Y-74008065D01*
X136758587Y-74008719D01*
X136697563Y-74014925D01*
X136697562Y-74014925D01*
X136664786Y-74025208D01*
X136657159Y-74027080D01*
X136623350Y-74033140D01*
X136623347Y-74033141D01*
X136566368Y-74055899D01*
X136561931Y-74057478D01*
X136503417Y-74075838D01*
X136503410Y-74075841D01*
X136491567Y-74082414D01*
X136423397Y-74097732D01*
X136382664Y-74088012D01*
X136289231Y-74048078D01*
X136289232Y-74048078D01*
X136289229Y-74048077D01*
X136289223Y-74048075D01*
X136289221Y-74048075D01*
X136143982Y-74014925D01*
X136069076Y-73997828D01*
X136056050Y-73997243D01*
X135843493Y-73987696D01*
X135717193Y-74004805D01*
X135619719Y-74018009D01*
X135619716Y-74018009D01*
X135619715Y-74018010D01*
X135404955Y-74087789D01*
X135206108Y-74194794D01*
X135206105Y-74194796D01*
X135029560Y-74335586D01*
X134880988Y-74505639D01*
X134765166Y-74699493D01*
X134685819Y-74910908D01*
X134645500Y-75133090D01*
X134645500Y-75928253D01*
X134625815Y-75995292D01*
X134573011Y-76041047D01*
X134503853Y-76050991D01*
X134493908Y-76049144D01*
X134269077Y-75997828D01*
X134043493Y-75987696D01*
X133917193Y-76004805D01*
X133819719Y-76018009D01*
X133819716Y-76018009D01*
X133819715Y-76018010D01*
X133604955Y-76087789D01*
X133406108Y-76194794D01*
X133406105Y-76194796D01*
X133229560Y-76335586D01*
X133080988Y-76505639D01*
X132965166Y-76699493D01*
X132885819Y-76910908D01*
X132845499Y-77133090D01*
X132845500Y-78810337D01*
X132845500Y-78810339D01*
X132860670Y-78978906D01*
X132920741Y-79196570D01*
X132920747Y-79196585D01*
X132991677Y-79343873D01*
X133003029Y-79412814D01*
X132975307Y-79476949D01*
X132917311Y-79515914D01*
X132847456Y-79517339D01*
X132792276Y-79485355D01*
X131436819Y-78129898D01*
X131403334Y-78068575D01*
X131400500Y-78042217D01*
X131400500Y-77805203D01*
X131400500Y-77559562D01*
X131418052Y-77495966D01*
X131419011Y-77494359D01*
X131419014Y-77494357D01*
X131534834Y-77300507D01*
X131614180Y-77089092D01*
X131630448Y-76999447D01*
X131654500Y-76866909D01*
X131654500Y-75189662D01*
X131654500Y-75189657D01*
X131639329Y-75021095D01*
X131639329Y-75021093D01*
X131579258Y-74803429D01*
X131579252Y-74803414D01*
X131481280Y-74599973D01*
X131481276Y-74599965D01*
X131348551Y-74417284D01*
X131348550Y-74417282D01*
X131315328Y-74385519D01*
X131227484Y-74301531D01*
X131185328Y-74261226D01*
X130996874Y-74136828D01*
X130905403Y-74097732D01*
X130789229Y-74048077D01*
X130789222Y-74048075D01*
X130789221Y-74048075D01*
X130643982Y-74014925D01*
X130569076Y-73997828D01*
X130556050Y-73997243D01*
X130343493Y-73987696D01*
X130217193Y-74004805D01*
X130119719Y-74018009D01*
X130119716Y-74018009D01*
X130119715Y-74018010D01*
X129904955Y-74087789D01*
X129706108Y-74194794D01*
X129706105Y-74194796D01*
X129529560Y-74335586D01*
X129380988Y-74505639D01*
X129265166Y-74699493D01*
X129185819Y-74910908D01*
X129145499Y-75133090D01*
X129145500Y-76316165D01*
X129125815Y-76383204D01*
X129073011Y-76428959D01*
X129003853Y-76438903D01*
X128940297Y-76409878D01*
X128935808Y-76405791D01*
X128785018Y-76261621D01*
X128596636Y-76137270D01*
X128389072Y-76048554D01*
X128389066Y-76048552D01*
X128250000Y-76016811D01*
X128249999Y-76016811D01*
X128249999Y-76886653D01*
X128230314Y-76953693D01*
X128177510Y-76999447D01*
X128108352Y-77009391D01*
X128091064Y-77005630D01*
X128071890Y-77000000D01*
X128071889Y-77000000D01*
X127928111Y-77000000D01*
X127928110Y-77000000D01*
X127908931Y-77005631D01*
X127839062Y-77005629D01*
X127780284Y-76967854D01*
X127751261Y-76904297D01*
X127749999Y-76886653D01*
X127749999Y-76014411D01*
X127749998Y-76014411D01*
X127719827Y-76018498D01*
X127505154Y-76088250D01*
X127306385Y-76195213D01*
X127306376Y-76195219D01*
X127129912Y-76335944D01*
X127129897Y-76335958D01*
X126981392Y-76505937D01*
X126981391Y-76505939D01*
X126865621Y-76699703D01*
X126865619Y-76699708D01*
X126786303Y-76911041D01*
X126746000Y-77133135D01*
X126746000Y-77750000D01*
X127376000Y-77750000D01*
X127443039Y-77769685D01*
X127488794Y-77822489D01*
X127500000Y-77874000D01*
X127500000Y-78126000D01*
X127480315Y-78193039D01*
X127427511Y-78238794D01*
X127376000Y-78250000D01*
X126746000Y-78250000D01*
X126746000Y-78810316D01*
X124500500Y-78810316D01*
X124500500Y-46000000D01*
X125995176Y-46000000D01*
X126014461Y-46392550D01*
X126072129Y-46781308D01*
X126167625Y-47162549D01*
X126300016Y-47532559D01*
X126300023Y-47532575D01*
X126468062Y-47887864D01*
X126670109Y-48224958D01*
X126904228Y-48540632D01*
X127000068Y-48646376D01*
X127000069Y-48646376D01*
X127715151Y-47931294D01*
X127776474Y-47897809D01*
X127846165Y-47902793D01*
X127902099Y-47944665D01*
X127905934Y-47950084D01*
X127963605Y-48036395D01*
X128049913Y-48094064D01*
X128094719Y-48147676D01*
X128103426Y-48217001D01*
X128073272Y-48280028D01*
X128068704Y-48284847D01*
X127353622Y-48999929D01*
X127353622Y-48999930D01*
X127459367Y-49095771D01*
X127775041Y-49329890D01*
X128112135Y-49531937D01*
X128467424Y-49699976D01*
X128467440Y-49699983D01*
X128837450Y-49832374D01*
X129218691Y-49927870D01*
X129607449Y-49985538D01*
X130000000Y-50004823D01*
X130392550Y-49985538D01*
X130781308Y-49927870D01*
X131162549Y-49832374D01*
X131532559Y-49699983D01*
X131532575Y-49699976D01*
X131887864Y-49531937D01*
X132224958Y-49329890D01*
X132540632Y-49095770D01*
X132646376Y-48999929D01*
X131931295Y-48284848D01*
X131897810Y-48223525D01*
X131902794Y-48153833D01*
X131944666Y-48097900D01*
X131950085Y-48094065D01*
X131953698Y-48091650D01*
X131953700Y-48091650D01*
X132036395Y-48036395D01*
X132091650Y-47953700D01*
X132091650Y-47953698D01*
X132094065Y-47950085D01*
X132147677Y-47905280D01*
X132217002Y-47896573D01*
X132280029Y-47926727D01*
X132284848Y-47931295D01*
X132999929Y-48646376D01*
X133095770Y-48540632D01*
X133329890Y-48224958D01*
X133531937Y-47887864D01*
X133699976Y-47532575D01*
X133699983Y-47532559D01*
X133832374Y-47162549D01*
X133927870Y-46781308D01*
X133985538Y-46392550D01*
X134004823Y-46000000D01*
X162995176Y-46000000D01*
X163014461Y-46392550D01*
X163072129Y-46781308D01*
X163167625Y-47162549D01*
X163300016Y-47532559D01*
X163300023Y-47532575D01*
X163468062Y-47887864D01*
X163670109Y-48224958D01*
X163904228Y-48540632D01*
X164000068Y-48646376D01*
X164000069Y-48646376D01*
X164715151Y-47931294D01*
X164776474Y-47897809D01*
X164846165Y-47902793D01*
X164902099Y-47944665D01*
X164905934Y-47950084D01*
X164963605Y-48036395D01*
X165049913Y-48094064D01*
X165094719Y-48147676D01*
X165103426Y-48217001D01*
X165073272Y-48280028D01*
X165068704Y-48284847D01*
X164353622Y-48999929D01*
X164353622Y-48999930D01*
X164459367Y-49095771D01*
X164775041Y-49329890D01*
X165112135Y-49531937D01*
X165467424Y-49699976D01*
X165467440Y-49699983D01*
X165837450Y-49832374D01*
X166218691Y-49927870D01*
X166607449Y-49985538D01*
X167000000Y-50004823D01*
X167392550Y-49985538D01*
X167781308Y-49927870D01*
X168162549Y-49832374D01*
X168532559Y-49699983D01*
X168532575Y-49699976D01*
X168887864Y-49531937D01*
X169224958Y-49329890D01*
X169540632Y-49095770D01*
X169646376Y-48999929D01*
X168931295Y-48284848D01*
X168897810Y-48223525D01*
X168902794Y-48153833D01*
X168944666Y-48097900D01*
X168950085Y-48094065D01*
X168953698Y-48091650D01*
X168953700Y-48091650D01*
X169036395Y-48036395D01*
X169091650Y-47953700D01*
X169091650Y-47953698D01*
X169094065Y-47950085D01*
X169147677Y-47905280D01*
X169217002Y-47896573D01*
X169280029Y-47926727D01*
X169284848Y-47931295D01*
X169999929Y-48646376D01*
X170095770Y-48540632D01*
X170329890Y-48224958D01*
X170531937Y-47887864D01*
X170699976Y-47532575D01*
X170699983Y-47532559D01*
X170832374Y-47162549D01*
X170927870Y-46781308D01*
X170985538Y-46392550D01*
X171004823Y-46000000D01*
X170985538Y-45607449D01*
X170927870Y-45218691D01*
X170832374Y-44837450D01*
X170699983Y-44467440D01*
X170699976Y-44467424D01*
X170531937Y-44112135D01*
X170329890Y-43775041D01*
X170095771Y-43459367D01*
X169999930Y-43353622D01*
X169999929Y-43353622D01*
X169284847Y-44068704D01*
X169223524Y-44102189D01*
X169153832Y-44097205D01*
X169097899Y-44055333D01*
X169094064Y-44049913D01*
X169036395Y-43963605D01*
X168950084Y-43905934D01*
X168905279Y-43852322D01*
X168896572Y-43782997D01*
X168926726Y-43719969D01*
X168931294Y-43715151D01*
X169646376Y-43000069D01*
X169646376Y-43000068D01*
X169540632Y-42904228D01*
X169224958Y-42670109D01*
X168887864Y-42468062D01*
X168532575Y-42300023D01*
X168532559Y-42300016D01*
X168162549Y-42167625D01*
X167781308Y-42072129D01*
X167392550Y-42014461D01*
X167000000Y-41995176D01*
X166607449Y-42014461D01*
X166218691Y-42072129D01*
X165837450Y-42167625D01*
X165467440Y-42300016D01*
X165467424Y-42300023D01*
X165112135Y-42468062D01*
X164775041Y-42670109D01*
X164459368Y-42904228D01*
X164353622Y-43000069D01*
X165068704Y-43715151D01*
X165102189Y-43776474D01*
X165097205Y-43846166D01*
X165055333Y-43902099D01*
X165049915Y-43905933D01*
X164963605Y-43963604D01*
X164963604Y-43963605D01*
X164905933Y-44049915D01*
X164852321Y-44094719D01*
X164782996Y-44103426D01*
X164719969Y-44073271D01*
X164715151Y-44068704D01*
X164000069Y-43353622D01*
X163904228Y-43459368D01*
X163670109Y-43775041D01*
X163468062Y-44112135D01*
X163300023Y-44467424D01*
X163300016Y-44467440D01*
X163167625Y-44837450D01*
X163072129Y-45218691D01*
X163014461Y-45607449D01*
X162995176Y-46000000D01*
X134004823Y-46000000D01*
X133985538Y-45607449D01*
X133927870Y-45218691D01*
X133832374Y-44837450D01*
X133699983Y-44467440D01*
X133699976Y-44467424D01*
X133531937Y-44112135D01*
X133329890Y-43775041D01*
X133095771Y-43459367D01*
X132999930Y-43353622D01*
X132999929Y-43353622D01*
X132284847Y-44068704D01*
X132223524Y-44102189D01*
X132153832Y-44097205D01*
X132097899Y-44055333D01*
X132094064Y-44049913D01*
X132036395Y-43963605D01*
X131950084Y-43905934D01*
X131905279Y-43852322D01*
X131896572Y-43782997D01*
X131926726Y-43719969D01*
X131931294Y-43715151D01*
X132646376Y-43000069D01*
X132646376Y-43000068D01*
X132540632Y-42904228D01*
X132224958Y-42670109D01*
X131887864Y-42468062D01*
X131532575Y-42300023D01*
X131532559Y-42300016D01*
X131162549Y-42167625D01*
X130781308Y-42072129D01*
X130392550Y-42014461D01*
X130000000Y-41995176D01*
X129607449Y-42014461D01*
X129218691Y-42072129D01*
X128837450Y-42167625D01*
X128467440Y-42300016D01*
X128467424Y-42300023D01*
X128112135Y-42468062D01*
X127775041Y-42670109D01*
X127459368Y-42904228D01*
X127353622Y-43000069D01*
X128068704Y-43715151D01*
X128102189Y-43776474D01*
X128097205Y-43846166D01*
X128055333Y-43902099D01*
X128049915Y-43905933D01*
X127963605Y-43963604D01*
X127963604Y-43963605D01*
X127905933Y-44049915D01*
X127852321Y-44094719D01*
X127782996Y-44103426D01*
X127719969Y-44073271D01*
X127715151Y-44068704D01*
X127000069Y-43353622D01*
X126904228Y-43459368D01*
X126670109Y-43775041D01*
X126468062Y-44112135D01*
X126300023Y-44467424D01*
X126300016Y-44467440D01*
X126167625Y-44837450D01*
X126072129Y-45218691D01*
X126014461Y-45607449D01*
X125995176Y-46000000D01*
X124500500Y-46000000D01*
X124500500Y-41124500D01*
X124520185Y-41057461D01*
X124572989Y-41011706D01*
X124624500Y-41000500D01*
X174375500Y-41000500D01*
X174442539Y-41020185D01*
G37*
G04 #@! TD.AperFunction*
M02*
