M48
; DRILL file {KiCad 7.0.7} date Sun Nov  5 15:47:59 2023
; FORMAT={-:-/ absolute / metric / decimal}
; #@! TF.CreationDate,2023-11-05T15:47:59+01:00
; #@! TF.GenerationSoftware,Kicad,Pcbnew,7.0.7
; #@! TF.FileFunction,Plated,1,2,PTH
FMAT,2
METRIC
; #@! TA.AperFunction,Plated,PTH,ViaDrill
T1C0.400
; #@! TA.AperFunction,Plated,PTH,ComponentDrill
T2C0.500
; #@! TA.AperFunction,Plated,PTH,ComponentDrill
T3C1.000
; #@! TA.AperFunction,Plated,PTH,ComponentDrill
T4C3.500
%
G90
G05
T1
X130.0Y-61.0
X130.0Y-72.5
X130.0Y-90.0
X135.0Y-42.5
X135.0Y-72.5
X135.0Y-90.0
X140.0Y-42.5
X140.0Y-53.0
X140.0Y-72.5
X140.0Y-90.0
X143.5Y-53.0
X143.85Y-67.5
X144.0Y-69.462
X145.0Y-42.5
X145.0Y-80.0
X145.0Y-90.0
X150.0Y-42.5
X150.0Y-90.0
X155.0Y-42.5
X155.0Y-90.0
X160.0Y-42.5
X160.0Y-90.0
X165.0Y-90.0
X168.75Y-72.0
X170.0Y-90.0
X172.5Y-42.5
X173.0Y-72.0
T2
X127.375Y-46.0
X127.519Y-86.144
X128.144Y-44.144
X128.144Y-47.856
X128.288Y-84.288
X128.288Y-88.0
X130.0Y-43.375
X130.0Y-48.625
X130.144Y-83.519
X130.144Y-88.769
X131.856Y-44.144
X131.856Y-47.856
X132.0Y-84.288
X132.0Y-88.0
X132.625Y-46.0
X132.769Y-86.144
X164.375Y-46.0
X164.375Y-86.0
X165.144Y-44.144
X165.144Y-47.856
X165.144Y-84.144
X165.144Y-87.856
X167.0Y-43.375
X167.0Y-48.625
X167.0Y-83.375
X167.0Y-88.625
X168.856Y-44.144
X168.856Y-47.856
X168.856Y-84.144
X168.856Y-87.856
X169.625Y-46.0
X169.625Y-86.0
T3
X148.46Y-62.34
X148.46Y-64.88
X148.46Y-67.42
X148.46Y-69.96
X148.46Y-72.5
X151.0Y-62.34
X151.0Y-64.88
X151.0Y-67.42
X151.0Y-69.96
X151.0Y-72.5
T4
X130.0Y-46.0
X130.0Y-86.0
X167.0Y-46.0
X167.0Y-86.0
T3
X128.0Y-55.5G85X128.0Y-56.5
G05
X128.0Y-66.5G85X128.0Y-67.5
G05
X128.0Y-77.5G85X128.0Y-78.5
G05
X130.4Y-53.5G85X130.4Y-54.5
G05
X130.4Y-64.5G85X130.4Y-65.5
G05
X130.4Y-75.5G85X130.4Y-76.5
G05
X134.1Y-55.5G85X134.1Y-56.5
G05
X134.1Y-66.5G85X134.1Y-67.5
G05
X134.1Y-77.5G85X134.1Y-78.5
G05
X135.9Y-53.5G85X135.9Y-54.5
G05
X135.9Y-64.5G85X135.9Y-65.5
G05
X135.9Y-75.5G85X135.9Y-76.5
G05
X139.6Y-55.5G85X139.6Y-56.5
G05
X139.6Y-66.5G85X139.6Y-67.5
G05
X139.6Y-77.5G85X139.6Y-78.5
G05
X159.4Y-56.5G85X159.4Y-55.5
G05
X159.4Y-67.5G85X159.4Y-66.5
G05
X159.4Y-78.5G85X159.4Y-77.5
G05
X163.1Y-58.5G85X163.1Y-57.5
G05
X163.1Y-69.5G85X163.1Y-68.5
G05
X163.1Y-80.5G85X163.1Y-79.5
G05
X164.9Y-56.5G85X164.9Y-55.5
G05
X164.9Y-67.5G85X164.9Y-66.5
G05
X164.9Y-78.5G85X164.9Y-77.5
G05
X168.6Y-58.5G85X168.6Y-57.5
G05
X168.6Y-69.5G85X168.6Y-68.5
G05
X168.6Y-80.5G85X168.6Y-79.5
G05
X171.0Y-56.5G85X171.0Y-55.5
G05
X171.0Y-67.5G85X171.0Y-66.5
G05
X171.0Y-78.5G85X171.0Y-77.5
G05
T0
M30
